<?xml version="1.0" encoding="utf-8"?>
<!-- Generator: Adobe Illustrator 16.0.3, SVG Export Plug-In . SVG Version: 6.00 Build 0)  -->
<!DOCTYPE svg PUBLIC "-//W3C//DTD SVG 1.1//EN" "http://www.w3.org/Graphics/SVG/1.1/DTD/svg11.dtd" [
	<!ENTITY ns_flows "http://ns.adobe.com/Flows/1.0/">
	<!ENTITY ns_extend "http://ns.adobe.com/Extensibility/1.0/">
	<!ENTITY ns_ai "http://ns.adobe.com/AdobeIllustrator/10.0/">
	<!ENTITY ns_graphs "http://ns.adobe.com/Graphs/1.0/">
]>
<svg version="1.1" id="Layer_1" xmlns:x="&ns_extend;" xmlns:i="&ns_ai;" xmlns:graph="&ns_graphs;"
	 xmlns="http://www.w3.org/2000/svg" xmlns:xlink="http://www.w3.org/1999/xlink" xmlns:a="http://ns.adobe.com/AdobeSVGViewerExtensions/3.0/"
	 x="0px" y="0px" width="2101px" height="2048px" viewBox="0 0 2101 2048" style="enable-background:new 0 0 2101 2048;"
	 xml:space="preserve">
<g>
	<path style="fill-rule:evenodd;clip-rule:evenodd;fill:#00005B;" d="M2104,366c0,440.667,0,881.333,0,1322
		c-2.801,3.831-2.104,8.119-1.615,12.38c-0.201,4.574-1.052,9.142-0.164,13.729c-0.384,14.376-3.091,28.416-6.001,42.44
		c-32.066,154.51-163.013,273.707-320.22,291.451c-9.452-1.002-18.663,1.381-28,2c-462.667,0-925.333,0-1388,0
		c-9.326-0.616-18.524-2.984-27.965-2.041c-11.553-1.466-23.028-3.325-34.44-5.708c-150.971-31.526-267.604-155.869-290.06-309.072
		C5.912,1722.098,6.153,1710.668,2,1700c0-448.667,0-897.333,0-1346c1.369-6.119,3.22-12.138,3.66-18.445
		c0.674-9.641,2.137-19.177,4.072-28.636C35.773,179.608,108.074,88.774,225.658,33.996C261.854,17.133,300.41,8.435,339.953,3.87
		c3.284-0.046,6.568-0.092,9.853-0.138C355.324,4.279,360.762,4.072,366,2c458.667,0,917.333,0,1376,0
		c5.237,2.085,10.677,2.274,16.194,1.732c3.284,0.047,6.568,0.093,9.853,0.139c10.869,1.578,21.842,2.647,32.594,4.811
		c108.283,21.787,192.055,79.383,250.156,173.324c29.491,47.683,46.932,99.761,51.406,155.902
		c-0.825,4.596-0.031,9.172,0.156,13.756C2101.892,356.559,2101.37,361.46,2104,366z M682.227,529.554
		c-36.33,0-72.659-0.036-108.989,0.021c-11.103,0.018-13.127,1.826-13.039,12.666c0.238,29.326-5.628,57.349-15.316,85.017
		c-77.571,221.539-154.788,443.201-232.106,664.829c-15.793,45.27-31.638,90.521-47.277,135.843
		c-4.89,14.173-1.733,18.371,12.976,18.514c0.333,0.004,0.667,0.002,1,0.002c51.995,0,103.99,0.018,155.985-0.012
		c13.587-0.008,16.518-2.217,20.751-15.339c14.617-45.31,29.21-90.628,43.821-135.939c6.438-19.962,13.072-39.863,19.229-59.911
		c1.603-5.219,3.659-8.332,9.588-7.405c1.952,0.306,3.992,0.046,5.992,0.046c101.657,0,203.314,0.001,304.972-0.003
		c9.096,0,9.106-0.02,12.166,8.927c21.874,63.949,43.731,127.903,65.62,191.847c4.369,12.763,6.882,14.573,20.201,14.578
		c57.328,0.02,114.656,0.008,171.984-0.004c2.331,0,4.684,0.067,6.989-0.21c7.92-0.952,10.347-4.381,8.468-12.285
		c-0.843-3.549-2.219-6.979-3.453-10.427c-104.669-292.482-209.348-584.962-314.029-877.44
		c-4.602-12.856-5.127-13.287-18.541-13.301C753.554,529.529,717.891,529.554,682.227,529.554z M1742.054,1346.37
		c0-20.662,0.004-41.323-0.004-61.985c-0.001-2.665,0.135-5.35-0.128-7.992c-0.589-5.935-1.85-6.586-7.579-4.623
		c-10.073,3.452-20.013,7.449-30.295,10.106c-40.735,10.523-82.154,16.431-124.194,18.905
		c-44.452,2.617-86.887-4.748-127.698-22.219c-30.229-12.94-53.073-33.959-68.467-63.003c-8.952-16.892-14.896-34.839-18.505-53.608
		c-2.464-12.814-2.602-12.808,10.063-12.809c86.646-0.005,173.291-0.057,259.937,0.061c12.32,0.017,24.684,0.361,36.945,1.466
		c12.972,1.169,25.93,1.464,38.926,1.68c24.385,0.404,48.512-3.265,72.801-4.354c7.581-0.34,11.369-4.569,12.456-13.012
		c2.425-18.842,3.408-37.797,4.553-56.754c2.962-49.034-1.249-97.142-16.85-143.971c-14.087-42.287-34.981-80.803-66.007-112.956
		c-47.301-49.021-107.106-71.721-173.547-79.301c-29.269-3.339-58.591-2.171-87.828,0.335c-26.612,2.281-52.892,6.867-77.892,16.638
		c-55.434,21.665-100.431,57.145-136.197,104.479c-47.926,63.424-70.559,136.041-76.204,214.38
		c-3.788,52.567,1.33,104.47,15.946,155.28c19.887,69.135,57.229,126.454,115.311,169.518
		c52.229,38.724,112.203,55.795,176.018,61.156c48.622,4.084,97.199,3.137,145.57-3.846c36.346-5.247,72.084-12.875,106.146-27.098
		c14.934-6.235,16.666-8.613,16.709-24.488C1742.094,1387.693,1742.052,1367.032,1742.054,1346.37z"/>
	<path style="fill-rule:evenodd;clip-rule:evenodd;fill:#8282AF;" d="M332,2050c0.012-0.681,0.023-1.361,0.035-2.041
		c9.44-0.943,18.639,1.425,27.965,2.041C350.667,2050,341.333,2050,332,2050z"/>
	<path style="fill-rule:evenodd;clip-rule:evenodd;fill:#8282AF;" d="M1776,2048c0,0.667,0,1.333,0,2c-9.333,0-18.667,0-28,0
		C1757.337,2049.381,1766.548,2046.998,1776,2048z"/>
	<path style="fill-rule:evenodd;clip-rule:evenodd;fill:#63639B;" d="M366,2c-5.238,2.072-10.676,2.279-16.193,1.733
		C349.993,3.17,350.058,2.592,350,2C355.333,2,360.667,2,366,2z"/>
	<path style="fill-rule:evenodd;clip-rule:evenodd;fill:#63639B;" d="M1758.194,3.732C1752.677,4.274,1747.237,4.085,1742,2
		c5.333,0,10.667,0,16,0C1757.945,2.591,1758.01,3.169,1758.194,3.732z"/>
	<path style="fill-rule:evenodd;clip-rule:evenodd;fill:#AEAECB;" d="M2102.203,337.908c0.593,0.164,1.191,0.195,1.797,0.092
		c0,4.667,0,9.333,0,14c-0.496-0.36-1.043-0.473-1.641-0.336C2102.172,347.08,2101.378,342.504,2102.203,337.908z"/>
	<path style="fill-rule:evenodd;clip-rule:evenodd;fill:#4A4A8B;" d="M2102.359,351.664c0.598-0.137,1.145-0.024,1.641,0.336
		c0,4.667,0,9.333,0,14C2101.37,361.46,2101.892,356.559,2102.359,351.664z"/>
	<path style="fill-rule:evenodd;clip-rule:evenodd;fill:#A6A6C6;" d="M2104,1714l-0.895-0.021l-0.885,0.129
		c-0.888-4.587-0.037-9.154,0.164-13.729c-0.001,0,0.854,0.01,0.854,0.01L2104,1700C2104,1704.667,2104,1709.333,2104,1714z"/>
	<path style="fill-rule:evenodd;clip-rule:evenodd;fill:#434386;" d="M2104,1700l-0.761,0.39c0,0-0.855-0.01-0.854-0.01
		c-0.488-4.261-1.186-8.549,1.615-12.38C2104,1692,2104,1696,2104,1700z"/>
	<path style="fill-rule:evenodd;clip-rule:evenodd;fill:#BFBFD5;" d="M350,2c0.058,0.592-0.007,1.17-0.193,1.733
		c-3.285,0.045-6.569,0.091-9.854,0.137C340.029,3.248,340.045,2.625,340,2C343.333,2,346.667,2,350,2z"/>
	<path style="fill-rule:evenodd;clip-rule:evenodd;fill:#BFBFD5;" d="M1758.194,3.732C1758.01,3.169,1757.945,2.591,1758,2
		c3.333,0,6.667,0,10,0c-0.046,0.625-0.03,1.249,0.047,1.871C1764.763,3.825,1761.479,3.779,1758.194,3.732z"/>
	<path style="fill-rule:evenodd;clip-rule:evenodd;fill:#9898FE;" d="M682.227,529.554c35.664,0,71.327-0.024,106.99,0.013
		c13.414,0.014,13.939,0.444,18.541,13.301c104.682,292.479,209.36,584.958,314.029,877.44c1.234,3.448,2.61,6.878,3.453,10.427
		c1.879,7.904-0.548,11.333-8.468,12.285c-2.306,0.277-4.658,0.21-6.989,0.21c-57.328,0.012-114.656,0.023-171.984,0.004
		c-13.319-0.005-15.832-1.815-20.201-14.578c-21.889-63.943-43.746-127.897-65.62-191.847c-3.06-8.946-3.07-8.927-12.166-8.927
		c-101.657,0.004-203.314,0.003-304.972,0.003c-2,0-4.04,0.26-5.992-0.046c-5.929-0.927-7.985,2.187-9.588,7.405
		c-6.156,20.048-12.791,39.949-19.229,59.911c-14.611,45.312-29.204,90.63-43.821,135.939c-4.233,13.122-7.164,15.331-20.751,15.339
		c-51.995,0.029-103.99,0.012-155.985,0.012c-0.333,0-0.667,0.002-1-0.002c-14.709-0.143-17.866-4.341-12.976-18.514
		c15.639-45.322,31.484-90.573,47.277-135.843c77.318-221.628,154.535-443.29,232.106-664.829
		c9.688-27.668,15.555-55.69,15.316-85.017c-0.088-10.84,1.937-12.648,13.039-12.666
		C609.567,529.518,645.896,529.554,682.227,529.554z M794.986,1053.417c-38.56-121.713-78.373-241.45-112.788-363.156
		c-1.543,1.765-2.123,3.493-2.511,5.263c-8.191,37.405-17.904,74.406-29.863,110.789c-26.286,79.974-46.936,161.703-75.158,241.071
		c-0.663,1.866-1.402,3.773,0.027,6.033C647.376,1053.417,720.265,1053.417,794.986,1053.417z"/>
	<path style="fill-rule:evenodd;clip-rule:evenodd;fill:#9898FE;" d="M1742.053,1346.37c-0.001,20.662,0.041,41.323-0.015,61.985
		c-0.043,15.875-1.775,18.253-16.709,24.488c-34.062,14.223-69.8,21.851-106.146,27.098c-48.371,6.982-96.948,7.93-145.57,3.846
		c-63.814-5.361-123.788-22.433-176.018-61.156c-58.082-43.063-95.424-100.383-115.311-169.518
		c-14.616-50.811-19.734-102.713-15.946-155.28c5.646-78.339,28.278-150.956,76.204-214.38
		c35.767-47.335,80.764-82.814,136.197-104.479c25-9.771,51.279-14.356,77.892-16.638c29.237-2.506,58.56-3.674,87.828-0.335
		c66.44,7.58,126.246,30.279,173.547,79.301c31.025,32.153,51.92,70.669,66.007,112.956c15.601,46.829,19.812,94.937,16.85,143.971
		c-1.145,18.957-2.128,37.912-4.553,56.754c-1.087,8.442-4.875,12.672-12.456,13.012c-24.289,1.09-48.416,4.759-72.801,4.354
		c-12.996-0.216-25.954-0.511-38.926-1.68c-12.262-1.104-24.625-1.449-36.945-1.466c-86.646-0.117-173.291-0.065-259.937-0.061
		c-12.664,0.001-12.526-0.006-10.063,12.809c3.609,18.77,9.553,36.717,18.505,53.608c15.394,29.044,38.238,50.063,68.467,63.003
		c40.812,17.471,83.246,24.836,127.698,22.219c42.04-2.475,83.459-8.382,124.194-18.905c10.282-2.657,20.222-6.654,30.295-10.106
		c5.729-1.963,6.99-1.312,7.579,4.623c0.263,2.643,0.127,5.327,0.128,7.992C1742.058,1305.047,1742.054,1325.708,1742.053,1346.37z
		 M1489.743,1021.426c30.459-0.626,67.758,1.072,105.025-1.015c5.035-0.282,9.936-1.005,14.659-2.725
		c7.85-2.859,8.387-3.707,8.417-12.319c0.168-47.416-32.191-91.705-78.258-107.591c-16.056-5.537-32.542-6.319-49.247-6.087
		c-32.832,0.458-61.012,12.24-84.562,34.958c-21.883,21.11-33.14,47.851-39.761,76.903c-0.959,4.207-1.52,8.507-2.195,12.775
		c-0.512,3.242,0.686,5.133,4.232,5.072c2.33-0.039,4.661,0.026,6.991,0.026C1411.006,1021.427,1446.965,1021.426,1489.743,1021.426
		z"/>
	<path style="fill-rule:evenodd;clip-rule:evenodd;fill:#01015C;" d="M794.986,1053.417c-74.722,0-147.61,0-220.293,0
		c-1.43-2.26-0.69-4.167-0.027-6.033c28.223-79.368,48.872-161.098,75.158-241.071c11.959-36.383,21.672-73.384,29.863-110.789
		c0.388-1.77,0.968-3.498,2.511-5.263C716.613,811.967,756.427,931.704,794.986,1053.417z"/>
	<path style="fill-rule:evenodd;clip-rule:evenodd;fill:#02025D;" d="M1489.743,1021.426c-42.778,0-78.737,0.001-114.697-0.001
		c-2.33,0-4.661-0.065-6.991-0.026c-3.547,0.061-4.744-1.83-4.232-5.072c0.676-4.269,1.236-8.568,2.195-12.775
		c6.621-29.053,17.878-55.793,39.761-76.903c23.55-22.718,51.729-34.5,84.562-34.958c16.705-0.232,33.191,0.55,49.247,6.087
		c46.066,15.886,78.426,60.175,78.258,107.591c-0.03,8.612-0.567,9.46-8.417,12.319c-4.724,1.72-9.624,2.442-14.659,2.725
		C1557.501,1022.498,1520.202,1020.8,1489.743,1021.426z"/>
</g>
</svg>
