<?xml version="1.0" encoding="utf-8"?>
<!-- Generator: Adobe Illustrator 16.0.3, SVG Export Plug-In . SVG Version: 6.00 Build 0)  -->
<!DOCTYPE svg PUBLIC "-//W3C//DTD SVG 1.1//EN" "http://www.w3.org/Graphics/SVG/1.1/DTD/svg11.dtd" [
	<!ENTITY ns_flows "http://ns.adobe.com/Flows/1.0/">
	<!ENTITY ns_extend "http://ns.adobe.com/Extensibility/1.0/">
	<!ENTITY ns_ai "http://ns.adobe.com/AdobeIllustrator/10.0/">
	<!ENTITY ns_graphs "http://ns.adobe.com/Graphs/1.0/">
]>
<svg version="1.1" id="Layer_1" xmlns:x="&ns_extend;" xmlns:i="&ns_ai;" xmlns:graph="&ns_graphs;"
	 xmlns="http://www.w3.org/2000/svg" xmlns:xlink="http://www.w3.org/1999/xlink" xmlns:a="http://ns.adobe.com/AdobeSVGViewerExtensions/3.0/"
	 x="0px" y="0px" width="920px" height="234px" viewBox="0 0 920 234" style="enable-background:new 0 0 920 234;"
	 xml:space="preserve">
<g>
	<path style="fill-rule:evenodd;clip-rule:evenodd;fill:#1B2024;" d="M228,1c220.667,0,441.333,0,662,0
		c8.825,2.42,16.766,6.142,22.826,13.463C917.147,19.682,918.793,25.919,921,32c0,20.667,0,41.333,0,62
		c-8.163-0.653-16.308,2.107-24.499,0.056c-1.995-0.5-3.478,0.57-4.251,2.577c-1.275,3.311-2.326,2.598-3.618-0.113
		c-1.531-3.212-3.782-3.734-5.981-0.645c-1.135,1.593-1.474,0.74-2.501-0.046c-4.283-3.276-8.679-2.692-11.802,1.69
		c-1.988,2.791-3.626,3.303-5.545,0.129c-1.732-2.864-4.245-3.784-7.563-3.706c-7.638,0.181-15.412,0.925-22.886-0.193
		c-7.137-1.068-12.64,1.579-18.433,4.462c-2.282,0.001-4.564,0.001-6.847,0.002c-1.922-2.438-5.512,0.264-6.76-1.461
		c-2.564-3.544-5.469-2.283-8.73-2.311c-3.546-0.029-7.172,0.561-10.634-0.057c-5.754-1.025-9.121,2.611-12.866,5.715l0.028-0.028
		c-3.042,0.441-5.453-1.346-7.795-2.67c-3.044-1.722-3.386-0.452-3.313,2.101c-3.67,0.407-7.34,0.406-11.01,0
		c0.24-3.998-1.591-5.254-5.611-5.689c-7.536-0.816-15.041,0.111-22.565-0.208c-5.183-0.221-10.593,0.217-15.897,0.359
		c-4.678,0.125-9.468,4.535-14.067-0.272c-0.124-0.13-0.644,0.201-0.953,0.15c-5.613-0.907-11.199,0.656-16.812,0.179
		c-1.673-0.142-3.219,0.04-4.461,1.586c-2.953,3.675-6.648,3.19-9.599,0.464c-2.353-2.174-4.625-2.311-7.28-1.767
		c-1.318,0.27-2.544,0.306-3.901,0.21c-10.008-0.71-20.019-1.366-30.071-0.686c-2.922,0.198-5.555,0.567-7.184,3.495
		c-1.523-1.793-2.483-4.417-4.593-3.961c-4.002,0.865-7.906-0.154-11.802,0.161c-8.317,0.673-16.723,0.73-24.979,0.833
		c-11.346,0.142-22.807-0.197-34.209-0.665c-3.394-0.14-4.783-1.338-5.035-4.609c-0.531-6.889-0.606-6.884-7.059-6.288
		c-0.088-2.143-0.165-4.285-0.27-6.427c-0.054-1.109,0.37-2.734-1.078-2.967c-4.884-0.783-10.087-1.661-14.641,0.043
		c-2.927,1.096-0.477,5.361-1.305,8.08c-0.049,0.158-0.081,0.321-0.121,0.481c-2.34,0.035-2.523,1.618-2.512,3.415
		c0.016,2.313,0.092,4.642-0.139,6.935c-0.106,1.059-0.251,3.294-2.084,2.226c-2.912-1.694-5.327,1.501-8.407,0.069
		c-2.793-1.297-2.138,1.827-2.366,3.433c-0.999,0.14-1.998,0.279-2.997,0.419c-0.248-1.328,0.727-3.381-1.093-3.777
		c-1.739-0.38-2.002,1.712-2.615,2.949c-0.206,0.414-0.177,0.943-0.255,1.421c-0.473,0.783-1.225,0.879-2.037,0.825
		c-0.34-0.419-0.884-1.247-0.989-1.195c-1.062,0.528-0.342,1.19-0.02,1.813c-0.091,0.294-0.281,0.394-0.573,0.298
		c-3.409-1.121-6.112-1.222-5.354,3.695c-0.162,0.278-0.324,0.556-0.486,0.834c-2.845-1.438-2.456,0.307-2.043,2.076l-0.021,0.043
		c-4.989,1.438-10.101-2.376-15.126,0.403c-0.951,0.525-2.582-0.164-3.042-1.214c-1.286-2.935-4.303-4.332-6.543-5.025
		c-5.175-1.602-8.466-7.339-14.988-6.142c-2.506,0.46-6.751,0.799-7.9-0.007c-4.17-2.923-4.048,2.422-6.571,2.535
		c-6.274,0.283-11.2,4.02-15.665,7.963c-3.086,2.727-5.323,1.949-6.829-0.91c-3.321-6.309-8.155-12.151-6.923-20.126
		c0.27-1.74,0.913-4.178-1.926-4.96c-0.258-0.155-0.313-0.364-0.169-0.628c0.105-2.343-1.806-2.635-3.334-2.988
		c-8.507-1.964-17.137-2.062-25.704-0.755c-15.227,2.321-24.566,12.079-30.939,25.334c-0.927,1.928-2.012,5.606-2.655,5.526
		c-2.818-0.352-2.866-3.63-4-5.697c-2.39-4.358-5.078-7.27-10.744-6.911C297.89,94.36,290.276,94,282.685,94
		c-12.304,0-24.609,0-36.914,0c-1.987,0-3.944-0.186-5.332,1.848c-1.926,2.821-3.979,2.283-6.115,0.029
		c-1.461-1.541-3.083-3.393-5.31-0.878c-0.079-0.839-0.372-1.553-1.149-1.985l0.072,0.084c0.002-0.438,0.003-0.875,0.005-1.313
		c-0.024-0.191-0.024-0.382,0-0.573c0-0.475,0-0.949,0-1.424c-0.026-0.188-0.025-0.376,0.002-0.563
		c-0.043-0.512-0.086-1.022-0.129-1.533V87.31c0.043-0.512,0.086-1.022,0.129-1.534c-0.027-0.188-0.028-0.376-0.002-0.563
		c0-0.475,0-0.949,0-1.423c-0.044-0.224-0.077-0.448-0.098-0.675c0.606-0.403,0.614-0.81,0.006-1.219
		c0.033-0.24,0.063-0.481,0.09-0.724c0-0.447,0-0.896,0-1.344c-0.011-0.219-0.01-0.437,0.001-0.655
		c-0.034-0.493-0.069-0.985-0.103-1.479v-0.388c0.034-0.493,0.069-0.986,0.103-1.479c-0.011-0.218-0.012-0.437-0.001-0.655
		c0-0.448,0-0.896,0-1.344c-0.01-0.219-0.01-0.438,0-0.656c0-0.448,0-0.896,0-1.344c-0.01-0.219-0.01-0.438,0-0.656
		c0-0.448,0-0.896,0-1.344c-0.01-0.219-0.01-0.438,0-0.656c0-0.448,0-0.896,0-1.344c-0.01-0.219-0.01-0.438,0-0.656
		c0-0.448,0-0.896,0-1.344c-0.01-0.219-0.01-0.438,0-0.656c0-0.448,0-0.896,0-1.344c-0.01-0.219-0.01-0.438,0-0.656
		c0-0.448,0-0.896,0-1.344c-0.01-0.219-0.01-0.438,0-0.656c0-0.448,0-0.896,0-1.344c-0.01-0.219-0.01-0.438,0-0.656
		c0-0.448,0-0.896,0-1.344c-0.01-0.219-0.01-0.438,0-0.656c0-0.448,0-0.896,0-1.344c-0.01-0.219-0.01-0.438,0-0.656
		c0-0.448,0-0.896,0-1.344c-0.01-0.219-0.01-0.438,0-0.656c0-0.448,0-0.896,0-1.344c-0.01-0.219-0.01-0.438,0-0.656
		c0-0.448,0-0.896,0-1.344c-0.01-0.219-0.01-0.438,0-0.656c0-0.448,0-0.896,0-1.344c-0.01-0.219-0.01-0.438,0-0.656
		c0-0.448,0-0.896,0-1.344c-0.01-0.219-0.01-0.438,0-0.656c0-0.448,0-0.896,0-1.344c-0.01-0.219-0.01-0.438,0-0.656
		c0-0.448,0-0.896,0-1.344c-0.01-0.219-0.01-0.438,0-0.656c0-0.448,0-0.896,0-1.344c-0.01-0.219-0.01-0.438,0-0.656
		c0-0.448,0-0.896,0-1.344c-0.01-0.219-0.01-0.438,0-0.656c0-0.448,0-0.896,0-1.344c-0.01-0.219-0.01-0.438,0-0.656
		c0-0.448,0-0.896,0-1.344c-0.01-0.219-0.01-0.438,0-0.656c0-0.448,0-0.896,0-1.344c-0.01-0.219-0.01-0.438,0-0.656
		c0-0.448,0-0.896,0-1.344c0-0.885,0-1.771,0-2.656c0-0.448,0-0.896,0-1.344c0-0.885,0-1.771,0-2.656c0-0.448,0-0.896,0-1.344
		c0-0.885,0-1.771,0-2.656c0-0.448,0-0.896,0-1.344c0-0.885,0-1.771,0-2.656c0-0.448,0-0.896,0-1.344c0-0.885,0-1.771,0-2.656
		c0-0.448,0-0.896,0-1.344c0-0.885,0-1.771,0-2.656c0-0.448,0-0.896,0-1.344c0-0.885,0.001-1.771,0.001-2.655
		c-0.035-0.482-0.07-0.965-0.105-1.447C227.77,1.456,227.824,1.215,228,1z M485.313,94.896l0.182,0.37l0.185-0.367L485.313,94.896z"
		/>
	<path style="fill-rule:evenodd;clip-rule:evenodd;fill:#151A1E;" d="M229.015,94.999c2.226-2.515,3.848-0.663,5.309,0.878
		c2.136,2.254,4.189,2.792,6.115-0.029c1.388-2.033,3.345-1.848,5.332-1.848c12.305,0,24.609,0,36.914,0
		c7.591,0,15.205,0.36,22.766-0.118c5.666-0.358,8.354,2.553,10.744,6.911c1.134,2.067,1.182,5.346,4,5.697
		c0.644,0.08,1.729-3.599,2.655-5.526c6.373-13.255,15.713-23.013,30.939-25.334c8.567-1.307,17.197-1.209,25.704,0.755
		c1.528,0.354,3.439,0.646,3.334,2.988c-7.937-3.08-16.257-3.244-24.501-2.486c-15.816,1.453-27.286,9.627-32.5,24.664
		c-5.336,15.39-4.565,30.476,6.844,43.465c12.368,14.081,35.718,12.161,47.882,7.748c1.27-0.461,2.341-1.164,2.319-2.841
		c-0.055-4.384-0.018-8.768-0.018-13.482c-13.304,5.331-25.936,8.428-36.669-3.58c-6.269-7.011-7.411-21.486-1.813-30.069
		c9.925-15.217,23.969-12.908,38.624-7.249c0-5.569,0-10.555,0-15.541c2.839,0.782,2.195,3.22,1.926,4.96
		c-1.232,7.975,3.602,13.817,6.923,20.126c1.506,2.859,3.743,3.637,6.829,0.91c4.465-3.943,9.391-7.68,15.665-7.963
		c2.523-0.113,2.401-5.458,6.571-2.535c1.149,0.806,5.395,0.467,7.9,0.007c6.522-1.197,9.813,4.54,14.988,6.142
		c2.24,0.693,5.257,2.091,6.543,5.025c0.46,1.05,2.091,1.739,3.042,1.214c5.025-2.779,10.137,1.034,15.126-0.403
		c-5.496,9.307-8.436,19.071-5.238,29.89c1.662,5.623,3.539,10.936,8.776,14.657c9.313,6.618,23.297,4.448,29.176-3.026
		c0.483,0,0.967,0.001,1.45,0.001c-0.677,4.403,0.9,6.505,5.608,5.706c1.452-0.246,2.981-0.038,4.475-0.038
		c6.915,0.001,6.896,0.001,6.919-7.177c0.071-21.567,0.158-43.135,0.239-64.702c6.452-0.596,6.527-0.601,7.059,6.288
		c0.252,3.271,1.642,4.47,5.035,4.609c11.402,0.468,22.863,0.807,34.209,0.665c8.256-0.103,16.661-0.16,24.979-0.833
		c3.896-0.315,7.8,0.704,11.802-0.161c2.109-0.456,3.069,2.168,4.593,3.961c1.629-2.928,4.262-3.297,7.184-3.495
		c10.053-0.681,20.063-0.024,30.071,0.686c1.357,0.096,2.583,0.06,3.901-0.21c2.655-0.544,4.928-0.407,7.28,1.767
		c2.95,2.727,6.646,3.211,9.599-0.464c1.242-1.546,2.788-1.728,4.461-1.586c5.612,0.478,11.198-1.086,16.812-0.179
		c0.31,0.051,0.829-0.28,0.953-0.15c4.6,4.808,9.39,0.397,14.067,0.272c5.305-0.143,10.715-0.58,15.897-0.359
		c7.524,0.319,15.029-0.608,22.565,0.208c4.021,0.436,5.852,1.691,5.611,5.689c-2.178,0.65-1.233,2.419-1.238,3.735
		c-0.045,12.959-0.049,25.917-0.013,38.876c0.011,4.093-1.39,9.783,0.704,11.832c2.146,2.1,7.804,0.395,11.88,0.8
		c3.586,0.356,4.495-0.894,4.428-4.362c-0.168-8.63-0.192-17.282,0.235-25.899c0.388-7.827,6.374-12.142,13.985-10.725
		c1.351,0.251,2.717,0.421,4.294,0.661c0-1.665-0.003-2.984,0.001-4.304c0.04-12.345,0.04-12.345-12.187-10.017
		c3.745-3.104,7.112-6.74,12.866-5.715c3.462,0.617,7.088,0.027,10.634,0.057c3.262,0.027,6.166-1.233,8.73,2.311
		c1.248,1.725,4.838-0.978,6.76,1.461c-1.926,0.408-3.863,0.766-5.773,1.234c-8.555,2.1-13.962,7.444-14.544,14.324
		c-0.759,8.982,2.424,13.724,11.945,17.646c3.653,1.505,7.346,2.917,11.042,4.314c1.834,0.693,2.49,2.072,2.515,3.877
		c0.026,1.979-1.326,2.8-2.878,3.631c-1.868,1.002-3.859,0.93-5.827,1.068c-5.975,0.418-11.247-2.073-16.819-4.537
		c0,3.684,0.16,6.981-0.05,10.256c-0.174,2.72,0.911,3.632,3.507,4.255c7.559,1.816,15.083,2.264,22.695,0.646
		c11.903-2.529,18.298-11.872,15.033-22.012c-2.415-7.503-9.146-9.517-15.514-11.858c-2.314-0.852-4.832-1.241-6.857-2.727
		c-3.558-2.61-3.131-5.643,0.855-7.518c1.585-0.746,3.191-0.715,4.845-0.843c4.835-0.374,9.189,1.695,13.75,2.963
		c0.879-12.543,0.879-12.543-10.666-14.447c-0.148-0.024-0.275-0.181-0.412-0.275c5.793-2.883,11.296-5.53,18.433-4.462
		c7.474,1.118,15.248,0.374,22.886,0.193c3.318-0.078,5.831,0.842,7.563,3.706c1.919,3.174,3.557,2.662,5.545-0.129
		c3.123-4.383,7.519-4.967,11.802-1.69c1.027,0.786,1.366,1.639,2.501,0.046c2.199-3.09,4.45-2.567,5.981,0.645
		c1.292,2.711,2.343,3.424,3.618,0.113c0.773-2.007,2.256-3.077,4.251-2.577C904.692,96.107,912.837,93.347,921,94
		c0,28.333,0,56.667,0,85c-231,0-462,0-693,0.001c-0.028-20.39-0.057-40.779-0.085-61.168c0.007-0.22,0.016-0.438,0.027-0.657
		c0-0.45,0-0.9,0-1.351c-0.009-0.217-0.008-0.434,0-0.649c0-0.45,0-0.9,0-1.351c-0.009-0.217-0.008-0.434,0-0.649
		c0-0.45,0-0.9,0-1.351c-0.009-0.217-0.008-0.434,0-0.649c0-0.45,0-0.9,0-1.351c-0.009-0.217-0.008-0.434,0-0.649
		c0-0.45,0-0.9,0-1.351c-0.009-0.217-0.008-0.434,0-0.649c0-0.45,0-0.9,0-1.351c-0.009-0.217-0.008-0.434,0-0.649
		c0-0.45,0-0.9,0-1.351c-0.009-0.217-0.008-0.434,0-0.649c0-0.45,0-0.9,0-1.351c-0.009-0.217-0.008-0.434,0-0.649
		c0-0.45,0-0.9,0-1.351c-0.009-0.217-0.008-0.434,0-0.649c0-0.45,0-0.9,0-1.351c-0.009-0.217-0.009-0.433,0-0.649
		c0-0.45,0-0.901,0-1.352c-0.031-0.252-0.069-0.502-0.112-0.752C228.225,95.048,228.62,95.023,229.015,94.999z M632.593,116.613
		c0.976,9.053,3.603,16.417,5.386,23.975c1.063,4.508,0.952,10.391,3.8,13.088c3.175,3.006,9.224,0.541,13.984,1.033
		c2.651,0.274,3.723-0.622,4.381-3.272c1.593-6.419,3.649-12.721,5.471-19.084c3.071-10.728,6.104-21.466,9.273-32.619
		c-3.963,0-7.349,0.414-10.587-0.1c-4.492-0.712-5.604,1.556-6.265,5.261c-2.053,11.505-4.308,22.974-6.71,35.649
		c-2.424-10.419-4.545-19.718-6.756-28.997c-2.91-12.219-2.939-12.145-15.454-11.869c-2.541,0.057-3.751,0.595-4.371,3.369
		c-1.699,7.596-3.826,15.098-5.849,22.619c-1.115,4.148-2.361,8.261-3.923,13.69c-2.84-13.241-5.435-24.979-7.811-36.76
		c-0.402-1.999-0.946-2.924-3.059-2.886c-4.79,0.086-9.583,0.026-14.709,0.026c4.001,14.219,7.934,27.884,11.681,41.6
		c3.75,13.729,3.668,13.707,17.844,13.374c2.445-0.058,3.61-0.415,4.311-3.313C625.945,140.164,629.191,129.059,632.593,116.613z
		 M423.447,155.984c18.817,0.023,30.225-11.302,30.22-30.006c-0.004-16.715-11.495-27.625-29.119-27.646
		c-18.515-0.021-30.072,11.024-30.215,28.877C394.194,144.709,405.578,155.961,423.447,155.984z M686.062,115.224
		c4.253-2.386,8.628-4.11,13.246-4.878c4.592-0.763,9.292-1.199,12.699,3.176c2.067,2.654,1.299,5.183-2.043,5.799
		c-4.048,0.746-8.149,1.238-12.245,1.674c-11.931,1.27-19.408,10.604-17.262,21.655c2.055,10.578,11.367,15.524,23.07,12.412
		c4.331-1.152,7.094-4.369,10.244-7.666c0.366,7.271,0.366,7.271,7.117,7.271c2,0,4.009-0.126,5.996,0.03
		c2.363,0.187,3.189-0.645,3.156-3.085c-0.145-10.827,0.122-21.664-0.221-32.482c-0.326-10.299-6.439-18.12-14.943-19.909
		c-5.937-1.249-11.942-1.273-17.809,0.176C683.217,102.819,685.66,101.256,686.062,115.224z M579.303,139.805
		c-4.053,2.396-8.076,3.313-12.145,3.986c-8.327,1.379-15.022-1.464-17.521-7.203c-1.345-3.089-1.384-4.829,2.919-4.668
		c7.314,0.272,14.646,0.077,21.972,0.074c9.624-0.004,9.746-0.009,9.463-9.881c-0.272-9.466-3.904-17.295-12.924-21.272
		c-10.19-4.494-20.155-3.501-29.054,3.479c-10.908,8.557-11.861,20.907-9.414,32.702c2.051,9.887,9.405,16.716,20.464,18.358
		c6.053,0.898,11.92,0.398,17.812-0.533c7.756-1.227,8.014-1.681,8.138-9.701C579.036,143.564,579.18,141.985,579.303,139.805z"/>
	<path style="fill-rule:evenodd;clip-rule:evenodd;fill:#0F1418;" d="M228,179.001C459,179,690,179,921,179c0,9,0,18,0,27
		c-2.851,5.457-4.497,11.482-8.729,16.295C906.245,229.147,898.491,232.642,890,235c-220.667,0-441.333,0-662,0
		C228,216.334,228,197.667,228,179.001z"/>
	<path style="fill-rule:evenodd;clip-rule:evenodd;fill:#AC402C;" d="M227,235c-64.667,0-129.333,0-194,0
		c-9.005-1.876-16.945-5.611-23.174-12.66C5.59,217.545,3.871,211.481,1,206c0-25,0-50,0-75c2.196,0.804,3.284-0.251,4.189-2.174
		c0.581-1.234,1.893-3.32,3.207-1.962c2.011,2.079,3.762,0.301,4.659-0.258c3.253-2.028,4.446-0.602,5.107,2.375
		c1.481-0.597,0.847-2.639,2.402-2.894c1.862,4.356,5.737,4.135,9.528,4.525c4.519,0.466,4.753-2.589,3.38-4.894
		c-2.943-4.942-3.309-10.615-5.474-15.722c1.609-3.995,3.219-7.99,4.829-11.985c1.256,2.387,1.071,4.334-0.544,6.802
		c-2.985,4.561-1.924,10.2,2.257,13.862c1.729,1.515,2.046,2.748,1.711,5.02c-0.614,4.158-0.657,8.885,1.753,12.184
		c1.731,2.37,2.823,3.333,0.266,5.365c-0.993,0.789-1.084,1.943-1.052,3.176c0.185,6.964,4.146,13.116,4.266,20.141
		c0.024,1.417,1.85,2.857,3.496,3.286c3.081,0.803,4.285,2.659,4.398,5.757c0.044,1.21,0.749,2.926,1.699,3.486
		c6.395,3.775,12.592,8.687,19.552,10.412c4.498,1.115,9.627,1.317,14.49,2.295c4.432,0.891,8.492,2.245,11.41,5.517
		c4.095,4.59,10.032,6.396,15.081,7.201c6.493,1.035,14.06,5.987,20.499-1.013c0.362-0.395,1.833,0.271,2.794,0.382
		c4.804,0.554,9.423,0.741,11.611-4.959c0.582-1.517,1.89-2.142,3.608-2.121c6.816,0.083,10.103-4.111,11.793-10.048
		c0.453-1.589,0.503-3.104,2.56-3.788c5.18-1.72,8.867-5.61,11.994-9.77c1.902-2.53,3.225-4.91,6.923-4.236
		c1.874,0.341,3.1-0.66,3.727-2.526c0.657-1.956,2.014-3.441,3.803-4.457c4.52-2.564,6.939-7.34,8.96-11.372
		c2.231-4.452,3.052-9.874,4.701-14.841c1.739-5.237,0.044-11.646-0.305-17.533c-0.167-2.812-1.833-4.897-4.019-6.573
		c2.355-1.615,4.959-4.031,4.876,1.659c-0.008,0.558,0.561,1.124,0.861,1.688L205.995,113c0.335,0.333,0.67,0.665,1.005,0.998
		c1.525,3.05,1.18,6.102,0.107,9.199c-0.888,2.56-0.823,5.991,1.624,6.571c4.274,1.013,5.849,4.45,8.503,6.936
		c0.717,0.671,1.363,1.776,2.42,1.496c1.382-0.366,1.372-1.77,1.32-2.923c-0.11-2.436,0.892-4.165,3.029-5.278
		c0.21,0.95,0.566,1.895,0.607,2.853c0.548,12.721,1.263,25.418,1.025,38.185c-0.335,18.041,0.202,36.098,0.367,54.148
		c0.012,1.325-0.105,2.68,0.837,3.8C226.892,230.99,226.946,232.995,227,235z"/>
	<path style="fill-rule:evenodd;clip-rule:evenodd;fill:#B64A36;" d="M226.838,228.984c-0.942-1.12-0.825-2.475-0.837-3.8
		c-0.165-18.051-0.702-36.107-0.367-54.148c0.238-12.767-0.478-25.464-1.025-38.185c-0.041-0.958-0.397-1.902-0.607-2.853
		c2.02-2.797,2.213-5.789,0.006-8.388c-2.366-2.787-2.586-5.896-2.28-9.182c0.496-5.31-0.728-6.572-6.133-6.048
		c-0.964,0.094-1.934,0.27-2.895,0.236c-6.399-0.222-6.527-0.114-6.703,6.389c-0.301-0.563-0.869-1.13-0.861-1.688
		c0.083-5.69-2.521-3.274-4.875-1.659l-0.061-0.112c0.119-2.745,0.994-5.7-2.107-7.546c-0.057-1.139-0.114-2.276-0.17-3.415
		c-0.79-3.278-1.579-6.557-2.368-9.835c0.155-0.582,0.31-1.164,0.465-1.746c1.202-1.843,1.866-3.488-1.359-3.711l0.04-0.009
		c0.189-2.47,1.023-4.999-0.681-7.292c-0.154-0.579-0.308-1.159-0.462-1.738c0.183-0.232,0.365-0.465,0.547-0.697
		c-0.395-0.171-0.791-0.342-1.186-0.513l0.034,0.033c0.044-1.393,0.037-2.755-1.781-3.065c-0.085-0.568-0.17-1.138-0.255-1.706
		c-0.265-0.427-0.529-0.854-0.794-1.28c-0.216-0.198-0.285-0.438-0.206-0.72c-0.265-0.427-0.529-0.854-0.794-1.28
		c-0.216-0.198-0.285-0.438-0.206-0.72c-0.265-0.427-0.529-0.854-0.794-1.281c-0.41-0.481-0.821-0.963-1.231-1.444
		c-0.053-0.477,0.02-1.293-0.183-1.368c-0.679-0.254-0.619,0.449-0.745,0.867c-0.655-0.059-1.31-0.116-1.965-0.175
		c-0.107-1.55,0.434-3.412-1.879-3.898c-1.155-1.407-2.269-3.989-3.47-4.03c-8.073-0.273-13.094-8.098-20.52-8.512
		c-5.36-0.299-10.708-0.854-16.054-1.063c-4.25-0.165-6.99-1.496-9.717-4.643c-2.032-2.344-5.213-5.112-7.905-5.137
		c-4.298-0.038-8.564-0.182-12.469-1.566c-3.262-1.157-5.303-0.718-7.377,1.761c-1.025,1.225-2.113,2.882-4.106,2.109
		c-6.288-2.438-11.486-1.31-15.878,4.042c-1.176,1.433-3.429,1.937-5.065,3.046c-1.634,1.109-4.064,2.181-4.493,3.727
		c-1.516,5.473-6.222,7.859-9.78,11.364c-2.863,3.979-6.647,5.793-11.59,5.029c-0.208-0.032-0.542,0.754-0.816,1.158
		c-1.009-0.444-2.341-3.122-2.778,0.401c0.014,1.159,0.027,2.319,0.041,3.479l0.071-0.028c-2.131,0.145-3.517,0.83-2.411,3.323
		c0.005,0.237-0.11,0.35-0.348,0.337c-1.427-0.857-2.142-0.241-2.464,1.189c-0.207,0.171-0.434,0.206-0.682,0.105
		c-2.344,0.291-2.476,1.575-1.505,3.354c0.013,0.241-0.102,0.357-0.343,0.349c-4.592,0.301-6.849,4.679-5.515,10.697
		c-0.104,0.323-0.323,0.457-0.658,0.4c-1.879-2.609-2.73,0.039-3.739,0.858c-1.272,1.032-2.151,2.375,0.292,3.234
		c-0.004,2.007-0.008,4.013-0.011,6.02c-1.61,3.995-3.22,7.99-4.829,11.985c0.167-2.465-0.249-4.747-2.836-5.731
		c-1.776-0.676-1.92-1.704-1.863-3.42c0.079-2.338-1.078-3.128-3.643-4.359c-6.054-2.905-8.404-3.467-5.492,4.682
		c-3.467-1.881-6.125-5.057-9.877-1.668C3.768,99.971,2.124,99.197,1,99c0-23,0-46,0-69c2.506-3.139,2.668-7.28,4.781-10.679
		C12.367,8.728,21.79,2.788,34,1c64.667,0,129.333,0,194,0c-0.176,0.215-0.23,0.456-0.161,0.726
		c-0.827,0.544-0.661,1.017,0.104,1.447c0,0.885-0.001,1.771-0.001,2.656c-0.828,0.447-0.828,0.896,0,1.343c0,0.886,0,1.771,0,2.657
		c-0.828,0.447-0.828,0.896,0,1.343c0,0.886,0,1.771,0,2.657c-0.828,0.447-0.828,0.896,0,1.343c0,0.886,0,1.771,0,2.657
		c-0.828,0.447-0.828,0.896,0,1.343c0,0.886,0,1.771,0,2.657c-0.828,0.447-0.828,0.896,0,1.343c0,0.886,0,1.771,0,2.657
		c-0.828,0.447-0.828,0.896,0,1.343c0,0.886,0,1.771,0,2.657c-0.828,0.447-0.828,0.896,0,1.343c-0.01,0.219-0.01,0.438,0,0.657
		c-0.828,0.448-0.828,0.896,0,1.343c-0.01,0.219-0.01,0.438,0,0.657c-0.828,0.448-0.828,0.896,0,1.343
		c-0.01,0.219-0.01,0.438,0,0.657c-0.828,0.448-0.828,0.896,0,1.343c-0.01,0.219-0.01,0.438,0,0.657
		c-0.828,0.448-0.828,0.896,0,1.343c-0.01,0.219-0.01,0.438,0,0.657c-0.828,0.448-0.828,0.896,0,1.343
		c-0.01,0.219-0.01,0.438,0,0.657c-0.828,0.448-0.828,0.896,0,1.343c-0.01,0.219-0.01,0.438,0,0.657
		c-0.828,0.448-0.828,0.896,0,1.343c-0.01,0.219-0.01,0.438,0,0.657c-0.828,0.448-0.828,0.896,0,1.343
		c-0.01,0.219-0.01,0.438,0,0.657c-0.828,0.448-0.828,0.896,0,1.343c-0.01,0.219-0.01,0.438,0,0.657
		c-0.828,0.448-0.828,0.896,0,1.343c-0.01,0.219-0.01,0.438,0,0.657c-0.828,0.448-0.828,0.896,0,1.343
		c-0.01,0.219-0.01,0.438,0,0.657c-0.828,0.448-0.828,0.896,0,1.343c-0.01,0.219-0.01,0.438,0,0.657
		c-0.828,0.448-0.828,0.896,0,1.343c-0.01,0.219-0.01,0.438,0,0.657c-0.828,0.448-0.828,0.896,0,1.343
		c-0.01,0.219-0.01,0.438,0,0.657c-0.828,0.448-0.828,0.896,0,1.343c-0.01,0.219-0.01,0.438,0,0.657
		c-0.828,0.448-0.828,0.896,0,1.343c-0.01,0.219-0.01,0.438,0,0.657c-0.829,0.448-0.828,0.896,0,1.343
		c-0.01,0.219-0.01,0.438,0,0.657c-0.828,0.447-0.828,0.896,0,1.343c-0.01,0.219-0.01,0.438,0,0.657
		c-0.828,0.447-0.828,0.896,0,1.343c-0.01,0.219-0.01,0.438,0,0.657c-0.828,0.447-0.828,0.896,0,1.343
		c-0.01,0.219-0.01,0.438,0,0.657c-0.828,0.447-0.828,0.896,0,1.343c-0.01,0.219-0.01,0.438,0,0.657
		c-0.828,0.447-0.828,0.896,0,1.343c-0.01,0.219-0.01,0.438,0.001,0.656c-0.794,0.44-0.902,0.928-0.103,1.479c0,0,0,0.388,0,0.388
		c-0.798,0.551-0.693,1.038,0.103,1.479c-0.011,0.219-0.012,0.437-0.001,0.656c-0.829,0.447-0.828,0.896,0,1.343
		c-0.027,0.242-0.057,0.483-0.09,0.724c-0.82,0.402-0.802,0.809-0.006,1.219c0.021,0.227,0.053,0.451,0.098,0.675
		c-0.829,0.475-0.827,0.949,0,1.423c-0.026,0.188-0.025,0.376,0.002,0.564c-0.748,0.451-0.921,0.951-0.129,1.533
		c0,0,0,0.382,0.001,0.381c-0.791,0.58-0.622,1.081,0.128,1.534c-0.027,0.188-0.028,0.376-0.002,0.564
		c-0.828,0.475-0.827,0.949,0,1.423c-0.025,0.191-0.025,0.382,0,0.573c-0.739,0.436-1.036,0.871-0.005,1.313
		c0,0-0.072-0.084-0.071-0.084c0.274,0.692-1.341,1.35-0.036,2.059c0.043,0.25,0.081,0.5,0.112,0.752
		c-0.836,0.451-0.837,0.901,0,1.352c-0.009,0.217-0.009,0.433,0,0.649c-0.837,0.45-0.836,0.9,0,1.351
		c-0.009,0.216-0.009,0.433,0,0.649c-0.837,0.45-0.836,0.9,0,1.351c-0.009,0.216-0.009,0.433,0,0.649c-0.837,0.45-0.836,0.9,0,1.351
		c-0.009,0.216-0.009,0.433,0,0.649c-0.837,0.45-0.836,0.9,0,1.351c-0.009,0.216-0.009,0.433,0,0.649c-0.837,0.45-0.836,0.9,0,1.351
		c-0.009,0.216-0.009,0.433,0,0.649c-0.837,0.45-0.836,0.9,0,1.351c-0.009,0.216-0.009,0.433,0,0.649c-0.837,0.45-0.836,0.9,0,1.351
		c-0.009,0.216-0.009,0.433,0,0.649c-0.837,0.45-0.836,0.9,0,1.351c-0.009,0.216-0.009,0.433,0,0.649c-0.837,0.45-0.836,0.9,0,1.351
		c-0.009,0.216-0.009,0.433,0,0.649c-0.837,0.45-0.836,0.9,0,1.351c-0.011,0.219-0.02,0.438-0.027,0.657
		c-1.613,1.695-0.869,3.805-0.874,5.713C226.936,158.692,226.894,193.839,226.838,228.984z"/>
	<path style="fill-rule:evenodd;clip-rule:evenodd;fill:#B24531;" d="M1,99c1.124,0.197,2.768,0.971,3.289,0.501
		c3.753-3.389,6.41-0.213,9.877,1.668c-2.912-8.148-0.562-7.587,5.492-4.682c2.565,1.231,3.722,2.021,3.643,4.359
		c-0.058,1.716,0.086,2.744,1.863,3.42c2.587,0.984,3.003,3.267,2.836,5.731c2.165,5.106,2.53,10.779,5.474,15.722
		c1.373,2.305,1.139,5.359-3.38,4.894c-3.791-0.391-7.666-0.169-9.528-4.525c-1.555,0.255-0.921,2.297-2.402,2.894
		c-0.661-2.977-1.854-4.403-5.107-2.375c-0.896,0.559-2.648,2.337-4.659,0.258c-1.314-1.358-2.626,0.728-3.207,1.962
		C4.284,130.749,3.196,131.804,1,131C1,120.333,1,109.667,1,99z"/>
	<path style="fill-rule:evenodd;clip-rule:evenodd;fill:#EEEDED;" d="M34,1C21.79,2.788,12.367,8.728,5.781,19.321
		C3.668,22.72,3.506,26.861,1,30c0-8.763,0.114-17.527-0.075-26.286c-0.052-2.392,0.52-2.816,2.82-2.781C13.828,1.089,23.915,1,34,1
		z"/>
	<path style="fill-rule:evenodd;clip-rule:evenodd;fill:#ECEBEA;" d="M1,206c2.871,5.481,4.59,11.545,8.826,16.34
		C16.055,229.389,23.995,233.124,33,235c-9.833,0-19.668-0.083-29.499,0.065c-2.152,0.032-2.605-0.413-2.566-2.566
		C1.091,223.668,1,214.833,1,206z"/>
	<path style="fill-rule:evenodd;clip-rule:evenodd;fill:#EBEAE9;" d="M890,235c8.491-2.358,16.245-5.853,22.271-12.705
		c4.232-4.813,5.879-10.838,8.729-16.295c0,8.833-0.092,17.668,0.065,26.499c0.038,2.153-0.414,2.601-2.566,2.566
		C909.001,234.914,899.5,235,890,235z"/>
	<path style="fill-rule:evenodd;clip-rule:evenodd;fill:#EDEBEB;" d="M921,32c-2.207-6.081-3.853-12.318-8.174-17.537
		C906.766,7.142,898.825,3.42,890,1c9.5,0,19.001,0.086,28.499-0.065c2.152-0.034,2.601,0.414,2.566,2.566
		C920.914,12.999,921,22.5,921,32z"/>
	<path style="fill-rule:evenodd;clip-rule:evenodd;fill:#1B2024;" d="M226.838,228.984c0.056-35.146,0.098-70.292,0.203-105.438
		c0.005-1.908-0.739-4.018,0.874-5.713c0.028,20.389,0.057,40.778,0.085,61.168c0,18.666,0,37.333,0,55.999c-0.333,0-0.667,0-1,0
		C226.946,232.995,226.892,230.99,226.838,228.984z"/>
	<path style="fill-rule:evenodd;clip-rule:evenodd;fill:#ECEBEA;" d="M813.921,98.211c0.137,0.095,0.264,0.251,0.412,0.275
		c11.545,1.904,11.545,1.904,10.666,14.447c-4.561-1.268-8.915-3.337-13.75-2.963c-1.653,0.128-3.26,0.097-4.845,0.843
		c-3.986,1.875-4.413,4.907-0.855,7.518c2.025,1.485,4.543,1.875,6.857,2.727c6.368,2.342,13.099,4.355,15.514,11.858
		c3.265,10.14-3.13,19.482-15.033,22.012c-7.612,1.617-15.137,1.17-22.695-0.646c-2.596-0.623-3.681-1.535-3.507-4.255
		c0.21-3.274,0.05-6.572,0.05-10.256c5.572,2.464,10.845,4.955,16.819,4.537c1.968-0.139,3.959-0.066,5.827-1.068
		c1.552-0.831,2.904-1.651,2.878-3.631c-0.024-1.805-0.681-3.184-2.515-3.877c-3.696-1.397-7.389-2.81-11.042-4.314
		c-9.521-3.922-12.704-8.663-11.945-17.646c0.582-6.88,5.989-12.225,14.544-14.324c1.91-0.469,3.848-0.826,5.773-1.234
		C809.356,98.212,811.639,98.212,813.921,98.211z"/>
	<path style="fill-rule:evenodd;clip-rule:evenodd;fill:#EBEAE9;" d="M768.084,100.1c12.227-2.328,12.227-2.328,12.187,10.017
		c-0.004,1.319-0.001,2.639-0.001,4.304c-1.577-0.24-2.943-0.41-4.294-0.661c-7.611-1.417-13.598,2.897-13.985,10.725
		c-0.428,8.617-0.403,17.27-0.235,25.899c0.067,3.469-0.842,4.719-4.428,4.362c-4.076-0.405-9.734,1.3-11.88-0.8
		c-2.094-2.049-0.693-7.739-0.704-11.832c-0.036-12.959-0.032-25.917,0.013-38.876c0.005-1.316-0.939-3.085,1.238-3.735
		c3.67,0.406,7.34,0.407,11.01,0c6.753-1.112,3.805,4.647,5.42,8.267c1.133-3.724,4.346-4.894,5.688-7.697L768.084,100.1z"/>
	<path style="fill-rule:evenodd;clip-rule:evenodd;fill:#151A1E;" d="M502.502,82.005c0.058,7.33,0.115,14.66,0.173,21.99
		c-0.471,0-0.941,0-1.412,0c-3.648-4.644-8.903-5.413-14.269-5.913c0.229-1.605-0.427-4.729,2.366-3.433
		c3.08,1.432,5.495-1.764,8.407-0.069c1.833,1.068,1.978-1.167,2.084-2.226c0.23-2.293,0.154-4.621,0.139-6.935
		C499.979,83.623,500.162,82.04,502.502,82.005z"/>
	<path style="fill-rule:evenodd;clip-rule:evenodd;fill:#151A1E;" d="M768.112,100.071c-1.343,2.804-4.556,3.974-5.688,7.697
		c-1.615-3.619,1.333-9.379-5.42-8.267c-0.072-2.553,0.27-3.822,3.313-2.101C762.659,98.726,765.07,100.513,768.112,100.071z"/>
	<path style="fill-rule:evenodd;clip-rule:evenodd;fill:#151A1E;" d="M476.415,100.835c-1.785,1.232-3.569,2.464-5.354,3.695
		C470.303,99.613,473.006,99.714,476.415,100.835z"/>
	<path style="fill-rule:evenodd;clip-rule:evenodd;fill:#151A1E;" d="M483.997,98.501c-1.321,0.197-2.643,0.395-3.963,0.593
		c0.078-0.478,0.049-1.007,0.255-1.421c0.613-1.237,0.876-3.329,2.615-2.949C484.724,95.12,483.749,97.173,483.997,98.501z"/>
	<path style="fill-rule:evenodd;clip-rule:evenodd;fill:#151A1E;" d="M470.575,105.364c-0.681,0.691-1.362,1.384-2.043,2.075
		C468.119,105.671,467.73,103.927,470.575,105.364z"/>
	<path style="fill-rule:evenodd;clip-rule:evenodd;fill:#151A1E;" d="M477.997,99.919c-0.337,0.206-0.673,0.412-1.01,0.618
		c-0.321-0.623-1.041-1.285,0.021-1.813C477.113,98.672,477.657,99.5,477.997,99.919z"/>
	<path style="fill-rule:evenodd;clip-rule:evenodd;fill:#0F1418;" d="M227.83,95.072c-1.305-0.709,0.31-1.366,0.036-2.059
		c0.777,0.433,1.07,1.146,1.149,1.985C228.62,95.023,228.225,95.048,227.83,95.072z"/>
	<polygon style="fill-rule:evenodd;clip-rule:evenodd;fill:#151A1E;" points="485.313,94.896 485.679,94.898 485.494,95.266 	"/>
	<path style="fill-rule:evenodd;clip-rule:evenodd;fill:#0F1418;" d="M227.845,83.114c-0.795-0.41-0.814-0.816,0.006-1.219
		C228.459,82.305,228.452,82.711,227.845,83.114z"/>
	<path style="fill-rule:evenodd;clip-rule:evenodd;fill:#0F1418;" d="M227.937,93.098c-1.03-0.441-0.734-0.877,0.005-1.313
		C227.94,92.223,227.939,92.66,227.937,93.098z"/>
	<path style="fill-rule:evenodd;clip-rule:evenodd;fill:#171B1F;" d="M227.941,19.172c-0.828-0.447-0.828-0.896,0-1.343
		C227.941,18.276,227.941,18.724,227.941,19.172z"/>
	<path style="fill-rule:evenodd;clip-rule:evenodd;fill:#171B1F;" d="M227.941,23.172c-0.828-0.447-0.828-0.896,0-1.343
		C227.941,22.276,227.941,22.724,227.941,23.172z"/>
	<path style="fill-rule:evenodd;clip-rule:evenodd;fill:#171B1F;" d="M227.941,27.172c-0.828-0.447-0.828-0.896,0-1.343
		C227.941,26.276,227.941,26.724,227.941,27.172z"/>
	<path style="fill-rule:evenodd;clip-rule:evenodd;fill:#171B1F;" d="M227.941,31.172c-0.828-0.447-0.828-0.896,0-1.343
		C227.941,30.276,227.941,30.724,227.941,31.172z"/>
	<path style="fill-rule:evenodd;clip-rule:evenodd;fill:#171B1F;" d="M227.941,33.172c-0.828-0.447-0.828-0.895,0-1.343
		C227.941,32.276,227.941,32.724,227.941,33.172z"/>
	<path style="fill-rule:evenodd;clip-rule:evenodd;fill:#171B1F;" d="M227.941,35.172c-0.828-0.447-0.828-0.895,0-1.343
		C227.941,34.276,227.941,34.724,227.941,35.172z"/>
	<path style="fill-rule:evenodd;clip-rule:evenodd;fill:#171B1F;" d="M227.941,37.172c-0.828-0.447-0.828-0.895,0-1.343
		C227.941,36.276,227.941,36.724,227.941,37.172z"/>
	<path style="fill-rule:evenodd;clip-rule:evenodd;fill:#171B1F;" d="M227.941,39.172c-0.828-0.447-0.828-0.895,0-1.343
		C227.941,38.276,227.941,38.724,227.941,39.172z"/>
	<path style="fill-rule:evenodd;clip-rule:evenodd;fill:#171B1F;" d="M227.941,43.172c-0.828-0.447-0.828-0.895,0-1.343
		C227.941,42.276,227.941,42.724,227.941,43.172z"/>
	<path style="fill-rule:evenodd;clip-rule:evenodd;fill:#171B1F;" d="M227.941,45.172c-0.828-0.447-0.828-0.895,0-1.343
		C227.941,44.276,227.941,44.724,227.941,45.172z"/>
	<path style="fill-rule:evenodd;clip-rule:evenodd;fill:#171B1F;" d="M227.941,47.172c-0.828-0.447-0.828-0.895,0-1.343
		C227.941,46.276,227.941,46.724,227.941,47.172z"/>
	<path style="fill-rule:evenodd;clip-rule:evenodd;fill:#171B1F;" d="M227.941,49.172c-0.828-0.447-0.828-0.895,0-1.343
		C227.941,48.276,227.941,48.724,227.941,49.172z"/>
	<path style="fill-rule:evenodd;clip-rule:evenodd;fill:#171B1F;" d="M227.941,51.172c-0.828-0.447-0.828-0.895,0-1.343
		C227.941,50.276,227.941,50.724,227.941,51.172z"/>
	<path style="fill-rule:evenodd;clip-rule:evenodd;fill:#171B1F;" d="M227.941,53.172c-0.828-0.447-0.828-0.895,0-1.343
		C227.941,52.276,227.941,52.724,227.941,53.172z"/>
	<path style="fill-rule:evenodd;clip-rule:evenodd;fill:#171B1F;" d="M227.941,55.172c-0.828-0.447-0.828-0.895,0-1.343
		C227.941,54.276,227.941,54.724,227.941,55.172z"/>
	<path style="fill-rule:evenodd;clip-rule:evenodd;fill:#171B1F;" d="M227.941,57.172c-0.828-0.447-0.828-0.895,0-1.343
		C227.941,56.276,227.941,56.724,227.941,57.172z"/>
	<path style="fill-rule:evenodd;clip-rule:evenodd;fill:#171B1F;" d="M227.941,59.172c-0.828-0.447-0.828-0.895,0-1.343
		C227.941,58.276,227.941,58.724,227.941,59.172z"/>
	<path style="fill-rule:evenodd;clip-rule:evenodd;fill:#171B1F;" d="M227.941,61.172c-0.828-0.447-0.828-0.895,0-1.343
		C227.941,60.276,227.941,60.724,227.941,61.172z"/>
	<path style="fill-rule:evenodd;clip-rule:evenodd;fill:#171B1F;" d="M227.941,63.172c-0.828-0.447-0.828-0.895,0-1.343
		C227.941,62.276,227.941,62.724,227.941,63.172z"/>
	<path style="fill-rule:evenodd;clip-rule:evenodd;fill:#171B1F;" d="M227.941,65.172c-0.828-0.447-0.829-0.895,0-1.343
		C227.941,64.276,227.941,64.724,227.941,65.172z"/>
	<path style="fill-rule:evenodd;clip-rule:evenodd;fill:#171B1F;" d="M227.941,67.172c-0.828-0.447-0.828-0.896,0-1.343
		C227.941,66.276,227.941,66.724,227.941,67.172z"/>
	<path style="fill-rule:evenodd;clip-rule:evenodd;fill:#171B1F;" d="M227.941,69.172c-0.828-0.447-0.828-0.896,0-1.343
		C227.941,68.276,227.941,68.724,227.941,69.172z"/>
	<path style="fill-rule:evenodd;clip-rule:evenodd;fill:#171B1F;" d="M227.941,71.172c-0.828-0.447-0.828-0.896,0-1.343
		C227.941,70.276,227.941,70.724,227.941,71.172z"/>
	<path style="fill-rule:evenodd;clip-rule:evenodd;fill:#171B1F;" d="M227.941,73.172c-0.828-0.447-0.828-0.896,0-1.343
		C227.941,72.276,227.941,72.724,227.941,73.172z"/>
	<path style="fill-rule:evenodd;clip-rule:evenodd;fill:#171B1F;" d="M227.941,75.172c-0.828-0.447-0.828-0.896,0-1.343
		C227.941,74.276,227.941,74.724,227.941,75.172z"/>
	<path style="fill-rule:evenodd;clip-rule:evenodd;fill:#171B1F;" d="M227.84,77.307c-0.799-0.551-0.691-1.038,0.103-1.479
		C227.909,76.32,227.874,76.813,227.84,77.307z"/>
	<path style="fill-rule:evenodd;clip-rule:evenodd;fill:#171B1F;" d="M227.943,79.173c-0.795-0.44-0.901-0.928-0.103-1.479
		C227.874,78.188,227.909,78.68,227.943,79.173z"/>
	<path style="fill-rule:evenodd;clip-rule:evenodd;fill:#171B1F;" d="M227.941,81.172c-0.828-0.447-0.829-0.896,0-1.343
		C227.941,80.276,227.941,80.725,227.941,81.172z"/>
	<path style="fill-rule:evenodd;clip-rule:evenodd;fill:#171B1F;" d="M227.941,41.172c-0.828-0.447-0.828-0.895,0-1.343
		C227.941,40.276,227.941,40.724,227.941,41.172z"/>
	<path style="fill-rule:evenodd;clip-rule:evenodd;fill:#171B1F;" d="M227.943,3.173c-0.765-0.431-0.931-0.903-0.104-1.447
		C227.873,2.208,227.908,2.69,227.943,3.173z"/>
	<path style="fill-rule:evenodd;clip-rule:evenodd;fill:#171B1F;" d="M227.941,7.172c-0.828-0.447-0.828-0.896,0-1.343
		C227.941,6.276,227.941,6.724,227.941,7.172z"/>
	<path style="fill-rule:evenodd;clip-rule:evenodd;fill:#0F1418;" d="M227.943,85.212c-0.827-0.474-0.829-0.948,0-1.423
		C227.943,84.263,227.943,84.737,227.943,85.212z"/>
	<path style="fill-rule:evenodd;clip-rule:evenodd;fill:#171B1F;" d="M227.941,11.172c-0.828-0.447-0.828-0.896,0-1.343
		C227.941,10.276,227.941,10.724,227.941,11.172z"/>
	<path style="fill-rule:evenodd;clip-rule:evenodd;fill:#0F1418;" d="M227.815,87.31c-0.792-0.582-0.619-1.082,0.129-1.533
		C227.901,86.287,227.858,86.798,227.815,87.31z"/>
	<path style="fill-rule:evenodd;clip-rule:evenodd;fill:#0F1418;" d="M227.945,89.225c-0.75-0.453-0.919-0.954-0.128-1.534
		C227.858,88.202,227.902,88.713,227.945,89.225z"/>
	<path style="fill-rule:evenodd;clip-rule:evenodd;fill:#171B1F;" d="M227.941,15.172c-0.828-0.447-0.828-0.896,0-1.343
		C227.941,14.276,227.941,14.724,227.941,15.172z"/>
	<path style="fill-rule:evenodd;clip-rule:evenodd;fill:#0F1418;" d="M227.943,91.212c-0.827-0.474-0.828-0.948,0-1.423
		C227.942,90.263,227.942,90.737,227.943,91.212z"/>
	<path style="fill-rule:evenodd;clip-rule:evenodd;fill:#ECEBEA;" d="M632.593,116.613c-3.401,12.445-6.647,23.551-9.362,34.785
		c-0.7,2.897-1.865,3.255-4.311,3.313c-14.176,0.333-14.094,0.354-17.844-13.374c-3.747-13.716-7.68-27.381-11.681-41.6
		c5.126,0,9.919,0.06,14.709-0.026c2.112-0.038,2.656,0.887,3.059,2.886c2.376,11.781,4.971,23.519,7.811,36.76
		c1.562-5.43,2.808-9.542,3.923-13.69c2.022-7.521,4.149-15.023,5.849-22.619c0.62-2.774,1.83-3.313,4.371-3.369
		c12.515-0.275,12.544-0.35,15.454,11.869c2.211,9.279,4.332,18.578,6.756,28.997c2.402-12.676,4.657-24.145,6.71-35.649
		c0.661-3.705,1.772-5.973,6.265-5.261c3.238,0.514,6.624,0.1,10.587,0.1c-3.169,11.153-6.202,21.892-9.273,32.619
		c-1.821,6.363-3.878,12.665-5.471,19.084c-0.658,2.65-1.729,3.547-4.381,3.272c-4.761-0.492-10.81,1.973-13.984-1.033
		c-2.848-2.697-2.736-8.58-3.8-13.088C636.195,133.03,633.568,125.666,632.593,116.613z"/>
	<path style="fill-rule:evenodd;clip-rule:evenodd;fill:#EDEBEB;" d="M686.062,115.224c-0.401-13.968-2.845-12.404,11.007-15.827
		c5.866-1.449,11.872-1.425,17.809-0.176c8.504,1.789,14.617,9.61,14.943,19.909c0.343,10.818,0.076,21.655,0.221,32.482
		c0.033,2.44-0.793,3.271-3.156,3.085c-1.987-0.156-3.996-0.03-5.996-0.03c-6.751,0-6.751-0.001-7.117-7.271
		c-3.15,3.297-5.913,6.514-10.244,7.666c-11.703,3.112-21.016-1.834-23.07-12.412c-2.146-11.051,5.331-20.386,17.262-21.655
		c4.096-0.436,8.197-0.928,12.245-1.674c3.342-0.616,4.11-3.145,2.043-5.799c-3.407-4.375-8.107-3.938-12.699-3.176
		C694.689,111.113,690.314,112.838,686.062,115.224z M714.009,132.341c-0.616-1.033,1.399-3.611-1.771-3.41
		c-4.129,0.261-8.289,0.529-12.2,2.036c-3.25,1.252-4.328,3.853-4.051,7.186c0.258,3.115,2.153,4.618,4.97,5.399
		C707.66,145.412,713.891,140.155,714.009,132.341z"/>
	<path style="fill-rule:evenodd;clip-rule:evenodd;fill:#EDEBEB;" d="M579.303,139.805c-0.123,2.181-0.267,3.76-0.29,5.341
		c-0.124,8.021-0.382,8.475-8.138,9.701c-5.892,0.932-11.759,1.432-17.812,0.533c-11.059-1.643-18.413-8.472-20.464-18.358
		c-2.447-11.795-1.494-24.146,9.414-32.702c8.898-6.979,18.863-7.973,29.054-3.479c9.02,3.978,12.651,11.807,12.924,21.272
		c0.283,9.872,0.161,9.877-9.463,9.881c-7.325,0.003-14.657,0.198-21.972-0.074c-4.303-0.161-4.264,1.579-2.919,4.668
		c2.498,5.739,9.193,8.582,17.521,7.203C571.227,143.118,575.25,142.2,579.303,139.805z M558.433,121.556
		c-0.001,0.051-0.001,0.103-0.002,0.154c2.281,0,4.563-0.021,6.843,0.006c2.663,0.031,3.844-0.61,3.076-3.811
		c-0.941-3.923-2.604-6.92-6.649-7.791c-4.704-1.014-8.479,0.663-10.977,4.859c-1.099,1.845-2.597,4.019-1.61,5.956
		c0.825,1.621,3.242,0.549,4.956,0.614C555.521,121.6,556.978,121.556,558.433,121.556z"/>
	<path style="fill-rule:evenodd;clip-rule:evenodd;fill:#171B1F;" d="M501.225,149.004c0.208-0.752,0.476-1.477,1.452-1.274
		c0.084,0.018,0.003,0.831-0.002,1.275C502.191,149.005,501.708,149.004,501.225,149.004z"/>
	<path style="fill-rule:evenodd;clip-rule:evenodd;fill:#0F1418;" d="M227.941,97.176c-0.837-0.45-0.836-0.9,0-1.352
		C227.941,96.274,227.941,96.726,227.941,97.176z"/>
	<path style="fill-rule:evenodd;clip-rule:evenodd;fill:#0F1418;" d="M227.942,99.176c-0.836-0.45-0.837-0.9,0-1.351
		C227.942,98.275,227.942,98.726,227.942,99.176z"/>
	<path style="fill-rule:evenodd;clip-rule:evenodd;fill:#0F1418;" d="M227.942,101.176c-0.836-0.45-0.837-0.9,0-1.351
		C227.942,100.275,227.942,100.726,227.942,101.176z"/>
	<path style="fill-rule:evenodd;clip-rule:evenodd;fill:#0F1418;" d="M227.942,103.176c-0.836-0.45-0.837-0.9,0-1.351
		C227.942,102.275,227.942,102.726,227.942,103.176z"/>
	<path style="fill-rule:evenodd;clip-rule:evenodd;fill:#0F1418;" d="M227.942,105.176c-0.836-0.45-0.837-0.9,0-1.351
		C227.942,104.275,227.942,104.726,227.942,105.176z"/>
	<path style="fill-rule:evenodd;clip-rule:evenodd;fill:#0F1418;" d="M227.942,107.176c-0.836-0.45-0.837-0.9,0-1.351
		C227.942,106.275,227.942,106.726,227.942,107.176z"/>
	<path style="fill-rule:evenodd;clip-rule:evenodd;fill:#0F1418;" d="M227.942,109.176c-0.836-0.45-0.837-0.9,0-1.351
		C227.942,108.275,227.942,108.726,227.942,109.176z"/>
	<path style="fill-rule:evenodd;clip-rule:evenodd;fill:#0F1418;" d="M227.942,111.176c-0.836-0.45-0.837-0.9,0-1.351
		C227.942,110.275,227.942,110.726,227.942,111.176z"/>
	<path style="fill-rule:evenodd;clip-rule:evenodd;fill:#0F1418;" d="M227.942,113.176c-0.836-0.45-0.837-0.9,0-1.351
		C227.942,112.275,227.942,112.726,227.942,113.176z"/>
	<path style="fill-rule:evenodd;clip-rule:evenodd;fill:#0F1418;" d="M227.942,117.176c-0.836-0.45-0.837-0.9,0-1.351
		C227.942,116.275,227.942,116.726,227.942,117.176z"/>
	<path style="fill-rule:evenodd;clip-rule:evenodd;fill:#0F1418;" d="M227.942,115.176c-0.836-0.45-0.837-0.9,0-1.351
		C227.942,114.275,227.942,114.726,227.942,115.176z"/>
	<path style="fill-rule:evenodd;clip-rule:evenodd;fill:#EEEDED;" d="M65.286,58.106c3.558-3.505,8.264-5.892,9.78-11.364
		c0.428-1.546,2.858-2.617,4.493-3.727c1.636-1.109,3.89-1.613,5.065-3.046c4.392-5.352,9.59-6.48,15.878-4.042
		c1.994,0.772,3.081-0.885,4.106-2.109c2.075-2.479,4.116-2.918,7.377-1.761c3.905,1.385,8.17,1.528,12.469,1.566
		c2.692,0.024,5.874,2.793,7.905,5.137c2.727,3.146,5.467,4.478,9.717,4.643c5.346,0.208,10.694,0.764,16.054,1.063
		c7.426,0.414,12.447,8.238,20.52,8.512c1.201,0.041,2.315,2.623,3.47,4.03c0.025,0.666,0.051,1.333,0.077,1.999
		c-0.158,0.632,0.142,1.011,0.689,1.254c0.371,0.216,0.742,0.431,1.113,0.646c0.655,0.059,1.311,0.116,1.966,0.175
		c0.309,0.167,0.618,0.334,0.927,0.501c0.41,0.481,0.821,0.963,1.231,1.445c0.265,0.427,0.53,0.854,0.794,1.28
		c-0.08,0.282-0.011,0.521,0.206,0.72c0.265,0.427,0.53,0.854,0.794,1.28c-0.08,0.282-0.011,0.521,0.206,0.72
		c0.265,0.427,0.53,0.854,0.794,1.28c0.085,0.568,0.17,1.138,0.255,1.706c-0.378,1.587,0.37,2.52,1.781,3.065l-0.034-0.033
		c0.213,0.403,0.425,0.807,0.638,1.21c0.154,0.579,0.308,1.159,0.462,1.738c-0.348,2.484-2.634,5.15,0.681,7.292
		c0,0-0.04,0.009-0.039,0.009c0.453,1.236,0.905,2.474,1.358,3.711c-0.155,0.582-0.31,1.164-0.465,1.746
		c-3.271,4.257-0.174,6.979,2.368,9.835c0.057,1.139,0.114,2.276,0.17,3.415c0.127,2.676-1.213,5.762,2.107,7.546l0.061,0.112
		c2.186,1.676,3.852,3.762,4.019,6.573c0.349,5.888,2.044,12.296,0.305,17.533c-1.649,4.967-2.47,10.389-4.701,14.841
		c-2.021,4.032-4.44,8.808-8.96,11.372c-1.789,1.016-3.146,2.501-3.803,4.457c-0.627,1.866-1.854,2.867-3.727,2.526
		c-3.698-0.674-5.021,1.706-6.923,4.236c-3.127,4.159-6.813,8.05-11.994,9.77c-2.057,0.684-2.107,2.199-2.56,3.788
		c-1.69,5.937-4.977,10.131-11.793,10.048c-1.718-0.021-3.026,0.604-3.608,2.121c-2.188,5.7-6.808,5.513-11.611,4.959
		c-0.962-0.111-2.432-0.776-2.794-0.382c-6.439,7-14.005,2.048-20.499,1.013c-5.049-0.806-10.986-2.611-15.081-7.201
		c-2.918-3.271-6.978-4.626-11.41-5.517c-4.863-0.978-9.992-1.18-14.49-2.295c-6.96-1.726-13.157-6.637-19.552-10.412
		c-0.95-0.561-1.654-2.276-1.699-3.486c-0.113-3.098-1.317-4.954-4.398-5.757c-1.646-0.429-3.472-1.869-3.496-3.286
		c-0.121-7.024-4.081-13.177-4.266-20.141c-0.033-1.232,0.059-2.387,1.052-3.176c2.557-2.032,1.466-2.995-0.266-5.365
		c-2.41-3.299-2.367-8.025-1.753-12.184c0.335-2.271,0.018-3.505-1.711-5.02c-4.181-3.662-5.242-9.302-2.257-13.862
		c1.615-2.468,1.8-4.415,0.544-6.802c0.003-2.007,0.007-4.013,0.011-6.02c1.149-1.364,2.298-2.729,3.447-4.093
		c0.335,0.057,0.554-0.077,0.655-0.401c2.242-3.357,1.325-8.346,5.517-10.696c0.241,0.009,0.355-0.107,0.341-0.35
		c1.474-0.681,1.059-2.21,1.506-3.353c0.249,0.101,0.476,0.065,0.682-0.105c1.155,0.294,1.897-0.267,2.464-1.189
		c0.238,0.013,0.354-0.1,0.347-0.338c1.195-0.823,1.929-1.981,2.412-3.322c0,0-0.071,0.028-0.071,0.027
		c1.316-1.175,1.189-2.332-0.04-3.478c0.437-3.523,1.769-0.846,2.778-0.401C60.25,65.969,63.468,64.364,65.286,58.106z
		 M146.895,60.933l0.044-0.041c-1.979,0.416-3.958,0.832-5.937,1.247c-0.336,0.008-0.672,0.016-1.007,0.023
		c-1.766,0.912-3.531,1.824-5.296,2.736c-0.574,0.319-1.147,0.913-1.724,0.916c-4.626,0.021-7.925,1.559-8.646,6.693
		c-0.115,0.819-1.089,2.044-1.822,2.169c-6.715,1.15-4.769,7.883-6.866,11.698c-1.782,3.242-2.008,8.688-0.661,13.262
		c0.37,1.255,0.072,2.763,1.625,3.238c1.462,0.447,2.022-0.761,2.482-1.85c2.474-5.857,8.892-7.93,12.342-12.867
		c0.82-1.175,2.281-1.249,3.651-1.17c2.066,0.12,3.625-0.886,5.448-1.784c6.983-3.438,14.763-3.259,22.322-3.872
		c0.885-0.072,1.946,1.1,2.802,1.839c1.07,0.925,2.462,1.753,3.601,1.262c3.248-1.401,6.136-0.191,9.169,0.562
		c1.025,0.254,2.345,1.216,3.244,0.046c0.914-1.188,0.207-2.453-0.415-3.683c-1.819-3.595-4.26-6.918-6.207-10.226
		c-3.154-5.358-11.029-3.026-12.495-9.451c-0.018-0.079-1.23,0-1.829,0.186c-2.477,0.769-4.942,0.225-7.412,0.038
		c-0.429-0.265-0.857-0.528-1.287-0.793c-0.196-0.204-0.434-0.276-0.71-0.219C149.824,59.122,148.348,58.832,146.895,60.933z
		 M85.186,95.451c0.019,0.281,0.168,0.42,0.451,0.416c2.855,4.396,6.085,8.386,11.204,10.326l-0.039-0.034
		c2.34,2.792,6.368,2.389,8.995,4.731c0.521,0.465,1.583-0.12,2.056-0.932c0.478-0.821,0.294-1.601-0.229-2.311
		c-1.16-1.575-2.346-3.132-3.521-4.695c-1.156-1.871-3.436-3.414-1.767-6.105c1.087-1.754,0.581-3.409-0.118-5.183
		c-0.675-1.71-0.707-3.48,0.342-5.228c1.275-2.123,1.082-4.421,0.25-6.685c0.022-0.605,0.043-1.211,0.065-1.816l-0.17-0.132
		c1.03-0.609,1.39-1.608,1.573-2.709c0.253-0.33,0.506-0.66,0.76-0.989c1.535-1.383,4.237-2.302,2.052-5.163
		c-0.033-0.646-0.065-1.291-0.098-1.936c0.797-1.681,1.594-3.36,2.391-5.04c5.834-2.102,8.451-7.027,10.825-12.215
		c1.037-2.265,1.556-3.955-1.739-4.756c-9.911-2.409-17.062,3.997-25.08,7.639c-0.398,0.182-0.677,0.731-0.906,1.166
		c-1.41,2.667-3.544,4.74-5.586,6.891c-0.263,0.429-0.526,0.857-0.79,1.285c-0.068,0.658-0.137,1.316-0.205,1.975
		c-0.266,1.015-0.532,2.03-0.798,3.046c-0.202,0.194-0.273,0.429-0.212,0.703c-1.513,1.181-2.695,2.437-0.989,4.35
		c0.078,1.322,0.155,2.645,0.233,3.966c-0.138,0.321-0.138,0.642,0,0.962c-0.166,1.595-1.311,2.604-2.238,3.744
		c-4.8,4.504,0.666,7.016,2.005,10.328c0.059,0.649,0.118,1.3,0.177,1.949C83.859,94.083,84.191,94.917,85.186,95.451z
		 M55.065,117.536c0.041,0.312,0.218,0.472,0.533,0.478c0.963,1.278,2.293,2.211,2.466,4.119
		c0.193,2.141,11.305,10.278,13.605,10.256c0.127-0.001,0.253-0.199,0.379-0.307c0.982-0.032,1.964-0.065,2.946-0.098
		c2.988,1.396,5.712,2.062,9.389,1.46c3.835-0.626,7.003-2.744,10.497-3.249c5.362-0.775,8.745-3.72,11.922-7.478
		c0.757-0.896,1.731-1.753,0.984-3.033c-0.605-1.038-1.779-0.722-2.702-0.651c-5.588,0.424-10.885-0.823-16.091-2.658
		c-1-0.447-2-0.895-3.001-1.342c-1.428-2.694-3.036-4.683-6.71-4.527c-2.22,0.095-4.902-1.555-5.02-4.021
		c-0.208-4.326-3.245-5.747-6.168-7.527c-2.144-2.438-2.444-5.295-1.967-8.363c0.251-1.615,0.753-3.459-0.849-4.597
		c-2.827-2.008-3.261-4.801-3.059-7.904c0.083-1.271,0.676-2.752-1.32-3.14c-1.491-0.289-1.942,0.881-2.616,1.817
		c-2.658,3.698-4.786,7.633-6.83,11.729c-1.563,3.131-1.502,6.279-2.645,9.13c-1.894,4.726,1.708,5.672,3.942,7.753
		c0.082,0.077,0.008,0.32,0.007,0.486C48.449,110.875,49.067,113.998,55.065,117.536z M149.879,97.758
		c-0.628,0.137-1.255,0.273-1.883,0.409c-4.974-0.338-9.331,1.809-13.595,3.808c-2.143,1.004-4.841,1.364-6.281,3.76
		c-0.605,1.007-1.573,1.81-0.688,3.071c0.669,0.953,1.66,0.451,2.52,0.605c7.832,1.404,16.913-0.09,21.753,8.8
		c0.24,0.44,1.147,0.752,1.733,0.734c6.188-0.185,6.688,3.979,7.82,8.745c0.951,4.002,8.104,3.89,8.073,9.486
		c-0.007,1.157-0.121,2.319-0.27,3.468c-0.189,1.461,0.118,2.65,1.563,3.301c3.644,1.639,3.754,4.846,3.293,8.048
		c-0.262,1.815-1.361,3.654,1.298,4.364c2.189,0.585,3.834-1.028,4.291-2.6c0.915-3.146,2.848-5.535,4.78-7.926
		c2.727-3.374,4.394-6.696,2.823-11.27c-0.69-2.008-0.983-4.598,0.805-6.66c0.549-0.634,0.814-1.696,0.12-2.295
		c-3.039-2.622-2.853-6.127-2.85-9.609c0.001-1.008,0.02-2.407-1.026-2.585c-5.625-0.952-7.301-6.477-11.198-9.304
		c-2.808-2.038-6.215-4.705-10.06-1.374c-0.638-0.577-1.275-1.154-1.913-1.731c0.263-0.9,0.887-2.618,0.067-2.574
		C157.282,98.629,153.745,94.909,149.879,97.758z M100.989,184.961c3.53,2.201,7.285,3.363,11.287,4.368
		c4.822,1.212,8.995-1.217,13.534-1.264c5.691-0.059,9.69-4.834,15.114-5.783c0.16-0.028,0.23-0.59,0.335-0.906
		c1.327-4.027,5.082-5.084,8.069-7.311c2.815-2.098-0.086-7.473,2.93-10.546c2.466-2.512,2.186-5.174,2.213-8.666
		c0.043-5.739-0.27-11.05-2.25-16.398c-0.622-1.678-0.446-3.688-2.303-4.698c-2.062-1.122-3.077-2.945-3.635-5.101
		c-0.306-1.18-0.77-2.176-2.047-2.585c-3.79-1.215-7.964-1.528-10.3-5.659c-1.541-2.724-4.61,0.556-6.626-1.125
		c-0.711,1.872,0.362,3.566,0.627,5.319c0.395,2.602,3.643,3.782,3.48,6.901c-0.282,5.389,4.506,10.93-0.511,16.187
		c2.077,8.172-4.269,13.611-7.564,19.448c-2.804,4.966-8.114,8.773-10.755,14.439C110.154,186.797,105.222,184.467,100.989,184.961z
		 M80.459,165.681c1.389,2.26,0.851,5.503,3.883,5.129c5.422-0.67,10.638-0.987,15.723-4.523c3.802-2.645,8.881-3.225,10.008-8.835
		c0.052-0.257,0.441-0.537,0.731-0.639c3.131-1.093,3.886-3.972,5.509-6.425c2.222-3.359,0.765-7.314,2.169-9.927
		c2.501-4.648-0.202-8.737,0.465-12.997c0.161-1.029-1.442-2.191-1.556-1.419c-0.598,4.054-5.226,3.845-6.819,7.466
		c-2.031,4.616-6.164,9.05-11.518,10.318c-5.988,1.42-11.19,6.783-18.113,3.958c-0.25-0.102-0.775,0.532-1.196,0.782
		c-4.403,2.609-8.926,2.209-12.602-1.169c-1.064-0.979-1.736-2.304-3.701-1.672c-2.661,0.856-5.392,1.267-8.199,0.07
		c-1.312-0.559-2.514-0.108-2.771,1.768c-0.554,4.037,3.937,13.281,7.715,14.756c3.938,1.538,7.374,3.613,10.699,6.256
		C75.624,172.342,79.021,171.272,80.459,165.681z"/>
	<path style="fill-rule:evenodd;clip-rule:evenodd;fill:#B24531;" d="M205.998,113.007c0.176-6.503,0.304-6.61,6.703-6.389
		c0.961,0.033,1.931-0.143,2.895-0.236c5.405-0.524,6.629,0.738,6.133,6.048c-0.307,3.285-0.086,6.395,2.28,9.182
		c2.207,2.599,2.013,5.591-0.006,8.388c-2.137,1.113-3.139,2.843-3.029,5.278c0.052,1.153,0.062,2.557-1.32,2.923
		c-1.057,0.28-1.703-0.825-2.42-1.496c-2.655-2.485-4.229-5.923-8.503-6.936c-2.446-0.58-2.511-4.012-1.624-6.571
		c1.073-3.098,1.418-6.149-0.107-9.199c-0.335-0.333-0.67-0.665-1.005-0.998L205.998,113.007z"/>
	<path style="fill-rule:evenodd;clip-rule:evenodd;fill:#B64A36;" d="M205.995,113c0.335,0.333,0.67,0.665,1.005,0.998
		C206.665,113.665,206.33,113.333,205.995,113z"/>
	<path style="fill-rule:evenodd;clip-rule:evenodd;fill:#B54936;" d="M65.286,58.106c-1.818,6.258-5.035,7.862-12.406,6.188
		c0.275-0.404,0.609-1.19,0.816-1.158C58.638,63.899,62.422,62.086,65.286,58.106z"/>
	<path style="fill-rule:evenodd;clip-rule:evenodd;fill:#AF4632;" d="M42.459,76.803c-4.192,2.351-3.275,7.339-5.517,10.696
		C35.61,81.481,37.868,77.104,42.459,76.803z"/>
	<path style="fill-rule:evenodd;clip-rule:evenodd;fill:#AC402C;" d="M197.923,98.587c-2.542-2.856-5.64-5.578-2.368-9.835
		C196.344,92.03,197.133,95.309,197.923,98.587z"/>
	<path style="fill-rule:evenodd;clip-rule:evenodd;fill:#AC402C;" d="M200.2,109.548c-3.32-1.784-1.979-4.87-2.107-7.546
		C201.194,103.848,200.319,106.803,200.2,109.548z"/>
	<path style="fill-rule:evenodd;clip-rule:evenodd;fill:#AF4632;" d="M36.287,87.9c-1.149,1.364-2.298,2.729-3.447,4.093
		c-2.444-0.859-1.565-2.202-0.292-3.234C33.557,87.939,34.408,85.291,36.287,87.9z"/>
	<path style="fill-rule:evenodd;clip-rule:evenodd;fill:#AC402C;" d="M194.701,83.286c-3.315-2.142-1.029-4.808-0.681-7.292
		C195.724,78.287,194.89,80.816,194.701,83.286z"/>
	<path style="fill-rule:evenodd;clip-rule:evenodd;fill:#AF4632;" d="M50.212,68.146c-0.483,1.341-1.217,2.499-2.412,3.322
		C46.696,68.976,48.081,68.29,50.212,68.146z"/>
	<path style="fill-rule:evenodd;clip-rule:evenodd;fill:#AC402C;" d="M183.999,60.906c-0.371-0.215-0.742-0.43-1.113-0.645
		c-0.23-0.418-0.459-0.836-0.689-1.255c-0.025-0.666-0.051-1.333-0.077-1.999C184.433,57.494,183.892,59.356,183.999,60.906z"/>
	<path style="fill-rule:evenodd;clip-rule:evenodd;fill:#AF4632;" d="M44.307,73.101c-0.447,1.143-0.033,2.672-1.506,3.353
		C41.832,74.676,41.963,73.392,44.307,73.101z"/>
	<path style="fill-rule:evenodd;clip-rule:evenodd;fill:#AC402C;" d="M196.02,87.006c-0.453-1.237-0.905-2.475-1.358-3.711
		C197.885,83.518,197.222,85.163,196.02,87.006z"/>
	<path style="fill-rule:evenodd;clip-rule:evenodd;fill:#AC402C;" d="M192.954,73.079c-1.412-0.546-2.159-1.479-1.781-3.065
		C192.991,70.324,192.998,71.687,192.954,73.079z"/>
	<path style="fill-rule:evenodd;clip-rule:evenodd;fill:#AF4632;" d="M47.454,71.806c-0.567,0.923-1.31,1.483-2.464,1.189
		C45.312,71.564,46.027,70.948,47.454,71.806z"/>
	<path style="fill-rule:evenodd;clip-rule:evenodd;fill:#AF4632;" d="M50.101,64.695c1.229,1.146,1.356,2.303,0.04,3.478
		C50.128,67.015,50.115,65.854,50.101,64.695z"/>
	<path style="fill-rule:evenodd;clip-rule:evenodd;fill:#AC402C;" d="M193.558,74.256c-0.213-0.403-0.425-0.807-0.638-1.21
		c0.395,0.171,0.791,0.342,1.186,0.513C193.922,73.791,193.74,74.023,193.558,74.256z"/>
	<path style="fill-rule:evenodd;clip-rule:evenodd;fill:#AC402C;" d="M186.892,61.582c-0.309-0.167-0.618-0.334-0.927-0.501
		c0.125-0.418,0.066-1.121,0.745-0.867C186.912,60.289,186.839,61.105,186.892,61.582z"/>
	<path style="fill-rule:evenodd;clip-rule:evenodd;fill:#AC402C;" d="M188.917,64.308c-0.265-0.427-0.529-0.854-0.794-1.28
		C188.388,63.453,188.653,63.881,188.917,64.308z"/>
	<path style="fill-rule:evenodd;clip-rule:evenodd;fill:#AC402C;" d="M189.917,66.308c-0.265-0.427-0.529-0.854-0.794-1.28
		C189.388,65.454,189.653,65.881,189.917,66.308z"/>
	<path style="fill-rule:evenodd;clip-rule:evenodd;fill:#AC402C;" d="M190.917,68.308c-0.265-0.427-0.529-0.854-0.794-1.28
		C190.388,67.454,190.653,67.881,190.917,68.308z"/>
	<path style="fill-rule:evenodd;clip-rule:evenodd;fill:#171B1F;" d="M502.98,127.225c0.378,3.705-0.543,7.509-2.819,10.937
		c-2.439,3.674-6.047,5.2-10.297,4.747c-4.329-0.461-7.366-3.03-8.738-7.135c-1.782-5.33-1.75-10.804-0.026-16.14
		c1.89-5.846,6.646-8.932,12.024-8.143c5.706,0.838,9.498,5.186,9.845,11.344C503.044,124.161,502.98,125.494,502.98,127.225z"/>
	<path style="fill-rule:evenodd;clip-rule:evenodd;fill:#171B1F;" d="M501.263,103.995c0.471,0,0.941,0,1.412,0
		c0.01,0.434,0.019,0.868,0.028,1.302C501.82,105.309,501.436,104.77,501.263,103.995z"/>
	<path style="fill-rule:evenodd;clip-rule:evenodd;fill:#171B1F;" d="M436.358,126.254c-0.221,5.866-0.162,11.377-5.255,14.801
		c-7.343,4.937-17.304,0.84-18.982-7.801c-0.762-3.919-0.744-7.963,0.005-11.886c1.226-6.419,6.7-10.608,12.785-10.091
		c6.818,0.579,10.577,4.445,11.21,11.548C436.238,124.145,436.305,125.47,436.358,126.254z"/>
	<path style="fill-rule:evenodd;clip-rule:evenodd;fill:#171B1F;" d="M714.009,132.341c-0.118,7.814-6.349,13.071-13.053,11.211
		c-2.816-0.781-4.712-2.284-4.97-5.399c-0.277-3.333,0.801-5.934,4.051-7.186c3.911-1.507,8.071-1.775,12.2-2.036
		C715.408,128.729,713.393,131.308,714.009,132.341z"/>
	<path style="fill-rule:evenodd;clip-rule:evenodd;fill:#1B2024;" d="M558.433,121.556c-1.455,0-2.911,0.044-4.363-0.012
		c-1.714-0.065-4.131,1.007-4.956-0.614c-0.986-1.938,0.512-4.111,1.61-5.956c2.497-4.196,6.272-5.873,10.977-4.859
		c4.046,0.871,5.708,3.868,6.649,7.791c0.768,3.2-0.413,3.842-3.076,3.811c-2.28-0.026-4.562-0.006-6.843-0.006
		C558.432,121.658,558.432,121.606,558.433,121.556z"/>
	<path style="fill-rule:evenodd;clip-rule:evenodd;fill:#AE4431;" d="M100.989,184.961c4.233-0.494,9.165,1.836,11.597-3.379
		c2.642-5.666,7.952-9.474,10.755-14.439c3.295-5.837,9.641-11.276,7.564-19.448c5.018-5.257,0.229-10.798,0.511-16.187
		c0.163-3.119-3.085-4.3-3.48-6.901c-0.266-1.753-1.339-3.447-0.627-5.319c2.016,1.681,5.085-1.599,6.626,1.125
		c2.336,4.131,6.51,4.444,10.3,5.659c1.278,0.409,1.742,1.405,2.047,2.585c0.558,2.155,1.574,3.979,3.635,5.101
		c1.857,1.011,1.681,3.021,2.303,4.698c1.98,5.349,2.294,10.659,2.25,16.398c-0.027,3.492,0.253,6.154-2.213,8.666
		c-3.016,3.073-0.114,8.448-2.93,10.546c-2.988,2.227-6.743,3.283-8.069,7.311c-0.104,0.316-0.175,0.878-0.335,0.906
		c-5.424,0.949-9.423,5.725-15.114,5.783c-4.539,0.047-8.711,2.476-13.534,1.264C108.274,188.324,104.519,187.162,100.989,184.961z"
		/>
	<path style="fill-rule:evenodd;clip-rule:evenodd;fill:#AE4431;" d="M80.459,165.681c-1.438,5.592-4.835,6.661-9.571,2.897
		c-3.326-2.643-6.762-4.718-10.699-6.256c-3.778-1.475-8.269-10.719-7.715-14.756c0.258-1.876,1.46-2.326,2.771-1.768
		c2.807,1.196,5.538,0.786,8.199-0.07c1.964-0.632,2.637,0.693,3.701,1.672c3.676,3.378,8.199,3.778,12.602,1.169
		c0.421-0.25,0.947-0.884,1.196-0.782c6.923,2.825,12.125-2.538,18.113-3.958c5.354-1.269,9.486-5.702,11.518-10.318
		c1.593-3.621,6.221-3.412,6.819-7.466c0.114-0.772,1.717,0.39,1.556,1.419c-0.667,4.26,2.036,8.349-0.465,12.997
		c-1.405,2.612,0.053,6.567-2.169,9.927c-1.623,2.453-2.378,5.332-5.509,6.425c-0.291,0.102-0.68,0.382-0.731,0.639
		c-1.127,5.61-6.206,6.19-10.008,8.835c-5.085,3.536-10.301,3.854-15.723,4.523C81.31,171.184,81.848,167.94,80.459,165.681z"/>
	<path style="fill-rule:evenodd;clip-rule:evenodd;fill:#B54936;" d="M153.31,61.904c2.47,0.187,4.936,0.73,7.412-0.038
		c0.599-0.186,1.811-0.265,1.829-0.186c1.466,6.425,9.341,4.093,12.495,9.451c1.947,3.308,4.387,6.631,6.207,10.226
		c0.622,1.229,1.329,2.494,0.415,3.683c-0.899,1.17-2.219,0.208-3.244-0.046c-3.033-0.753-5.921-1.963-9.169-0.562
		c-1.139,0.491-2.531-0.337-3.601-1.262c-0.855-0.739-1.917-1.911-2.802-1.839c-7.559,0.613-15.339,0.434-22.322,3.872
		c-1.823,0.898-3.382,1.904-5.448,1.784c-1.37-0.079-2.831-0.005-3.651,1.17c-3.45,4.938-9.868,7.01-12.342,12.867
		c-0.46,1.089-1.02,2.297-2.482,1.85c-1.553-0.476-1.254-1.983-1.625-3.238c-1.348-4.573-1.122-10.02,0.661-13.262
		c2.097-3.815,0.151-10.548,6.866-11.698c0.733-0.125,1.707-1.35,1.822-2.169c0.721-5.135,4.02-6.673,8.646-6.693
		c0.576-0.003,1.149-0.597,1.724-0.916c2.277,0.078,4.736,0.508,5.296-2.736c0.335-0.008,0.671-0.016,1.007-0.023
		c2.454,1.846,4.496,1.73,5.937-1.247l-0.044,0.041c1.473-0.014,2.945-0.027,4.417-0.04c0.277-0.058,0.514,0.015,0.71,0.219
		C152.452,61.376,152.881,61.64,153.31,61.904z"/>
	<path style="fill-rule:evenodd;clip-rule:evenodd;fill:#B54936;" d="M85.903,63.952c0.068-0.658,0.137-1.316,0.205-1.975
		c0.264-0.428,0.527-0.856,0.79-1.285c2.042-2.15,4.177-4.224,5.586-6.891c0.229-0.435,0.507-0.984,0.906-1.166
		c8.018-3.642,15.169-10.048,25.08-7.639c3.295,0.801,2.776,2.491,1.739,4.756c-2.374,5.188-4.991,10.113-10.827,12.216
		c-2.5,0.873-4.661,1.905-2.389,5.039c0.032,0.645,0.065,1.29,0.098,1.936c-1.637,1.343-2.145,3.133-2.052,5.163
		c-0.253,0.329-0.507,0.659-0.76,0.989c-1.681,0.231-2.389,1.028-1.573,2.709c0,0,0.17,0.132,0.167,0.132
		c-0.573,0.206-1.336,0.331-1.138,1.146c0.071,0.293,0.701,0.451,1.076,0.671c0.832,2.264,1.024,4.562-0.25,6.685
		c-1.049,1.747-1.017,3.518-0.342,5.228c0.699,1.773,1.205,3.429,0.118,5.183c-1.669,2.691,0.611,4.234,1.767,6.105
		c-0.561,3.601-2.39,4.816-5.834,3.175c-0.395-0.188-0.973,0.012-1.466,0.031l0.039,0.034c0.294-2.702,0.417-5.109-3.64-4.349
		c-1.746,0.328-1.579-1.226-2.028-2.533c-0.79-2.3-1.803-5.391-5.536-3.444c-0.282,0.004-0.432-0.135-0.45-0.417
		c0.859-1.373,0.312-2.108-1.107-2.45c-0.059-0.649-0.118-1.3-0.177-1.949c1.434-1.22,0.566-2.497-0.196-3.426
		c-1.7-2.072-1.773-4.456-1.81-6.902c0.927-1.14,2.072-2.149,2.238-3.744c0.093-0.097,0.276-0.212,0.261-0.288
		c-0.046-0.232-0.168-0.45-0.261-0.674c-0.078-1.321-0.155-2.644-0.233-3.966c1.405-1.205,1.034-2.814,0.989-4.35
		c-0.061-0.274,0.01-0.509,0.212-0.703C87.127,66.443,87.4,65.43,85.903,63.952z"/>
	<path style="fill-rule:evenodd;clip-rule:evenodd;fill:#AF4632;" d="M162.9,102.735c3.845-3.331,7.252-0.664,10.06,1.374
		c3.897,2.827,5.573,8.352,11.198,9.304c1.046,0.178,1.027,1.577,1.026,2.585c-0.002,3.482-0.188,6.987,2.85,9.609
		c0.694,0.599,0.429,1.661-0.12,2.295c-1.788,2.063-1.495,4.652-0.805,6.66c1.571,4.573-0.096,7.896-2.823,11.27
		c-1.932,2.391-3.865,4.779-4.78,7.926c-0.457,1.571-2.102,3.185-4.291,2.6c-2.659-0.71-1.56-2.549-1.298-4.364
		c0.461-3.202,0.351-6.409-3.293-8.048c-1.446-0.65-1.752-1.84-1.563-3.301c0.148-1.148,0.263-2.311,0.27-3.468
		c0.032-5.597-7.122-5.484-8.073-9.486c-1.132-4.766-1.632-8.93-7.82-8.745c-0.585,0.018-1.493-0.294-1.733-0.734
		c-4.84-8.89-13.921-7.396-21.753-8.8c-0.86-0.154-1.851,0.348-2.52-0.605c-0.886-1.262,0.083-2.064,0.688-3.071
		c1.44-2.396,4.138-2.756,6.281-3.76c4.264-1.999,8.621-4.146,13.595-3.808c-0.311,1.716-1.758,1.689-3.02,2.041
		c-4.988,1.386-9.819,3.15-14.271,6.175c1.481,1.032,3.333,2.11,4.596,1.385c2.916-1.676,5.716-0.243,7.151,1.162
		c3.254,3.188,3.161-0.408,4.618-2.531c-0.392,5.867,5.101,5.97,6.758,9.32c1.847-1.421,1.729,3.116,3.244,1.247
		c1.394-1.72,4.838-2.591,3.187-6.077c-0.269-0.567,0.138-2.107,0.546-2.241C164.178,107.539,162.749,104.88,162.9,102.735z
		 M166.482,108.319c1.407-1.8,1.892-3.083,0.022-4.881C165.955,105.168,165.8,106.395,166.482,108.319z M164.827,107.305
		c-0.095-0.122-0.189-0.244-0.284-0.366c-0.121,0.259-0.275,0.509-0.344,0.78c-0.023,0.092,0.171,0.237,0.266,0.358
		C164.586,107.82,164.707,107.563,164.827,107.305z"/>
	<path style="fill-rule:evenodd;clip-rule:evenodd;fill:#B24733;" d="M85.993,115.033c1,0.447,2,0.895,3.001,1.342
		c0.159,4.976,4.036,5.549,7.531,5.657c1.759,0.055,1.888,0.793,2.211,1.774c0.396,1.202-0.009,2.808-0.929,3.098
		c-2.055,0.646-4.498-1.263-6.611,0.955c-0.247,0.259-0.717-2.608-1.993-4.05c-0.871,4.209-1.906,8.178-7.263,7.505
		c-3.823-0.479-2.332-4.074-3.408-6.304c-2.467,1.795-2.874,4.45-3.538,6.974c-0.982,0.032-1.964,0.065-2.946,0.098
		c-1.026-1.351-3.108-1.915-3.044-4.079c0.202-0.218,0.404-0.436,0.606-0.653c-0.144-0.081-0.289-0.161-0.433-0.242
		c-0.061,0.296-0.122,0.592-0.182,0.888c-1.156-0.599-0.818-2.98-2.558-2.597c-2.782,0.612-1.703-5.419-5.323-2.9
		c-0.052-3.02-3.467-4.338-3.255-8.054c-1.069,1.688-1.666,2.63-2.263,3.571c-0.314-0.008-0.492-0.168-0.531-0.48
		c0.898-1.028,0.868-2.777,0.031-3.022c-4.536-1.327-2.769-3.961-1.656-6.548c0.383-0.89,0.013-1.551-0.684-2.096
		c0.001-0.166,0.075-0.409-0.007-0.486c-2.234-2.081-5.836-3.027-3.942-7.753c1.143-2.851,1.082-5.999,2.645-9.13
		c2.044-4.096,4.172-8.03,6.83-11.729c0.673-0.937,1.125-2.106,2.616-1.817c1.996,0.388,1.403,1.869,1.32,3.14
		c-0.202,3.104,0.232,5.896,3.059,7.904c1.602,1.138,1.1,2.981,0.849,4.597c-0.477,3.068-0.176,5.925,1.967,8.363
		c-0.222,0.411-0.744,0.99-0.622,1.208c4.008,7.141,9.867,12.486,16.756,16.715C85.208,117.482,85.458,115.74,85.993,115.033z"/>
	<path style="fill-rule:evenodd;clip-rule:evenodd;fill:#B24733;" d="M162.9,102.735c-0.151,2.145,1.278,4.804-2.094,5.912
		c-0.409,0.134-0.815,1.674-0.546,2.241c1.651,3.486-1.793,4.357-3.187,6.077c-1.516,1.869-1.397-2.668-3.244-1.247
		c-1.658-3.351-7.15-3.453-6.758-9.32c-1.457,2.123-1.363,5.719-4.618,2.531c-1.436-1.405-4.235-2.838-7.151-1.162
		c-1.264,0.726-3.115-0.353-4.596-1.385c4.452-3.024,9.282-4.789,14.271-6.175c1.262-0.352,2.709-0.325,3.02-2.041
		c0.628-0.136,1.255-0.272,1.883-0.409c3.703,1.082,7.406,2.164,11.108,3.246C161.625,101.581,162.262,102.158,162.9,102.735z"/>
	<path style="fill-rule:evenodd;clip-rule:evenodd;fill:#AE4431;" d="M74.995,131.984c0.665-2.523,1.071-5.179,3.538-6.974
		c1.076,2.229-0.415,5.824,3.408,6.304c5.357,0.673,6.392-3.296,7.263-7.505c1.275,1.441,1.746,4.309,1.993,4.05
		c2.113-2.218,4.556-0.309,6.611-0.955c0.92-0.29,1.325-1.896,0.929-3.098c-0.323-0.981-0.453-1.72-2.211-1.774
		c-3.495-0.108-7.372-0.682-7.531-5.657c5.207,1.835,10.503,3.082,16.091,2.658c0.922-0.07,2.096-0.387,2.702,0.651
		c0.747,1.28-0.227,2.138-0.984,3.033c-3.177,3.758-6.56,6.702-11.922,7.478c-3.493,0.505-6.662,2.623-10.497,3.249
		C80.707,134.046,77.983,133.381,74.995,131.984z"/>
	<path style="fill-rule:evenodd;clip-rule:evenodd;fill:#AE4431;" d="M69.004,128.003c-0.064,2.164,2.018,2.729,3.044,4.079
		c-0.126,0.107-0.252,0.306-0.379,0.307c-2.3,0.022-13.412-8.115-13.605-10.256c-0.172-1.908-1.502-2.841-2.466-4.118
		c0.597-0.94,1.193-1.883,2.263-3.57c-0.212,3.716,3.203,5.034,3.255,8.054c3.62-2.519,2.541,3.513,5.323,2.9
		c1.739-0.384,1.402,1.998,2.558,2.597L69.004,128.003z"/>
	<path style="fill-rule:evenodd;clip-rule:evenodd;fill:#AF4632;" d="M85.993,115.033c-0.534,0.707-0.785,2.449-1.764,1.848
		c-6.889-4.229-12.748-9.574-16.756-16.715c-0.123-0.218,0.4-0.797,0.622-1.208c2.923,1.78,5.96,3.201,6.168,7.527
		c0.118,2.466,2.8,4.115,5.02,4.021C82.957,110.351,84.564,112.339,85.993,115.033z"/>
	<path style="fill-rule:evenodd;clip-rule:evenodd;fill:#B24733;" d="M96.802,106.159c0.493-0.02,1.072-0.219,1.466-0.031
		c3.444,1.642,5.273,0.426,5.834-3.175c1.175,1.563,2.361,3.12,3.521,4.695c0.522,0.71,0.707,1.489,0.229,2.311
		c-0.473,0.812-1.535,1.396-2.056,0.932C103.17,108.548,99.142,108.951,96.802,106.159z"/>
	<path style="fill-rule:evenodd;clip-rule:evenodd;fill:#B24733;" d="M85.637,95.867c3.733-1.946,4.746,1.145,5.536,3.444
		c0.449,1.308,0.282,2.861,2.028,2.533c4.057-0.761,3.934,1.646,3.64,4.349C91.722,104.253,88.492,100.264,85.637,95.867z"/>
	<path style="fill-rule:evenodd;clip-rule:evenodd;fill:#AE4431;" d="M52.757,105.869c0.697,0.545,1.067,1.206,0.684,2.096
		c-1.112,2.587-2.88,5.221,1.656,6.548c0.836,0.245,0.867,1.994-0.031,3.022C49.067,113.998,48.449,110.875,52.757,105.869z"/>
	<path style="fill-rule:evenodd;clip-rule:evenodd;fill:#AF4632;" d="M160.987,101.004c-3.703-1.082-7.405-2.164-11.108-3.246
		c3.866-2.849,7.403,0.871,11.176,0.672C161.874,98.386,161.25,100.104,160.987,101.004z"/>
	<path style="fill-rule:evenodd;clip-rule:evenodd;fill:#B24733;" d="M81.898,80.723c0.036,2.446,0.11,4.83,1.81,6.902
		c0.762,0.929,1.629,2.206,0.196,3.426C82.563,87.738,77.098,85.227,81.898,80.723z"/>
	<path style="fill-rule:evenodd;clip-rule:evenodd;fill:#AF4632;" d="M105.039,74.106c-0.093-2.03,0.415-3.82,2.052-5.163
		C109.276,71.805,106.574,72.724,105.039,74.106z"/>
	<path style="fill-rule:evenodd;clip-rule:evenodd;fill:#AF4632;" d="M106.994,67.008c-2.272-3.134-0.11-4.166,2.389-5.039
		C108.587,63.647,107.791,65.327,106.994,67.008z"/>
	<path style="fill-rule:evenodd;clip-rule:evenodd;fill:#AF4632;" d="M146.939,60.892c-1.441,2.978-3.483,3.093-5.937,1.247
		C142.981,61.724,144.96,61.308,146.939,60.892z"/>
	<path style="fill-rule:evenodd;clip-rule:evenodd;fill:#AF4632;" d="M139.995,62.162c-0.561,3.244-3.019,2.814-5.296,2.736
		C136.464,63.986,138.229,63.074,139.995,62.162z"/>
	<path style="fill-rule:evenodd;clip-rule:evenodd;fill:#B24733;" d="M84.892,67.701c0.045,1.535,0.416,3.145-0.989,4.35
		C82.197,70.138,83.379,68.882,84.892,67.701z"/>
	<path style="fill-rule:evenodd;clip-rule:evenodd;fill:#B24733;" d="M85.903,63.952c1.498,1.478,1.225,2.491-0.798,3.046
		C85.371,65.982,85.637,64.967,85.903,63.952z"/>
	<path style="fill-rule:evenodd;clip-rule:evenodd;fill:#AF4632;" d="M151.313,60.893c-1.473,0.013-2.945,0.026-4.417,0.04
		C148.348,58.832,149.824,59.122,151.313,60.893z"/>
	<path style="fill-rule:evenodd;clip-rule:evenodd;fill:#AF4632;" d="M102.706,77.805c-0.815-1.681-0.108-2.478,1.573-2.709
		C104.096,76.196,103.736,77.195,102.706,77.805z"/>
	<path style="fill-rule:evenodd;clip-rule:evenodd;fill:#B24733;" d="M84.08,93c1.418,0.342,1.966,1.077,1.107,2.45
		C84.191,94.917,83.859,94.083,84.08,93z"/>
	<path style="fill-rule:evenodd;clip-rule:evenodd;fill:#AF4632;" d="M102.811,79.753c-0.375-0.22-1.004-0.378-1.076-0.671
		c-0.198-0.814,0.565-0.939,1.138-1.146C102.854,78.542,102.833,79.147,102.811,79.753z"/>
	<path style="fill-rule:evenodd;clip-rule:evenodd;fill:#B64A36;" d="M182.197,59.007c0.23,0.419,0.459,0.837,0.689,1.255
		C182.339,60.018,182.039,59.639,182.197,59.007z"/>
	<path style="fill-rule:evenodd;clip-rule:evenodd;fill:#B24733;" d="M86.898,60.692c-0.263,0.429-0.526,0.857-0.79,1.285
		C86.372,61.55,86.635,61.121,86.898,60.692z"/>
	<path style="fill-rule:evenodd;clip-rule:evenodd;fill:#AF4632;" d="M153.31,61.904c-0.429-0.265-0.857-0.528-1.287-0.793
		C152.452,61.376,152.881,61.64,153.31,61.904z"/>
	<path style="fill-rule:evenodd;clip-rule:evenodd;fill:#B24733;" d="M84.136,76.017c0.093,0.224,0.215,0.441,0.261,0.674
		c0.015,0.076-0.168,0.191-0.261,0.288C83.999,76.658,83.999,76.338,84.136,76.017z"/>
	<path style="fill-rule:evenodd;clip-rule:evenodd;fill:#B24733;" d="M166.482,108.319c-0.682-1.925-0.527-3.151,0.022-4.881
		C168.374,105.236,167.889,106.52,166.482,108.319z"/>
	<path style="fill-rule:evenodd;clip-rule:evenodd;fill:#B24733;" d="M164.827,107.305c-0.12,0.258-0.241,0.516-0.362,0.772
		c-0.095-0.121-0.289-0.267-0.266-0.358c0.069-0.271,0.223-0.521,0.344-0.78C164.637,107.061,164.732,107.183,164.827,107.305z"/>
	<path style="fill-rule:evenodd;clip-rule:evenodd;fill:#AE4431;" d="M68.996,127.995c0.061-0.296,0.122-0.592,0.182-0.888
		c0.145,0.081,0.289,0.161,0.433,0.242c-0.202,0.218-0.404,0.436-0.606,0.653L68.996,127.995z"/>
</g>
</svg>
