<?xml version="1.0" encoding="utf-8"?>
<!-- Generator: Adobe Illustrator 16.0.3, SVG Export Plug-In . SVG Version: 6.00 Build 0)  -->
<!DOCTYPE svg PUBLIC "-//W3C//DTD SVG 1.1//EN" "http://www.w3.org/Graphics/SVG/1.1/DTD/svg11.dtd" [
	<!ENTITY ns_flows "http://ns.adobe.com/Flows/1.0/">
	<!ENTITY ns_extend "http://ns.adobe.com/Extensibility/1.0/">
	<!ENTITY ns_ai "http://ns.adobe.com/AdobeIllustrator/10.0/">
	<!ENTITY ns_graphs "http://ns.adobe.com/Graphs/1.0/">
]>
<svg version="1.1" id="Layer_1" xmlns:x="&ns_extend;" xmlns:i="&ns_ai;" xmlns:graph="&ns_graphs;"
	 xmlns="http://www.w3.org/2000/svg" xmlns:xlink="http://www.w3.org/1999/xlink" xmlns:a="http://ns.adobe.com/AdobeSVGViewerExtensions/3.0/"
	 x="0px" y="0px" width="403px" height="135px" viewBox="0 0 403 135" style="enable-background:new 0 0 403 135;"
	 xml:space="preserve">
<g>
	<path style="fill-rule:evenodd;clip-rule:evenodd;fill:#4A4A4D;" d="M78,1c2.685,1.788,5.921,1.582,8.871,2.42
		c31.206,8.869,50.854,37.045,49.122,70.564c-1.532,29.666-25.373,55.688-55.934,61.044c-0.784,0.137-1.692-0.031-2.059,0.972
		c-6.667,0-13.333,0-20,0c-0.694-1.6-2.289-1.061-3.465-1.358c-27.759-7.04-45.15-24.4-52.191-52.168
		C2.045,81.296,2.592,79.703,1,79c0-7,0-14,0-21c1.789-1.19,1.315-3.27,1.746-4.908C9.402,27.76,25.327,11.389,50.192,3.479
		C53.107,2.553,56.359,2.857,59,1C65.333,1,71.667,1,78,1z M66.004,39.289c6.328,20.206,12.368,40.226,18.965,60.06
		c1.716,5.158-0.209,7.447-4.215,9.296c-1.642,0.758-3.436,1.422-5.214,1.604c-4.096,0.419-5.444,2.251-3.927,6.164
		c0.35,0.903,0.379,1.968,0.387,2.959c0.02,2.6,1.065,3.29,3.748,2.99c13.998-1.562,23.559-8.887,28.049-22.107
		c6.515-19.185,12.498-38.549,18.787-57.811c0.808-2.473,0.716-3.701-2.365-3.521c-3.319,0.193-6.676,0.261-9.981-0.025
		c-2.639-0.228-3.45,1.064-3.97,3.22c-1.405,5.813-2.864,11.613-4.356,17.404c-2.293,8.907-4.632,17.802-7.255,27.867
		c-3.014-12.276-5.685-23.248-8.408-34.206c-1.156-4.651-1.017-11.244-4.015-13.386C78.892,37.41,72.651,39.081,67.672,39
		C67.348,38.995,67.021,39.107,66.004,39.289z M33.925,70.247c-0.002-18.905,5.913-23.151,22.646-17.438
		c1.455,0.497,2.149,0.107,2.9-0.934c1.071-1.485,2.054-3.062,3.298-4.388c2.277-2.425,1.725-3.85-0.974-5.656
		c-16.798-11.244-39.242-2.413-43.718,17.327c-1.002,4.419-1.299,8.893-0.983,13.405c1.578,22.526,23.5,34.427,43.271,23.665
		c4.039-2.198,4.594-3.956,1.725-7.739c-2.625-3.461-4.054-5.604-9.179-2.929c-9.166,4.785-17.199-0.206-18.714-10.635
		C33.911,72.957,33.961,70.939,33.925,70.247z"/>
	<path style="fill-rule:evenodd;clip-rule:evenodd;fill:#4C4C4F;" d="M404,86c-10.272,15.299-31.472,18.749-46.744,7.764
		c-2.614-1.881-2.854-3.265-0.438-5.297c0.883-0.742,1.678-1.648,2.317-2.61c1.757-2.64,3.429-3.274,6.389-1.185
		c4.65,3.283,10.111,4.167,15.752,3.315c3.168-0.478,5.818-1.921,6.333-5.416c0.521-3.541-1.534-5.616-4.668-6.735
		c-2.814-1.005-5.651-1.956-8.509-2.828c-3.354-1.022-6.639-2.198-9.584-4.131c-10.735-7.041-10.504-21.882,0.783-27.953
		c11.554-6.215,23.082-4.828,34.188,1.744c1.771,1.047,2.35,2.09,0.909,3.854c-0.943,1.155-1.864,2.386-2.501,3.723
		c-1.285,2.695-2.817,3.078-5.439,1.524c-4.105-2.432-8.68-3.272-13.462-2.829c-2.862,0.265-5.358,1.269-6.004,4.32
		c-0.684,3.229,1.49,4.925,4.167,5.92c3.579,1.332,7.195,2.579,10.843,3.709C395.406,65.079,401.195,68.739,404,76
		C404,79.333,404,82.667,404,86z"/>
	<path style="fill-rule:evenodd;clip-rule:evenodd;fill:#FCFCFC;" d="M59,1c-2.641,1.857-5.893,1.553-8.808,2.479
		C25.327,11.389,9.402,27.76,2.746,53.092C2.315,54.73,2.789,56.81,1,58C1,40,1.058,22,0.934,4C0.916,1.498,1.499,0.917,4,0.934
		C22.333,1.057,40.667,1,59,1z"/>
	<path style="fill-rule:evenodd;clip-rule:evenodd;fill:#FCFCFC;" d="M1,79c1.592,0.703,1.045,2.296,1.344,3.474
		c7.041,27.768,24.432,45.128,52.191,52.168C55.711,134.939,57.306,134.4,58,136c-18,0-36-0.058-54,0.066
		c-2.502,0.018-3.084-0.564-3.067-3.066C1.058,115,1,97,1,79z"/>
	<path style="fill-rule:evenodd;clip-rule:evenodd;fill:#4B4B4E;" d="M161.724,94.485c0,7.934-0.09,15.039,0.044,22.14
		c0.054,2.853-0.309,4.303-3.829,4.739c-12.193,1.51-12.167,1.716-12.167-10.668c0-22.467,0.077-44.934-0.082-67.399
		c-0.024-3.477,0.868-4.917,4.39-4.358c0.974,0.155,1.999,0.094,2.991,0.012c4.138-0.341,8.246-0.69,7.225,5.661
		c2.287-0.302,3.072-1.967,4.327-2.928c11.526-8.827,27.41-4.554,32.279,9.047c3.802,10.621,3.954,21.514,0.544,32.335
		C192.348,99.248,175.736,105.054,161.724,94.485z M161.72,69.27c0,3.329,0.177,6.67-0.05,9.983
		c-0.226,3.288,1.346,5.327,3.876,6.97c6.368,4.133,13.824,1.291,16.1-6.453c2.051-6.978,1.955-14.144,0.511-21.247
		c-1.407-6.92-5.098-10.117-10.636-9.483c-5.562,0.638-9.785,5.691-9.801,11.74C161.713,63.609,161.72,66.439,161.72,69.27z"/>
	<path style="fill-rule:evenodd;clip-rule:evenodd;fill:#4B4B4E;" d="M279.139,73.301c-4.993,0.001-9.991,0.122-14.979-0.046
		c-2.832-0.096-3.363,0.884-2.8,3.524c1.77,8.296,7.794,12.447,16.616,11.037c1.943-0.312,3.85-1.027,5.692-1.76
		c1.974-0.783,4.757-3.079,5.599-2.481c2.328,1.655,3.807,4.491,5.662,6.828c1.325,1.668-0.089,2.382-1.111,3.072
		c-10.374,7.001-21.598,8.688-33.203,4.019c-10.796-4.342-14.906-13.55-15.837-24.556c-0.452-5.354-0.165-10.647,1.295-15.829
		c3.818-13.555,14.884-21.28,28.395-19.882c13.642,1.412,22.274,10.505,23.497,24.75c0.972,11.323,0.972,11.323-10.337,11.323
		C284.799,73.301,281.969,73.301,279.139,73.301z M271.259,63.28c2.663,0,5.328,0.046,7.989-0.021
		c1.223-0.03,2.584,0.395,3.008-1.653c1.046-5.072-2.703-11.862-7.537-13.223c-5.461-1.537-10.369,1.309-12.381,7.176
		c-2.5,7.292-2.197,7.724,5.426,7.725C268.928,63.284,270.094,63.284,271.259,63.28z"/>
	<path style="fill-rule:evenodd;clip-rule:evenodd;fill:#4B4B4E;" d="M324.287,99.957c-7.656-0.211-14.744-2.165-21.096-6.634
		c-1.916-1.348-2.49-2.431-0.533-4.171c1.113-0.99,2.156-2.116,3.006-3.338c1.819-2.616,3.478-3.168,6.426-1.099
		c4.654,3.266,10.139,4.173,15.768,3.251c3.084-0.505,5.778-1.785,6.203-5.47c0.421-3.64-1.619-5.602-4.722-6.702
		c-4.382-1.555-8.854-2.865-13.199-4.514c-5.868-2.226-10.546-5.847-12.049-12.309c-1.803-7.745,1.308-14.86,8.592-18.421
		c11.361-5.555,22.558-4.389,33.36,1.934c1.945,1.139,2.658,2.312,0.985,4.29c-1.068,1.264-2.013,2.674-2.776,4.142
		c-1.094,2.099-2.301,2.292-4.344,1.12c-4.277-2.453-8.94-3.583-13.912-3.109c-2.795,0.267-5.381,1.023-6.056,4.188
		c-0.75,3.52,1.502,5.21,4.393,6.237c4.539,1.613,9.181,2.956,13.655,4.727c8.813,3.487,12.713,8.779,12.643,16.658
		c-0.07,7.909-4.999,14.219-13.579,17.21C332.936,99.382,328.677,100.109,324.287,99.957z"/>
	<path style="fill-rule:evenodd;clip-rule:evenodd;fill:#4C4C4F;" d="M222.199,47.653c2.25-0.621,2.602-2.457,3.576-3.708
		c2.31-2.965,5.025-5.247,8.783-6.199c7.465-1.893,9.547-0.104,8.256,7.265c-0.201,1.146-0.685,2.283-0.674,3.42
		c0.037,3.87-1.525,4.897-5.49,4.592c-7.783-0.6-13.25,6.506-13.444,16.981c-0.151,8.158-0.142,16.323,0.028,24.48
		c0.06,2.811-0.752,3.617-3.61,3.673c-12.418,0.243-12.416,0.346-12.416-11.867c0-14.322,0.113-28.647-0.081-42.968
		c-0.047-3.489,0.912-4.949,4.422-4.374c0.486,0.08,0.998,0.012,1.498,0.011C221.41,38.952,221.41,38.952,222.199,47.653z"/>
	<path style="fill-rule:evenodd;clip-rule:evenodd;fill:#FBFBFB;" d="M94.656,87.388c2.623-10.065,4.962-18.96,7.255-27.867
		c1.492-5.791,2.951-11.592,4.356-17.404c0.521-2.155,1.331-3.447,3.97-3.22c3.306,0.286,6.663,0.219,9.981,0.025
		c3.082-0.18,3.173,1.049,2.365,3.521c-6.289,19.262-12.271,38.626-18.787,57.811c-4.49,13.221-14.051,20.546-28.049,22.107
		c-2.683,0.3-3.729-0.391-3.748-2.99c-0.008-0.991-0.038-2.056-0.387-2.959c-1.517-3.913-0.168-5.745,3.927-6.164
		c1.779-0.182,3.572-0.846,5.214-1.604c4.006-1.849,5.931-4.138,4.215-9.296c-6.597-19.834-12.637-39.854-18.965-60.06
		c1.017-0.182,1.343-0.294,1.667-0.289c4.979,0.081,11.22-1.59,14.561,0.796c2.999,2.142,2.859,8.734,4.015,13.386"/>
</g>
</svg>
