<?xml version="1.0" encoding="utf-8"?>
<!-- Generator: Adobe Illustrator 16.0.3, SVG Export Plug-In . SVG Version: 6.00 Build 0)  -->
<!DOCTYPE svg PUBLIC "-//W3C//DTD SVG 1.1//EN" "http://www.w3.org/Graphics/SVG/1.1/DTD/svg11.dtd" [
	<!ENTITY ns_flows "http://ns.adobe.com/Flows/1.0/">
	<!ENTITY ns_extend "http://ns.adobe.com/Extensibility/1.0/">
	<!ENTITY ns_ai "http://ns.adobe.com/AdobeIllustrator/10.0/">
	<!ENTITY ns_graphs "http://ns.adobe.com/Graphs/1.0/">
]>
<svg version="1.1" id="Layer_1" xmlns:x="&ns_extend;" xmlns:i="&ns_ai;" xmlns:graph="&ns_graphs;"
	 xmlns="http://www.w3.org/2000/svg" xmlns:xlink="http://www.w3.org/1999/xlink" xmlns:a="http://ns.adobe.com/AdobeSVGViewerExtensions/3.0/"
	 x="0px" y="0px" width="998.875px" height="481.94px" viewBox="0 0 998.875 481.94"
	 style="enable-background:new 0 0 998.875 481.94;" xml:space="preserve">
<g>
	<path style="fill-rule:evenodd;clip-rule:evenodd;fill:#A159FE;" d="M158.69,257.383c-0.062,19.924-0.117,39.846-0.198,59.77
		c-0.008,1.985-0.174,3.97-0.266,5.956c-27.919-0.039-55.839-0.08-83.758-0.12c-2.096-0.506-4.17-1.144-6.292-1.496
		c-30.093-4.996-50.636-21.888-62.613-49.761c-3.107-7.232-3.322-15.129-6.041-22.399c0-4,0-7.999,0-11.999
		c1.732-1.66,1.3-3.996,1.679-5.998c6.196-32.711,25.369-53.867,56.882-63.992c4.378-1.407,8.995-2.073,13.5-3.083
		c0.964-0.051,1.928-0.103,2.892-0.154c27.965,0.07,55.929,0.142,83.894,0.212c0.101,21.97,0.202,43.94,0.303,65.911
		C157.844,239.281,158.125,248.333,158.69,257.383z"/>
	<path style="fill-rule:evenodd;clip-rule:evenodd;fill:#F14E1E;" d="M74.477,164.107c-0.964,0.052-1.928,0.104-2.892,0.155
		c-1.216-1.786-3.27-1.423-4.939-1.694c-31.553-5.141-56.473-28.226-64.29-59.397C1.37,99.24,1.747,94.976-0.478,91.353
		c0-4.333,0-8.666,0-12.999c1.589-0.797,0.922-2.343,1.08-3.542C5.628,36.593,37.643,6.356,75.155,5.496
		c27.427-0.629,54.881-0.075,82.323-0.049c0.03,51.116,0.016,102.233,0.176,153.35c0.012,4.007-1.531,4.597-4.998,4.58
		c-24.309-0.123-48.62-0.08-72.93-0.039C77.97,163.34,76.046,162.651,74.477,164.107z"/>
	<path style="fill-rule:evenodd;clip-rule:evenodd;fill:#0ACE83;" d="M74.468,322.988c27.919,0.04,55.839,0.081,83.758,0.12
		c0.093,18.975,0.333,37.951,0.232,56.926c-0.071,13.278,0.938,26.591-1.952,39.788c-6.807,31.074-34.417,56.132-65.357,60.715
		c-43.728,6.476-85.758-24.631-90.611-70.191c-0.086-0.806-0.009-1.689-1.016-2.033c0-3.999,0-7.999,0-11.998
		c2.05-3.514,1.563-7.589,2.495-11.363C10.698,349.812,37.354,326.953,74.468,322.988z"/>
	<path style="fill-rule:evenodd;clip-rule:evenodd;fill:#FE7262;" d="M157.478,5.447c25.021-0.033,50.041-0.063,75.061-0.106
		c1.985-0.004,3.97-0.106,5.955-0.163c17.67,1.144,33.598,6.616,47.877,17.488c30.71,23.38,39.255,70.014,18.311,102.691
		c-16.041,25.027-39.134,37.467-68.703,38.256c-1.807,0.049-3.608,0.317-5.414,0.483c-1.514,0.078-3.026,0.155-4.538,0.233
		c-2.242-0.611-4.502-0.923-6.85-0.917c-18.708,0.046-37.417,0.01-56.126,0.055c-1.575,0.004-3.342-0.615-4.682,0.852
		c-27.964-0.07-55.929-0.142-83.894-0.212c1.569-1.456,3.493-0.767,5.25-0.77c24.31-0.041,48.621-0.084,72.93,0.039
		c3.466,0.018,5.01-0.572,4.998-4.58C157.494,107.68,157.508,56.563,157.478,5.447z"/>
	<path style="fill-rule:evenodd;clip-rule:evenodd;fill:#1BBBFD;" d="M226.027,164.33c1.512-0.078,3.024-0.155,4.538-0.233
		c25.878-1.005,48.067,7.173,65.691,26.542c11.948,13.13,18.059,28.788,20.136,46.291c5.141,43.327-28.426,76.68-60.746,83.645
		c-40.398,8.706-81.75-14.843-93.998-54.384c-0.916-2.957-1.97-5.871-2.959-8.807c-0.564-9.05-0.846-18.102-0.017-27.153
		c0.258-0.769,0.586-1.522,0.766-2.309c4.732-20.715,15.408-37.481,32.864-49.825C202.496,170.888,214.113,167.27,226.027,164.33z"
		/>
	<path style="fill-rule:evenodd;clip-rule:evenodd;fill:#020202;" d="M728.448,201.941c8.147-9.158,16.979-13.522,27.705-13.588
		c12.232-0.074,22.55,4.478,29.813,14.291c3.327,4.494,4.619,3.459,7.608-0.011c7.334-8.514,16.687-13.766,28.083-14.197
		c20.423-0.774,37.049,14.097,39.844,34.886c0.916,6.814,0.857,13.608,0.866,20.426c0.024,18.324-0.117,36.65,0.11,54.971
		c0.048,3.829-1.005,4.867-4.688,4.565c-4.137-0.341-8.343-0.329-12.481-0.001c-3.479,0.276-4.043-1.112-4.024-4.224
		c0.139-23.32,0.124-46.642,0.114-69.963c-0.005-12.013-8.475-21.468-20.89-23.439c-10.06-1.597-20.874,5.289-24.467,15.617
		c-0.929,2.671-1.497,5.419-1.484,8.276c0.103,22.984,0.107,45.971,0.362,68.953c0.04,3.581-1.018,4.623-4.472,4.357
		c-3.809-0.293-7.676-0.298-11.483,0.001c-3.531,0.277-4.437-0.946-4.409-4.431c0.162-21.32,0.023-42.644,0.117-63.966
		c0.025-6-1.063-11.534-4.882-16.321c-6.448-8.088-15.247-10.542-25.336-7.061c-9.561,3.299-15.94,11.827-15.978,21.806
		c-0.082,21.989-0.146,43.978,0.076,65.964c0.041,4.035-1.148,5.066-4.942,4.781c-4.306-0.325-8.665-0.243-12.983-0.016
		c-2.728,0.145-3.267-0.875-3.262-3.389c0.074-34.816,0.089-69.631-0.019-104.447c-0.009-2.997,1.04-3.585,3.71-3.458
		c4.154,0.198,8.341,0.267,12.486-0.013c3.634-0.244,5.729,0.492,4.935,4.698C728.277,198.074,728.448,199.208,728.448,201.941z"/>
	<path style="fill-rule:evenodd;clip-rule:evenodd;fill:#020202;" d="M653.167,201.06c0.577-9.682,0.577-9.682,9.504-9.682
		c11.784,0,11.784,0,11.784,11.745c0,29.979,0.019,59.957-0.006,89.935c-0.024,28.878-18.159,50.933-46.682,55.866
		c-12.232,2.115-24.086-0.219-35.062-6.438c-2.2-1.246-2.383-2.258-1.011-4.124c0.879-1.194,1.535-2.553,2.295-3.834
		c2.115-3.565,3.446-8.417,6.573-10.324c3.039-1.854,6.814,2.402,10.513,3.456c20.206,5.765,41.239-9.184,42.272-30.43
		c0.256-5.272,0.038-10.569,0.038-15.673c-1.271-0.796-1.85-0.031-2.421,0.479c-22.529,20.103-57.819,11.897-71.589-16.197
		c-12-24.485-4.777-54.956,16.951-69.75c16.484-11.223,38.324-10.235,53.698,2.429C650.871,199.217,651.731,199.899,653.167,201.06z
		 M653.438,240.795c0-0.833,0.003-1.666,0-2.499c-0.07-21.161-20.899-35.27-40.405-27.226c-15.636,6.447-20.588,20.245-18.15,36.494
		c2.503,16.689,16.839,26.845,33.337,24.943C641.559,270.968,655.091,258.087,653.438,240.795z"/>
	<path style="fill-rule:evenodd;clip-rule:evenodd;fill:#030303;" d="M976.754,203.187c0.942-1.177,0.428-2.547,0.443-3.79
		c0.108-9.111,0.084-9.111,9.447-9.111c11.545,0,11.545,0,11.545,11.578c0,31.653-0.071,63.307,0.095,94.96
		c0.02,3.771-0.914,4.965-4.676,4.634c-3.967-0.35-8.025-0.411-11.978,0.015c-4.04,0.435-4.854-1.226-4.454-4.734
		c0.258-2.27,0.049-4.593,0.049-6.755c-1.187-0.714-1.735,0.002-2.347,0.535c-29.402,25.609-71.586,15.058-85.537-21.396
		c-10.684-27.917,0.018-60.542,24.267-73.985c19.436-10.774,41.977-8.574,59.523,5.756
		C974.203,201.769,974.862,203.416,976.754,203.187z M977.284,247.498c0-0.833,0.033-1.667-0.005-2.499
		c-0.681-14.61-6.873-26.067-20.297-32.391c-13.636-6.424-27.025-5.06-38.624,4.851c-13.298,11.363-15.248,26.418-11.139,42.33
		c4.764,18.451,22.233,28.978,40.949,25.604C965.901,282.194,977.281,267.364,977.284,247.498z"/>
	<path style="fill-rule:evenodd;clip-rule:evenodd;fill:#010101;" d="M404.512,219.692c0-25.983,0.099-51.967-0.103-77.948
		c-0.031-4.016,1.145-4.839,4.937-4.815c26.149,0.166,52.299,0.14,78.447,0.022c3.355-0.015,5.224,0.233,4.803,4.416
		c-0.513,5.096,1.7,12.043-0.894,14.935c-2.967,3.306-10.005,0.964-15.264,1.008c-15.49,0.13-30.981,0.14-46.469-0.027
		c-3.315-0.036-4.601,0.568-4.527,4.263c0.246,12.488,0.235,24.985,0.005,37.472c-0.067,3.61,1.075,4.394,4.486,4.35
		c14.322-0.187,28.649,0.034,42.97-0.16c3.447-0.047,4.708,0.795,4.419,4.368c-0.321,3.971-0.284,8.003-0.007,11.981
		c0.217,3.108-0.785,3.936-3.87,3.901c-14.155-0.163-28.316,0.088-42.469-0.17c-4.185-0.077-5.632,0.668-5.574,5.325
		c0.29,23.147,0.049,46.302,0.216,69.451c0.027,3.771-0.718,5.393-4.833,4.989c-3.958-0.389-8.006-0.328-11.978-0.012
		c-3.547,0.283-4.396-0.934-4.377-4.401C404.579,272.325,404.512,246.009,404.512,219.692z"/>
	<path style="fill-rule:evenodd;clip-rule:evenodd;fill:#0C0C0C;" d="M520.795,247.097c0-16.989,0.084-33.979-0.072-50.965
		c-0.031-3.365,0.685-4.847,4.354-4.542c3.804,0.317,7.681,0.345,11.48-0.005c3.882-0.357,4.663,1.117,4.644,4.768
		c-0.148,29.48-0.084,58.962-0.084,88.442c0,1.166,0.074,2.337-0.013,3.496c-0.357,4.76,2.212,11.699-0.955,13.788
		c-4.449,2.934-11.254,0.765-17.049,0.888c-3.455,0.073-2.249-2.716-2.257-4.404C520.764,281.407,520.795,264.253,520.795,247.097z"
		/>
	<path style="fill-rule:evenodd;clip-rule:evenodd;fill:#050505;" d="M531.811,143.438c7.333,0.164,13.709,6.326,13.598,13.143
		c-0.125,7.634-8.3,15.195-15.847,14.657c-5.975-0.425-11.989-7.46-11.937-13.963C517.683,149.853,524.427,143.274,531.811,143.438z
		"/>
</g>
</svg>
