<?xml version="1.0" encoding="utf-8"?>
<!-- Generator: Adobe Illustrator 16.0.3, SVG Export Plug-In . SVG Version: 6.00 Build 0)  -->
<!DOCTYPE svg PUBLIC "-//W3C//DTD SVG 1.1//EN" "http://www.w3.org/Graphics/SVG/1.1/DTD/svg11.dtd" [
	<!ENTITY ns_flows "http://ns.adobe.com/Flows/1.0/">
	<!ENTITY ns_extend "http://ns.adobe.com/Extensibility/1.0/">
	<!ENTITY ns_ai "http://ns.adobe.com/AdobeIllustrator/10.0/">
	<!ENTITY ns_graphs "http://ns.adobe.com/Graphs/1.0/">
]>
<svg version="1.1" id="Layer_1" xmlns:x="&ns_extend;" xmlns:i="&ns_ai;" xmlns:graph="&ns_graphs;"
	 xmlns="http://www.w3.org/2000/svg" xmlns:xlink="http://www.w3.org/1999/xlink" xmlns:a="http://ns.adobe.com/AdobeSVGViewerExtensions/3.0/"
	 x="0px" y="0px" width="2334.708px" height="2094.738px" viewBox="0 0 2334.708 2094.738"
	 style="enable-background:new 0 0 2334.708 2094.738;" xml:space="preserve">
<g>
	<path style="fill-rule:evenodd;clip-rule:evenodd;fill:#010101;" d="M1215.705,3.693c50.541,3.966,100.404,11.788,149.222,25.797
		c87.682,25.164,167.694,65.386,239.875,121.239c76.896,59.501,139.077,131.673,186.571,216.44
		c35.88,64.037,60.863,132.172,75.469,204.117c11.181,55.072,15.915,110.724,13.83,166.834
		c-2.596,69.915-14.885,138.161-37.615,204.428c-32.308,94.183-82.088,178.033-149.458,251.3
		c-80.401,87.438-176.766,150.854-288.767,190.512c-8.36,2.96-16.816,4-25.516,2.985c-16.455-1.92-28.067-13.919-29.094-30.406
		c-0.516-8.302-0.224-16.656-0.224-24.987c0.001-60.982,0.454-121.969-0.135-182.946c-0.346-35.82-8.204-69.966-28.216-100.479
		c-5.06-7.716-11.391-14.436-18.781-22.146c19.992-2.629,38.285-5.246,56.416-8.819c51.701-10.195,101.03-26.526,144.741-56.935
		c48.165-33.508,80.295-79.037,99.108-134.216c19.522-57.262,25.136-116.464,21.139-176.38
		c-4.046-60.63-26.826-114.196-66.922-160.117c-3.225-3.693-5.038-6.666-3.126-12.216c15.286-44.386,15.348-89.504,5.216-134.92
		c-3.188-14.295-7.484-28.272-12.763-41.966c-1.522-3.95-3.573-5.641-7.769-6.259c-15.52-2.288-30.562,0.548-45.484,3.966
		c-35.062,8.029-67.04,23.591-97.998,41.359c-13.552,7.778-26.744,16.211-39.841,24.744c-4.216,2.747-7.936,3.946-12.951,2.566
		c-55.877-15.369-112.929-22.006-170.769-21.978c-57.187,0.029-113.559,6.994-168.79,22.002c-6.933,1.885-11.94,0.584-17.548-3.122
		c-31.437-20.775-64.19-39.141-99.493-52.597c-20.263-7.724-40.965-13.718-62.752-15.541c-24.07-2.012-24.294-2.157-31.651,20.374
		c-14.963,45.821-19.091,92.375-8.822,139.784c1.476,6.813,3.062,13.733,5.757,20.114c2.837,6.721,1.665,11.323-3.126,16.766
		c-17.935,20.372-31.958,43.308-42.875,68.177c-16.315,37.17-23.536,76.181-23.358,116.584c0.168,38.043,3.437,75.824,12.124,112.97
		c11.228,48.005,30.584,92.064,63.463,129.469c27.534,31.324,61.14,54.068,99.248,70.583c36.591,15.857,74.911,25.27,114.154,31.366
		c10.821,1.682,21.684,3.086,32.522,4.616c0.445,0.997,0.321,1.963-0.434,2.703c-22.807,22.312-34.211,50.28-40.186,80.945
		c-0.445,2.288-1.048,4.573-1.205,6.885c-0.234,3.436-2.026,5.315-5.093,6.559c-40.243,16.304-81.165,23.521-123.553,8.768
		c-32.225-11.214-55.847-33.19-73.94-61.332c-10.681-16.613-22.124-32.448-36.568-45.981
		c-13.497-12.644-28.478-22.916-46.097-29.063c-16.09-5.615-32.458-6.8-49.151-3.491c-2.272,0.45-4.565,1.029-6.693,1.919
		c-8.764,3.664-10.683,9.225-5.929,17.485c4.426,7.689,10.759,13.989,18.359,18.027c32.774,17.42,52.001,46.835,70.038,77.427
		c6.595,11.187,12.474,22.735,17.191,34.854c14.292,36.721,40.758,60.849,77.301,74.398c31.8,11.793,64.817,14.038,98.351,12.236
		c20.292-1.09,40.368-3.941,60.086-7.157c1.365,1.355,1.495,2.645,1.51,4.001c0.489,41.305,0.954,82.608,1.535,123.912
		c0.071,5.063-0.47,10.009-1.826,14.813c-3.722,13.185-14.988,22.238-29.264,23.426c-7.991,0.664-15.797,0.057-23.602-2.625
		c-88.598-30.449-168.329-76.234-238.708-138.076c-97.766-85.906-167.221-190.649-207.812-314.359
		c-17.181-52.365-27.718-106.074-32.173-161.056c-9.791-120.872,9.458-236.877,58.483-347.704
		c33.99-76.839,80.631-145.34,139.209-205.701c50.721-52.262,107.984-95.877,171.98-130.552
		c65.712-35.605,135.373-60.204,208.928-73.685c27.208-4.985,54.618-8.266,82.198-10.233c10.098,0.788,20.066-0.324,29.991-2.063
		c9.332-0.02,18.665-0.04,27.996-0.059c6.537,3.585,13.526,1.727,20.364,1.69C1206.571,3.181,1211.135,4.904,1215.705,3.693z"/>
	<path style="fill-rule:evenodd;clip-rule:evenodd;fill:#010101;" d="M3.455,1740.248c1.021,1.422,2.503,2.7,3.578,0.596
		c0.845-1.654,0.57-3.893,0.749-5.876c3.396-37.553,9.101-74.665,21.569-110.432c15.089-43.285,38.063-81.223,74.787-109.824
		c29.277-22.804,62.733-35.976,98.866-42.711c42.595-7.941,85.466-7.06,128.402-3.185c25.598,2.311,50.824,6.425,75.347,14.292
		c8.872,2.847,17.647,5.982,25.706,10.766c7.087,4.204,8.084,6.046,6.318,13.76c-6.755,29.494-13.604,58.969-20.579,88.411
		c-2.097,8.852-5.694,10.763-14.558,7.796c-46.621-15.61-94.568-19.276-143.016-13.798c-55.129,6.232-92.4,34.007-111.231,93.047
		c-7.321,22.953-10.724,46.666-11.982,70.69c-1.903,36.354-1.023,72.564,6.175,108.39c4.685,23.321,12.033,45.659,25.391,65.648
		c19.657,29.418,47.641,44.537,82.414,47.95c24.333,2.39,48.548,0.739,72.715-2.285c0.99-0.123,1.981-0.271,2.961-0.461
		c8.988-1.739,9.046-1.743,9.034-10.679c-0.048-34.657-0.114-69.313-0.231-103.971c-0.024-6.969-0.143-7.088-7.029-7.094
		c-21.327-0.016-42.655,0.098-63.982,0.1c-11.921,0.001-14.834-2.774-14.89-14.537c-0.135-28.658-0.193-57.317-0.182-85.976
		c0.004-11.168,2.402-13.618,13.317-13.649c62.649-0.173,125.297-0.306,187.947-0.396c10.907-0.015,12.815,1.884,12.842,12.8
		c0.241,97.307,0.348,194.612,0.806,291.916c0.035,7.499-2.979,11.491-8.99,14.922c-32.726,18.678-67.814,30.564-104.858,36.852
		c-10.167,1.726-20.426,2.904-30.643,4.334c-3.97-0.938-7.903,0.073-11.853,0.23c-14.119,0.029-28.238,0.06-42.358,0.089
		c-4.631-0.066-9.26-0.973-13.894-0.031c-24.508-2.361-48.875-5.495-72.644-12.289c-53.917-15.411-97.346-45.111-127.228-93.255
		c-16.468-26.532-27.147-55.42-34.335-85.687c-6.553-27.59-9.639-55.656-11.454-83.894c-0.166-18.297-0.333-36.594-0.499-54.889
		c1.636-4.548,1.067-9.214,0.737-13.866c0.17-3.163,0.795-6.389,0.382-9.473c-0.408-3.04-2.191-2.165-3.598-0.334
		C3.461,1742.914,3.458,1741.58,3.455,1740.248z"/>
	<path style="fill-rule:evenodd;clip-rule:evenodd;fill:#FDFDFD;" d="M6.442,1822.809c1.815,28.237,4.9,56.304,11.454,83.894
		c7.188,30.267,17.867,59.154,34.335,85.687c29.881,48.144,73.31,77.844,127.228,93.255c23.769,6.794,48.136,9.928,72.644,12.289
		c0.022,0.582,0.049,1.164,0.081,1.745c-82.656,0.175-165.313,0.349-247.968,0.523c-0.196-92.655-0.391-185.309-0.587-277.964
		C4.566,1822.428,5.504,1822.618,6.442,1822.809z"/>
	<path style="fill-rule:evenodd;clip-rule:evenodd;fill:#FCFCFC;" d="M2339.533,1913.293c0.128,60.659,0.256,121.316,0.384,181.976
		c-45.993,0.098-91.987,0.194-137.981,0.292c-0.037-0.608-0.021-1.216,0.051-1.821c5.271-0.739,10.557-1.397,15.813-2.229
		c22.03-3.488,42.537-10.785,60.327-24.618c21.518-16.73,34.623-39.22,43.472-64.473c10.093-28.807,14.874-58.62,16.227-89.04
		l0.857,0.02L2339.533,1913.293z"/>
	<path style="fill-rule:evenodd;clip-rule:evenodd;fill:#8D8D8D;" d="M6.442,1822.809c-0.938-0.19-1.875-0.381-2.813-0.571
		c-0.038-17.998-0.076-35.995-0.114-53.993c0.809-0.108,1.618-0.217,2.428-0.324C6.109,1786.215,6.276,1804.512,6.442,1822.809z"/>
	<path style="fill-rule:evenodd;clip-rule:evenodd;fill:#323232;" d="M2339.385,1843.302c0.033,15.331,0.065,30.663,0.098,45.994
		c-0.569,0.115-1.144,0.201-1.723,0.26c-0.396-15.557-0.625-31.111,0.042-46.667
		C2338.397,1842.765,2338.927,1842.902,2339.385,1843.302z"/>
	<path style="fill-rule:evenodd;clip-rule:evenodd;fill:#747474;" d="M265.997,2097.964c14.12-0.029,28.239-0.06,42.358-0.089
		c-0.111,0.557-0.17,1.117-0.178,1.685c-13.999,0.029-27.997,0.059-41.995,0.089
		C266.194,2099.079,266.132,2098.517,265.997,2097.964z"/>
	<path style="fill-rule:evenodd;clip-rule:evenodd;fill:#C5C5C5;" d="M2201.986,2093.739c-0.071,0.605-0.088,1.213-0.051,1.821
		c-12.665,0.026-25.33,0.054-37.995,0.08c0.104-0.632,0.091-1.261-0.041-1.888
		C2176.596,2093.748,2189.291,2093.742,2201.986,2093.739z"/>
	<path style="fill-rule:evenodd;clip-rule:evenodd;fill:#8D8D8D;" d="M1650.006,2096.726c-0.026-0.634-0.053-1.269-0.078-1.901
		c12.059,0.037,24.119,0.072,36.178,0.109c-0.123,0.566-0.157,1.14-0.104,1.716
		C1674.003,2096.675,1662.004,2096.7,1650.006,2096.726z"/>
	<path style="fill-rule:evenodd;clip-rule:evenodd;fill:#747474;" d="M1153.643,2.032c-9.925,1.739-19.893,2.851-29.991,2.063
		c0.128-0.444,0.313-0.884,0.357-1.337c0.021-0.207-0.233-0.44-0.363-0.663C1133.645,2.074,1143.644,2.053,1153.643,2.032z"/>
	<path style="fill-rule:evenodd;clip-rule:evenodd;fill:#C5C5C5;" d="M5.943,1767.92c-0.81,0.107-1.619,0.216-2.428,0.324
		c-0.01-4.666-0.02-9.332-0.03-13.998c1.065-0.063,2.13-0.128,3.195-0.192C7.01,1758.706,7.579,1763.372,5.943,1767.92z"/>
	<path style="fill-rule:evenodd;clip-rule:evenodd;fill:#323232;" d="M1202.003,3.663c-6.838,0.037-13.827,1.896-20.364-1.69
		c6.666-0.014,13.332-0.028,19.998-0.042C1201.609,2.54,1201.731,3.117,1202.003,3.663z"/>
	<path style="fill-rule:evenodd;clip-rule:evenodd;fill:#FFFFFF;" d="M6.68,1754.054c-1.065,0.064-2.13,0.129-3.195,0.192
		c-0.007-3.333-0.014-6.666-0.021-9.999c1.407-1.831,3.19-2.706,3.598,0.334C7.476,1747.665,6.851,1750.891,6.68,1754.054z"/>
	<path style="fill-rule:evenodd;clip-rule:evenodd;fill:#8D8D8D;" d="M2339.385,1843.302c-0.458-0.399-0.987-0.537-1.584-0.412
		c-0.01-5.233-1.48-10.437-0.301-15.691c0.617,0.035,1.235,0.069,1.852,0.105
		C2339.363,1832.636,2339.374,1837.969,2339.385,1843.302z"/>
	<path style="fill-rule:evenodd;clip-rule:evenodd;fill:#C5C5C5;" d="M1202.003,3.663c-0.271-0.546-0.394-1.124-0.366-1.732
		c4.666-0.01,9.332-0.02,13.998-0.029c0.035,0.597,0.06,1.194,0.07,1.792C1211.135,4.904,1206.571,3.181,1202.003,3.663z"/>
	<path style="fill-rule:evenodd;clip-rule:evenodd;fill:#C5C5C5;" d="M265.997,2097.964c0.136,0.553,0.198,1.115,0.185,1.685
		c-4.666,0.01-9.332,0.02-13.998,0.029c-0.032-0.581-0.059-1.163-0.081-1.745C256.736,2096.991,261.365,2097.897,265.997,2097.964z"
		/>
	<path style="fill-rule:evenodd;clip-rule:evenodd;fill:#747474;" d="M2337.762,1889.557c0.577-0.06,1.151-0.146,1.721-0.261
		c0.009,3.999,0.017,7.999,0.025,11.998c-0.616-0.146-1.221-0.104-1.813,0.123
		C2337.717,1897.464,2337.738,1893.51,2337.762,1889.557z"/>
	<path style="fill-rule:evenodd;clip-rule:evenodd;fill:#C5C5C5;" d="M2337.694,1901.417c0.593-0.228,1.197-0.269,1.813-0.123
		c0.009,4,0.017,7.999,0.025,11.999l-0.851,0.105l-0.857-0.02C2337.781,1909.392,2337.738,1905.405,2337.694,1901.417z"/>
	<path style="fill-rule:evenodd;clip-rule:evenodd;fill:#C5C5C5;" d="M308.177,2099.56c0.007-0.567,0.067-1.128,0.178-1.685
		c3.949-0.157,7.883-1.168,11.853-0.23c-0.127,0.627-0.137,1.258-0.032,1.89C316.176,2099.543,312.176,2099.551,308.177,2099.56z"/>
	<path style="fill-rule:evenodd;clip-rule:evenodd;fill:#C5C5C5;" d="M1686.001,2096.649c-0.053-0.576-0.019-1.149,0.104-1.716
		c2.633-0.453,5.264-0.949,7.926-0.198c-0.114,0.631-0.125,1.264-0.031,1.897
		C1691.334,2096.639,1688.668,2096.645,1686.001,2096.649z"/>
	<path style="fill-rule:evenodd;clip-rule:evenodd;fill:#010101;" d="M1465.737,1785.251c0.195,92.624,0.392,185.249,0.587,277.872
		c0.003,1.665,0.009,3.331,0.011,4.997c0.001,14.685-1.307,16.033-15.906,16.071c-31.983,0.084-63.969,0.145-95.954,0.199
		c-2.663,0.005-5.361,0.151-7.981-0.215c-5.761-0.807-7.996-3.289-8.465-9.207c-0.211-2.649-0.054-5.328-0.06-7.994
		c-0.162-77.298-0.372-154.596-0.42-231.894c-0.006-9.403-0.632-7.75-8.326-7.737c-51.643,0.093-103.286,0.195-154.929,0.332
		c-9.711,0.025-9.019-1.315-8.999,9.122c0.147,75.299,0.312,150.599,0.47,225.896c0.005,2.332,0.018,4.664,0.013,6.997
		c-0.027,12.947-2.092,15.086-15.01,15.127c-32.652,0.103-65.304,0.169-97.955,0.209c-13.823,0.016-15.249-1.463-15.279-15.669
		c-0.405-188.581-0.802-377.161-1.198-565.741c-0.005-2.331-0.141-4.678,0.066-6.992c0.535-5.981,2.814-8.377,8.585-8.979
		c2.309-0.241,4.661-0.078,6.994-0.083c32.317-0.07,64.637-0.146,96.955-0.203c14.108-0.023,15.608,1.422,15.641,15.241
		c0.15,64.636,0.279,129.272,0.416,193.91c0.003,1.665,0.001,3.331,0.011,4.997c0.062,9.476-0.912,8.589,8.56,8.572
		c51.643-0.091,103.286-0.21,154.928-0.318c1.333-0.003,2.679-0.131,3.996,0.007c4.113,0.429,4.931-1.692,4.892-5.349
		c-0.195-17.989-0.193-35.982-0.24-53.973c-0.128-49.978-0.251-99.955-0.35-149.932c-0.005-2.322-0.13-4.743,0.445-6.949
		c1.229-4.707,4.62-6.573,11.931-6.608c25.654-0.118,51.31-0.134,76.965-0.188c9.328-0.02,18.659-0.162,27.985-0.017
		c8.43,0.135,10.606,2.361,10.994,10.63c0.109,2.327,0.03,4.664,0.035,6.996C1465.342,1598.003,1465.539,1691.627,1465.737,1785.251
		z"/>
	<path style="fill-rule:evenodd;clip-rule:evenodd;fill:#020202;" d="M2337.694,1901.417c0.044,3.988,0.087,7.975,0.131,11.962
		c-1.353,30.42-6.134,60.233-16.227,89.04c-8.849,25.253-21.954,47.742-43.472,64.473c-17.79,13.833-38.297,21.13-60.327,24.618
		c-5.257,0.832-10.542,1.49-15.813,2.229c-12.695,0.003-25.391,0.009-38.087,0.014c-30.026-3.104-58.989-9.903-85.885-24.206
		c-9.134-4.859-17.485-10.863-26.491-17.204c-2.533,6.202-2.334,12.511-3.531,18.491c-2.08,10.379-3.834,12.066-14.617,12.118
		c-21.987,0.107-43.975,0.139-65.962,0.147c-12.899,0.004-15.151-2.201-15.181-15.05c-0.226-96.61-0.42-193.221-0.624-289.831
		c-0.192-91.279-0.386-182.56-0.578-273.84c-0.005-2.332-0.082-4.666,0.001-6.995c0.328-9.155,2.781-11.667,12.158-11.72
		c25.651-0.145,51.304-0.14,76.955-0.194c7.996-0.017,15.991-0.045,23.986-0.047c14.288-0.003,15.562,1.215,15.596,15.165
		c0.095,37.978,0.166,75.954,0.246,113.933c0.047,21.986,0.052,43.974,0.189,65.961c0.018,2.854-0.901,5.917,1.334,9.078
		c10.6-5.331,21.225-10.661,32.48-14.603c33.64-11.779,68.066-15.332,103.293-9.905c48.84,7.523,82.486,34.771,101.917,79.814
		c11.315,26.232,17.147,53.788,18.313,82.331c-1.18,5.256,0.291,10.459,0.301,15.692c-0.666,15.555-0.438,31.109-0.041,46.666
		C2337.738,1893.51,2337.717,1897.464,2337.694,1901.417z M2212.125,1879.036c-0.016-7.313,0.183-14.632-0.088-21.935
		c-0.704-19.045-3.181-37.824-11.113-55.37c-8.222-18.19-21.776-29.817-42.129-32.612c-27.527-3.779-52.621,3.831-76.852,15.92
		c-3.773,1.885-3.855,4.855-3.846,8.303c0.157,56.917,0.321,113.833,0.29,170.75c-0.003,4.997,1.613,7.788,6.131,10.02
		c26.436,13.057,54.15,17.999,83.3,13.21c14.266-2.344,25.094-10.069,31.838-23.149c4.003-7.762,6.308-16.048,8.007-24.549
		C2211.664,1919.614,2212.096,1899.332,2212.125,1879.036z"/>
	<path style="fill-rule:evenodd;clip-rule:evenodd;fill:#020202;" d="M1694.031,2094.735c-2.662-0.751-5.293-0.255-7.926,0.198
		c-12.059-0.037-24.119-0.072-36.178-0.109c-24.132-1.31-47.668-5.52-69.313-16.691c-30.521-15.752-47.132-42.036-54.685-74.763
		c-3.762-16.301-5.145-32.887-5.201-49.548c-0.287-86.952-0.418-173.906-0.586-260.86c-0.006-2.659-0.088-5.357,0.314-7.968
		c0.756-4.884,3.74-7.639,8.757-7.947c1.66-0.104,3.331-0.038,4.996-0.042c33.648-0.071,67.298-0.17,100.946-0.2
		c11.987-0.01,13.97,1.958,13.999,13.835c0.19,80.624,0.36,161.248,0.511,241.871c0.019,10.359,0.798,20.593,3.688,30.615
		c3.852,13.352,12.438,22.067,25.916,24.978c30.596,6.606,58.672-0.943,85.163-16.307c2.174-1.262,3.502-2.849,3.295-5.563
		c-0.177-2.318-0.04-4.661-0.045-6.993c-0.187-88.619-0.373-177.238-0.561-265.857c-0.005-2.333-0.116-4.671,0.012-6.995
		c0.373-6.781,2.948-9.352,9.831-9.872c1.655-0.126,3.33-0.031,4.996-0.035c32.648-0.069,65.298-0.151,97.946-0.2
		c12.452-0.019,14.843,2.416,14.884,15.315c0.105,33.316,0.158,66.632,0.229,99.947c0.194,91.285,0.387,182.568,0.578,273.853
		c0.004,2.666,0.194,5.353-0.069,7.991c-0.646,6.447-3.747,9.919-10.21,10.036c-22.633,0.409-45.273,0.592-67.91,0.534
		c-6.821-0.017-9.423-2.569-10.858-9.429c-1.222-5.843-1.95-11.788-3.087-18.869
		C1769.298,2076.436,1733.097,2089.723,1694.031,2094.735z"/>
	<path style="fill-rule:evenodd;clip-rule:evenodd;fill:#020202;" d="M763.882,1880.259c-0.062-29.327-0.091-58.654-0.209-87.981
		c-0.028-7.102-0.16-7.214-7.042-7.233c-15.331-0.041-30.662,0.083-45.992,0.061c-11.874-0.018-13.613-1.636-13.677-13.042
		c-0.118-20.994-0.153-41.991-0.134-62.986c0.01-10.244,1.21-11.688,11.442-14.256c16.129-4.046,32.212-8.325,48.455-11.855
		c5.396-1.174,6.871-3.337,6.826-8.585c-0.274-32.658-0.241-65.318-0.311-97.979c-0.005-2.333-0.127-4.673,0.015-6.997
		c0.371-6.075,1.617-7.27,7.927-7.782c1.325-0.106,2.665-0.029,3.998-0.032c33.993-0.072,67.986-0.144,101.979-0.216
		c1-0.002,2-0.037,3,0.002c8.338,0.324,9.183,1.007,9.249,9.264c0.158,19.994,0.151,39.991,0.204,59.986
		c0.035,13.331,0.295,26.668-0.029,39.99c-0.131,5.391,1.739,6.857,6.915,6.797c22.993-0.269,45.989-0.198,68.985-0.231
		c2.663-0.005,5.349-0.101,7.985,0.195c4.984,0.562,7.756,3.507,8.168,8.514c0.165,1.987,0.087,3.996,0.092,5.994
		c0.06,25.995-0.122,51.994,0.275,77.983c0.179,11.734-2.167,15.028-15.154,14.825c-22.988-0.363-45.989-0.06-68.984,0.052
		c-7.734,0.038-7.892,0.157-7.884,7.626c0.061,51.322-0.034,102.646,0.394,153.967c0.223,26.665,14.104,40.898,40.456,44.288
		c13.088,1.685,25.913-0.035,38.845-0.688c11.977-0.604,14.177,1.329,14.221,13.226c0.087,22.995,0.129,45.99,0.146,68.985
		c0.009,11.129-0.409,11.61-10.738,14.588c-39.2,11.3-78.761,12.648-118.441,3.286c-29.588-6.982-54.25-21.815-70.53-48.4
		c-10.796-17.631-16.023-37.098-18.501-57.48c-3.03-24.916-1.373-49.924-1.86-74.888
		C763.782,1899.591,763.902,1889.924,763.882,1880.259z"/>
	<path style="fill-rule:evenodd;clip-rule:evenodd;fill:#020202;" d="M655.688,1881.044c0.13,61.626,0.26,123.253,0.391,184.878
		c0.005,2.33,0.099,4.667-0.006,6.994c-0.395,8.807-3.086,11.691-12.013,12.715c-2.636,0.301-5.316,0.271-7.977,0.279
		c-28.647,0.077-57.295,0.132-85.943,0.192c-1.333,0.003-2.667,0.039-3.998,0c-14.917-0.437-18.354-3.672-18.393-18.342
		c-0.315-124.918-0.572-249.834-0.794-374.752c-0.021-11.908,2.936-14.871,14.661-14.919c32.977-0.135,65.957-0.196,98.934-0.216
		c12.769-0.007,14.708,2.07,14.738,15.293C655.428,1755.793,655.556,1818.418,655.688,1881.044z"/>
	<path style="fill-rule:evenodd;clip-rule:evenodd;fill:#020202;" d="M592.183,1645.374c-39.439,0.092-71.136-31.981-71.162-72.008
		c-0.025-39.383,31.407-71.581,70.313-72.025c39.08-0.446,71.456,31.92,71.705,71.685
		C663.289,1612.882,631.556,1645.281,592.183,1645.374z"/>
</g>
</svg>
