<svg version="1.1" id="Layer_1" xmlns="http://www.w3.org/2000/svg" xmlns:xlink="http://www.w3.org/1999/xlink" x="0px" y="0px"
	 width="100%" viewBox="0 0 512 512" enable-background="new 0 0 512 512" xml:space="preserve">
<path fill="#FFFFFF" opacity="1.000000" stroke="none" 
	d="
M513.000000,327.000000 
	C513.000000,388.969330 513.000000,450.938629 513.000000,512.953979 
	C342.448517,512.953979 171.896988,512.953979 1.000000,512.953979 
	C1.000000,451.312866 1.000000,389.625092 1.367877,327.508179 
	C4.101580,327.719757 6.467407,328.360443 8.906830,329.397736 
	C9.938615,333.040588 10.872565,336.294250 11.858844,339.531982 
	C19.324688,364.040497 29.943089,387.071594 45.292294,407.639374 
	C54.666550,420.200745 64.304527,432.683777 74.993210,444.108185 
	C83.462402,453.160339 93.516129,460.788116 103.206703,468.627533 
	C124.640312,485.966766 149.152130,497.752045 175.119919,506.347626 
	C184.361206,509.406586 194.124939,506.661041 194.006714,492.576965 
	C193.964783,487.580414 194.000000,482.583191 194.000000,477.586273 
	C194.000000,467.134918 194.000000,456.683563 194.000000,445.761505 
	C188.629578,446.563171 183.807617,447.961609 179.017075,447.861145 
	C168.001923,447.630188 156.926376,447.263733 146.012878,445.873016 
	C127.362366,443.496338 114.411102,433.058319 107.318001,415.655975 
	C101.450851,401.261383 94.102516,388.015259 81.000839,378.409424 
	C81.000450,377.325195 80.984245,376.664307 81.002914,376.004364 
	C81.192947,369.285492 81.998451,368.595917 88.686035,368.968811 
	C91.154228,369.106445 93.637764,368.969025 96.477150,368.982483 
	C107.180939,373.563843 114.168411,381.735138 119.946114,391.001068 
	C126.648170,401.749359 134.605270,410.803253 147.067810,415.088806 
	C162.640625,420.443939 177.460571,416.975769 192.307251,412.032104 
	C195.825424,410.860626 194.706879,408.266052 195.461273,405.839050 
	C197.189926,394.056519 202.968369,384.667145 211.408279,375.730316 
	C190.725739,373.575439 171.286209,369.579529 152.673981,361.013550 
	C150.122849,359.557526 147.902603,358.243317 145.668945,356.952362 
	C131.712875,348.886353 119.637718,338.836761 111.831078,324.408752 
	C95.986801,295.125916 91.091110,263.945007 96.011650,231.144760 
	C98.682976,213.337738 106.596817,197.979706 118.041580,184.221527 
	C119.283432,182.728668 119.550285,179.797424 119.193237,177.718155 
	C118.071518,171.185959 115.790115,164.806259 115.137695,158.250092 
	C113.889793,145.709885 116.347328,133.472214 120.021378,121.502846 
	C122.702911,112.766899 125.801132,110.953758 134.517090,113.265160 
	C152.454330,118.021973 169.294449,125.304993 184.953903,135.341202 
	C188.015335,137.303284 191.804001,140.047318 194.915573,139.663193 
	C205.178299,138.396255 215.217972,135.391205 225.468842,133.940674 
	C236.168610,132.426575 247.000992,131.457001 257.799835,131.170731 
	C265.290771,130.972153 272.872772,131.991287 280.325287,133.076401 
	C291.888214,134.760040 303.363647,137.037369 314.903961,138.889786 
	C317.496002,139.305847 320.651733,139.917084 322.774384,138.870102 
	C329.739929,135.434341 336.324005,131.231674 343.101501,127.406738 
	C354.857269,120.772285 367.104889,114.822807 380.537567,113.290466 
	C390.300110,112.176819 390.753143,111.000999 393.344391,120.778473 
	C394.751038,126.086136 396.156433,131.399841 397.338379,136.760208 
	C399.995697,148.811615 400.077148,160.937485 395.914825,172.582397 
	C393.597076,179.066727 394.753845,183.618286 399.073792,188.757935 
	C413.249268,205.623154 419.091949,225.760162 419.893524,247.371185 
	C420.453827,262.476624 418.695221,277.481934 414.977234,292.177948 
	C410.248932,310.867065 402.862518,328.156281 388.660706,341.880432 
	C380.231842,350.025818 370.315918,355.870392 359.644867,361.198486 
	C341.877136,370.671387 322.422974,372.807587 302.525909,376.070923 
	C311.937195,384.823730 316.026703,395.105164 318.932068,406.475433 
	C319.323120,413.326447 319.917114,419.738617 319.953400,426.153931 
	C320.075775,447.795868 320.105408,469.439667 319.961670,491.081360 
	C319.870880,504.749969 328.411011,510.186340 340.658325,505.848236 
	C351.758148,501.916534 362.657501,497.266418 373.280212,492.171906 
	C395.622131,481.456818 415.665680,467.140839 433.306641,449.870544 
	C444.308868,439.099457 454.378418,427.234161 463.825409,415.052521 
	C475.052551,400.575470 484.505524,384.777679 491.477600,367.788483 
	C496.676392,355.120300 500.648376,341.948669 505.538422,328.993408 
	C508.273376,328.323730 510.636688,327.661865 513.000000,327.000000 
z"/>
<path fill="#ED1B24" opacity="1.000000" stroke="none" 
	d="
M505.166748,329.001251 
	C500.648376,341.948669 496.676392,355.120300 491.477600,367.788483 
	C484.505524,384.777679 475.052551,400.575470 463.825409,415.052521 
	C454.378418,427.234161 444.308868,439.099457 433.306641,449.870544 
	C415.665680,467.140839 395.622131,481.456818 373.280212,492.171906 
	C362.657501,497.266418 351.758148,501.916534 340.658325,505.848236 
	C328.411011,510.186340 319.870880,504.749969 319.961670,491.081360 
	C320.105408,469.439667 320.075775,447.795868 319.953400,426.153931 
	C319.917114,419.738617 319.323120,413.326447 319.330444,406.388733 
	C320.007294,403.068115 320.519836,400.277740 320.614929,397.473175 
	C320.698181,395.018066 319.733429,392.411896 320.269653,390.114777 
	C321.069214,386.689911 319.760956,385.236786 316.780243,385.077362 
	C313.586517,384.906525 312.909393,383.221100 312.989288,380.492950 
	C313.088074,377.119446 315.309448,376.976532 317.819611,376.988892 
	C324.649261,377.022552 331.506958,377.347656 338.293640,376.806274 
	C340.594330,376.622711 344.031494,374.619598 344.651093,372.704407 
	C346.028900,368.445740 349.312134,368.533234 352.136566,368.450195 
	C359.984619,368.219482 359.991394,368.449799 360.001404,361.166595 
	C370.315918,355.870392 380.231842,350.025818 388.660706,341.880432 
	C402.862518,328.156281 410.248932,310.867065 414.977234,292.177948 
	C418.695221,277.481934 420.453827,262.476624 419.893524,247.371185 
	C419.091949,225.760162 413.249268,205.623154 399.073792,188.757935 
	C394.753845,183.618286 393.597076,179.066727 395.914825,172.582397 
	C400.077148,160.937485 399.995697,148.811615 397.338379,136.760208 
	C396.156433,131.399841 394.751038,126.086136 393.344391,120.778473 
	C390.753143,111.000999 390.300110,112.176819 380.537567,113.290466 
	C367.104889,114.822807 354.857269,120.772285 343.101501,127.406738 
	C336.324005,131.231674 329.739929,135.434341 322.774384,138.870102 
	C320.651733,139.917084 317.496002,139.305847 314.903961,138.889786 
	C303.363647,137.037369 291.888214,134.760040 280.325287,133.076401 
	C272.872772,131.991287 265.290771,130.972153 257.799835,131.170731 
	C247.000992,131.457001 236.168610,132.426575 225.468842,133.940674 
	C215.217972,135.391205 205.178299,138.396255 194.915573,139.663193 
	C191.804001,140.047318 188.015335,137.303284 184.953903,135.341202 
	C169.294449,125.304993 152.454330,118.021973 134.517090,113.265160 
	C125.801132,110.953758 122.702911,112.766899 120.021378,121.502846 
	C116.347328,133.472214 113.889793,145.709885 115.137695,158.250092 
	C115.790115,164.806259 118.071518,171.185959 119.193237,177.718155 
	C119.550285,179.797424 119.283432,182.728668 118.041580,184.221527 
	C106.596817,197.979706 98.682976,213.337738 96.011650,231.144760 
	C91.091110,263.945007 95.986801,295.125916 111.831078,324.408752 
	C119.637718,338.836761 131.712875,348.886353 145.668945,356.952362 
	C147.902603,358.243317 150.122849,359.557526 152.675598,361.412445 
	C153.938751,367.787628 156.121048,369.728241 162.996506,368.610565 
	C166.625504,368.020630 167.956024,369.068817 168.841522,371.944183 
	C169.992157,375.680481 172.420258,377.151215 176.313660,377.049835 
	C183.141678,376.872101 189.983261,376.858185 196.805817,377.121552 
	C198.211716,377.175842 200.457581,378.552185 200.697159,379.667084 
	C200.972488,380.948334 199.720764,383.659241 198.658157,383.937317 
	C193.847244,385.196320 193.813782,388.524994 193.933975,392.386047 
	C194.004990,394.666840 193.114944,396.981384 193.214340,399.256409 
	C193.316086,401.585114 191.253555,404.719696 195.120621,406.037994 
	C194.706879,408.266052 195.825424,410.860626 192.307251,412.032104 
	C177.460571,416.975769 162.640625,420.443939 147.067810,415.088806 
	C134.605270,410.803253 126.648170,401.749359 119.946114,391.001068 
	C114.168411,381.735138 107.180939,373.563843 96.320648,368.646790 
	C85.446526,362.595795 74.201324,362.020569 68.041725,367.919037 
	C72.435158,371.619080 76.718185,375.226135 81.001213,378.833221 
	C94.102516,388.015259 101.450851,401.261383 107.318001,415.655975 
	C114.411102,433.058319 127.362366,443.496338 146.012878,445.873016 
	C156.926376,447.263733 168.001923,447.630188 179.017075,447.861145 
	C183.807617,447.961609 188.629578,446.563171 194.000000,445.761505 
	C194.000000,456.683563 194.000000,467.134918 194.000000,477.586273 
	C194.000000,482.583191 193.964783,487.580414 194.006714,492.576965 
	C194.124939,506.661041 184.361206,509.406586 175.119919,506.347626 
	C149.152130,497.752045 124.640312,485.966766 103.206703,468.627533 
	C93.516129,460.788116 83.462402,453.160339 74.993210,444.108185 
	C64.304527,432.683777 54.666550,420.200745 45.292294,407.639374 
	C29.943089,387.071594 19.324688,364.040497 11.858844,339.531982 
	C10.872565,336.294250 9.938615,333.040588 8.848371,329.011597 
	C7.144236,320.976013 5.476279,313.742188 4.030493,306.464264 
	C2.879610,300.670807 2.000026,294.823425 1.000000,289.000000 
	C1.000000,273.312439 1.000000,257.624878 1.390223,241.287781 
	C3.855444,227.323196 5.263670,213.861710 8.148551,200.724518 
	C13.630198,175.762131 23.893147,152.610138 37.070000,130.759903 
	C40.899960,124.408958 45.090176,118.275269 49.358425,111.968979 
	C49.771637,111.612396 49.941669,111.328819 50.421276,110.895447 
	C53.152645,107.506882 55.359406,104.076576 58.039406,101.067795 
	C64.307793,94.030434 70.516411,86.898933 77.279800,80.353821 
	C85.609856,72.292603 94.478745,64.788185 103.412674,57.021862 
	C104.156418,56.703434 104.602257,56.406277 105.368927,55.968643 
	C111.913742,51.514538 118.137726,47.200912 124.729263,42.912163 
	C126.411934,41.996456 127.727043,41.055874 129.409027,40.059959 
	C138.863373,35.376301 147.950851,30.747967 157.378296,26.067215 
	C158.492905,25.714949 159.267517,25.415098 160.424347,25.057724 
	C166.203979,22.944632 171.601410,20.889067 177.391266,18.899290 
	C200.019653,11.761989 222.863312,7.575358 246.181824,7.179153 
	C261.808441,6.913641 277.596100,7.310660 293.068237,9.302360 
	C307.876129,11.208549 322.369476,15.557942 337.343567,19.000647 
	C343.110016,21.150328 348.533997,23.132858 354.109192,25.424137 
	C355.160858,25.861794 356.061249,25.990700 357.122559,26.436825 
	C366.508270,31.207834 375.733124,35.661629 385.077148,40.399399 
	C386.227814,41.293320 387.259247,41.903255 388.570679,42.730659 
	C395.550354,47.334351 402.250061,51.720573 409.061066,56.384338 
	C409.743317,56.788979 410.314301,56.916073 411.024384,57.359619 
	C415.402710,61.241817 419.634399,64.816536 423.882477,68.371674 
	C438.946259,80.978310 452.121063,95.354538 463.971405,111.288437 
	C464.329224,111.699905 464.607056,111.871002 464.939575,112.397110 
	C466.001984,114.206100 467.007843,115.661362 468.017700,117.113853 
	C480.177155,134.603470 490.272736,153.225647 497.560333,173.232483 
	C504.107727,191.207214 509.157776,209.616745 511.040924,228.771057 
	C511.444092,232.871933 512.334229,236.924942 513.000000,241.000000 
	C513.000000,256.687561 513.000000,272.375122 512.618652,288.698608 
	C509.880493,302.556763 507.523590,315.778992 505.166748,329.001251 
z"/>
<path fill="#FFFFFF" opacity="1.000000" stroke="none" 
	d="
M410.885284,57.043175 
	C410.314301,56.916073 409.743317,56.788979 409.215302,56.026703 
	C410.581696,49.974960 409.947266,48.992538 404.799042,47.948997 
	C403.819519,47.750450 402.611603,47.202793 402.094849,46.426331 
	C397.173218,39.031540 396.200409,38.717575 388.290710,42.513195 
	C387.259247,41.903255 386.227814,41.293320 385.089050,39.979206 
	C385.060699,36.722939 385.125366,34.587093 381.631134,33.723701 
	C380.109924,33.347828 378.232819,30.548660 378.192841,28.811501 
	C378.096893,24.645395 376.166199,23.729555 372.599762,23.976162 
	C368.443085,24.263582 364.265411,24.265730 360.114807,24.608858 
	C359.029510,24.698578 358.010895,25.594131 356.961670,26.119600 
	C356.061249,25.990700 355.160858,25.861794 354.121277,24.984406 
	C354.005341,16.763241 353.277161,16.025648 345.830536,16.001358 
	C344.013184,15.995433 342.096039,15.651267 340.410706,16.124573 
	C339.122192,16.486437 338.126831,17.892122 337.001068,18.833496 
	C322.369476,15.557942 307.876129,11.208549 293.068237,9.302360 
	C277.596100,7.310660 261.808441,6.913641 246.181824,7.179153 
	C222.863312,7.575358 200.019653,11.761989 177.327698,18.519018 
	C172.629593,13.927237 167.546371,15.861860 162.993698,16.735409 
	C158.372787,17.622051 160.408203,22.058222 160.042145,25.115250 
	C159.267517,25.415098 158.492905,25.714949 157.317108,25.708378 
	C151.650070,24.935007 146.383041,24.480549 141.118729,23.996628 
	C137.713989,23.683649 135.929535,24.737782 135.841400,28.621101 
	C135.801682,30.371540 134.237869,33.409386 133.045441,33.576321 
	C128.562241,34.203922 128.912247,37.069519 129.042160,40.115288 
	C127.727043,41.055874 126.411934,41.996456 124.550980,42.527306 
	C117.267822,39.031536 115.582787,39.593361 112.141968,45.718666 
	C111.604263,46.675877 110.469231,47.676361 109.438667,47.914940 
	C103.760880,49.229362 103.066101,50.396942 105.048096,56.109116 
	C104.602257,56.406277 104.156418,56.703434 103.027313,56.972481 
	C92.108742,54.282883 88.986671,55.624397 87.395493,63.367561 
	C81.754143,64.576057 83.190834,66.706863 79.511337,69.187759 
	C74.857162,72.325829 73.246559,78.132706 67.939056,80.024269 
	C67.786743,80.078537 67.543198,80.005447 67.457390,80.098244 
	C66.304535,81.345055 64.245499,82.594437 64.222855,83.875198 
	C64.171814,86.762245 62.805317,87.733498 60.539429,88.923325 
	C58.804775,89.834213 57.655582,91.897408 56.314518,93.505226 
	C55.606777,94.353752 55.241428,95.611076 54.387287,96.194778 
	C47.555244,100.863541 46.848759,103.172340 50.111702,111.045242 
	C49.941669,111.328819 49.771637,111.612396 48.919533,111.956909 
	C46.266083,112.171066 42.940552,111.711662 42.548073,112.579201 
	C40.371029,117.391335 37.207096,120.907051 32.864277,123.924072 
	C31.556007,124.832947 32.067059,128.596893 32.043339,131.055847 
	C32.016582,133.828934 31.739281,135.922119 28.155321,136.080887 
	C24.383318,136.247971 23.884766,139.032593 24.013346,142.171936 
	C24.137846,145.211685 24.040335,148.260544 24.040335,151.435104 
	C13.195821,152.855576 17.603407,161.855728 15.385902,167.519608 
	C12.275700,168.551956 7.916538,167.815781 7.989511,173.081238 
	C8.075241,179.267258 8.009589,185.455399 8.009589,192.000000 
	C5.608562,192.000000 3.304281,192.000000 1.000000,192.000000 
	C1.000000,128.364487 1.000000,64.728966 1.000000,1.046722 
	C171.552017,1.046722 342.104034,1.046722 513.000000,1.046722 
	C513.000000,64.353813 513.000000,127.708244 512.568909,191.531342 
	C510.031952,192.000000 507.926086,192.000000 506.358337,192.000000 
	C505.892273,186.764008 505.076874,182.171631 505.165070,177.596664 
	C505.324768,169.312515 505.549713,169.316849 498.353943,167.161667 
	C496.896027,161.213760 500.347931,152.691513 489.975677,151.297409 
	C489.975677,147.949982 490.277771,144.837723 489.865814,141.823029 
	C489.606049,139.922058 488.332153,136.624542 487.421021,136.592697 
	C480.677673,136.357224 482.094208,131.659531 481.995483,127.690163 
	C481.906860,124.128120 481.392365,121.007118 476.684052,120.832390 
	C475.781799,120.798904 474.194763,119.256409 474.181854,118.391266 
	C474.081635,111.691505 469.698608,111.624039 464.884918,112.042099 
	C464.607056,111.871002 464.329224,111.699905 464.273376,111.032074 
	C464.887756,108.110573 465.889252,105.581337 465.496490,103.291214 
	C465.123932,101.118958 463.481049,99.049141 462.046326,97.207298 
	C460.641632,95.403969 458.814240,93.924461 457.136047,92.341316 
	C455.726562,91.011673 454.294403,89.702431 452.814606,88.452400 
	C451.983276,87.750137 450.255646,87.175827 450.263916,86.561813 
	C450.324554,82.054634 447.073273,81.482254 444.176514,79.273918 
	C440.891174,76.769371 436.799438,73.124207 434.986847,70.019730 
	C432.616699,65.960320 430.857178,63.592293 428.156555,63.568169 
	C425.682709,60.332321 424.349945,56.797977 422.367126,56.385036 
	C418.742737,55.630211 414.733826,56.721722 410.885284,57.043175 
z"/>
<path fill="#FFFFFF" opacity="1.000000" stroke="none" 
	d="
M464.939575,112.397118 
	C469.698608,111.624039 474.081635,111.691505 474.181854,118.391266 
	C474.194763,119.256409 475.781799,120.798904 476.684052,120.832390 
	C481.392365,121.007118 481.906860,124.128120 481.995483,127.690163 
	C482.094208,131.659531 480.677673,136.357224 487.421021,136.592697 
	C488.332153,136.624542 489.606049,139.922058 489.865814,141.823029 
	C490.277771,144.837723 489.975677,147.949982 489.975677,151.297409 
	C500.347931,152.691513 496.896027,161.213760 498.353943,167.161667 
	C505.549713,169.316849 505.324768,169.312515 505.165070,177.596664 
	C505.076874,182.171631 505.892273,186.764008 506.358337,192.000000 
	C507.926086,192.000000 510.031952,192.000000 512.568909,192.000000 
	C513.000000,208.020889 513.000000,224.041794 513.000000,240.531342 
	C512.334229,236.924942 511.444092,232.871933 511.040924,228.771057 
	C509.157776,209.616745 504.107727,191.207214 497.560333,173.232483 
	C490.272736,153.225647 480.177155,134.603470 468.017700,117.113853 
	C467.007843,115.661362 466.001984,114.206100 464.939575,112.397118 
z"/>
<path fill="#FFFFFF" opacity="1.000000" stroke="none" 
	d="
M1.000000,192.468658 
	C3.304281,192.000000 5.608562,192.000000 8.009589,192.000000 
	C8.009589,185.455399 8.075241,179.267258 7.989511,173.081238 
	C7.916538,167.815781 12.275700,168.551956 15.385902,167.519608 
	C17.603407,161.855728 13.195821,152.855576 24.040335,151.435104 
	C24.040335,148.260544 24.137846,145.211685 24.013346,142.171936 
	C23.884766,139.032593 24.383318,136.247971 28.155321,136.080887 
	C31.739281,135.922119 32.016582,133.828934 32.043339,131.055847 
	C32.067059,128.596893 31.556007,124.832947 32.864277,123.924072 
	C37.207096,120.907051 40.371029,117.391335 42.548073,112.579201 
	C42.940552,111.711662 46.266083,112.171066 48.676361,112.029915 
	C45.090176,118.275269 40.899960,124.408958 37.070000,130.759903 
	C23.893147,152.610138 13.630198,175.762131 8.148551,200.724518 
	C5.263670,213.861710 3.855444,227.323196 1.390223,240.819122 
	C1.000000,224.979111 1.000000,208.958206 1.000000,192.468658 
z"/>
<path fill="#FFFFFF" opacity="1.000000" stroke="none" 
	d="
M1.000000,289.468658 
	C2.000026,294.823425 2.879610,300.670807 4.030493,306.464264 
	C5.476279,313.742188 7.144236,320.976013 8.774775,328.614990 
	C6.467407,328.360443 4.101580,327.719757 1.367877,327.039520 
	C1.000000,314.645782 1.000000,302.291534 1.000000,289.468658 
z"/>
<path fill="#FFFFFF" opacity="1.000000" stroke="none" 
	d="
M505.538391,328.993408 
	C507.523590,315.778992 509.880493,302.556763 512.618652,289.167236 
	C513.000000,301.354218 513.000000,313.708466 513.000000,326.531311 
	C510.636688,327.661865 508.273376,328.323730 505.538391,328.993408 
z"/>
<path fill="#ED1C24" opacity="1.000000" stroke="none" 
	d="
M359.644867,361.198486 
	C359.991394,368.449799 359.984619,368.219482 352.136566,368.450195 
	C349.312134,368.533234 346.028900,368.445740 344.651093,372.704407 
	C344.031494,374.619598 340.594330,376.622711 338.293640,376.806274 
	C331.506958,377.347656 324.649261,377.022552 317.819611,376.988892 
	C315.309448,376.976532 313.088074,377.119446 312.989288,380.492950 
	C312.909393,383.221100 313.586517,384.906525 316.780243,385.077362 
	C319.760956,385.236786 321.069214,386.689911 320.269653,390.114777 
	C319.733429,392.411896 320.698181,395.018066 320.614929,397.473175 
	C320.519836,400.277740 320.007294,403.068115 319.277802,405.951355 
	C316.026703,395.105164 311.937195,384.823730 302.525909,376.070923 
	C322.422974,372.807587 341.877136,370.671387 359.644867,361.198486 
z"/>
<path fill="#ED1C24" opacity="1.000000" stroke="none" 
	d="
M195.461273,405.839050 
	C191.253555,404.719696 193.316086,401.585114 193.214340,399.256409 
	C193.114944,396.981384 194.004990,394.666840 193.933975,392.386047 
	C193.813782,388.524994 193.847244,385.196320 198.658157,383.937317 
	C199.720764,383.659241 200.972488,380.948334 200.697159,379.667084 
	C200.457581,378.552185 198.211716,377.175842 196.805817,377.121552 
	C189.983261,376.858185 183.141678,376.872101 176.313660,377.049835 
	C172.420258,377.151215 169.992157,375.680481 168.841522,371.944183 
	C167.956024,369.068817 166.625504,368.020630 162.996506,368.610565 
	C156.121048,369.728241 153.938751,367.787628 153.000290,361.565002 
	C171.286209,369.579529 190.725739,373.575439 211.408279,375.730316 
	C202.968369,384.667145 197.189926,394.056519 195.461273,405.839050 
z"/>
<path fill="#FFFFFF" opacity="1.000000" stroke="none" 
	d="
M81.000839,378.409424 
	C76.718185,375.226135 72.435158,371.619080 68.041725,367.919037 
	C74.201324,362.020569 85.446526,362.595795 95.957802,368.621368 
	C93.637764,368.969025 91.154228,369.106445 88.686035,368.968811 
	C81.998451,368.595917 81.192947,369.285492 81.002914,376.004364 
	C80.984245,376.664307 81.000450,377.325195 81.000839,378.409424 
z"/>
<path fill="#FFFFFF" opacity="1.000000" stroke="none" 
	d="
M411.024384,57.359627 
	C414.733826,56.721722 418.742737,55.630211 422.367126,56.385036 
	C424.349945,56.797977 425.682709,60.332321 428.156555,63.568169 
	C430.857178,63.592293 432.616699,65.960320 434.986847,70.019730 
	C436.799438,73.124207 440.891174,76.769371 444.176514,79.273918 
	C447.073273,81.482254 450.324554,82.054634 450.263916,86.561813 
	C450.255646,87.175827 451.983276,87.750137 452.814606,88.452400 
	C454.294403,89.702431 455.726562,91.011673 457.136047,92.341316 
	C458.814240,93.924461 460.641632,95.403969 462.046326,97.207298 
	C463.481049,99.049141 465.123932,101.118958 465.496490,103.291214 
	C465.889252,105.581337 464.887756,108.110573 464.193420,110.791702 
	C452.121063,95.354538 438.946259,80.978310 423.882477,68.371674 
	C419.634399,64.816536 415.402710,61.241817 411.024384,57.359627 
z"/>
<path fill="#FFFFFF" opacity="1.000000" stroke="none" 
	d="
M50.421280,110.895447 
	C46.848759,103.172340 47.555244,100.863541 54.387287,96.194778 
	C55.241428,95.611076 55.606777,94.353752 56.314518,93.505226 
	C57.655582,91.897408 58.804775,89.834213 60.539429,88.923325 
	C62.805317,87.733498 64.171814,86.762245 64.222855,83.875198 
	C64.245499,82.594437 66.304535,81.345055 67.457390,80.098244 
	C67.543198,80.005447 67.786743,80.078537 67.939056,80.024269 
	C73.246559,78.132706 74.857162,72.325829 79.511337,69.187759 
	C83.190834,66.706863 81.754143,64.576057 87.395493,63.367561 
	C88.986671,55.624397 92.108742,54.282883 102.729401,56.993744 
	C94.478745,64.788185 85.609856,72.292603 77.279800,80.353821 
	C70.516411,86.898933 64.307793,94.030434 58.039406,101.067795 
	C55.359406,104.076576 53.152645,107.506882 50.421280,110.895447 
z"/>
<path fill="#FFFFFF" opacity="1.000000" stroke="none" 
	d="
M129.409027,40.059959 
	C128.912247,37.069519 128.562241,34.203922 133.045441,33.576321 
	C134.237869,33.409386 135.801682,30.371540 135.841400,28.621101 
	C135.929535,24.737782 137.713989,23.683649 141.118729,23.996628 
	C146.383041,24.480549 151.650070,24.935007 156.977127,25.760796 
	C147.950851,30.747967 138.863373,35.376301 129.409027,40.059959 
z"/>
<path fill="#FFFFFF" opacity="1.000000" stroke="none" 
	d="
M357.122559,26.436819 
	C358.010895,25.594131 359.029510,24.698578 360.114807,24.608858 
	C364.265411,24.265730 368.443085,24.263582 372.599762,23.976162 
	C376.166199,23.729555 378.096893,24.645395 378.192841,28.811501 
	C378.232819,30.548660 380.109924,33.347828 381.631134,33.723701 
	C385.125366,34.587093 385.060699,36.722939 384.969849,39.695221 
	C375.733124,35.661629 366.508270,31.207834 357.122559,26.436819 
z"/>
<path fill="#FFFFFF" opacity="1.000000" stroke="none" 
	d="
M388.570679,42.730663 
	C396.200409,38.717575 397.173218,39.031540 402.094849,46.426331 
	C402.611603,47.202793 403.819519,47.750450 404.799042,47.948997 
	C409.947266,48.992538 410.581696,49.974960 409.104034,55.749161 
	C402.250061,51.720573 395.550354,47.334351 388.570679,42.730663 
z"/>
<path fill="#FFFFFF" opacity="1.000000" stroke="none" 
	d="
M105.368927,55.968643 
	C103.066101,50.396942 103.760880,49.229362 109.438667,47.914940 
	C110.469231,47.676361 111.604263,46.675877 112.141968,45.718666 
	C115.582787,39.593361 117.267822,39.031536 124.183426,42.502430 
	C118.137726,47.200912 111.913742,51.514538 105.368927,55.968643 
z"/>
<path fill="#FFFFFF" opacity="1.000000" stroke="none" 
	d="
M337.343567,19.000645 
	C338.126831,17.892122 339.122192,16.486437 340.410706,16.124573 
	C342.096039,15.651267 344.013184,15.995433 345.830536,16.001358 
	C353.277161,16.025648 354.005341,16.763241 353.970062,24.675657 
	C348.533997,23.132858 343.110016,21.150328 337.343567,19.000645 
z"/>
<path fill="#FFFFFF" opacity="1.000000" stroke="none" 
	d="
M160.424347,25.057724 
	C160.408203,22.058222 158.372787,17.622051 162.993698,16.735409 
	C167.546371,15.861860 172.629593,13.927237 176.935272,18.453228 
	C171.601410,20.889067 166.203979,22.944632 160.424347,25.057724 
z"/>
</svg>