<?xml version="1.0" encoding="utf-8"?>
<!-- Generator: Adobe Illustrator 16.0.3, SVG Export Plug-In . SVG Version: 6.00 Build 0)  -->
<!DOCTYPE svg PUBLIC "-//W3C//DTD SVG 1.1//EN" "http://www.w3.org/Graphics/SVG/1.1/DTD/svg11.dtd" [
	<!ENTITY ns_flows "http://ns.adobe.com/Flows/1.0/">
	<!ENTITY ns_extend "http://ns.adobe.com/Extensibility/1.0/">
	<!ENTITY ns_ai "http://ns.adobe.com/AdobeIllustrator/10.0/">
	<!ENTITY ns_graphs "http://ns.adobe.com/Graphs/1.0/">
]>
<svg version="1.1" id="Layer_1" xmlns:x="&ns_extend;" xmlns:i="&ns_ai;" xmlns:graph="&ns_graphs;"
	 xmlns="http://www.w3.org/2000/svg" xmlns:xlink="http://www.w3.org/1999/xlink" xmlns:a="http://ns.adobe.com/AdobeSVGViewerExtensions/3.0/"
	 x="0px" y="0px" width="350.819px" height="350.819px" viewBox="0 0 350.819 350.819"
	 style="enable-background:new 0 0 350.819 350.819;" xml:space="preserve">
<g>



	<path style="fill-rule:evenodd;clip-rule:evenodd;fill:#fc0000;" d="M351.505,201.447c-0.97,0.346-1.313,1.013-1.394,2.058
		c-0.964,12.513-4.144,24.568-8.31,36.311c-4.427,12.476-10.237,24.357-17.674,35.369c-5.702,8.442-11.812,16.528-18.619,24.174
		c-10.639,11.946-22.856,21.913-36.237,30.437c-11.539,7.35-23.976,13.127-37.053,17.161c-7.143,2.202-12.77-0.654-12.894-9.406
		c-0.223-15.87-0.139-31.746-0.038-47.619c0.075-12.067-2.729-23.032-11.607-32.041c2.842-1.354,5.777-1.19,8.562-1.583
		c16.698-2.355,32.083-7.829,45.583-18.236c12.615-9.726,18.785-23.151,22.539-38.073c2.566-10.203,3.792-20.598,3.335-31.064
		c-0.636-14.561-4.635-28.163-14.195-39.522c-3.07-3.648-3.725-6.797-2.12-11.376c2.754-7.864,2.521-16.073,0.978-24.275
		c-0.865-4.604-2.227-9.021-3.64-13.464c-0.69-2.17-1.719-2.846-3.823-2.9c-7.604-0.198-14.385,2.672-21.145,5.563
		c-7.681,3.285-14.991,7.288-21.845,12.07c-2.116,1.478-4.172,0.621-6.091,0.113c-7.791-2.06-15.694-3.194-23.686-4.195
		c-5.17-0.647-10.431-0.882-15.475-0.871c-7.343,0.017-14.814,0.277-22.192,1.501c-7.035,1.168-14.012,2.418-20.911,4.245
		c-2.766,0.732-4.735-1.824-6.809-3.131c-10.786-6.8-22.308-11.833-34.605-15.093c-5.824-1.543-8.196-0.263-9.865,5.355
		c-2.438,8.208-4.179,16.574-3.419,25.191c0.409,4.639,1.232,9.271,2.949,13.653c0.695,1.771,0.454,3.063-0.849,4.571
		c-8.022,9.274-13.103,19.913-15.25,32.078c-2.028,11.495-1.119,22.797,0.678,34.189c2.065,13.088,6.543,25.131,14.38,35.845
		c4.925,6.734,11.514,11.534,18.575,15.823c10.629,6.455,22.399,9.576,34.423,11.796c2.688,0.496,5.53,1.062,8.382,0.902
		c0.694-0.04,1.421,0.515,2.133,0.797c-0.38,0.538-0.698,1.138-1.15,1.607c-5.438,5.662-8.279,12.579-9.416,20.196
		c-0.229,1.541-0.865,2.189-1.986,2.648c-3.598,1.469-7.293,2.594-11.159,3.188c-8.791,1.353-17.342,1.329-25.313-3.448
		c-6.479-3.884-10.422-9.974-14.392-16.072c-5.14-7.896-12.256-13.223-21.19-16.096c-3.219-1.035-6.575-0.602-9.855-0.251
		c-0.87,0.093-2.476,0.687-2.354,1.577c0.232,1.687,1.352,3.199,2.6,4.402c2.013,1.94,4.353,3.476,6.657,5.067
		c8.276,5.717,12.913,14.246,16.464,23.193c4.952,12.476,13.771,19.402,26.796,21.874c7.548,1.432,15.086,1.278,22.653,1.227
		c2.32-0.015,4.686-0.472,6.94-1.068c2.448-0.648,3.449-0.307,3.408,2.549c-0.143,9.704-0.091,19.413-0.045,29.119
		c0.046,9.656-6.585,11.452-12.964,9.438c-17.047-5.38-32.843-13.54-47.325-24.001c-7.569-5.467-14.693-11.595-21.187-18.352
		c-7.628-7.938-14.572-16.436-20.835-25.523c-9.911-14.38-17.508-29.841-22.561-46.542c-2.87-9.488-5.302-19.085-5.989-29.027
		c-0.072-1.047-0.423-1.712-1.392-2.059c0-0.457,0-0.914,0-1.371c1.018-0.913,1.018-1.827,0-2.74c0-11.191,0-22.383,0-33.575
		c1.112-1.142,1.112-2.284,0-3.426c0-0.457,0-0.914,0-1.371c0.971-0.344,1.345-1.009,1.392-2.058
		c0.139-3.129,0.76-6.191,1.313-9.272c3.281-18.289,9.473-35.482,18.486-51.759c10.477-18.919,23.818-35.373,40.229-49.451
		C72.917,37.15,84.68,29.332,97.367,22.997c12.014-5.999,24.557-10.595,37.754-13.594c10.072-2.29,20.209-3.951,30.436-4.458
		c10.838-0.538,21.717-0.342,32.577,1.11c10.734,1.436,21.275,3.485,31.584,6.747c10.921,3.455,21.345,8.035,31.394,13.563
		c11.389,6.265,22.037,13.604,31.641,22.286c7.334,6.631,14.263,13.722,20.448,21.542c12.178,15.4,21.909,32.134,28.459,50.636
		c3.633,10.26,6.499,20.734,7.928,31.604c0.495,3.767,0.456,7.701,1.918,11.331c0,11.191,0,22.383,0,33.575
		c-1.019,0.913-1.019,1.827,0,2.74C351.505,200.533,351.505,200.99,351.505,201.447z"/>



</g>
</svg>
