<?xml version="1.0" encoding="utf-8"?>
<!-- Generator: Adobe Illustrator 16.0.3, SVG Export Plug-In . SVG Version: 6.00 Build 0)  -->
<!DOCTYPE svg PUBLIC "-//W3C//DTD SVG 1.1//EN" "http://www.w3.org/Graphics/SVG/1.1/DTD/svg11.dtd" [
	<!ENTITY ns_flows "http://ns.adobe.com/Flows/1.0/">
	<!ENTITY ns_extend "http://ns.adobe.com/Extensibility/1.0/">
	<!ENTITY ns_ai "http://ns.adobe.com/AdobeIllustrator/10.0/">
	<!ENTITY ns_graphs "http://ns.adobe.com/Graphs/1.0/">
]>
<svg version="1.1" id="Layer_1" xmlns:x="&ns_extend;" xmlns:i="&ns_ai;" xmlns:graph="&ns_graphs;"
	 xmlns="http://www.w3.org/2000/svg" xmlns:xlink="http://www.w3.org/1999/xlink" xmlns:a="http://ns.adobe.com/AdobeSVGViewerExtensions/3.0/"
	 x="0px" y="0px" width="2579.067px" height="716px" viewBox="0 0 2579.067 716" style="enable-background:new 0 0 2579.067 716;"
	 xml:space="preserve">
<g>
	<path style="fill-rule:evenodd;clip-rule:evenodd;fill:#440298;" d="M587.067,1c2.72,1.73,5.958,1.521,8.92,2.367
		c27.296,7.803,45.968,32.071,46.817,60.993c0.039,1.332,0.035,2.665,0.035,3.998c0.002,193.759,0.007,387.518-0.004,581.277
		c-0.001,29.297-15.254,52.903-40.745,62.838c-4.858,1.893-10.008,3.037-15.023,4.526c-177.333,0-354.667,0-532,0
		c-0.65-1.363-2.002-0.896-3.062-1.145c-25.032-5.871-41.614-20.906-49.494-45.469c-0.891-2.779-0.643-5.883-2.444-8.387
		c0-201.333,0-402.667,0-604c0.294-0.943,0.691-1.868,0.866-2.834C5.324,30.881,19.107,14.23,41.924,5.109
		C46.461,3.296,51.344,2.348,56.067,1C233.067,1,410.067,1,587.067,1z M35.95,358.725c0,96.994-0.005,193.988,0.004,290.982
		c0.002,20.114,11.161,31.406,31.083,31.408c169.656,0.011,339.313,0.011,508.969-0.002c19.512-0.002,30.983-11.534,30.984-31.118
		c0.011-193.988,0.01-387.976,0.001-581.964c-0.001-19.614-11.446-31.143-30.948-31.145c-169.656-0.014-339.312-0.011-508.968,0.019
		c-2.982,0-6.048,0.019-8.932,0.667C44.1,40.726,35.963,51.655,35.959,67.242C35.941,164.403,35.95,261.563,35.95,358.725z"/>
	<path style="fill-rule:evenodd;clip-rule:evenodd;fill:#FCFBFD;" d="M56.067,1c-4.723,1.348-9.605,2.296-14.143,4.109
		C19.107,14.23,5.324,30.881,0.933,55.166C0.758,56.132,0.361,57.057,0.067,58C0.067,40,0.125,22,0,4
		c-0.018-2.502,0.564-3.084,3.067-3.066C20.733,1.059,38.4,1,56.067,1z"/>
	<path style="fill-rule:evenodd;clip-rule:evenodd;fill:#FCFBFD;" d="M0.067,662c1.802,2.504,1.553,5.607,2.444,8.387
		c7.879,24.563,24.461,39.598,49.494,45.469c1.06,0.248,2.412-0.219,3.062,1.145c-17.333,0-34.667-0.06-52,0.066
		C0.565,717.085-0.018,716.502,0,714C0.126,696.667,0.067,679.333,0.067,662z"/>
	<path style="fill-rule:evenodd;clip-rule:evenodd;fill:#440198;" d="M1405.293,367.417c0-42.154,0.06-84.31-0.092-126.463
		c-0.015-4.183,0.714-5.706,5.356-5.652c36.65,0.423,73.308-0.389,109.957,0.537c16.051,0.405,31.812,2.635,47.041,7.987
		c30.855,10.846,48.509,34.17,50.44,66.881c0.778,13.186,0.484,26.323-3.07,39.171c-6.435,23.254-21.406,38.624-43.852,46.84
		c-3.609,1.321-4.38,2.229-2.325,5.96c17.005,30.881,33.753,61.902,50.572,92.886c2.569,4.733,2.552,4.759-3,4.76
		c-21.66,0.007-43.321-0.086-64.98,0.093c-3.487,0.029-5.305-1.142-6.971-4.097c-15.601-27.675-31.403-55.234-46.968-82.929
		c-1.758-3.128-3.506-4.725-7.246-4.388c-4.773,0.431-11.232-1.525-13.968,0.912c-3.156,2.812-0.977,9.386-0.997,14.313
		c-0.102,23.826-0.129,47.653,0.041,71.479c0.026,3.667-0.804,4.756-4.623,4.717c-20.158-0.208-40.321-0.214-60.479,0
		c-4.044,0.043-4.931-1.2-4.919-5.045C1405.342,452.726,1405.293,410.07,1405.293,367.417z M1477.024,322.941
		c0,8.82,0.179,17.646-0.087,26.459c-0.108,3.615,1.106,4.439,4.507,4.354c8.981-0.226,17.975,0.027,26.959-0.11
		c7.322-0.112,14.647-0.594,21.701-2.773c8.096-2.5,15.193-6.653,17.964-15.144c5.451-16.708,2.964-37.616-23.183-41.634
		c-15.061-2.313-30.24-0.769-45.358-1.249c-3.046-0.097-2.493,1.89-2.496,3.634C1477.016,305.299,1477.024,314.12,1477.024,322.941z
		"/>
	<path style="fill-rule:evenodd;clip-rule:evenodd;fill:#430198;" d="M807.369,367.462c0-42.152,0.085-84.305-0.118-126.456
		c-0.022-4.741,1.404-5.738,5.851-5.688c20.323,0.227,40.653,0.234,60.977-0.01c4.306-0.052,5.108,1.287,5.084,5.304
		c-0.175,29.488-0.029,58.979-0.177,88.469c-0.019,3.749,0.717,5.021,4.804,4.989c26.156-0.21,52.315-0.188,78.472-0.016
		c3.743,0.024,4.718-0.923,4.697-4.682c-0.162-29.655-0.029-59.313-0.168-88.968c-0.017-3.738,0.708-5.137,4.843-5.091
		c20.657,0.226,41.318,0.19,61.977,0.021c3.646-0.029,4.787,0.798,4.782,4.653c-0.118,85.304-0.109,170.608-0.02,255.912
		c0.004,3.388-0.713,4.543-4.338,4.513c-20.991-0.178-41.985-0.184-62.977,0.003c-3.726,0.033-4.269-1.303-4.258-4.585
		c0.112-32.488-0.023-64.978,0.177-97.465c0.026-4.354-0.945-5.524-5.417-5.482c-25.989,0.242-51.982,0.206-77.972,0.021
		c-3.778-0.027-4.629,0.955-4.611,4.656c0.157,32.654,0.018,65.311,0.187,97.965c0.021,3.955-1.057,4.928-4.93,4.892
		c-20.658-0.194-41.319-0.197-61.978,0.001c-3.965,0.038-4.986-1.079-4.974-5.001C807.42,452.766,807.369,410.113,807.369,367.462z"
		/>
	<path style="fill-rule:evenodd;clip-rule:evenodd;fill:#430198;" d="M1693.731,365.475c-0.16-21.337,3.106-42.619,11.767-62.816
		c13.963-32.565,37.95-54.753,71.267-66.339c32.233-11.209,64.781-11.061,96.897,0.706c35.43,12.979,59.962,37.46,72.185,73.097
		c13.002,37.914,13.093,76.401-0.813,114.101c-15.701,42.566-47.351,67.324-91.208,76.694c-28.563,6.103-56.785,3.866-83.844-7.218
		c-40.94-16.772-64.06-48.242-72.905-90.942C1694.566,390.639,1693.652,378.366,1693.731,365.475z M1881.449,369.531
		c0.107-16.74-1.411-30.596-6.356-43.886c-5.611-15.077-14.671-27.205-29.889-33.783c-31.616-13.665-65.439,2.199-76.041,35.96
		c-8.112,25.833-7.89,51.883,0.182,77.673c8.107,25.904,27.779,41.018,52.717,41.283c25.515,0.272,44.781-14.21,53.658-40.544
		C1880.016,393.488,1881.519,380.279,1881.449,369.531z"/>
	<path style="fill-rule:evenodd;clip-rule:evenodd;fill:#430198;" d="M2268.017,500.325c-2.784,0-4.581,0-6.377,0
		c-22.833,0-45.667-0.132-68.496,0.117c-4.289,0.047-6.403-1.433-8.502-5.009c-18.868-32.143-37.99-64.137-56.91-96.249
		c-1.992-3.38-3.116-4.33-5.937-0.667c-5.176,6.725-12.832,12.337-15.663,19.843c-2.758,7.311-0.833,16.411-0.853,24.726
		c-0.043,17.499-0.101,34.999,0.061,52.497c0.031,3.483-0.516,4.891-4.521,4.848c-20.83-0.227-41.665-0.221-62.495-0.004
		c-3.933,0.04-4.569-1.255-4.565-4.807c0.095-85.163,0.097-170.327-0.003-255.49c-0.005-3.624,0.752-4.846,4.63-4.808
		c20.664,0.202,41.332,0.197,61.996,0.005c3.917-0.037,5.002,0.999,4.978,4.961c-0.175,28.498-0.104,56.997-0.063,85.496
		c0.002,1.569-0.527,3.252,0.46,4.826c1.852-0.577,2.441-2.262,3.394-3.512c22.297-29.289,44.569-58.597,66.794-87.94
		c1.666-2.199,3.136-3.844,6.368-3.824c25.165,0.151,50.331,0.083,75.497,0.093c0.631,0,1.263,0.111,2.891,0.266
		c-1.481,1.841-2.509,3.196-3.617,4.482c-27.408,31.81-54.778,63.654-82.321,95.348c-2.521,2.9-2.692,4.781-0.725,8.045
		c30.252,50.158,60.357,100.403,90.49,150.633C2265.536,495.883,2266.471,497.608,2268.017,500.325z"/>
	<path style="fill-rule:evenodd;clip-rule:evenodd;fill:#440198;" d="M2556.094,324.715c0,27.326,0.422,54.662-0.144,81.977
		c-0.394,18.996-4.804,37.271-14.367,53.961c-12.213,21.314-31.035,33.983-54.354,40.054c-29.015,7.555-58.121,7.066-86.742-1.905
		c-34.603-10.847-54.729-35.034-62.438-70.083c-2.662-12.103-3.569-24.38-3.584-36.721c-0.062-50.491,0.026-100.982-0.126-151.473
		c-0.013-4.244,1.235-5.243,5.316-5.201c20.16,0.203,40.327,0.245,60.486-0.022c4.652-0.062,6.102,0.854,6.08,5.861
		c-0.215,50.157-0.133,100.315-0.128,150.473c0.001,11.039,0.776,21.963,4.87,32.389c5.17,13.169,14.842,20.357,28.836,22.158
		c6.371,0.819,12.672,0.708,18.885-0.587c14.913-3.109,23.446-13.238,26.317-30.711c1.41-8.581,1.72-17.235,1.725-25.901
		c0.028-49.324,0.084-98.649-0.099-147.974c-0.018-4.687,1.319-5.756,5.815-5.699c19.493,0.247,38.993,0.231,58.487,0.007
		c4.253-0.049,5.646,0.836,5.608,5.414c-0.237,27.992-0.118,55.988-0.118,83.983
		C2556.311,324.714,2556.204,324.714,2556.094,324.715z"/>
	<path style="fill-rule:evenodd;clip-rule:evenodd;fill:#450398;" d="M1131.403,366.496c0-41.831,0.055-83.662-0.085-125.492
		c-0.014-4.11,0.609-5.726,5.322-5.712c59.829,0.18,119.659,0.165,179.488,0.019c4.245-0.011,5.204,1.216,5.146,5.275
		c-0.232,16.329-0.262,32.666,0.015,48.994c0.073,4.335-1.313,5.119-5.328,5.102c-35.997-0.157-71.995-0.038-107.992-0.172
		c-3.768-0.014-5.113,0.771-4.999,4.842c0.309,10.991,0.292,22.001,0.007,32.993c-0.104,4.03,0.77,5.33,5.089,5.289
		c24.663-0.229,49.33-0.003,73.993-0.216c4.175-0.036,5.281,1.043,5.21,5.196c-0.257,14.995-0.257,29.999-0.001,44.994
		c0.071,4.185-0.693,5.579-5.307,5.527c-24.662-0.278-49.329-0.058-73.993-0.211c-3.704-0.022-5.104,0.64-5.006,4.775
		c0.307,12.991,0.272,25.999,0.015,38.992c-0.076,3.796,0.983,4.648,4.684,4.634c37.664-0.145,75.329-0.002,112.992-0.198
		c4.649-0.024,6.267,0.849,6.152,5.879c-0.358,15.657-0.246,31.33-0.047,46.993c0.047,3.716-0.945,4.776-4.73,4.769
		c-61.996-0.118-123.992-0.137-185.988,0.026c-4.445,0.012-4.695-1.834-4.689-5.307
		C1131.431,451.157,1131.403,408.826,1131.403,366.496z"/>
	<path style="fill-rule:evenodd;clip-rule:evenodd;fill:#FDFCFD;" d="M1477.024,322.941c0-8.821-0.008-17.643,0.007-26.463
		c0.003-1.744-0.55-3.73,2.496-3.634c15.118,0.48,30.298-1.064,45.358,1.249c26.146,4.018,28.634,24.926,23.183,41.634
		c-2.771,8.49-9.868,12.644-17.964,15.144c-7.054,2.18-14.379,2.661-21.701,2.773c-8.984,0.138-17.978-0.115-26.959,0.11
		c-3.4,0.085-4.615-0.739-4.507-4.354C1477.203,340.588,1477.024,331.762,1477.024,322.941z"/>
	<path style="fill-rule:evenodd;clip-rule:evenodd;fill:#440298;" d="M159.304,417.408c0-1.797,0-3.293,0-4.789
		c0-99.481,0.04-198.963-0.118-298.445c-0.008-4.913,1.314-6.037,6.075-5.973c20.326,0.276,40.659,0.237,60.986,0.017
		c4.056-0.044,4.879,1.208,4.872,5.025c-0.115,64.488-0.083,128.977-0.082,193.465c0,5.771,0.005,5.774,5.448,3.957
		c41.117-13.73,83.132-22.743,126.644-23.244c29.404-0.339,57.039,6.075,80.175,25.291c25.496,21.177,38.231,48.477,36.686,81.968
		c-0.093,1.995-0.06,3.998-0.06,5.997c-0.003,67.82-0.059,135.642,0.117,203.462c0.012,4.771-1.439,5.688-5.84,5.641
		c-20.327-0.223-40.66-0.227-60.987,0.006c-4.26,0.05-5.152-1.247-5.145-5.297c0.124-68.986,0.082-137.974,0.102-206.961
		c0.002-5.012-0.142-9.982-1.538-14.846c-4.03-14.035-15.712-22.938-32.377-24.725c-18.925-2.027-37.577,0.406-56.149,3.566
		c-51.646,8.785-99.719,27.929-146.479,50.833c-3.581,1.754-7.247,3.335-10.884,4.972
		C160.48,417.449,160.122,417.371,159.304,417.408z"/>
	<path style="fill-rule:evenodd;clip-rule:evenodd;fill:#440298;" d="M357.304,224.495c0.229-2.292,1.899-3.568,3.021-5.101
		c23.745-32.441,41.618-67.557,48.878-107.476c0.603-3.31,2.341-3.663,5.151-3.651c20.642,0.09,41.286,0.246,61.922-0.092
		c5.103-0.083,5.293,1.841,4.652,5.788c-4.913,30.295-15.725,58.265-32.671,83.867c-5.607,8.474-11.718,16.562-18.175,24.399
		c-1.324,1.607-2.609,2.662-4.944,2.652c-22.139-0.099-44.278-0.062-66.418-0.078C358.285,224.804,357.849,224.619,357.304,224.495z
		"/>
	<path style="fill-rule:evenodd;clip-rule:evenodd;fill:#440298;" d="M161.317,608.38c0-47.008,0-93.915,0-141.769
		c3.987,3.507,7.429,6.509,10.844,9.541c22.168,19.681,44.301,39.4,66.535,59.007c2.413,2.128,2.773,3.258,0.111,5.604
		c-24.862,21.913-49.589,43.979-74.393,65.959C163.555,607.485,162.888,609.044,161.317,608.38z"/>
</g>
</svg>
