<?xml version="1.0" encoding="utf-8"?>
<!-- Generator: Adobe Illustrator 16.0.3, SVG Export Plug-In . SVG Version: 6.00 Build 0)  -->
<!DOCTYPE svg PUBLIC "-//W3C//DTD SVG 1.1//EN" "http://www.w3.org/Graphics/SVG/1.1/DTD/svg11.dtd" [
	<!ENTITY ns_flows "http://ns.adobe.com/Flows/1.0/">
	<!ENTITY ns_extend "http://ns.adobe.com/Extensibility/1.0/">
	<!ENTITY ns_ai "http://ns.adobe.com/AdobeIllustrator/10.0/">
	<!ENTITY ns_graphs "http://ns.adobe.com/Graphs/1.0/">
]>
<svg version="1.1" id="Layer_1" xmlns:x="&ns_extend;" xmlns:i="&ns_ai;" xmlns:graph="&ns_graphs;"
	 xmlns="http://www.w3.org/2000/svg" xmlns:xlink="http://www.w3.org/1999/xlink" xmlns:a="http://ns.adobe.com/AdobeSVGViewerExtensions/3.0/"
	 x="0px" y="0px" width="512px" height="499px" viewBox="0 0 512 499" style="enable-background:new 0 0 512 499;"
	 xml:space="preserve">
<g>
	<path style="fill-rule:evenodd;clip-rule:evenodd;fill:#330000;" d="M1,422C1,307.667,1,193.333,1,79
		c1.886-1.144,1.334-3.242,1.704-4.866C10.776,38.622,32.252,15.54,66.85,4.439C71.185,3.048,75.87,3.099,80,1
		c117.667,0,235.333,0,353,0c0.165,0.801,0.756,0.896,1.45,0.985c36.372,4.644,66.572,31.38,75.662,66.786
		c0.96,3.741,0.799,7.781,2.888,11.229c0,114,0,228,0,342c-1.888,1.137-1.349,3.229-1.724,4.855
		c-8.62,37.371-31.613,60.787-68.466,70.861c-3.245,0.888-6.775,0.52-9.811,2.283c-118,0-236,0-354,0
		c-0.932-1.904-2.912-1.272-4.367-1.611c-38.974-9.066-63.001-32.993-72.034-72.011C2.261,424.92,2.891,422.944,1,422z
		 M291.429,352.772c6.666,0,13.332,0.053,19.997-0.018c4.966-0.053,5.524-0.874,3.855-5.711c-2.713-7.861-5.521-15.69-8.3-23.529
		c-22.57-63.642-45.151-127.28-67.688-190.935c-0.932-2.632-1.627-4.766-5.256-4.73c-17.162,0.169-34.327,0.129-51.49,0.023
		c-3.025-0.019-4.275,1.087-4.198,4.045c0.218,8.312-2.182,16.07-4.881,23.816c-22.049,63.295-44.028,126.614-66.021,189.929
		c-2.261,6.508-1.83,7.098,5.118,7.106c10.831,0.014,21.668-0.198,32.492,0.095c4.92,0.134,7.519-1.365,8.993-6.322
		c4.124-13.865,8.9-27.536,13.119-41.374c1.242-4.074,2.935-5.732,7.531-5.675c22.826,0.283,45.658,0.224,68.486,0.039
		c3.922-0.032,5.777,0.93,7.059,4.913c4.684,14.563,9.943,28.94,14.805,43.448c1.188,3.545,3.061,5.089,6.886,4.945
		C278.424,352.596,284.93,352.772,291.429,352.772z M339.855,268.503c0,26.493,0.07,52.986-0.07,79.478
		c-0.022,4.29,1.355,5.982,5.736,5.917c12.16-0.181,24.327-0.174,36.488,0c4.04,0.058,5.695-1.308,5.69-5.457
		c-0.071-53.318-0.07-106.637,0.005-159.955c0.006-4.068-1.402-5.567-5.57-5.493c-12.159,0.217-24.33,0.288-36.485-0.028
		c-4.778-0.124-5.905,1.602-5.877,6.063C339.938,215.518,339.854,242.011,339.855,268.503z M363.863,165.121
		c15.595,0.086,26.518-10.771,26.747-26.585c0.23-15.966-10.345-26.708-26.321-26.737c-15.398-0.028-26.762,10.95-26.938,26.023
		C337.164,153.959,347.919,165.033,363.863,165.121z"/>
	<path style="fill-rule:evenodd;clip-rule:evenodd;fill:#FC9800;" d="M291.429,352.772c-6.499,0-13.005-0.177-19.494,0.066
		c-3.825,0.144-5.698-1.4-6.886-4.945c-4.861-14.508-10.121-28.886-14.805-43.448c-1.281-3.983-3.136-4.945-7.059-4.913
		c-22.828,0.185-45.66,0.244-68.486-0.039c-4.596-0.058-6.289,1.601-7.531,5.675c-4.218,13.838-8.995,27.509-13.119,41.374
		c-1.474,4.957-4.073,6.456-8.993,6.322c-10.823-0.293-21.661-0.081-32.492-0.095c-6.948-0.009-7.378-0.599-5.118-7.106
		c21.993-63.314,43.972-126.634,66.021-189.929c2.699-7.746,5.099-15.505,4.881-23.816c-0.078-2.958,1.172-4.063,4.198-4.045
		c17.163,0.105,34.328,0.146,51.49-0.023c3.629-0.035,4.324,2.099,5.256,4.73c22.536,63.654,45.117,127.293,67.688,190.935
		c2.779,7.839,5.587,15.668,8.3,23.529c1.669,4.837,1.11,5.658-3.855,5.711C304.761,352.825,298.095,352.772,291.429,352.772z
		 M208.549,168.074c-1.81,2.053-1.575,4.021-2.026,5.731c-6.911,26.203-15.4,51.929-23.572,77.747
		c-1.21,3.826-0.714,4.767,3.397,4.706c14.981-0.22,29.968-0.175,44.95-0.023c3.588,0.036,4.192-0.894,3.103-4.279
		C225.496,224.282,216.449,196.65,208.549,168.074z"/>
	<path style="fill-rule:evenodd;clip-rule:evenodd;fill:#FC9800;" d="M339.855,268.503c-0.001-26.492,0.083-52.985-0.083-79.477
		c-0.028-4.461,1.099-6.187,5.877-6.063c12.155,0.316,24.326,0.245,36.485,0.028c4.168-0.074,5.576,1.425,5.57,5.493
		c-0.075,53.318-0.076,106.637-0.005,159.955c0.005,4.149-1.65,5.515-5.69,5.457c-12.161-0.174-24.328-0.181-36.488,0
		c-4.381,0.065-5.759-1.627-5.736-5.917C339.926,321.489,339.855,294.996,339.855,268.503z"/>
	<path style="fill-rule:evenodd;clip-rule:evenodd;fill:#FC9800;" d="M363.863,165.121c-15.944-0.088-26.699-11.162-26.512-27.299
		c0.176-15.073,11.539-26.052,26.938-26.023c15.977,0.029,26.552,10.771,26.321,26.737
		C390.381,154.351,379.458,165.207,363.863,165.121z"/>
	<path style="fill-rule:evenodd;clip-rule:evenodd;fill:#350200;" d="M208.549,168.074c7.9,28.576,16.947,56.208,25.852,83.882
		c1.089,3.386,0.486,4.315-3.103,4.279c-14.982-0.151-29.969-0.196-44.95,0.023c-4.111,0.061-4.608-0.88-3.397-4.706
		c8.171-25.818,16.661-51.544,23.572-77.747C206.974,172.095,206.74,170.127,208.549,168.074z"/>
</g>
</svg>
