<?xml version="1.0" encoding="utf-8"?>
<!-- Generator: Adobe Illustrator 16.0.3, SVG Export Plug-In . SVG Version: 6.00 Build 0)  -->
<!DOCTYPE svg PUBLIC "-//W3C//DTD SVG 1.1//EN" "http://www.w3.org/Graphics/SVG/1.1/DTD/svg11.dtd" [
	<!ENTITY ns_flows "http://ns.adobe.com/Flows/1.0/">
	<!ENTITY ns_extend "http://ns.adobe.com/Extensibility/1.0/">
	<!ENTITY ns_ai "http://ns.adobe.com/AdobeIllustrator/10.0/">
	<!ENTITY ns_graphs "http://ns.adobe.com/Graphs/1.0/">
]>
<svg version="1.1" id="Layer_1" xmlns:x="&ns_extend;" xmlns:i="&ns_ai;" xmlns:graph="&ns_graphs;"
	 xmlns="http://www.w3.org/2000/svg" xmlns:xlink="http://www.w3.org/1999/xlink" xmlns:a="http://ns.adobe.com/AdobeSVGViewerExtensions/3.0/"
	 x="0px" y="0px" width="1051px" height="1025px" viewBox="0 0 1051 1025" style="enable-background:new 0 0 1051 1025;"
	 xml:space="preserve">
<g>
	<path style="fill-rule:evenodd;clip-rule:evenodd;fill:#49021F;" d="M1,857c0-229.333,0-458.667,0-688
		c2.518-4.446,2.016-9.531,2.816-14.302C16.566,78.711,78.743,16.514,154.642,3.821C159.762,2.966,165.162,3.426,170,1
		c237.333,0,474.667,0,712,0c5.247,2.024,10.88,1.926,16.318,2.834c75.949,12.676,138.326,75.066,150.851,150.857
		c0.844,5.104,0.471,10.476,2.831,15.309c0,229,0,458,0,687c-2.332,4.688-1.926,9.915-2.78,14.874
		c-13.293,77.149-74.058,137.92-151.33,151.345c-5.624,0.978-11.445,0.763-16.89,2.781c-237.333,0-474.667,0-712,0
		c-0.383-1.327-1.557-0.975-2.459-1.115c-7.055-1.093-14.105-2.113-21.097-3.669C73.262,1005.153,15.898,944.824,3.832,872.351
		C2.98,867.232,3.327,861.854,1,857z M777.003,452.119c-0.188,0-0.376,0-0.563-0.001c0-5.497,0-10.995,0-16.493
		c0-67.332,0.001-134.665-0.002-201.997c-0.001-7.6-0.206-7.789-7.896-7.789c-27.333-0.001-54.666-0.004-81.999,0.003
		c-7.276,0.002-7.591,0.31-7.592,7.659c-0.009,42.832-0.005,85.665-0.005,128.498c-0.001,1.333-0.076,2.671,0.008,3.999
		c0.132,2.104-0.684,2.803-2.873,2.945c-4.194,0.271-8.239-0.814-12.355-0.915c-10.299-0.251-20.567,0.125-30.879,0.727
		c-16.572,0.966-32.699,3.792-48.584,8.258c-74.305,20.893-130.204,87.716-132.413,167.533c-0.708,25.588,1.159,50.813,8.863,75.513
		c7.606,24.388,20.628,45.4,38.408,63.312c14.777,14.887,32.408,25.873,51.999,33.715c19.794,7.923,40.341,13.079,61.447,14.637
		c25.007,1.845,50.093,0.96,75.006-2.737c29.239-4.341,57.727-11.369,85.1-22.705c4.675-1.936,6.864-4.814,6.386-9.909
		c-0.789-8.41-1.948-16.838-1.966-25.26C776.938,598.113,777.003,525.116,777.003,452.119z M285.117,495.239
		c0,73.643,0,147.285,0.004,220.927c0,1.832-0.088,3.683,0.132,5.491c0.411,3.368,2.062,5.505,5.828,5.501
		c28.49-0.027,56.981-0.028,85.472-0.003c3.912,0.004,5.816-2.104,6.244-5.715c0.233-1.975,0.128-3.992,0.128-5.991
		c0.005-114.961,0.004-229.923,0.004-344.885c0-32.823,0.015-65.646-0.012-98.468c-0.006-7.172-1.723-8.823-8.84-8.825
		c-26.324-0.004-52.649-0.007-78.974,0.003c-8.986,0.003-9.986,1.019-9.986,10.039C285.116,347.289,285.117,421.265,285.117,495.239
		z"/>
	<path style="fill-rule:evenodd;clip-rule:evenodd;fill:#FE3366;" d="M777.003,452.119c0,72.997-0.065,145.994,0.089,218.991
		c0.018,8.422,1.177,16.85,1.966,25.26c0.479,5.095-1.711,7.974-6.386,9.909c-27.373,11.336-55.86,18.364-85.1,22.705
		c-24.913,3.697-49.999,4.582-75.006,2.737c-21.106-1.558-41.653-6.714-61.447-14.637c-19.591-7.842-37.222-18.828-51.999-33.715
		c-17.78-17.911-30.802-38.924-38.408-63.312c-7.704-24.7-9.571-49.925-8.863-75.513c2.209-79.817,58.108-146.641,132.413-167.533
		c15.885-4.466,32.012-7.292,48.584-8.258c10.312-0.602,20.58-0.978,30.879-0.727c4.116,0.101,8.161,1.187,12.355,0.915
		c2.189-0.143,3.005-0.842,2.873-2.945c-0.084-1.328-0.009-2.666-0.008-3.999c0-42.833-0.004-85.666,0.005-128.498
		c0.001-7.35,0.315-7.657,7.592-7.659c27.333-0.007,54.666-0.004,81.999-0.003c7.69,0,7.896,0.189,7.896,7.789
		c0.003,67.332,0.002,134.665,0.002,201.997c0,5.498,0,10.996,0,16.493C776.627,452.119,776.814,452.119,777.003,452.119z
		 M678.793,644.013c0.051-31.651,0.121-63.302,0.147-94.953c0.025-30.487-0.11-60.977,0.138-91.462
		c0.035-4.229-1.333-5.942-5.141-6.454c-14.779-1.983-29.694-2.744-44.288,0.274c-43.053,8.907-76.728,40.653-78.635,91.543
		c-0.587,15.666,1.297,31.052,6.147,45.977c7.305,22.475,20.325,40.311,42.458,50.185c17.747,7.917,36.55,10.184,55.744,8.471
		c7.546-0.674,15.419,0.853,22.639-2.678C678.6,644.906,678.909,644.646,678.793,644.013z"/>
	<path style="fill-rule:evenodd;clip-rule:evenodd;fill:#FD3365;" d="M285.117,495.239c0-73.975-0.001-147.95,0.001-221.926
		c0-9.021,1-10.036,9.986-10.039c26.324-0.01,52.649-0.007,78.974-0.003c7.117,0.002,8.834,1.653,8.84,8.825
		c0.026,32.822,0.012,65.645,0.012,98.468c0,114.962,0.001,229.924-0.004,344.885c0,1.999,0.105,4.017-0.128,5.991
		c-0.428,3.61-2.332,5.719-6.244,5.715c-28.49-0.025-56.981-0.024-85.472,0.003c-3.766,0.004-5.417-2.133-5.828-5.501
		c-0.22-1.809-0.132-3.659-0.132-5.491C285.116,642.524,285.117,568.882,285.117,495.239z"/>
	<path style="fill-rule:evenodd;clip-rule:evenodd;fill:#49021F;" d="M678.003,644.915c-7.22,3.53-15.093,2.004-22.639,2.678
		c-19.194,1.713-37.997-0.554-55.744-8.471c-22.133-9.874-35.153-27.71-42.458-50.185c-4.851-14.925-6.734-30.311-6.147-45.977
		c1.907-50.89,35.582-82.636,78.635-91.543c14.594-3.019,29.509-2.258,44.288-0.274c3.808,0.512,5.176,2.225,5.141,6.454
		c-0.248,30.485-0.112,60.975-0.138,91.462c-0.026,31.651-0.097,63.302-0.147,94.953
		C678.529,644.313,678.267,644.614,678.003,644.915z"/>
	<path style="fill-rule:evenodd;clip-rule:evenodd;fill:#5C0727;" d="M678.003,644.915c0.264-0.301,0.526-0.602,0.79-0.902
		C678.909,644.646,678.6,644.906,678.003,644.915z"/>
</g>
</svg>
