<svg version="1.1" id="Layer_1" xmlns="http://www.w3.org/2000/svg" xmlns:xlink="http://www.w3.org/1999/xlink" x="0px" y="0px"
	 width="100%" viewBox="0 0 1052 1052" enable-background="new 0 0 1052 1052" xml:space="preserve">
<path fill="#F0DA50" opacity="1.000000" stroke="none" 
	d="
M1.000000,1052.000000 
	C1.000000,702.302429 1.000000,352.604828 1.455950,2.452774 
	C349.902679,1.998159 697.893494,1.997927 1045.884277,2.000551 
	C1047.883667,2.000566 1049.883179,2.040569 1051.927979,2.506779 
	C1051.981689,3.617870 1051.996948,4.284080 1051.996948,4.950290 
	C1051.998657,352.451630 1051.999634,699.953003 1051.994385,1047.454346 
	C1051.994385,1048.951416 1051.907227,1050.448486 1051.421509,1051.966187 
	C700.988098,1051.991211 350.994049,1051.995605 1.000000,1052.000000 
M658.711670,641.790527 
	C663.057373,664.747375 672.952148,684.971741 688.573486,702.367126 
	C706.019470,721.794556 727.521912,735.704102 750.844177,746.725708 
	C775.354370,758.308716 800.477661,768.593323 825.004211,780.143494 
	C834.868713,784.789001 844.488342,790.475769 853.109497,797.127197 
	C868.971069,809.364746 873.766357,826.252808 868.786743,845.351990 
	C864.728760,860.916260 853.253662,870.256165 838.811462,875.929810 
	C808.779724,887.727783 759.210388,885.781921 727.314758,850.103577 
	C719.694214,841.579285 713.013306,832.214905 705.544434,822.787720 
	C679.421875,837.910034 652.842468,853.296875 626.060303,868.801086 
	C626.792664,870.254822 627.281494,871.279602 627.816711,872.279541 
	C643.353699,901.310852 665.144043,924.400940 693.456970,941.270508 
	C720.421570,957.336853 749.830200,965.704956 780.898682,968.463867 
	C816.152588,971.594360 850.820557,968.958862 884.112427,955.979980 
	C915.987915,943.553284 941.218933,923.363770 956.363770,892.005981 
	C968.628052,866.612549 970.911865,839.694580 968.132751,812.028320 
	C964.925476,780.099060 952.196960,752.858337 928.711853,730.782104 
	C908.041992,711.352356 883.574219,697.886597 858.102112,686.122620 
	C835.754028,675.801392 812.914368,666.517944 790.787476,655.756958 
	C781.354370,651.169250 772.327515,644.915771 764.608643,637.800110 
	C746.366699,620.983765 746.134644,577.769409 782.918945,566.987061 
	C806.829224,559.978394 835.154175,565.349609 853.917175,591.691650 
	C857.275024,596.405884 860.363281,601.312012 863.796448,606.459900 
	C889.357178,590.040649 914.762024,573.721497 940.304688,557.313843 
	C924.338440,529.376038 904.325378,506.112122 874.961731,493.289917 
	C829.747009,473.545990 783.351074,472.786499 737.221741,489.789673 
	C701.996033,502.773804 677.028992,527.204895 663.672363,562.674866 
	C654.063171,588.193115 653.911987,614.451416 658.711670,641.790527 
M468.084869,855.465393 
	C464.657501,863.908020 459.334747,870.718567 451.253387,875.210815 
	C431.799011,886.025269 400.950104,883.370056 384.688782,868.196472 
	C377.133331,861.146484 371.366943,852.126831 365.110535,843.760071 
	C362.171539,839.829834 359.991516,835.332031 357.328217,830.857300 
	C330.415741,847.150452 303.853424,863.231628 277.362518,879.269531 
	C292.873230,914.226746 320.247040,941.188660 351.748230,954.954895 
	C390.758057,972.002441 431.198975,973.479431 472.159088,964.246033 
	C505.904266,956.639099 533.185669,939.046265 551.283386,908.824707 
	C565.974060,884.292603 571.980286,857.248413 572.062927,829.057617 
	C572.396667,715.228149 572.287231,601.397339 572.322754,487.567017 
	C572.323120,486.474457 572.069519,485.381836 571.931946,484.269348 
	C539.149231,484.269348 506.726257,484.269348 473.828430,484.269348 
	C473.828430,486.649109 473.828430,488.776611 473.828430,490.904144 
	C473.827759,599.568420 473.837799,708.232727 473.812103,816.896973 
	C473.809082,829.759155 473.084503,842.545410 468.084869,855.465393 
z"/>
<path fill="#FFFFFF" opacity="1.000000" stroke="none" 
	d="
M1051.882568,2.061899 
	C1049.883179,2.040569 1047.883667,2.000566 1045.884277,2.000551 
	C697.893494,1.997927 349.902679,1.998159 1.455950,1.999142 
	C1.166667,1.666667 1.315919,1.056198 1.502793,1.044456 
	C2.830883,0.961004 4.166667,1.000000 5.500000,1.000000 
	C354.666656,1.000000 703.833313,1.000000 1052.720215,1.508810 
	C1052.254639,2.032379 1052.068604,2.047138 1051.882568,2.061899 
z"/>
<path fill="#FBF9E2" opacity="1.000000" stroke="none" 
	d="
M1051.927979,2.506779 
	C1052.068604,2.047138 1052.254639,2.032379 1052.720215,2.008810 
	C1053.000000,352.333344 1053.000000,702.666687 1052.479004,1052.734619 
	C1051.925659,1052.294556 1051.893188,1052.119995 1051.860840,1051.945557 
	C1051.907227,1050.448486 1051.994385,1048.951416 1051.994385,1047.454346 
	C1051.999634,699.953003 1051.998657,352.451630 1051.996948,4.950290 
	C1051.996948,4.284080 1051.981689,3.617870 1051.927979,2.506779 
z"/>
<path fill="#F4E379" opacity="1.000000" stroke="none" 
	d="
M1051.421509,1051.966187 
	C1051.893188,1052.119995 1051.925659,1052.294556 1051.979004,1052.734619 
	C701.666687,1053.000000 351.333344,1053.000000 1.000000,1052.500000 
	C350.994049,1051.995605 700.988098,1051.991211 1051.421509,1051.966187 
z"/>
<path fill="#333330" opacity="1.000000" stroke="none" 
	d="
M658.603027,641.378662 
	C653.911987,614.451416 654.063171,588.193115 663.672363,562.674866 
	C677.028992,527.204895 701.996033,502.773804 737.221741,489.789673 
	C783.351074,472.786499 829.747009,473.545990 874.961731,493.289917 
	C904.325378,506.112122 924.338440,529.376038 940.304688,557.313843 
	C914.762024,573.721497 889.357178,590.040649 863.796448,606.459900 
	C860.363281,601.312012 857.275024,596.405884 853.917175,591.691650 
	C835.154175,565.349609 806.829224,559.978394 782.918945,566.987061 
	C746.134644,577.769409 746.366699,620.983765 764.608643,637.800110 
	C772.327515,644.915771 781.354370,651.169250 790.787476,655.756958 
	C812.914368,666.517944 835.754028,675.801392 858.102112,686.122620 
	C883.574219,697.886597 908.041992,711.352356 928.711853,730.782104 
	C952.196960,752.858337 964.925476,780.099060 968.132751,812.028320 
	C970.911865,839.694580 968.628052,866.612549 956.363770,892.005981 
	C941.218933,923.363770 915.987915,943.553284 884.112427,955.979980 
	C850.820557,968.958862 816.152588,971.594360 780.898682,968.463867 
	C749.830200,965.704956 720.421570,957.336853 693.456970,941.270508 
	C665.144043,924.400940 643.353699,901.310852 627.816711,872.279541 
	C627.281494,871.279602 626.792664,870.254822 626.060303,868.801086 
	C652.842468,853.296875 679.421875,837.910034 705.544434,822.787720 
	C713.013306,832.214905 719.694214,841.579285 727.314758,850.103577 
	C759.210388,885.781921 808.779724,887.727783 838.811462,875.929810 
	C853.253662,870.256165 864.728760,860.916260 868.786743,845.351990 
	C873.766357,826.252808 868.971069,809.364746 853.109497,797.127197 
	C844.488342,790.475769 834.868713,784.789001 825.004211,780.143494 
	C800.477661,768.593323 775.354370,758.308716 750.844177,746.725708 
	C727.521912,735.704102 706.019470,721.794556 688.573486,702.367126 
	C672.952148,684.971741 663.057373,664.747375 658.603027,641.378662 
z"/>
<path fill="#323230" opacity="1.000000" stroke="none" 
	d="
M468.222961,855.103271 
	C473.084503,842.545410 473.809082,829.759155 473.812103,816.896973 
	C473.837799,708.232727 473.827759,599.568420 473.828430,490.904144 
	C473.828430,488.776611 473.828430,486.649109 473.828430,484.269348 
	C506.726257,484.269348 539.149231,484.269348 571.931946,484.269348 
	C572.069519,485.381836 572.323120,486.474457 572.322754,487.567017 
	C572.287231,601.397339 572.396667,715.228149 572.062927,829.057617 
	C571.980286,857.248413 565.974060,884.292603 551.283386,908.824707 
	C533.185669,939.046265 505.904266,956.639099 472.159088,964.246033 
	C431.198975,973.479431 390.758057,972.002441 351.748230,954.954895 
	C320.247040,941.188660 292.873230,914.226746 277.362518,879.269531 
	C303.853424,863.231628 330.415741,847.150452 357.328217,830.857300 
	C359.991516,835.332031 362.171539,839.829834 365.110535,843.760071 
	C371.366943,852.126831 377.133331,861.146484 384.688782,868.196472 
	C400.950104,883.370056 431.799011,886.025269 451.253387,875.210815 
	C459.334747,870.718567 464.657501,863.908020 468.222961,855.103271 
z"/>
</svg>