<?xml version="1.0" encoding="utf-8"?>
<!-- Generator: Adobe Illustrator 16.0.3, SVG Export Plug-In . SVG Version: 6.00 Build 0)  -->
<!DOCTYPE svg PUBLIC "-//W3C//DTD SVG 1.1//EN" "http://www.w3.org/Graphics/SVG/1.1/DTD/svg11.dtd" [
	<!ENTITY ns_flows "http://ns.adobe.com/Flows/1.0/">
	<!ENTITY ns_extend "http://ns.adobe.com/Extensibility/1.0/">
	<!ENTITY ns_ai "http://ns.adobe.com/AdobeIllustrator/10.0/">
	<!ENTITY ns_graphs "http://ns.adobe.com/Graphs/1.0/">
]>
<svg version="1.1" id="Layer_1" xmlns:x="&ns_extend;" xmlns:i="&ns_ai;" xmlns:graph="&ns_graphs;"
	 xmlns="http://www.w3.org/2000/svg" xmlns:xlink="http://www.w3.org/1999/xlink" xmlns:a="http://ns.adobe.com/AdobeSVGViewerExtensions/3.0/"
	 x="0px" y="0px" width="295.963px" height="141.982px" viewBox="0 0 295.963 141.982"
	 style="enable-background:new 0 0 295.963 141.982;" xml:space="preserve">
<g>
	<path style="fill-rule:evenodd;clip-rule:evenodd;fill:#9B4754;" d="M128.996,1.979c-4.285,15.708-10.223,30.875-15.297,46.325
		c-1.068,3.25-1.759,5.101,2.373,7.063c8.225,3.907,11.482,13.563,8.259,22.143c-0.785,2.091-1.115,3.834-0.298,6.118
		c5.304,14.826-1.673,29.252-16.568,34.41c-2.966,1.027-6.087,1.889-9.196,2.176c-14.593,1.349-27.489,7.442-40.293,13.909
		c-6.985,3.526-14.115,6.79-21.957,7.879C18.877,144.38,6.861,136.5,2.157,119.946c-0.22-0.775-0.125-1.687-1.157-1.961
		c0-3.333,0-6.666,0-9.999c2.477-6.417,3.337-13.416,6.916-19.431c1.657-2.784,1.699-4.957-0.313-7.993
		c-5.533-8.356-2.557-19.728,5.908-24.787c8.804-5.263,19.499-2.765,24.918,5.821c5.311,8.414,2.787,19.513-5.685,25
		c-5.604,3.63-6.335,8.566-2.138,13.677c1.694,2.063,3.322,2.733,5.936,1.359c5.826-3.064,10.824-7.073,15.29-11.876
		c2.14-2.301,2.586-3.744,0.064-6.461c-8.075-8.699-6.034-22.186,4.325-27.679c3.668-1.945,3.458-3.649,2.398-6.772
		c-5.283-15.563-10.406-31.181-15.585-46.78C71.688,2.036,100.342,2.008,128.996,1.979z M116.474,87.342
		c-13.637,3.818-18.27,2.07-26.102-9.854c-1.8-2.741-6.802-2.317-8.349,0.806c-3.495,7.061-8.96,11.026-16.987,10.816
		c-2.211-0.058-3.224,1.101-4.362,2.63C55.53,98.648,49,103.916,41.533,108.2c-9.663,5.545-12.369,3.891-19.355-5.832
		c-2.194-3.054-2.537-6.798-2.709-10.478c-0.05-1.054,0.886-2.375-0.89-2.867c-1.824-0.508-2.234,0.903-2.829,2.091
		c-2.541,5.068-4.698,10.287-5.614,15.908c-2.558,15.713,5.649,27.001,19.802,27.284c7.546,0.151,14.292-2.729,20.951-5.799
		c9.944-4.586,19.417-10.341,30.083-13.15c7.212-1.899,14.748-2.574,21.956-4.488C114.626,107.762,119.641,98.654,116.474,87.342z
		 M86.083,22.408c1.676,3.412,2.901,5.902,4.122,8.393c3.361,6.858,6.701,13.728,10.109,20.563c0.407,0.815,0.68,2.02,1.951,1.984
		c0.945-0.026,1.375-0.778,1.652-1.597c4.669-13.783,9.338-27.566,14.099-41.617c-21.462,0-42.404,0-63.912,0
		c4.534,13.442,8.964,26.613,13.438,39.769c0.409,1.204,0.369,3.022,1.914,3.244c1.951,0.28,2.137-1.751,2.762-2.992
		C76.695,41.274,81.116,32.367,86.083,22.408z M107.175,81.273c5.735,0.095,10.268-4.233,10.279-9.813
		c0.012-5.926-4.491-10.579-10.208-10.551c-5.391,0.027-10.133,4.786-10.153,10.189C97.071,76.572,101.639,81.182,107.175,81.273z
		 M65.488,81.171c5.433-0.018,9.81-4.355,9.893-9.804c0.091-5.994-4.362-10.45-10.357-10.367c-5.42,0.075-10.016,4.564-10,9.768
		C55.041,76.564,59.692,81.189,65.488,81.171z M22.448,81.245c5.638,0.087,10.49-4.748,10.43-10.393
		c-0.055-5.16-4.758-9.822-9.933-9.846c-5.67-0.026-10.166,4.283-10.32,9.893C12.471,76.517,16.879,81.159,22.448,81.245z
		 M86.088,41.013c-1.535,2.979-2.505,5.2-3.765,7.242c-3.326,5.389-5.336,10.295-0.413,16.36c2.165,2.667,3.908,2.958,6.456,2.631
		c1.477-0.189,5.964-9.418,5.306-10.805C91.362,51.573,88.929,46.764,86.088,41.013z"/>
	<path style="fill-rule:evenodd;clip-rule:evenodd;fill:#E5CFD2;" d="M43.035,2.065c-0.013-0.354-0.027-0.71-0.04-1.065
		c28.663,0,57.326,0,85.989,0c0.039,0.325,0.043,0.651,0.012,0.979C100.342,2.008,71.688,2.036,43.035,2.065z"/>
	<path style="fill-rule:evenodd;clip-rule:evenodd;fill:#9D4A57;" d="M230.39,87.151c-1.646,8.028-6.316,12.747-13.419,13.806
		c-9.702,1.445-17.769-1.831-21.325-9.272c-3.596-7.523-4.173-15.367-0.475-23.126c4.067-8.535,13.56-12.807,22.62-10.298
		c7.792,2.158,14.135,12.193,13.428,20.741c-0.237,2.866-1.914,2.599-3.75,2.599c-7.829,0.002-15.661,0.135-23.485-0.058
		c-3.458-0.086-4.421,0.86-3.421,4.296c1.459,5.015,4.955,8.432,10.03,9.129c6.075,0.834,9.796-0.668,12.451-5.826
		C225.004,85.334,227.797,87.499,230.39,87.151z M211.859,63.873c-5.537,0.066-9.874,3.543-11.322,8.731
		c-0.627,2.244-0.145,3.043,2.183,3.007c4.806-0.074,9.619,0.11,14.419-0.078c2.19-0.087,5.571,1.317,6.342-0.914
		c0.971-2.813-1.209-5.635-3.457-7.725C217.745,64.777,214.999,63.75,211.859,63.873z"/>
	<path style="fill-rule:evenodd;clip-rule:evenodd;fill:#9C4956;" d="M253.218,101.169c-6.767-0.05-13.015-1.272-16.356-8.12
		c-0.883-1.809-2.434-4.531,0.066-5.613c1.951-0.845,4.821-1.418,6.375,2.424c2.319,5.738,14.345,7.35,18.799,3.021
		c2.898-2.816,2.262-6.458-1.619-8.568c-3.408-1.854-7.314-2.145-10.964-3.25c-2.376-0.72-4.783-1.406-7.048-2.403
		c-3.851-1.695-5.975-4.81-5.973-9.014c0.002-4.316,1.961-7.73,5.888-9.698c6.655-3.334,13.475-3.103,20.229-0.351
		c2.906,1.185,4.832,3.555,5.739,6.546c0.465,1.532,2.049,3.877-0.643,4.491c-1.842,0.42-4.329,1.426-5.902-1.773
		c-2.479-5.041-10.274-6.791-15.145-3.927c-3.599,2.117-3.699,5.525-0.185,7.902c2.689,1.819,5.918,2.106,8.938,2.979
		c2.87,0.829,5.874,1.325,8.606,2.475c4.264,1.792,7.002,4.854,6.996,9.906c-0.007,5.053-2.3,8.542-6.66,10.798
		C260.873,100.798,257.109,101.313,253.218,101.169z"/>
	<path style="fill-rule:evenodd;clip-rule:evenodd;fill:#9D4A56;" d="M175.954,65.554c0.005-6.484,0.176-12.976-0.066-19.451
		c-0.122-3.255,1.512-3.381,3.94-3.333c2.324,0.047,4.128-0.066,4.085,3.274c-0.167,13.132,0.155,26.275-0.17,39.401
		c-0.25,10.122-5.492,15.389-15.212,16.348c-9.187,0.907-16.221-3.39-18.138-11.216c-0.43-1.753-0.365-3.623-0.595-5.432
		c-0.34-2.686,0.502-3.965,3.504-3.838c2.604,0.11,4.434,0.163,4.377,3.645c-0.076,4.679,0.841,9.085,6.6,10.143
		c7.212,1.323,11.366-1.771,11.619-9.092C176.134,79.194,175.949,72.371,175.954,65.554z"/>
	<path style="fill-rule:evenodd;clip-rule:evenodd;fill:#A35560;" d="M281.298,79.748c0-2.998-0.09-5.998,0.023-8.992
		c0.133-3.518,0.362-6.861-4.931-5.92c-1.819,0.323-2.153-1.188-2.067-2.635c0.082-1.384-0.497-3.655,1.751-3.374
		c6.593,0.824,4.932-3.753,5.296-7.311c0.198-1.931-1.666-4.98,2.315-5.434c3.328-0.379,5.635,0.197,4.977,4.376
		c-0.205,1.3,0.081,2.67-0.053,3.99c-0.323,3.158,0.767,4.686,4.177,4.278c2.194-0.262,4.218-0.34,4.182,3.121
		c-0.036,3.529-2.198,3.256-4.313,3.01c-3.458-0.401-4.175,1.184-4.083,4.294c0.195,6.655,0.217,13.326-0.005,19.981
		c-0.117,3.518,0.83,5.48,4.651,5.181c2.273-0.178,3.748,0.219,3.742,3.155c-0.006,2.886-1.382,3.154-3.7,3.227
		c-9.425,0.296-11.918-2.021-11.96-11.453C281.286,86.077,281.298,82.912,281.298,79.748z"/>
</g>
</svg>
