<svg version="1.1" id="Layer_1" xmlns="http://www.w3.org/2000/svg" xmlns:xlink="http://www.w3.org/1999/xlink" x="0px" y="0px"
	 width="100%" viewBox="0 0 1024 1024" enable-background="new 0 0 1024 1024" xml:space="preserve">


<path fill="#fc0000" opacity="1.000000" stroke="none"
	d="
M549.000000,1025.000000
	C525.312439,1025.000000 501.624878,1025.000000 477.281372,1024.606689
	C461.179230,1022.478821 445.665802,1021.190979 430.306366,1018.879700
	C415.879364,1016.708618 401.428375,1014.177307 387.319153,1010.524963
	C360.543396,1003.593445 334.405243,994.708435 308.970490,983.631714
	C282.106476,971.932556 256.379181,958.222290 231.894547,942.245117
	C212.493057,929.584961 193.684113,915.992493 176.730560,900.122070
	C162.745102,887.030090 148.719482,873.906982 135.693939,859.885193
	C123.453049,846.708008 112.160667,832.600525 101.059601,818.425659
	C85.718964,798.837219 72.357399,777.865845 61.062042,755.700439
	C53.188717,740.250244 45.704128,724.549194 39.065411,708.537476
	C32.389439,692.435852 26.188885,676.046143 21.198872,659.358459
	C14.326041,636.374146 8.691660,613.009949 5.958387,589.077026
	C4.603841,577.216431 3.334336,565.346130 1.973490,553.486267
	C1.837664,552.302490 1.333318,551.161072 1.000004,550.000000
	C1.000000,525.645752 1.000000,501.291534 1.392869,476.280762
	C3.849881,458.593628 5.703611,441.534241 8.030092,424.539581
	C11.112715,402.021393 16.512856,379.972687 23.960674,358.543396
	C30.950052,338.433167 38.454967,318.455292 46.831383,298.889404
	C53.070557,284.315704 60.353161,270.071899 68.439674,256.433350
	C80.532326,236.038162 93.090912,215.866333 108.631386,197.773865
	C119.523056,185.093613 129.578232,171.623184 141.185760,159.648239
	C154.741150,145.663773 169.217392,132.503235 183.974274,119.773720
	C195.803864,109.569305 208.347702,100.116783 221.104904,91.079208
	C250.158432,70.496864 281.306458,53.528023 314.257324,40.087879
	C331.442535,33.078293 348.905609,26.544689 366.666046,21.201782
	C389.632843,14.292638 413.001617,8.685419 436.930847,5.957204
	C448.789337,4.605195 460.657043,3.334072 472.514557,1.973477
	C473.697998,1.837680 474.839203,1.333311 476.000000,1.000000
	C500.354218,1.000000 524.708435,1.000000 549.719238,1.392858
	C560.976135,2.855413 571.597595,3.753434 582.170898,5.044833
	C592.034607,6.249561 601.995483,7.228416 611.650085,9.451249
	C629.286316,13.511723 646.967651,17.667376 664.186829,23.170446
	C683.400085,29.310802 702.520691,36.091377 720.942749,44.259655
	C739.741272,52.594807 758.192322,62.044006 775.784363,72.678185
	C793.956970,83.663284 811.257324,96.200249 828.289001,108.928398
	C841.261169,118.622810 853.547974,129.314682 865.517151,140.244492
	C874.686462,148.617538 883.137878,157.826797 891.448608,167.077347
	C901.756042,178.550430 912.479004,189.813660 921.415710,202.316040
	C934.413269,220.499542 946.299561,239.508423 958.069092,258.530823
	C973.134460,282.880219 984.718628,308.983337 994.303528,335.904449
	C1000.370056,352.943451 1006.161377,370.161804 1010.607422,387.672668
	C1014.753052,404.000702 1017.314575,420.766327 1019.898254,437.443939
	C1021.825256,449.882141 1022.663940,462.488434 1024.039429,475.014130
	C1024.114990,475.702942 1024.668823,476.339264 1025.000000,477.000000
	C1025.000000,500.687561 1025.000000,524.375122 1024.606812,548.718628
	C1023.809448,554.960022 1023.591248,560.566589 1022.959473,566.126282
	C1021.891052,575.530762 1020.876038,584.960083 1019.263123,594.279358
	C1017.134094,606.581177 1015.024597,618.937073 1011.871216,630.999023
	C1007.010803,649.590942 1001.663330,668.079590 995.756348,686.364502
	C992.286560,697.105225 987.839478,707.610107 982.939758,717.791687
	C973.876038,736.626160 965.046082,755.668884 954.457886,773.646729
	C944.099915,791.233582 932.264832,808.047668 919.977295,824.372314
	C908.662170,839.405029 896.255188,853.672302 883.621948,867.637024
	C874.847717,877.335938 864.957397,886.038147 855.407043,895.016968
	C850.018555,900.082886 844.581177,905.168335 838.688049,909.611328
	C825.578918,919.494629 812.439697,929.383057 798.806824,938.514038
	C784.939209,947.802063 770.879578,956.962219 756.170532,964.802124
	C724.679565,981.586731 691.870667,995.392029 657.469849,1005.216309
	C634.987793,1011.636658 612.317871,1017.169312 589.071716,1019.968567
	C576.232300,1021.514771 563.346069,1022.671997 550.486267,1024.053955
	C549.963013,1024.110229 549.494202,1024.673218 549.000000,1025.000000
M675.752075,387.341583
	C629.320435,390.367157 592.741394,410.399780 567.665466,450.785889
	C566.765503,448.371155 566.577576,446.649292 566.575195,444.927185
	C566.555908,430.762177 566.406372,416.594055 566.668945,402.433807
	C566.755859,397.749237 565.138977,396.438843 560.597595,396.458252
	C525.768982,396.607239 490.939423,396.539581 456.110168,396.537354
	C449.438263,396.536957 449.426575,396.551147 449.426819,403.225128
	C449.431549,530.545166 449.435303,657.865173 449.436737,785.185242
	C449.436829,791.938965 449.427063,792.014954 456.408142,791.983948
	C468.896606,791.928528 481.384491,791.699829 493.872894,791.672119
	C517.703674,791.619263 541.534546,791.656799 565.365417,791.656799
	C567.156372,791.656799 568.947327,791.656860 571.238037,791.656860
	C571.238037,789.325195 571.235901,787.531555 571.238342,785.737854
	C571.319336,725.412476 571.384888,665.087036 571.490784,604.761658
	C571.527588,583.793274 571.498962,562.822815 577.603821,542.428894
	C582.649109,525.574890 591.329712,511.518494 607.231262,502.834198
	C623.425415,493.990112 640.824585,492.851532 658.620483,495.274078
	C681.160889,498.342468 695.550842,511.354675 702.835815,532.624268
	C708.237061,548.394104 709.872681,564.722961 709.878662,581.265198
	C709.903381,648.924744 709.884521,716.584229 709.875671,784.243774
	C709.874634,791.729309 710.134155,792.041321 717.760620,792.005859
	C739.248108,791.905762 760.735291,791.740112 782.222839,791.660828
	C797.054382,791.606140 811.886414,791.659912 826.718201,791.642944
	C828.462646,791.640991 830.206970,791.497681 832.272949,791.405579
	C832.272949,787.831726 832.273621,784.845886 832.272827,781.860046
	C832.260864,733.531799 832.331543,685.203369 832.206360,636.875427
	C832.126953,606.225464 832.204590,575.564270 831.382324,544.930359
	C830.643372,517.400391 826.677673,490.277008 816.752380,464.339355
	C808.997314,444.073364 797.683838,426.237427 779.942871,413.253418
	C749.096252,390.677887 713.771057,385.360046 675.752075,387.341583
M371.270599,685.500183
	C371.285645,591.523865 371.302032,497.547577 371.313019,403.571289
	C371.313812,396.660065 371.187134,396.561340 364.366180,396.566467
	C328.042053,396.593781 291.717926,396.614899 255.393814,396.639221
	C248.716248,396.643707 248.703400,396.646027 248.701218,403.118591
	C248.658234,530.419312 248.617554,657.720093 248.580566,785.020813
	C248.578659,791.608398 248.955414,792.018372 255.695435,791.988953
	C275.680115,791.901733 295.664429,791.726074 315.649109,791.659119
	C332.311401,791.603210 348.974060,791.651978 365.636536,791.654297
	C367.394318,791.654541 369.152100,791.654297 371.270599,791.654297
	C371.270599,756.112122 371.270599,721.306213 371.270599,685.500183
M257.598755,223.103256
	C230.369217,252.730652 233.643631,299.099731 264.822784,325.403259
	C291.784210,348.148621 331.134949,346.992065 358.366058,322.653931
	C383.207031,300.451996 388.175385,260.757996 369.654022,232.470123
	C344.102173,193.444565 291.107819,188.749176 257.598755,223.103256
z"/>




</svg>