<?xml version="1.0" encoding="utf-8"?>
<!-- Generator: Adobe Illustrator 16.0.3, SVG Export Plug-In . SVG Version: 6.00 Build 0)  -->
<!DOCTYPE svg PUBLIC "-//W3C//DTD SVG 1.1//EN" "http://www.w3.org/Graphics/SVG/1.1/DTD/svg11.dtd" [
	<!ENTITY ns_flows "http://ns.adobe.com/Flows/1.0/">
	<!ENTITY ns_extend "http://ns.adobe.com/Extensibility/1.0/">
	<!ENTITY ns_ai "http://ns.adobe.com/AdobeIllustrator/10.0/">
	<!ENTITY ns_graphs "http://ns.adobe.com/Graphs/1.0/">
]>
<svg version="1.1" id="Layer_1" xmlns:x="&ns_extend;" xmlns:i="&ns_ai;" xmlns:graph="&ns_graphs;"
	 xmlns="http://www.w3.org/2000/svg" xmlns:xlink="http://www.w3.org/1999/xlink" xmlns:a="http://ns.adobe.com/AdobeSVGViewerExtensions/3.0/"
	 x="0px" y="0px" width="1638.164px" height="876.088px" viewBox="0 0 1638.164 876.088"
	 style="enable-background:new 0 0 1638.164 876.088;" xml:space="preserve">
<g>
	<path style="fill-rule:evenodd;clip-rule:evenodd;fill:#02628B;" d="M327.077,593.285c-4.25,9.408-8.511,18.81-12.746,28.224
		c-22.167,49.277-44.727,98.384-66.306,147.916c-9.525,21.862-25.036,32.219-48.591,31.353c-6.01-0.221-12.001-0.276-17.916-1.56
		c-10.659-2.313-19.115-7.83-25.233-16.915c-3.247-4.821-5.604-10.088-7.972-15.354c-25.182-56.022-50.352-112.051-75.533-168.074
		c-0.85-1.891-1.791-3.741-2.987-6.229c-1.813,2.584-1.1,5.076-1.101,7.315c-0.048,63.111-0.023,126.224-0.054,189.335
		c-0.004,9.606,1.163,8.456-8.449,8.497c-13.177,0.055-26.355-0.087-39.531,0.077c-3.503,0.044-5.116-0.885-4.796-4.624
		c0.255-2.984,0.049-6.006,0.049-9.012c0-63.806-0.002-127.61,0.007-191.416c0.001-5.311,0.006-10.593,1.348-15.833
		c2.135-8.336,6.697-14.901,14.438-18.502c15.577-7.245,32.001-10.595,49.198-8.232c18.772,2.58,31.646,13.054,39.132,30.331
		c8.812,20.339,17.62,40.681,26.423,61.024c15.864,36.661,31.711,73.328,47.613,109.973c0.89,2.048,1.392,4.348,3.148,6.016
		c2.155-1.406,2.526-3.83,3.446-5.884c25.007-55.848,49.982-111.71,74.976-167.564c1.226-2.738,2.455-5.485,3.878-8.123
		c9.014-16.707,23.362-25.101,42.004-26.354c13.834-0.929,27.149,1.944,40.002,6.838c11.979,4.562,18.307,13.604,19.438,26.272
		c0.349,3.907,0.394,7.851,0.396,11.777c0.022,65.192,0.022,130.385,0.009,195.577c-0.001,9.103,0.488,7.598-7.86,7.65
		c-12.714,0.08-25.43,0.034-38.145,0.016c-6.755-0.009-6.789-0.033-6.791-6.741c-0.009-51.784-0.005-103.567-0.005-155.352
		c0-14.079,0-28.156,0-42.235C328.069,593.41,327.573,593.349,327.077,593.285z"/>
	<path style="fill-rule:evenodd;clip-rule:evenodd;fill:#E48F02;" d="M1216.091,787.113c17.143,15.499,33.723,30.489,50.725,45.861
		c-2.195,1.271-4.038,0.83-5.734,0.835c-16.405,0.042-32.813-0.067-49.216,0.096c-3.713,0.036-6.513-0.955-9.269-3.507
		c-11.02-10.203-22.332-20.088-33.334-30.308c-3.094-2.873-6.083-4.249-10.443-3.874c-29.954,2.576-59.984,2.663-90.023,2.434
		c-14.909-0.113-29.421-2.34-43.424-7.561c-2.375-0.885-4.737-1.813-7.062-2.822c-22.27-9.67-33.566-26.553-33.486-50.938
		c0.042-13.17,0-26.341,0-39.512c0-27.496,0.019-54.994-0.012-82.49c-0.006-5.338,0.39-10.644,1.62-15.817
		c3.225-13.567,11.372-23.498,23.172-30.619c11.251-6.79,23.685-10.069,36.46-12.443c7.772-1.446,15.597-1.733,23.453-1.733
		c32.811,0.004,65.622-0.146,98.431,0.134c18.466,0.157,36.233,4.027,52.59,12.915c13.227,7.187,22.154,17.932,25.398,32.918
		c1.031,4.762,1.221,9.621,1.223,14.474c0.02,40.206,0.042,80.411-0.03,120.616c-0.009,5.073-0.166,10.202-0.915,15.207
		c-2.157,14.41-9.664,25.236-22.601,32.156C1221.396,784.322,1219.165,785.488,1216.091,787.113z M1085.425,724.44
		c2.951-1.425,5.037-0.947,7.031-0.952c15.482-0.047,30.967,0.135,46.445-0.122c4.753-0.079,8.277,1.335,11.718,4.557
		c9.95,9.316,20.267,18.24,30.238,27.533c2.635,2.456,4.537,2.306,7.123,0.233c6.781-5.435,9.979-12.383,9.963-21.078
		c-0.072-38.822-0.099-77.644,0.013-116.465c0.034-11.822-5.533-19.668-16.063-24.305c-6.206-2.734-12.799-3.966-19.547-3.981
		c-27.96-0.066-55.921-0.1-83.881,0.022c-8.15,0.035-16.084,1.593-23.374,5.486c-8.167,4.361-12.863,11.043-13.241,20.466
		c-0.093,2.308-0.085,4.619-0.086,6.93c-0.005,30.272-0.004,60.543-0.003,90.814c0.001,6.471-0.173,12.946,0.05,19.409
		c0.5,14.506,7.665,23.724,21.539,27.959c5.105,1.559,10.341,2.294,15.701,2.277c14.096-0.043,28.191-0.004,42.287,0.002
		c1.735,0.002,3.47,0.001,6.901,0.001C1113.273,749.67,1099.667,737.344,1085.425,724.44z"/>
	<path style="fill-rule:evenodd;clip-rule:evenodd;fill:#05648C;" d="M1257.635,498.266c-8.67-7.269-17.555-14.298-25.968-21.854
		c-17.331-15.565-32.455-32.858-41.755-54.649c-2.296-5.381-4.673-10.855-9.104-16.733c-1.366,6.939-2.633,12.669-3.593,18.449
		c-1.059,6.379-1.825,12.806-2.739,19.208c-0.491,3.443-1.375,6.789-2.678,10.015c-5.21,12.894-18.657,18.301-31.422,12.623
		c-6.734-2.995-11.829-7.986-16.33-13.649c-12.213-15.361-19.153-33.106-23.067-52.106c-6.415-31.133-5.323-61.988,3.799-92.528
		c1.781-5.961,2.936-12.112,4.306-18.192c0.765-3.395,1.527-6.856,3.344-9.793c2.409-3.891,1.468-7.153-1.351-9.986
		c-16.796-16.875-25.33-38.378-33.444-60.024c-5.099-13.604-10.284-27.213-13.746-41.386c-1.787-7.308-5.859-13.537-10.083-19.617
		c-6.86-9.873-14.098-19.466-21.67-28.809c-6.13-7.563-11.677-15.522-15.48-24.549c-3.314-7.865-4.55-16.039-2.476-24.407
		c3.891-15.692,15.704-25.042,32.146-25.487c10.079-0.273,19.787,2.027,29.104,5.566c18.211,6.916,35.745,15.173,50.391,28.438
		c4.329,3.92,9.219,5.716,15.098,5.77c13.901,0.127,27.563,1.881,41.098,5.43c14.866,3.897,28.869,9.308,42.068,17.324
		c41.59,25.26,79.565,54.721,110.551,92.609c13.93,17.033,26.428,35.057,37.854,53.837c4.578,7.523,8.159,15.544,11.286,23.754
		c9.879,25.93,21.763,50.962,33.838,75.909c5.332,11.015,10.722,22.002,16.193,32.947c1.959,3.919,4.216,7.689,6.375,11.506
		c2.024,3.579,5.077,5.896,8.937,7.261c12.863,4.552,25.042,10.696,37.476,16.241c14.88,6.637,27.835,16.413,40.946,25.873
		c12.938,9.336,25.238,19.498,37.53,29.668c8.507,7.037,14.062,16.512,21.147,24.715c2.125,2.459,1.192,4.396-2.294,5.472
		c-10.815,3.337-21.673,6.614-33.025,7.536c-10.633,0.863-21.054,2.677-31.311,5.642c-6.167,1.781-12.473,3.085-19.076,4.691
		c1.658,5.309,5.231,8.87,9.011,12.241c5.897,5.259,12.533,9.513,19.393,13.334c23.125,12.885,42.925,29.611,59.302,50.412
		c1.422,1.808,3.04,3.51,4.786,5.007c6.445,5.526,11.164,12.168,13.675,20.977c-2.741-0.35-4.411-2.133-6.171-3.686
		c-16.895-14.906-35.022-27.936-55.887-36.814c-17.109-7.279-32.767-16.916-47.518-28.246
		c-13.739-10.552-23.869-23.609-30.61-39.493c-1.025-2.417-0.412-3.959,1.02-5.595c1.415-1.618,3.375-2.35,5.317-3.13
		c25.662-10.31,52.342-14.837,79.948-14.155c1.847,0.045,3.699,0.022,5.545-0.049c0.386-0.015,0.758-0.38,1.415-0.734
		c-0.208-2.679-2.078-4.477-3.938-6.076c-2.971-2.555-5.989-5.141-9.313-7.185c-11.824-7.272-23.339-15.023-34.337-23.447
		c-16.812-12.877-36.04-20.433-55.876-26.873c-7.024-2.28-14.056-4.55-21.023-6.993c-6.748-2.367-11.938-6.558-15.872-12.73
		c-7.104-11.146-13.202-22.801-18.477-34.87c-7.679-17.571-15.895-34.886-24.221-52.151c-5.722-11.862-11.03-23.879-15.571-36.266
		c-6.731-18.364-17.311-34.695-28.265-50.726c-31.712-46.405-71.999-83.49-121.242-110.733c-7.688-4.253-15.669-7.895-23.748-11.329
		c-12.896-5.483-26.268-8.752-40.363-8.609c-7.644,0.078-15.098-2.009-22.786-1.815c-3.817,0.096-6.981-2.453-9.692-4.948
		c-14.922-13.733-33.062-21.798-51.433-29.468c-5.34-2.229-10.825-4.038-16.636-4.592c-10.891-1.038-17.112,6.3-14.198,16.885
		c2.44,8.866,7.5,16.335,13.151,23.4c6.066,7.584,11.846,15.376,17.677,23.138c9.976,13.283,17.032,27.953,22.066,43.702
		c4.077,12.753,8.206,25.49,12.481,38.178c3.556,10.552,8.632,20.4,14.44,29.886c3.283,5.361,7.203,10.184,11.855,14.406
		c7.779,7.063,10.3,15.461,7.17,25.687c-2.029,6.631-4.148,13.213-6.696,19.656c-8.758,22.15-11.068,45.224-9.627,68.775
		c1.18,19.296,5.146,37.967,13.434,55.573c1.674,3.557,3.309,7.127,5.619,10.334c2.187,3.035,4.755,5.65,8.098,7.436
		c5.397,2.881,6.497,2.32,7.352-3.817c1.752-12.582,2.663-25.272,5.157-37.761c2.535-12.692,7.186-24.315,15.862-34.144
		c2.596-2.941,4.955-6.102,7.285-9.263c1.667-2.262,2.949-1.744,4.138,0.303c0.577,0.993,1.067,2.063,1.417,3.155
		c10.079,31.481,26.084,60.078,43.051,88.188c9.319,15.438,19.544,30.269,30.928,44.277
		C1257.613,495.574,1257.624,496.919,1257.635,498.266z"/>
	<path style="fill-rule:evenodd;clip-rule:evenodd;fill:#02628B;" d="M676.377,725.303c0,29.132-0.206,58.265,0.071,87.394
		c0.188,19.767-8.579,34.002-25.244,43.877c-12.535,7.428-26.321,11.073-40.555,13.321c-8.24,1.301-16.541,1.59-24.88,1.579
		c-49.94-0.061-99.879-0.03-149.819-0.03c-1.387,0-2.774,0.021-4.162-0.004c-5.181-0.092-5.239-0.098-5.27-5.34
		c-0.049-8.555,0.094-17.111-0.068-25.662c-0.061-3.188,0.793-4.836,4.252-4.478c1.601,0.167,3.234,0.023,4.852,0.023
		c50.633-0.001,101.267-0.017,151.899,0.016c7.938,0.005,15.696-0.948,23.041-4.061c9.346-3.96,13.012-9.817,12.842-20.001
		c-0.069-4.16-0.165-8.321-0.133-12.482c0.018-2.343-1.013-3.349-3.313-3.267c-1.616,0.057-3.236-0.008-4.854-0.008
		c-32.6-0.001-65.199-0.028-97.799,0.011c-16.722,0.02-33.232-1.432-49.242-6.629c-10.195-3.31-19.746-7.87-27.935-14.914
		c-9.803-8.433-15.007-18.739-14.858-32.104c0.404-36.063,0.244-72.133,0.304-108.2c0.009-5.898,0-5.945,6.034-5.959
		c13.41-0.03,26.819-0.028,40.229,0c6.204,0.013,6.24,0.056,6.242,6.536c0.013,35.143,0.005,70.285,0.006,105.428
		c0,13.053,5.053,19.556,17.807,22.446c4.952,1.122,10.019,1.624,15.139,1.619c35.374-0.042,70.747-0.02,106.121-0.02
		c1.156,0,2.313-0.041,3.468-0.016c1.947,0.043,3.036-0.78,3.025-2.829c-0.009-1.85,0.023-3.698,0.023-5.548
		c0.001-40.229-0.008-80.458,0.008-120.688c0.003-8.458-0.836-7.671,7.925-7.688c12.947-0.025,25.895-0.031,38.841,0.005
		c5.962,0.017,6.029,0.071,6.034,6.115c0.025,30.519,0.012,61.037,0.012,91.556C676.405,725.303,676.391,725.303,676.377,725.303z"
		/>
	<path style="fill-rule:evenodd;clip-rule:evenodd;fill:#E49004;" d="M865.078,554.034c27.273,0,54.546-0.01,81.82,0.008
		c6.513,0.005,6.549,0.047,6.575,6.332c0.034,8.32-0.055,16.642,0.038,24.961c0.032,2.842-0.823,4.412-3.94,4.164
		c-1.608-0.127-3.235-0.018-4.852-0.018c-45.764,0.001-91.527,0.009-137.292-0.008c-6.714-0.003-13.38,0.353-20.006,1.571
		c-12.046,2.213-16.828,7.628-16.966,19.721c-0.087,7.626-0.138,15.258,0.018,22.881c0.273,13.361,7.287,21.584,20.416,24.029
		c5,0.931,10.05,1.385,15.164,1.374c22.651-0.048,45.304-0.205,67.951,0.117c17.773,0.252,34.774,4.251,50.674,12.426
		c6.41,3.295,12.352,7.261,17.297,12.563c6.065,6.504,9.498,13.995,9.314,23.132c-0.232,11.552-0.344,23.12,0.014,34.666
		c0.499,16.06-6.592,27.981-19.236,37.032c-11.439,8.188-24.293,13.201-38.008,16.008c-8.841,1.809-17.794,2.703-26.841,2.697
		c-47.844-0.027-95.688-0.012-143.531-0.012c-1.156,0-2.313-0.054-3.467-0.006c-2.31,0.094-3.348-0.923-3.335-3.284
		c0.051-9.707,0.039-19.414,0.017-29.122c-0.005-2.059,1.063-2.908,2.976-2.94c1.849-0.031,3.698-0.037,5.546-0.037
		c44.146-0.002,88.292,0.013,132.438-0.017c6.931-0.005,13.86-0.116,20.651-1.861c5.254-1.349,9.891-3.724,13.812-7.524
		c3.841-3.725,5.959-8.063,5.864-13.538c-0.14-8.087-0.009-16.178-0.041-24.268c-0.04-10.014-4.374-16.359-13.966-19.951
		c-8.318-3.115-17.087-3.962-25.878-4.031c-19.183-0.153-38.37,0.118-57.551-0.13c-18.181-0.234-35.798-3.604-52.447-11.159
		c-8.277-3.756-15.763-8.711-21.797-15.64c-5.494-6.31-8.878-13.518-8.892-21.996c-0.018-12.247-0.162-24.506,0.292-36.739
		c0.581-15.664,7.805-27.848,21.029-36.214c13.1-8.287,27.492-12.896,42.964-14.199c19.618-1.651,39.271-0.766,58.908-0.974
		C848.897,553.963,856.988,554.034,865.078,554.034z"/>
	<path style="fill-rule:evenodd;clip-rule:evenodd;fill:#E49004;" d="M1280.132,648.803c-0.003-28.88-0.005-57.76-0.002-86.64
		c0-1.848-0.003-3.697,0.052-5.545c0.05-1.674,1.034-2.471,2.645-2.536c1.153-0.046,2.31-0.046,3.465-0.046
		c13.631-0.002,27.263-0.028,40.894,0.011c5.689,0.016,5.772,0.079,5.79,5.653c0.046,15.248,0.016,30.497,0.016,45.746
		c0,41.355,0,82.712,0.001,124.068c0,2.079-0.043,4.16,0.023,6.237c0.455,14.207,6.562,21.477,20.539,24.614
		c8.416,1.89,16.965,1.899,25.509,1.907c36.735,0.033,73.471,0.015,110.207,0.016c5.545,0,11.09-0.008,16.635,0.001
		c9.372,0.016,8.163-0.566,8.217,8.128c0.047,7.624-0.106,15.251,0.062,22.871c0.072,3.259-0.989,4.775-4.353,4.408
		c-1.142-0.125-2.309-0.017-3.464-0.017c-42.742-0.001-85.484,0.081-128.228-0.04c-17.601-0.051-35.035-1.824-52.031-6.734
		c-5.552-1.604-10.918-3.702-16.077-6.323c-19.821-10.069-29.802-26.262-29.873-48.446
		C1280.065,707.025,1280.136,677.914,1280.132,648.803z"/>
	<path style="fill-rule:evenodd;clip-rule:evenodd;fill:#E5930C;" d="M1577.621,722.597c21.706-0.085,38.816,16.759,39.048,38.437
		c0.231,21.794-17.144,39.346-38.971,39.366c-21.686,0.02-38.747-16.899-38.919-38.595
		C1538.604,739.641,1555.403,722.684,1577.621,722.597z M1577.471,730.839c-17.104,0.063-29.871,13.115-29.883,30.553
		c-0.012,17.563,13.323,31.02,30.521,30.8c16.819-0.216,29.627-13.715,29.49-31.083
		C1607.462,743.646,1594.651,730.776,1577.471,730.839z"/>
	<path style="fill-rule:evenodd;clip-rule:evenodd;fill:#0A678E;" d="M1154.371,183.05c-4.819-13.42-12.85-24.764-22.358-35.344
		c13.904-5.582,20.57-3.377,28.508,8.628C1166.928,166.023,1164.196,176.32,1154.371,183.05z"/>
	<path style="fill-rule:evenodd;clip-rule:evenodd;fill:#297A9C;" d="M1257.635,498.266c-0.011-1.347-0.021-2.691-0.033-4.037
		c7.061,6.772,13.417,14.269,22.58,20.747C1272.564,513.73,1266.301,508.818,1257.635,498.266z"/>
	<path style="fill-rule:evenodd;clip-rule:evenodd;fill:#E69713;" d="M1585.09,765.427c3.62,5.606,7.341,11.366,11.172,17.297
		c-7.67,1.659-7.672,1.66-11.304-4.295c-2.281-3.741-4.651-7.433-6.794-11.252c-1.183-2.107-2.774-2.745-5.078-2.716
		c-2.223,0.028-3.452,0.603-3.402,3.079c0.083,4.15-0.054,8.307,0.024,12.458c0.048,2.523-0.781,3.786-3.552,3.82
		c-2.826,0.034-4.278-0.729-4.256-3.854c0.091-12.229,0.06-24.458,0.021-36.687c-0.007-2.401,0.553-4.016,3.413-3.953
		c6.458,0.14,12.948-0.197,19.367,0.346c7.929,0.672,12.07,5.996,11.388,13.598c-0.381,4.24-2.406,7.335-6.193,9.347
		C1588.337,763.442,1586.089,763.012,1585.09,765.427z M1576.537,757.972c0.002,0.048,0.004,0.095,0.007,0.142
		c2.061-0.156,4.139-0.197,6.18-0.494c3.121-0.454,4.92-2.292,5.104-5.52c0.166-2.919-1.239-4.752-3.952-5.733
		c-4.021-1.454-8.163-1.024-12.287-0.866c-1.069,0.042-1.704,0.798-1.728,1.775c-0.072,2.98-0.114,5.968,0.026,8.943
		c0.065,1.384,1.312,1.711,2.512,1.744C1573.777,758.002,1575.157,757.972,1576.537,757.972z"/>
</g>
</svg>
