<svg version="1.1" id="logo" xmlns="http://www.w3.org/2000/svg" xmlns:xlink="http://www.w3.org/1999/xlink" x="0px" y="0px"
	 width="100%" viewBox="0 0 2083 1595" enable-background="new 0 0 2083 1595" xml:space="preserve">
<path fill="#FFFFFF" opacity="1.000000" stroke="none"
	d="
M793.000000,1596.000000
	C763.637268,1596.000000 734.274597,1596.000000 704.671753,1595.658691
	C707.216919,1594.860962 710.000427,1594.392700 712.788025,1593.950684
	C717.470886,1593.208130 719.699341,1590.841431 718.934082,1585.789429
	C718.490112,1582.858398 718.815552,1579.804321 718.862000,1576.806763
	C718.939636,1571.797974 717.175232,1565.860474 724.855835,1564.324463
	C716.376648,1564.324463 707.897461,1564.324463 699.171875,1564.324463
	C699.489929,1564.912476 699.528076,1565.103271 699.639282,1565.166992
	C700.062683,1565.411011 700.515015,1565.813110 700.947266,1565.801758
	C706.087219,1565.666382 707.493896,1568.472168 707.200989,1573.125610
	C706.939941,1577.273560 706.936279,1581.464478 707.207703,1585.611084
	C707.454407,1589.379883 705.559265,1590.604126 702.281433,1590.963379
	C689.213989,1592.395874 676.903809,1584.705200 672.515320,1572.303467
	C665.797302,1553.318359 674.485840,1537.676758 692.549805,1536.236206
	C703.840088,1535.335815 711.543274,1539.712402 716.008850,1549.506104
	C716.131165,1549.774292 716.790283,1549.797852 717.761353,1550.124878
	C717.761353,1544.598267 717.761353,1539.413330 717.761353,1533.920898
	C712.063843,1533.244629 706.472595,1532.377319 700.848206,1531.979736
	C696.543762,1531.675293 692.177490,1531.706299 687.873047,1532.035889
	C671.937927,1533.255859 659.223877,1545.218506 658.030029,1559.890503
	C656.609497,1577.348511 665.116516,1589.427124 682.031128,1593.949585
	C684.680725,1594.658081 687.343384,1595.317749 690.000000,1596.000000
	C657.970642,1596.000000 625.941223,1596.000000 593.639038,1595.654297
	C605.063232,1594.162720 612.235107,1585.681641 610.937378,1574.320557
	C610.127747,1567.232544 605.482727,1562.773682 599.857605,1559.151978
	C595.813721,1556.548584 591.406738,1554.428589 587.660217,1551.463135
	C582.345703,1547.256714 583.103271,1540.538208 588.956238,1537.581055
	C596.530090,1533.754272 605.789978,1537.049316 607.009460,1544.624023
	C607.104431,1545.213989 607.728271,1545.718872 608.434387,1546.735840
	C609.718140,1531.491089 611.867065,1532.569946 597.578003,1531.839233
	C595.589478,1531.737427 593.547974,1531.705322 591.595825,1532.030029
	C584.142029,1533.270386 577.612976,1536.266846 575.410278,1544.138428
	C573.259155,1551.825439 576.107422,1558.286377 582.463623,1562.948730
	C586.471130,1565.888306 591.191650,1567.934692 594.903076,1571.171997
	C597.567688,1573.496216 600.150757,1576.894165 600.885498,1580.228394
	C602.084900,1585.671753 597.940002,1590.091431 592.275085,1591.001343
	C584.284363,1592.284790 577.671692,1588.631226 576.059326,1582.058716
	C575.718872,1580.670898 575.309814,1579.300049 574.932434,1577.921387
	C573.608154,1579.541870 573.272644,1580.970093 573.168945,1582.414795
	C572.452515,1592.397217 572.468079,1592.398315 581.000000,1596.000000
	C544.970642,1596.000000 508.941254,1596.000000 472.602753,1595.612793
	C474.917786,1594.826294 477.579041,1594.589600 480.160187,1594.001343
	C498.899231,1589.731934 509.886902,1574.714844 509.002777,1554.692627
	C508.238129,1537.375000 496.313171,1524.674316 477.201172,1522.997803
	C462.151764,1521.677612 446.934540,1522.263794 431.791077,1522.059692
	C431.392426,1522.054443 430.984955,1522.703003 429.804443,1523.708862
	C435.897430,1523.790894 440.187622,1524.625488 440.076111,1531.507080
	C439.800751,1548.502319 440.076019,1565.505981 439.920227,1582.504272
	C439.841888,1591.052490 439.544678,1591.177002 431.992615,1593.991821
	C433.643677,1594.441528 435.317566,1594.494141 436.987793,1594.603027
	C443.992462,1595.059570 450.996033,1595.532837 458.000000,1596.000000
	C305.675690,1596.000000 153.351364,1596.000000 1.020287,1596.000000
	C1.013524,1064.373779 1.013524,532.747620 1.013524,1.060726
	C695.251770,1.060726 1389.503540,1.060726 2083.877686,1.060726
	C2083.877686,532.553589 2083.877686,1064.107300 2083.877686,1596.000000
	C1668.637329,1596.000000 1253.274658,1596.000000 837.655762,1595.670166
	C849.835571,1593.652100 857.022217,1583.578613 853.964600,1571.890259
	C852.238281,1565.291260 847.208496,1561.456421 841.726318,1558.088501
	C838.057190,1555.834351 834.151184,1553.855957 830.841492,1551.153687
	C826.375366,1547.506958 826.690063,1541.514648 831.195496,1538.364380
	C837.698425,1533.817749 848.771301,1535.851196 850.336365,1544.131714
	C850.492432,1544.957520 851.138916,1545.690674 851.557800,1546.466919
	C851.998474,1546.416626 852.439087,1546.366455 852.879761,1546.316162
	C852.879761,1543.248535 852.596497,1540.146973 852.959229,1537.122803
	C853.323608,1534.085327 852.139160,1532.610596 849.348633,1532.493896
	C844.053589,1532.272095 838.625244,1531.530518 833.478638,1532.378418
	C826.711060,1533.493286 820.863159,1536.892822 818.897156,1544.272095
	C816.925964,1551.670532 819.418701,1557.830933 825.288330,1562.361206
	C829.867981,1565.895874 835.070801,1568.612915 839.756836,1572.022949
	C845.234070,1576.008667 846.404846,1582.080566 842.888000,1586.767090
	C839.554443,1591.209229 834.789307,1591.703979 829.835632,1590.915405
	C825.151184,1590.169678 821.398071,1587.939087 819.935059,1583.009155
	C819.427917,1581.299927 818.939331,1579.585083 818.442200,1577.872803
	C817.119873,1579.709106 816.907532,1581.281616 816.831970,1582.860596
	C816.360779,1592.708496 816.370850,1592.708984 825.000000,1596.000000
	C815.637268,1596.000000 806.274597,1596.000000 796.315186,1595.548828
	C795.988647,1587.959717 796.345215,1580.823853 796.508484,1573.683472
	C796.751892,1563.038208 796.877197,1552.390137 797.014404,1541.742676
	C797.063782,1537.909790 797.791504,1534.725952 802.600952,1534.612793
	C803.035828,1534.602539 803.454346,1533.901733 804.197449,1533.238892
	C796.187927,1533.238892 788.741821,1533.238892 781.295654,1533.238892
	C782.472290,1534.537109 784.034119,1534.342896 785.033447,1535.001831
	C786.624573,1536.051025 788.999939,1537.640381 789.034424,1539.050171
	C789.344482,1551.729492 789.215576,1564.419434 789.215576,1577.090820
	C781.535400,1569.493530 773.785400,1561.563354 765.740540,1553.944458
	C757.809204,1546.433228 751.004761,1537.665039 741.430359,1530.491455
	C741.109009,1532.973877 740.856689,1534.092773 740.834900,1535.216187
	C740.534363,1550.688965 740.288879,1566.162720 739.967529,1581.635010
	C739.909058,1584.446777 740.341187,1587.664062 739.127014,1589.935059
	C738.096313,1591.862793 735.016357,1592.694824 732.293213,1594.344849
	C740.469910,1594.344849 748.157654,1594.344849 756.975769,1594.344849
	C748.091125,1590.378906 748.005798,1590.382812 747.571167,1580.936157
	C747.250061,1573.956665 747.167786,1566.965454 747.020874,1559.978516
	C746.960876,1557.125732 747.010986,1554.270630 747.010986,1551.247559
	C762.639099,1566.455444 777.819580,1581.227783 793.000000,1596.000000
M575.018677,1445.099243
	C543.968689,1413.965454 512.940613,1382.809814 481.806824,1351.760010
	C480.184357,1350.141968 477.662415,1349.425659 475.559204,1348.289551
	C474.704193,1350.655151 473.164520,1353.002930 473.102905,1355.389038
	C472.626038,1373.858154 472.472687,1392.335449 472.144287,1410.808716
	C471.818909,1429.110229 471.510590,1447.413208 470.984192,1465.709351
	C470.749756,1473.858276 468.797211,1475.522827 460.807465,1476.035522
	C458.887207,1476.158936 456.998016,1476.766357 455.094543,1477.151123
	C455.112427,1477.796631 455.130310,1478.442139 455.148224,1479.087646
	C456.902557,1479.393555 458.655884,1479.955444 460.411438,1479.962402
	C469.718872,1480.000000 479.026764,1479.874390 488.334656,1479.854736
	C492.996918,1479.844849 497.663452,1480.055176 502.318329,1479.890869
	C503.264526,1479.857544 504.167175,1478.590698 505.089935,1477.892578
	C504.205017,1477.314819 503.367096,1476.635010 502.417572,1476.197510
	C501.850098,1475.936157 501.108246,1476.044312 500.443756,1476.003662
	C490.734497,1475.409790 488.596191,1473.953491 487.920319,1464.285889
	C486.865143,1449.192871 486.456970,1434.048218 486.057251,1418.917969
	C485.788116,1408.730957 486.006012,1398.531250 486.006012,1388.161255
	C486.895630,1388.955078 487.893341,1389.763672 488.798584,1390.665039
	C510.506470,1412.277710 532.153809,1433.951416 553.930725,1455.494385
	C561.976013,1463.453125 570.198547,1471.245728 578.624939,1478.796509
	C580.526001,1480.500000 583.615234,1480.877441 586.157532,1481.865356
	C586.875000,1479.613403 588.163635,1477.376099 588.222351,1475.107056
	C588.872803,1449.988403 589.308655,1424.864258 589.854065,1399.742676
	C590.114136,1387.764771 590.279175,1375.779053 590.887817,1363.817139
	C591.208252,1357.520630 593.819092,1355.448486 600.030945,1354.859741
	C601.777649,1354.694092 603.487244,1354.136230 606.000549,1353.585815
	C601.414490,1350.180420 559.812073,1350.431274 555.934265,1354.199585
	C559.492493,1354.522095 562.088867,1354.772705 564.688110,1354.990112
	C570.847412,1355.505493 573.207214,1357.609985 574.252258,1363.729614
	C574.586853,1365.688965 574.812683,1367.686646 574.860168,1369.672241
	C575.457275,1394.618896 576.012512,1419.566406 576.087952,1444.927856
	C575.935059,1445.077393 575.782104,1445.227051 575.018677,1445.099243
M1770.423462,1466.936279
	C1788.701294,1463.377441 1807.058105,1460.178955 1825.242798,1456.195068
	C1890.581787,1441.880249 1953.655151,1420.601074 2014.821167,1393.620117
	C2027.895996,1387.852661 2040.803955,1381.703003 2053.725586,1375.595825
	C2056.254395,1374.400635 2058.683594,1372.816162 2060.823486,1371.013306
	C2065.469482,1367.098633 2066.660400,1360.737305 2064.011475,1355.664185
	C2061.295654,1350.462769 2055.584961,1347.736328 2049.626221,1349.651489
	C2042.046997,1352.087280 2034.677490,1355.175537 2027.216919,1357.981201
	C1968.777832,1379.960083 1908.272949,1392.796753 1846.264893,1399.148682
	C1800.082642,1403.879028 1753.860596,1404.418457 1707.609131,1400.790039
	C1648.045166,1396.117310 1589.602417,1384.989380 1531.967407,1369.439819
	C1432.400513,1342.577148 1337.194946,1304.278564 1245.076172,1258.337158
	C1166.967529,1219.382446 1089.524292,1179.093750 1011.793030,1139.382568
	C988.554565,1127.510498 965.337769,1115.595947 941.797424,1103.540283
	C942.757019,1102.701904 943.425720,1101.988159 944.213623,1101.448364
	C975.540039,1079.982544 1003.918762,1055.102051 1029.615234,1027.189941
	C1121.600464,927.273010 1172.036133,810.062805 1175.960571,673.720459
	C1177.956177,604.389648 1168.956055,536.565918 1145.915527,470.932892
	C1119.764771,396.440186 1077.802002,332.355408 1018.665833,279.807892
	C954.048218,222.389740 878.449951,186.382202 794.987976,166.047485
	C729.512756,150.095078 663.019226,144.843567 595.760620,147.774979
	C548.189392,149.848328 501.344391,156.486649 455.400848,169.051041
	C370.285675,192.327896 295.234589,233.541687 232.010437,295.453339
	C189.010544,337.560577 154.920349,386.092072 128.832748,440.317444
	C103.462509,493.051788 86.923431,548.411926 79.257362,606.388123
	C73.220123,652.045959 74.033157,697.716614 79.812859,743.363281
	C88.547821,812.349731 108.328270,877.900452 140.984833,939.376099
	C183.515823,1019.440369 242.944412,1083.700317 321.116638,1130.098145
	C407.913910,1181.615356 502.983948,1202.662598 602.808716,1205.824219
	C642.019409,1207.066162 681.033386,1204.569214 719.836914,1198.917847
	C758.237854,1193.325073 796.146423,1185.518188 832.815552,1172.523071
	C835.976501,1171.402954 838.265015,1171.695679 841.065002,1173.340698
	C905.465759,1211.175659 969.963806,1248.845337 1034.344360,1286.714722
	C1104.326904,1327.879517 1175.160156,1367.373291 1249.376587,1400.583496
	C1358.088257,1449.230225 1471.646851,1476.271729 1590.877319,1478.848022
	C1650.790894,1480.142700 1710.384399,1476.805420 1770.423462,1466.936279
M920.864319,1530.800049
	C948.791626,1532.901245 975.289062,1528.143921 999.931335,1513.952881
	C997.960693,1513.038818 995.943726,1512.713745 994.261536,1513.319092
	C976.013245,1519.883911 957.378601,1521.422485 938.229248,1518.471436
	C900.796082,1512.702637 869.298462,1492.815674 836.366028,1476.545044
	C836.519287,1475.884155 836.502991,1475.674072 836.598633,1475.587036
	C837.211609,1475.030273 837.833191,1474.480591 838.480774,1473.964722
	C857.311279,1458.964722 868.256470,1439.609253 869.571594,1415.469604
	C870.790405,1393.098267 865.016846,1372.855103 848.318726,1356.928955
	C825.059814,1334.745239 781.720337,1329.018188 750.977539,1343.784058
	C720.019226,1358.653442 702.602112,1393.759033 709.410706,1427.806885
	C715.332947,1457.422119 731.566345,1478.366699 761.048157,1487.441895
	C779.151794,1493.014771 797.529053,1492.509766 815.721802,1487.476074
	C818.900513,1486.596558 821.276123,1486.922485 824.043945,1488.578979
	C835.877136,1495.660645 847.767517,1502.653687 859.766663,1509.450073
	C878.550720,1520.089355 898.138184,1528.557739 920.864319,1530.800049
M273.683624,1426.137695
	C277.685638,1411.407959 278.366608,1396.596069 274.405609,1381.765503
	C266.460449,1352.017700 242.941284,1332.768921 210.138733,1330.127197
	C194.757278,1328.888550 179.252014,1329.106445 163.799774,1328.850708
	C148.828934,1328.602783 133.854187,1328.550537 118.880997,1328.531982
	C116.870132,1328.529419 114.858398,1329.225586 112.847069,1329.598267
	C112.895264,1330.221313 112.943459,1330.844482 112.991661,1331.467529
	C114.813629,1331.818604 116.624741,1332.395752 118.459335,1332.484009
	C130.200348,1333.048462 132.917084,1335.595825 132.964172,1347.167236
	C133.099060,1380.309814 133.160645,1413.453125 133.100311,1446.595825
	C133.088531,1453.070801 132.640701,1459.569946 131.960175,1466.012207
	C131.124115,1473.926758 129.167496,1475.475342 121.150291,1476.054199
	C119.395737,1476.180908 117.674019,1476.762451 115.937180,1477.134521
	C115.950752,1477.825562 115.964333,1478.516479 115.977913,1479.207520
	C118.706894,1479.469604 121.431816,1479.899170 124.165527,1479.965210
	C138.284393,1480.306396 152.423676,1480.201782 166.521072,1480.927979
	C182.831848,1481.767944 199.075256,1482.695190 215.184723,1478.977783
	C244.159637,1472.291382 264.433014,1455.930420 273.683624,1426.137695
M400.326141,1476.829102
	C403.902588,1475.073730 407.667328,1473.618896 411.025482,1471.515015
	C435.382843,1456.254761 444.961578,1433.625122 442.957001,1405.662476
	C441.489807,1385.195923 432.156708,1369.074341 414.067566,1358.923340
	C393.603821,1347.439941 371.444153,1346.129272 349.146851,1351.268433
	C321.172974,1357.715698 303.889099,1375.663818 298.331390,1403.924194
	C293.186554,1430.084839 304.719177,1457.352905 326.985260,1470.937744
	C349.940186,1484.942749 374.518738,1485.193848 400.326141,1476.829102
M994.995300,1423.493164
	C994.939026,1427.655640 995.092407,1431.833496 994.785156,1435.977417
	C994.026428,1446.210205 992.635559,1456.350098 984.280945,1463.632080
	C973.280273,1473.220215 960.447876,1474.389893 947.302063,1469.756104
	C934.292908,1465.170410 927.915771,1454.489136 927.189148,1441.346558
	C926.124268,1422.083252 926.299255,1402.750122 926.026917,1383.445557
	C925.942383,1377.452637 925.923706,1371.445923 926.227234,1365.463379
	C926.640198,1357.322998 928.423523,1355.676636 936.348328,1354.839844
	C937.906982,1354.675049 939.412720,1354.009399 941.694275,1353.361450
	C936.821960,1350.209595 886.802979,1350.509277 882.913330,1354.046875
	C886.116455,1354.440552 888.350037,1354.801758 890.598145,1354.975464
	C898.258606,1355.567871 900.595886,1357.784058 901.171448,1365.276855
	C901.362244,1367.761963 901.451416,1370.259521 901.473206,1372.752441
	C901.658142,1393.900513 901.322876,1415.067749 902.119507,1436.192261
	C902.946045,1458.106445 914.491760,1473.186890 933.301208,1479.108765
	C943.987366,1482.473267 954.950073,1482.691772 965.924316,1481.839478
	C989.420349,1480.014893 1006.522217,1465.247803 1009.823425,1442.138184
	C1011.881348,1427.732300 1011.518433,1412.963257 1011.953857,1398.348633
	C1012.271179,1387.696533 1012.033569,1377.029175 1012.201111,1366.371094
	C1012.341187,1357.462524 1014.089600,1355.742554 1022.930176,1354.815674
	C1024.360107,1354.665649 1025.737549,1354.013428 1027.139404,1353.593384
	C1027.112549,1353.091797 1027.085693,1352.590210 1027.058838,1352.088623
	C1025.449707,1351.778198 1023.842834,1351.213989 1022.230957,1351.199219
	C1012.918579,1351.113770 1003.605042,1351.157593 994.291870,1351.158325
	C989.793884,1351.158691 985.292786,1351.074829 980.800354,1351.232910
	C979.868958,1351.265625 978.969177,1352.199219 978.054810,1352.717651
	C978.977417,1353.423584 979.838501,1354.243286 980.848022,1354.788208
	C981.369629,1355.070068 982.155884,1354.843384 982.820496,1354.881958
	C992.300903,1355.429932 994.750916,1357.932007 994.809692,1367.525269
	C994.921997,1385.848389 994.938782,1404.171997 994.995300,1423.493164
M1059.509033,1351.171387
	C1054.678101,1351.167725 1049.843628,1351.065796 1045.018921,1351.237549
	C1043.961670,1351.275024 1042.939087,1352.287109 1041.900513,1352.850342
	C1042.860474,1353.513672 1043.814575,1354.743530 1044.781250,1354.753662
	C1056.136719,1354.871704 1057.033936,1360.175293 1057.017212,1368.704590
	C1056.962280,1396.857056 1057.035889,1425.010010 1056.958618,1453.162354
	C1056.945435,1457.974854 1056.588501,1462.801147 1056.116699,1467.594116
	C1055.469727,1474.166626 1053.889160,1475.503540 1047.394897,1476.036743
	C1045.529053,1476.190063 1043.697998,1476.769531 1041.851074,1477.153687
	C1041.895996,1477.802124 1041.940796,1478.450562 1041.985718,1479.098999
	C1043.787476,1479.400391 1045.588745,1479.957153 1047.391235,1479.961792
	C1058.534912,1479.990479 1069.678833,1479.870239 1080.822754,1479.850952
	C1086.316772,1479.841431 1091.813232,1480.039185 1097.302979,1479.906128
	C1098.324829,1479.881348 1099.319336,1478.727295 1100.326416,1478.094238
	C1099.350220,1477.444824 1098.443115,1476.423584 1097.382812,1476.226562
	C1095.439087,1475.865234 1093.400024,1476.055176 1091.409424,1475.901123
	C1084.281250,1475.349487 1082.076782,1473.693726 1081.803833,1466.488403
	C1081.230469,1451.356567 1081.107178,1436.203369 1081.036255,1421.057861
	C1080.951294,1402.903198 1080.961670,1384.745239 1081.231567,1366.593262
	C1081.371704,1357.156860 1082.932983,1355.868164 1092.251343,1354.809204
	C1093.610474,1354.654541 1094.895264,1353.846558 1096.214478,1353.340942
	C1096.118774,1352.659424 1096.023193,1351.977783 1095.927490,1351.296265
	C1084.119019,1351.296265 1072.310425,1351.296265 1059.509033,1351.171387
M547.453491,1594.849243
	C548.786133,1594.849731 550.119141,1594.828247 551.451294,1594.854614
	C559.172119,1595.006714 562.489868,1589.499023 558.979248,1582.216064
	C558.686890,1582.656860 558.321045,1583.029419 558.161743,1583.475586
	C555.853699,1589.944580 541.698669,1592.745117 537.110840,1587.597656
	C536.585815,1587.008667 536.025696,1586.172729 536.017212,1585.444946
	C535.935486,1578.384644 535.968079,1571.322876 535.968079,1563.424072
	C542.638916,1566.043091 551.775635,1559.458740 555.497131,1570.692871
	C556.000793,1566.220703 556.504456,1561.748413 556.895691,1558.274170
	C549.796753,1558.678223 542.998108,1559.065186 535.933960,1559.467285
	C535.933960,1551.831665 535.933960,1544.977417 535.933960,1538.048096
	C540.308044,1538.048096 544.278137,1538.124634 548.243896,1538.027954
	C552.866211,1537.915527 555.084534,1540.735718 555.841187,1545.501343
	C556.215149,1545.190918 556.589111,1544.880493 556.963135,1544.570190
	C557.362000,1540.536011 557.760925,1536.501831 558.104797,1533.023926
	C543.727966,1533.023926 529.957153,1533.023926 516.186340,1533.023926
	C516.756226,1534.304199 517.446228,1534.809082 518.129700,1534.800293
	C522.741211,1534.741333 524.083313,1537.211304 524.040710,1541.478027
	C523.901062,1555.469116 524.041687,1569.462891 523.942871,1583.454590
	C523.908875,1588.265137 524.372437,1593.671997 515.963196,1592.954346
	C516.313049,1593.585938 516.662903,1594.217529 517.012756,1594.849121
	C526.830139,1594.849121 536.647583,1594.849121 547.453491,1594.849243
M693.376465,1417.900635
	C691.561279,1417.315186 689.749268,1416.232910 687.930359,1416.221069
	C668.794128,1416.097168 649.656433,1416.207520 630.520264,1416.083008
	C627.280212,1416.061890 625.579712,1417.057617 625.040955,1420.323853
	C624.393188,1424.251343 623.415833,1428.123291 622.657043,1432.033936
	C621.885925,1436.007568 622.978577,1436.929443 626.757751,1435.699585
	C630.687683,1434.420776 634.564636,1432.818970 638.596436,1432.041626
	C654.899475,1428.898804 671.257935,1426.044800 687.583435,1423.016479
	C690.256592,1422.520630 693.456482,1422.499390 693.376465,1417.900635
M628.944519,1539.120239
	C628.955505,1553.773315 628.982788,1568.426270 628.968445,1583.079346
	C628.963501,1588.082397 629.596985,1593.567017 620.931274,1592.990845
	C621.311890,1593.418823 621.692444,1593.846680 622.073059,1594.274658
	C631.246826,1594.274658 640.420593,1594.274658 649.594360,1594.274658
	C648.272766,1593.033203 646.886475,1592.647095 645.477539,1592.527588
	C642.480103,1592.273560 640.980225,1590.794312 640.978760,1587.730103
	C640.971069,1571.598145 640.834717,1555.464966 641.062805,1539.336670
	C641.083496,1537.872559 643.258118,1536.312744 644.657959,1535.046509
	C645.380432,1534.393066 646.598816,1534.287842 647.593140,1533.934937
	C647.546936,1533.680176 647.500793,1533.425415 647.454590,1533.170654
	C638.968689,1533.170654 630.482849,1533.170654 621.996948,1533.170654
	C623.226135,1534.443726 624.759644,1534.494385 625.915039,1535.181274
	C627.084534,1535.876465 627.879883,1537.201050 628.944519,1539.120239
z"/>
<path fill="#050505" opacity="1.000000" stroke="none"
	d="
M458.464661,1596.000000
	C450.996033,1595.532837 443.992462,1595.059570 436.987793,1594.603027
	C435.317566,1594.494141 433.643677,1594.441528 431.992615,1593.991821
	C439.544678,1591.177002 439.841888,1591.052490 439.920227,1582.504272
	C440.076019,1565.505981 439.800751,1548.502319 440.076111,1531.507080
	C440.187622,1524.625488 435.897430,1523.790894 429.804443,1523.708862
	C430.984955,1522.703003 431.392426,1522.054443 431.791077,1522.059692
	C446.934540,1522.263794 462.151764,1521.677612 477.201172,1522.997803
	C496.313171,1524.674316 508.238129,1537.375000 509.002777,1554.692627
	C509.886902,1574.714844 498.899231,1589.731934 480.160187,1594.001343
	C477.579041,1594.589600 474.917786,1594.826294 472.146790,1595.612793
	C467.643097,1596.000000 463.286194,1596.000000 458.464661,1596.000000
M452.350098,1574.976074
	C452.410309,1576.970947 452.419739,1578.968994 452.539886,1580.960205
	C452.954681,1587.836426 453.964630,1589.613770 460.991058,1590.147705
	C466.997345,1590.604248 473.321533,1590.199829 479.154816,1588.758423
	C486.223907,1587.011841 491.474701,1582.100342 493.786591,1574.948608
	C496.447083,1566.718262 496.912506,1558.280518 494.510101,1549.863159
	C490.130341,1534.517578 476.686279,1526.189575 458.036255,1526.762451
	C453.425934,1526.904053 452.050201,1528.713135 452.110291,1533.076538
	C452.298340,1546.733032 452.202667,1560.393433 452.350098,1574.976074
z"/>
<path fill="#060606" opacity="1.000000" stroke="none"
	d="
M793.375000,1596.000000
	C777.819580,1581.227783 762.639099,1566.455444 747.010986,1551.247559
	C747.010986,1554.270630 746.960876,1557.125732 747.020874,1559.978516
	C747.167786,1566.965454 747.250061,1573.956665 747.571167,1580.936157
	C748.005798,1590.382812 748.091125,1590.378906 756.975769,1594.344849
	C748.157654,1594.344849 740.469910,1594.344849 732.293213,1594.344849
	C735.016357,1592.694824 738.096313,1591.862793 739.127014,1589.935059
	C740.341187,1587.664062 739.909058,1584.446777 739.967529,1581.635010
	C740.288879,1566.162720 740.534363,1550.688965 740.834900,1535.216187
	C740.856689,1534.092773 741.109009,1532.973877 741.430359,1530.491455
	C751.004761,1537.665039 757.809204,1546.433228 765.740540,1553.944458
	C773.785400,1561.563354 781.535400,1569.493530 789.215576,1577.090820
	C789.215576,1564.419434 789.344482,1551.729492 789.034424,1539.050171
	C788.999939,1537.640381 786.624573,1536.051025 785.033447,1535.001831
	C784.034119,1534.342896 782.472290,1534.537109 781.295654,1533.238892
	C788.741821,1533.238892 796.187927,1533.238892 804.197449,1533.238892
	C803.454346,1533.901733 803.035828,1534.602539 802.600952,1534.612793
	C797.791504,1534.725952 797.063782,1537.909790 797.014404,1541.742676
	C796.877197,1552.390137 796.751892,1563.038208 796.508484,1573.683472
	C796.345215,1580.823853 795.988647,1587.959717 795.859253,1595.548828
	C795.250000,1596.000000 794.500000,1596.000000 793.375000,1596.000000
z"/>
<path fill="#070707" opacity="1.000000" stroke="none"
	d="
M690.464661,1596.000000
	C687.343384,1595.317749 684.680725,1594.658081 682.031128,1593.949585
	C665.116516,1589.427124 656.609497,1577.348511 658.030029,1559.890503
	C659.223877,1545.218506 671.937927,1533.255859 687.873047,1532.035889
	C692.177490,1531.706299 696.543762,1531.675293 700.848206,1531.979736
	C706.472595,1532.377319 712.063843,1533.244629 717.761353,1533.920898
	C717.761353,1539.413330 717.761353,1544.598267 717.761353,1550.124878
	C716.790283,1549.797852 716.131165,1549.774292 716.008850,1549.506104
	C711.543274,1539.712402 703.840088,1535.335815 692.549805,1536.236206
	C674.485840,1537.676758 665.797302,1553.318359 672.515320,1572.303467
	C676.903809,1584.705200 689.213989,1592.395874 702.281433,1590.963379
	C705.559265,1590.604126 707.454407,1589.379883 707.207703,1585.611084
	C706.936279,1581.464478 706.939941,1577.273560 707.200989,1573.125610
	C707.493896,1568.472168 706.087219,1565.666382 700.947266,1565.801758
	C700.515015,1565.813110 700.062683,1565.411011 699.639282,1565.166992
	C699.528076,1565.103271 699.489929,1564.912476 699.171875,1564.324463
	C707.897461,1564.324463 716.376648,1564.324463 724.855835,1564.324463
	C717.175232,1565.860474 718.939636,1571.797974 718.862000,1576.806763
	C718.815552,1579.804321 718.490112,1582.858398 718.934082,1585.789429
	C719.699341,1590.841431 717.470886,1593.208130 712.788025,1593.950684
	C710.000427,1594.392700 707.216919,1594.860962 704.215820,1595.658691
	C699.643127,1596.000000 695.286194,1596.000000 690.464661,1596.000000
z"/>
<path fill="#070707" opacity="1.000000" stroke="none"
	d="
M825.460632,1596.000000
	C816.370850,1592.708984 816.360779,1592.708496 816.831970,1582.860596
	C816.907532,1581.281616 817.119873,1579.709106 818.442200,1577.872803
	C818.939331,1579.585083 819.427917,1581.299927 819.935059,1583.009155
	C821.398071,1587.939087 825.151184,1590.169678 829.835632,1590.915405
	C834.789307,1591.703979 839.554443,1591.209229 842.888000,1586.767090
	C846.404846,1582.080566 845.234070,1576.008667 839.756836,1572.022949
	C835.070801,1568.612915 829.867981,1565.895874 825.288330,1562.361206
	C819.418701,1557.830933 816.925964,1551.670532 818.897156,1544.272095
	C820.863159,1536.892822 826.711060,1533.493286 833.478638,1532.378418
	C838.625244,1531.530518 844.053589,1532.272095 849.348633,1532.493896
	C852.139160,1532.610596 853.323608,1534.085327 852.959229,1537.122803
	C852.596497,1540.146973 852.879761,1543.248535 852.879761,1546.316162
	C852.439087,1546.366455 851.998474,1546.416626 851.557800,1546.466919
	C851.138916,1545.690674 850.492432,1544.957520 850.336365,1544.131714
	C848.771301,1535.851196 837.698425,1533.817749 831.195496,1538.364380
	C826.690063,1541.514648 826.375366,1547.506958 830.841492,1551.153687
	C834.151184,1553.855957 838.057190,1555.834351 841.726318,1558.088501
	C847.208496,1561.456421 852.238281,1565.291260 853.964600,1571.890259
	C857.022217,1583.578613 849.835571,1593.652100 837.199829,1595.670166
	C833.307068,1596.000000 829.614197,1596.000000 825.460632,1596.000000
z"/>
<path fill="#060606" opacity="1.000000" stroke="none"
	d="
M581.460632,1596.000000
	C572.468079,1592.398315 572.452515,1592.397217 573.168945,1582.414795
	C573.272644,1580.970093 573.608154,1579.541870 574.932434,1577.921387
	C575.309814,1579.300049 575.718872,1580.670898 576.059326,1582.058716
	C577.671692,1588.631226 584.284363,1592.284790 592.275085,1591.001343
	C597.940002,1590.091431 602.084900,1585.671753 600.885498,1580.228394
	C600.150757,1576.894165 597.567688,1573.496216 594.903076,1571.171997
	C591.191650,1567.934692 586.471130,1565.888306 582.463623,1562.948730
	C576.107422,1558.286377 573.259155,1551.825439 575.410278,1544.138428
	C577.612976,1536.266846 584.142029,1533.270386 591.595825,1532.030029
	C593.547974,1531.705322 595.589478,1531.737427 597.578003,1531.839233
	C611.867065,1532.569946 609.718140,1531.491089 608.434387,1546.735840
	C607.728271,1545.718872 607.104431,1545.213989 607.009460,1544.624023
	C605.789978,1537.049316 596.530090,1533.754272 588.956238,1537.581055
	C583.103271,1540.538208 582.345703,1547.256714 587.660217,1551.463135
	C591.406738,1554.428589 595.813721,1556.548584 599.857605,1559.151978
	C605.482727,1562.773682 610.127747,1567.232544 610.937378,1574.320557
	C612.235107,1585.681641 605.063232,1594.162720 593.183105,1595.654297
	C589.307068,1596.000000 585.614197,1596.000000 581.460632,1596.000000
z"/>
<path fill="#ED1B24" opacity="1.000000" stroke="none"
	d="
M1769.989746,1466.970703
	C1710.384399,1476.805420 1650.790894,1480.142700 1590.877319,1478.848022
	C1471.646851,1476.271729 1358.088257,1449.230225 1249.376587,1400.583496
	C1175.160156,1367.373291 1104.326904,1327.879517 1034.344360,1286.714722
	C969.963806,1248.845337 905.465759,1211.175659 841.065002,1173.340698
	C838.265015,1171.695679 835.976501,1171.402954 832.815552,1172.523071
	C796.146423,1185.518188 758.237854,1193.325073 719.836914,1198.917847
	C681.033386,1204.569214 642.019409,1207.066162 602.808716,1205.824219
	C502.983948,1202.662598 407.913910,1181.615356 321.116638,1130.098145
	C242.944412,1083.700317 183.515823,1019.440369 140.984833,939.376099
	C108.328270,877.900452 88.547821,812.349731 79.812859,743.363281
	C74.033157,697.716614 73.220123,652.045959 79.257362,606.388123
	C86.923431,548.411926 103.462509,493.051788 128.832748,440.317444
	C154.920349,386.092072 189.010544,337.560577 232.010437,295.453339
	C295.234589,233.541687 370.285675,192.327896 455.400848,169.051041
	C501.344391,156.486649 548.189392,149.848328 595.760620,147.774979
	C663.019226,144.843567 729.512756,150.095078 794.987976,166.047485
	C878.449951,186.382202 954.048218,222.389740 1018.665833,279.807892
	C1077.802002,332.355408 1119.764771,396.440186 1145.915527,470.932892
	C1168.956055,536.565918 1177.956177,604.389648 1175.960571,673.720459
	C1172.036133,810.062805 1121.600464,927.273010 1029.615234,1027.189941
	C1003.918762,1055.102051 975.540039,1079.982544 944.213623,1101.448364
	C943.425720,1101.988159 942.757019,1102.701904 941.797424,1103.540283
	C965.337769,1115.595947 988.554565,1127.510498 1011.793030,1139.382568
	C1089.524292,1179.093750 1166.967529,1219.382446 1245.076172,1258.337158
	C1337.194946,1304.278564 1432.400513,1342.577148 1531.967407,1369.439819
	C1589.602417,1384.989380 1648.045166,1396.117310 1707.609131,1400.790039
	C1753.860596,1404.418457 1800.082642,1403.879028 1846.264893,1399.148682
	C1908.272949,1392.796753 1968.777832,1379.960083 2027.216919,1357.981201
	C2034.677490,1355.175537 2042.046997,1352.087280 2049.626221,1349.651489
	C2055.584961,1347.736328 2061.295654,1350.462769 2064.011475,1355.664185
	C2066.660400,1360.737305 2065.469482,1367.098633 2060.823486,1371.013306
	C2058.683594,1372.816162 2056.254395,1374.400635 2053.725586,1375.595825
	C2040.803955,1381.703003 2027.895996,1387.852661 2014.821167,1393.620117
	C1953.655151,1420.601074 1890.581787,1441.880249 1825.242798,1456.195068
	C1807.058105,1460.178955 1788.701294,1463.377441 1769.989746,1466.970703
M756.199951,479.347565
	C808.522339,459.017273 860.852600,438.707245 913.145508,418.301544
	C915.995972,417.189240 918.534485,415.277618 921.839783,413.381500
	C913.158325,399.528656 904.831421,386.241547 896.424377,372.826538
	C880.247864,384.906311 865.057129,396.539520 849.564148,407.755402
	C822.342285,427.462280 794.860596,446.810699 767.677124,466.569733
	C762.932861,470.018188 759.117920,474.745087 754.386658,479.059998
	C754.390503,479.289795 754.394348,479.519592 754.398193,479.749359
	C754.757874,479.667847 755.117554,479.586334 756.199951,479.347565
M601.141174,1072.340332
	C600.815369,1068.857910 600.412109,1065.380859 600.175537,1061.892334
	C597.424988,1021.332336 596.993225,980.751770 597.890808,940.100891
	C598.359985,918.852844 596.662720,897.556885 595.945190,876.320984
	C593.941772,875.963196 592.811890,875.590698 591.680176,875.584839
	C573.663086,875.491699 558.767883,881.885315 548.600281,897.211121
	C540.324036,909.685974 534.942200,923.366455 532.797729,938.287598
	C532.115295,943.036133 531.093140,947.794250 529.624573,952.354187
	C528.281250,956.525269 525.213440,959.371521 520.614624,960.043579
	C510.315125,961.548706 500.903076,956.784546 497.226807,947.043945
	C494.972382,941.070679 493.582977,934.536011 493.123596,928.158447
	C490.191162,887.443909 494.516968,847.344910 505.132904,808.010010
	C514.297791,774.051514 526.004028,741.040405 545.056885,711.095154
	C546.645447,708.598389 547.961426,705.813843 548.812256,702.984985
	C550.758362,696.513733 547.905640,692.064209 541.247192,691.157104
	C537.637695,690.665405 533.875671,690.257812 530.300293,690.721313
	C509.029633,693.479309 487.647827,695.712952 466.574951,699.596436
	C418.075226,708.534302 369.364105,710.250427 320.342957,706.042175
	C312.553284,705.373413 308.221741,701.818787 307.060547,695.468567
	C305.769104,688.406128 308.238251,683.837402 315.398163,680.245789
	C338.874298,668.469666 362.169159,656.310242 385.890594,645.050049
	C422.648895,627.601318 457.474670,606.877869 491.160706,584.195801
	C496.510284,580.593750 501.721619,576.537781 501.652863,568.148499
	C501.493622,548.708496 501.368530,529.151978 503.253021,509.840149
	C505.710999,484.651459 515.403748,462.034180 534.645386,444.793091
	C542.759277,437.522797 552.364990,431.931366 561.194824,425.443817
	C602.442932,395.137543 647.390869,388.262482 695.987366,403.909302
	C698.604248,404.751862 701.493164,405.142761 704.246033,405.102173
	C717.229980,404.910919 730.213745,404.575348 743.189331,404.076782
	C745.178345,404.000336 747.453796,403.245087 749.041016,402.059662
	C774.389587,383.127960 799.769714,364.234070 824.864258,344.968903
	C834.446899,337.612274 843.328369,329.342194 852.520752,321.495728
	C851.708313,320.352844 851.486145,319.902435 851.143799,319.579407
	C845.815369,314.551544 840.639954,309.345490 835.105774,304.554108
	C747.259827,228.498962 646.167664,197.941360 531.198730,217.988800
	C437.620300,234.306351 367.748688,284.999329 321.479340,367.873993
	C290.227844,423.849609 275.252258,484.823975 268.050720,547.980957
	C263.422516,588.570007 262.103027,629.291626 263.781189,670.136658
	C265.679932,716.350342 271.688049,761.954224 283.177277,806.767944
	C299.713654,871.268250 326.261200,931.146423 367.043579,984.138367
	C424.903656,1059.320679 499.603027,1108.660034 592.543152,1129.549316
	C599.541626,1131.122192 606.645142,1132.227539 614.414062,1133.684082
	C613.311340,1130.510620 612.621643,1128.480103 611.901367,1126.460449
	C605.760376,1109.240356 603.450073,1091.249756 601.141174,1072.340332
M957.958069,498.534271
	C955.013611,490.072906 952.069092,481.611542 949.086487,473.040680
	C948.209229,473.393829 947.752319,473.518677 947.354126,473.746277
	C902.740601,499.252869 858.199341,524.886902 813.495972,550.235046
	C787.547424,564.948547 763.278870,582.801758 734.082092,591.491821
	C723.419617,594.665405 719.530396,604.665161 722.439392,615.837891
	C724.063354,622.075317 727.503723,627.287903 732.786316,630.683716
	C738.899963,634.613586 745.559448,637.704529 752.034058,641.059265
	C756.159241,643.196838 760.609985,644.788452 764.507751,647.265320
	C772.343750,652.244934 774.828857,658.971313 772.395447,667.942139
	C769.522034,678.535034 764.705444,688.192505 756.978149,696.098083
	C749.651123,703.594116 741.787598,710.570740 734.551331,718.149414
	C719.116516,734.314819 717.565125,754.123352 730.915894,772.097229
	C735.598511,778.401428 741.736084,783.868103 747.994446,788.700195
	C756.801392,795.500000 766.283997,801.436707 775.582703,807.583618
	C783.177612,812.604187 788.154968,819.292358 789.664490,828.359192
	C790.864990,835.569641 792.950134,842.795593 792.941406,850.012634
	C792.919189,868.300476 792.121643,886.595276 791.292542,904.871765
	C790.496155,922.426636 791.219116,939.752441 795.683167,956.886230
	C804.024658,988.902283 820.711548,1016.510132 840.292297,1042.626343
	C848.108887,1053.052002 857.595337,1062.589600 856.605469,1078.010864
	C858.427307,1076.627563 859.410522,1076.051636 860.183594,1075.268311
	C871.514160,1063.787109 883.634277,1052.964478 893.972046,1040.646973
	C924.383972,1004.411072 943.984863,962.319946 957.925049,917.455627
	C978.504700,851.223083 985.364197,782.988281 986.790344,714.035156
	C987.614319,674.193481 985.680298,634.471985 979.979919,594.986328
	C975.290466,562.502625 968.338318,530.534241 957.958069,498.534271
M682.105164,829.659546
	C666.354797,831.508240 661.770386,835.689941 661.014832,851.257751
	C660.533569,861.176086 661.558899,871.172974 662.011963,881.129944
	C662.791077,898.253784 663.448059,915.386719 664.517822,932.493164
	C666.927673,971.026917 669.652161,1009.540955 672.064453,1048.074585
	C673.501160,1071.024536 673.971375,1093.998047 670.946777,1116.874146
	C670.019653,1123.885742 668.401062,1130.806030 667.040649,1138.081177
	C717.751465,1139.395752 766.038635,1130.519043 811.774231,1107.547729
	C809.909607,1105.981445 808.328857,1104.779785 806.900452,1103.418335
	C805.458252,1102.043701 804.055847,1100.598267 802.826050,1099.034424
	C773.697998,1061.993774 758.594360,1019.191711 753.250977,973.016113
	C750.792786,951.772705 750.976807,930.119385 751.378113,908.678467
	C751.783203,887.034546 744.224670,869.005554 730.304565,853.204041
	C717.774170,838.980042 703.139343,828.620850 682.105164,829.659546
z"/>
<path fill="#030303" opacity="1.000000" stroke="none"
	d="
M920.406738,1530.729736
	C898.138184,1528.557739 878.550720,1520.089355 859.766663,1509.450073
	C847.767517,1502.653687 835.877136,1495.660645 824.043945,1488.578979
	C821.276123,1486.922485 818.900513,1486.596558 815.721802,1487.476074
	C797.529053,1492.509766 779.151794,1493.014771 761.048157,1487.441895
	C731.566345,1478.366699 715.332947,1457.422119 709.410706,1427.806885
	C702.602112,1393.759033 720.019226,1358.653442 750.977539,1343.784058
	C781.720337,1329.018188 825.059814,1334.745239 848.318726,1356.928955
	C865.016846,1372.855103 870.790405,1393.098267 869.571594,1415.469604
	C868.256470,1439.609253 857.311279,1458.964722 838.480774,1473.964722
	C837.833191,1474.480591 837.211609,1475.030273 836.598633,1475.587036
	C836.502991,1475.674072 836.519287,1475.884155 836.366028,1476.545044
	C869.298462,1492.815674 900.796082,1512.702637 938.229248,1518.471436
	C957.378601,1521.422485 976.013245,1519.883911 994.261536,1513.319092
	C995.943726,1512.713745 997.960693,1513.038818 999.931335,1513.952881
	C975.289062,1528.143921 948.791626,1532.901245 920.406738,1530.729736
M736.489685,1396.145996
	C736.303528,1399.963867 735.970581,1403.781250 735.955811,1407.599854
	C735.877747,1427.810425 740.454712,1446.569580 754.152954,1462.109619
	C762.719238,1471.827759 773.431702,1478.025269 785.754395,1479.975342
	C785.235718,1467.505737 784.729980,1455.348267 784.173462,1441.970581
	C781.585144,1443.521606 779.307190,1444.259521 778.033752,1445.818115
	C776.636108,1447.528931 776.284180,1450.056885 775.241394,1452.109497
	C774.663025,1453.248047 773.604309,1454.142700 772.762085,1455.147339
	C771.736389,1454.226074 770.338745,1453.484131 769.784851,1452.335449
	C769.173645,1451.067993 769.200745,1449.428711 769.184265,1447.948853
	C769.078308,1438.461548 771.303040,1429.507446 775.499451,1421.021606
	C776.202148,1419.600586 776.885498,1418.169922 778.098755,1415.670532
	C774.186096,1416.034180 771.311157,1416.351318 768.428406,1416.559814
	C760.982727,1417.098389 753.537964,1417.694946 746.081787,1417.998291
	C744.779297,1418.051270 743.423340,1416.788818 742.092102,1416.133789
	C743.063293,1415.148193 743.871582,1413.868774 745.032410,1413.225098
	C751.847534,1409.445557 758.682068,1405.689697 765.640015,1402.183716
	C769.365723,1400.306274 770.387268,1397.694824 770.730164,1393.554565
	C771.108765,1388.983276 772.151550,1383.508179 775.009033,1380.301880
	C780.869568,1373.725952 788.716064,1370.706055 798.017273,1372.988281
	C800.910950,1373.698364 804.764160,1374.050415 807.112793,1372.705688
	C812.367798,1369.696777 816.953064,1365.518066 822.194336,1361.523804
	C819.728882,1359.447876 817.787720,1357.636230 815.671875,1356.059204
	C795.056702,1340.692749 767.094910,1342.198608 750.708862,1359.759399
	C741.448730,1369.683472 738.066284,1382.130249 736.489685,1396.145996
M821.654175,1392.125366
	C816.758118,1394.923706 811.830383,1397.668701 806.985413,1400.552734
	C805.548584,1401.408081 804.344177,1402.654175 803.033203,1403.721069
	C804.272278,1405.137695 805.261658,1406.973022 806.798889,1407.889893
	C810.861816,1410.313110 811.490906,1412.293213 808.680298,1415.982300
	C808.083130,1416.766113 807.292053,1417.403687 806.580139,1418.098389
	C801.680847,1422.878418 801.661255,1426.650635 807.480652,1430.088379
	C812.588379,1433.105713 814.288696,1437.263306 813.437378,1442.537109
	C811.574463,1454.077271 816.674927,1462.958496 823.633423,1471.275879
	C845.118469,1454.550049 845.347534,1401.891602 835.697937,1384.240601
	C831.240112,1386.771362 826.783447,1389.301514 821.654175,1392.125366
M794.085266,1439.116943
	C794.789368,1452.966187 795.493530,1466.815308 796.252014,1481.732788
	C802.351746,1480.432373 808.920105,1479.032104 816.161560,1477.488403
	C809.160828,1468.540405 806.722656,1459.564331 807.199402,1449.774170
	C807.443848,1444.754150 806.122192,1440.465332 801.883545,1437.605713
	C799.380493,1435.916992 796.471924,1434.509521 794.085266,1439.116943
M818.289124,1376.819702
	C815.806396,1378.646362 813.323608,1380.473145 810.840820,1382.299805
	C811.051025,1382.610352 811.261169,1382.920898 811.471375,1383.231323
	C818.274780,1380.560425 825.078186,1377.889526 832.191223,1375.097046
	C830.803467,1372.884399 829.775024,1371.244507 828.570251,1369.323608
	C825.233459,1371.745850 822.045654,1374.059814 818.289124,1376.819702
M809.678101,1383.557373
	C809.678101,1383.557373 809.629700,1383.434326 809.678101,1383.557373
z"/>
<path fill="#040404" opacity="1.000000" stroke="none"
	d="
M273.513184,1426.502930
	C264.433014,1455.930420 244.159637,1472.291382 215.184723,1478.977783
	C199.075256,1482.695190 182.831848,1481.767944 166.521072,1480.927979
	C152.423676,1480.201782 138.284393,1480.306396 124.165527,1479.965210
	C121.431816,1479.899170 118.706894,1479.469604 115.977913,1479.207520
	C115.964333,1478.516479 115.950752,1477.825562 115.937180,1477.134521
	C117.674019,1476.762451 119.395737,1476.180908 121.150291,1476.054199
	C129.167496,1475.475342 131.124115,1473.926758 131.960175,1466.012207
	C132.640701,1459.569946 133.088531,1453.070801 133.100311,1446.595825
	C133.160645,1413.453125 133.099060,1380.309814 132.964172,1347.167236
	C132.917084,1335.595825 130.200348,1333.048462 118.459335,1332.484009
	C116.624741,1332.395752 114.813629,1331.818604 112.991661,1331.467529
	C112.943459,1330.844482 112.895264,1330.221313 112.847069,1329.598267
	C114.858398,1329.225586 116.870132,1328.529419 118.880997,1328.531982
	C133.854187,1328.550537 148.828934,1328.602783 163.799774,1328.850708
	C179.252014,1329.106445 194.757278,1328.888550 210.138733,1330.127197
	C242.941284,1332.768921 266.460449,1352.017700 274.405609,1381.765503
	C278.366608,1396.596069 277.685638,1411.407959 273.513184,1426.502930
M158.519638,1364.499634
	C158.724930,1394.146484 158.768478,1423.795898 159.215790,1453.439087
	C159.392654,1465.159180 163.006638,1469.569092 174.674103,1470.786499
	C184.505783,1471.812134 194.683014,1472.025513 204.443741,1470.682617
	C221.802765,1468.294556 236.581955,1460.143433 243.464630,1443.302124
	C253.061920,1419.818604 253.251877,1395.715942 241.446503,1372.781982
	C225.453262,1341.712280 188.342911,1335.316162 162.696640,1339.308228
	C161.204086,1339.540527 159.161743,1342.320312 159.017593,1344.051392
	C158.480347,1350.503174 158.628571,1357.012085 158.519638,1364.499634
z"/>
<path fill="#030303" opacity="1.000000" stroke="none"
	d="
M399.949951,1476.929199
	C374.518738,1485.193848 349.940186,1484.942749 326.985260,1470.937744
	C304.719177,1457.352905 293.186554,1430.084839 298.331390,1403.924194
	C303.889099,1375.663818 321.172974,1357.715698 349.146851,1351.268433
	C371.444153,1346.129272 393.603821,1347.439941 414.067566,1358.923340
	C432.156708,1369.074341 441.489807,1385.195923 442.957001,1405.662476
	C444.961578,1433.625122 435.382843,1456.254761 411.025482,1471.515015
	C407.667328,1473.618896 403.902588,1475.073730 399.949951,1476.929199
M342.838989,1364.199829
	C334.842133,1369.440918 329.684906,1376.839966 327.047150,1385.892456
	C321.518402,1404.866089 322.105286,1423.636719 330.016815,1441.883911
	C335.226532,1453.899658 343.629333,1463.032471 355.740631,1468.467407
	C378.667694,1478.756104 402.409393,1471.324707 411.134033,1449.617676
	C420.433411,1426.480713 419.871094,1402.992798 406.917938,1381.052612
	C393.795013,1358.824951 365.262665,1351.435059 342.838989,1364.199829
z"/>
<path fill="#030303" opacity="1.000000" stroke="none"
	d="
M576.578491,1444.513794
	C576.012512,1419.566406 575.457275,1394.618896 574.860168,1369.672241
	C574.812683,1367.686646 574.586853,1365.688965 574.252258,1363.729614
	C573.207214,1357.609985 570.847412,1355.505493 564.688110,1354.990112
	C562.088867,1354.772705 559.492493,1354.522095 555.934265,1354.199585
	C559.812073,1350.431274 601.414490,1350.180420 606.000549,1353.585815
	C603.487244,1354.136230 601.777649,1354.694092 600.030945,1354.859741
	C593.819092,1355.448486 591.208252,1357.520630 590.887817,1363.817139
	C590.279175,1375.779053 590.114136,1387.764771 589.854065,1399.742676
	C589.308655,1424.864258 588.872803,1449.988403 588.222351,1475.107056
	C588.163635,1477.376099 586.875000,1479.613403 586.157532,1481.865356
	C583.615234,1480.877441 580.526001,1480.500000 578.624939,1478.796509
	C570.198547,1471.245728 561.976013,1463.453125 553.930725,1455.494385
	C532.153809,1433.951416 510.506470,1412.277710 488.798584,1390.665039
	C487.893341,1389.763672 486.895630,1388.955078 486.006012,1388.161255
	C486.006012,1398.531250 485.788116,1408.730957 486.057251,1418.917969
	C486.456970,1434.048218 486.865143,1449.192871 487.920319,1464.285889
	C488.596191,1473.953491 490.734497,1475.409790 500.443756,1476.003662
	C501.108246,1476.044312 501.850098,1475.936157 502.417572,1476.197510
	C503.367096,1476.635010 504.205017,1477.314819 505.089905,1477.892578
	C504.167175,1478.590698 503.264526,1479.857544 502.318329,1479.890869
	C497.663452,1480.055176 492.996918,1479.844849 488.334656,1479.854736
	C479.026764,1479.874390 469.718872,1480.000000 460.411438,1479.962402
	C458.655884,1479.955444 456.902557,1479.393555 455.148224,1479.087646
	C455.130310,1478.442139 455.112427,1477.796631 455.094543,1477.151123
	C456.998016,1476.766357 458.887207,1476.158936 460.807465,1476.035522
	C468.797211,1475.522827 470.749756,1473.858276 470.984192,1465.709351
	C471.510590,1447.413208 471.818909,1429.110229 472.144287,1410.808716
	C472.472687,1392.335449 472.626038,1373.858154 473.102905,1355.389038
	C473.164520,1353.002930 474.704193,1350.655151 475.559235,1348.289551
	C477.662415,1349.425659 480.184357,1350.141968 481.806824,1351.760010
	C512.940613,1382.809814 543.968689,1413.965454 575.494141,1445.416016
	C576.172485,1445.326416 576.375488,1444.920166 576.578491,1444.513794
z"/>
<path fill="#030303" opacity="1.000000" stroke="none"
	d="
M994.995239,1422.994385
	C994.938782,1404.171997 994.921997,1385.848389 994.809692,1367.525269
	C994.750916,1357.932007 992.300903,1355.429932 982.820496,1354.881958
	C982.155884,1354.843384 981.369629,1355.070068 980.848022,1354.788208
	C979.838501,1354.243286 978.977417,1353.423584 978.054810,1352.717651
	C978.969177,1352.199219 979.868958,1351.265625 980.800354,1351.232910
	C985.292786,1351.074829 989.793884,1351.158691 994.291870,1351.158325
	C1003.605042,1351.157593 1012.918579,1351.113770 1022.230957,1351.199219
	C1023.842834,1351.213989 1025.449707,1351.778198 1027.058838,1352.088623
	C1027.085693,1352.590210 1027.112549,1353.091797 1027.139404,1353.593384
	C1025.737549,1354.013428 1024.360107,1354.665649 1022.930176,1354.815674
	C1014.089600,1355.742554 1012.341187,1357.462524 1012.201111,1366.371094
	C1012.033569,1377.029175 1012.271179,1387.696533 1011.953857,1398.348633
	C1011.518433,1412.963257 1011.881348,1427.732300 1009.823425,1442.138184
	C1006.522217,1465.247803 989.420349,1480.014893 965.924316,1481.839478
	C954.950073,1482.691772 943.987366,1482.473267 933.301208,1479.108765
	C914.491760,1473.186890 902.946045,1458.106445 902.119507,1436.192261
	C901.322876,1415.067749 901.658142,1393.900513 901.473206,1372.752441
	C901.451416,1370.259521 901.362244,1367.761963 901.171448,1365.276855
	C900.595886,1357.784058 898.258606,1355.567871 890.598145,1354.975464
	C888.350037,1354.801758 886.116455,1354.440552 882.913330,1354.046875
	C886.802979,1350.509277 936.821960,1350.209595 941.694275,1353.361450
	C939.412720,1354.009399 937.906982,1354.675049 936.348328,1354.839844
	C928.423523,1355.676636 926.640198,1357.322998 926.227234,1365.463379
	C925.923706,1371.445923 925.942383,1377.452637 926.026917,1383.445557
	C926.299255,1402.750122 926.124268,1422.083252 927.189148,1441.346558
	C927.915771,1454.489136 934.292908,1465.170410 947.302063,1469.756104
	C960.447876,1474.389893 973.280273,1473.220215 984.280945,1463.632080
	C992.635559,1456.350098 994.026428,1446.210205 994.785156,1435.977417
	C995.092407,1431.833496 994.939026,1427.655640 994.995239,1422.994385
z"/>
<path fill="#020202" opacity="1.000000" stroke="none"
	d="
M1060.005493,1351.233887
	C1072.310425,1351.296265 1084.119019,1351.296265 1095.927490,1351.296265
	C1096.023193,1351.977783 1096.118774,1352.659424 1096.214478,1353.340942
	C1094.895264,1353.846558 1093.610474,1354.654541 1092.251343,1354.809204
	C1082.932983,1355.868164 1081.371704,1357.156860 1081.231567,1366.593262
	C1080.961670,1384.745239 1080.951294,1402.903198 1081.036255,1421.057861
	C1081.107178,1436.203369 1081.230469,1451.356567 1081.803833,1466.488403
	C1082.076782,1473.693726 1084.281250,1475.349487 1091.409424,1475.901123
	C1093.400024,1476.055176 1095.439087,1475.865234 1097.382812,1476.226562
	C1098.443115,1476.423584 1099.350220,1477.444824 1100.326416,1478.094238
	C1099.319336,1478.727295 1098.324829,1479.881348 1097.302979,1479.906128
	C1091.813232,1480.039185 1086.316772,1479.841431 1080.822754,1479.850952
	C1069.678833,1479.870239 1058.534912,1479.990479 1047.391235,1479.961792
	C1045.588745,1479.957153 1043.787476,1479.400391 1041.985718,1479.098999
	C1041.940796,1478.450562 1041.895996,1477.802124 1041.851074,1477.153687
	C1043.697998,1476.769531 1045.529053,1476.190063 1047.394897,1476.036743
	C1053.889160,1475.503540 1055.469727,1474.166626 1056.116699,1467.594116
	C1056.588501,1462.801147 1056.945435,1457.974854 1056.958618,1453.162354
	C1057.035889,1425.010010 1056.962280,1396.857056 1057.017212,1368.704590
	C1057.033936,1360.175293 1056.136719,1354.871704 1044.781250,1354.753662
	C1043.814575,1354.743530 1042.860474,1353.513672 1041.900513,1352.850342
	C1042.939087,1352.287109 1043.961670,1351.275024 1045.018921,1351.237549
	C1049.843628,1351.065796 1054.678101,1351.167725 1060.005493,1351.233887
z"/>
<path fill="#050505" opacity="1.000000" stroke="none"
	d="
M546.959229,1594.849121
	C536.647583,1594.849121 526.830139,1594.849121 517.012756,1594.849121
	C516.662903,1594.217529 516.313049,1593.585938 515.963196,1592.954346
	C524.372437,1593.671997 523.908875,1588.265137 523.942871,1583.454590
	C524.041687,1569.462891 523.901062,1555.469116 524.040710,1541.478027
	C524.083313,1537.211304 522.741211,1534.741333 518.129700,1534.800293
	C517.446228,1534.809082 516.756226,1534.304199 516.186340,1533.023926
	C529.957153,1533.023926 543.727966,1533.023926 558.104797,1533.023926
	C557.760925,1536.501831 557.362000,1540.536011 556.963135,1544.570190
	C556.589111,1544.880493 556.215149,1545.190918 555.841187,1545.501343
	C555.084534,1540.735718 552.866211,1537.915527 548.243896,1538.027954
	C544.278137,1538.124634 540.308044,1538.048096 535.933960,1538.048096
	C535.933960,1544.977417 535.933960,1551.831665 535.933960,1559.467285
	C542.998108,1559.065186 549.796753,1558.678223 556.895691,1558.274170
	C556.504456,1561.748413 556.000793,1566.220703 555.497131,1570.692871
	C551.775635,1559.458740 542.638916,1566.043091 535.968079,1563.424072
	C535.968079,1571.322876 535.935486,1578.384644 536.017212,1585.444946
	C536.025696,1586.172729 536.585815,1587.008667 537.110840,1587.597656
	C541.698669,1592.745117 555.853699,1589.944580 558.161743,1583.475586
	C558.321045,1583.029419 558.686890,1582.656860 558.979248,1582.216064
	C562.489868,1589.499023 559.172119,1595.006714 551.451294,1594.854614
	C550.119141,1594.828247 548.786133,1594.849731 546.959229,1594.849121
z"/>
<path fill="#080808" opacity="1.000000" stroke="none"
	d="
M693.565308,1418.241699
	C693.456482,1422.499390 690.256592,1422.520630 687.583435,1423.016479
	C671.257935,1426.044800 654.899475,1428.898804 638.596436,1432.041626
	C634.564636,1432.818970 630.687683,1434.420776 626.757751,1435.699585
	C622.978577,1436.929443 621.885925,1436.007568 622.657043,1432.033936
	C623.415833,1428.123291 624.393188,1424.251343 625.040955,1420.323853
	C625.579712,1417.057617 627.280212,1416.061890 630.520264,1416.083008
	C649.656433,1416.207520 668.794128,1416.097168 687.930359,1416.221069
	C689.749268,1416.232910 691.561279,1417.315186 693.565308,1418.241699
z"/>
<path fill="#0C0C0C" opacity="1.000000" stroke="none"
	d="
M628.891846,1538.685059
	C627.879883,1537.201050 627.084534,1535.876465 625.915039,1535.181274
	C624.759644,1534.494385 623.226135,1534.443726 621.996948,1533.170654
	C630.482849,1533.170654 638.968689,1533.170654 647.454590,1533.170654
	C647.500793,1533.425415 647.546936,1533.680176 647.593140,1533.934937
	C646.598816,1534.287842 645.380432,1534.393066 644.657959,1535.046509
	C643.258118,1536.312744 641.083496,1537.872559 641.062805,1539.336670
	C640.834717,1555.464966 640.971069,1571.598145 640.978760,1587.730103
	C640.980225,1590.794312 642.480103,1592.273560 645.477539,1592.527588
	C646.886475,1592.647095 648.272766,1593.033203 649.594360,1594.274658
	C640.420593,1594.274658 631.246826,1594.274658 622.073059,1594.274658
	C621.692444,1593.846680 621.311890,1593.418823 620.931274,1592.990845
	C629.596985,1593.567017 628.963501,1588.082397 628.968445,1583.079346
	C628.982788,1568.426270 628.955505,1553.773315 628.891846,1538.685059
z"/>
<path fill="#FCFCFC" opacity="1.000000" stroke="none"
	d="
M452.283508,1574.514160
	C452.202667,1560.393433 452.298340,1546.733032 452.110291,1533.076538
	C452.050201,1528.713135 453.425934,1526.904053 458.036255,1526.762451
	C476.686279,1526.189575 490.130341,1534.517578 494.510101,1549.863159
	C496.912506,1558.280518 496.447083,1566.718262 493.786591,1574.948608
	C491.474701,1582.100342 486.223907,1587.011841 479.154816,1588.758423
	C473.321533,1590.199829 466.997345,1590.604248 460.991058,1590.147705
	C453.964630,1589.613770 452.954681,1587.836426 452.539886,1580.960205
	C452.419739,1578.968994 452.410309,1576.970947 452.283508,1574.514160
z"/>
<path fill="#FFFFFF" opacity="1.000000" stroke="none"
	d="
M601.164185,1072.794922
	C603.450073,1091.249756 605.760376,1109.240356 611.901367,1126.460449
	C612.621643,1128.480103 613.311340,1130.510620 614.414062,1133.684082
	C606.645142,1132.227539 599.541626,1131.122192 592.543152,1129.549316
	C499.603027,1108.660034 424.903656,1059.320679 367.043579,984.138367
	C326.261200,931.146423 299.713654,871.268250 283.177277,806.767944
	C271.688049,761.954224 265.679932,716.350342 263.781189,670.136658
	C262.103027,629.291626 263.422516,588.570007 268.050720,547.980957
	C275.252258,484.823975 290.227844,423.849609 321.479340,367.873993
	C367.748688,284.999329 437.620300,234.306351 531.198730,217.988800
	C646.167664,197.941360 747.259827,228.498962 835.105774,304.554108
	C840.639954,309.345490 845.815369,314.551544 851.143799,319.579407
	C851.486145,319.902435 851.708313,320.352844 852.520752,321.495728
	C843.328369,329.342194 834.446899,337.612274 824.864258,344.968903
	C799.769714,364.234070 774.389587,383.127960 749.041016,402.059662
	C747.453796,403.245087 745.178345,404.000336 743.189331,404.076782
	C730.213745,404.575348 717.229980,404.910919 704.246033,405.102173
	C701.493164,405.142761 698.604248,404.751862 695.987366,403.909302
	C647.390869,388.262482 602.442932,395.137543 561.194824,425.443817
	C552.364990,431.931366 542.759277,437.522797 534.645386,444.793091
	C515.403748,462.034180 505.710999,484.651459 503.253021,509.840149
	C501.368530,529.151978 501.493622,548.708496 501.652863,568.148499
	C501.721619,576.537781 496.510284,580.593750 491.160706,584.195801
	C457.474670,606.877869 422.648895,627.601318 385.890594,645.050049
	C362.169159,656.310242 338.874298,668.469666 315.398163,680.245789
	C308.238251,683.837402 305.769104,688.406128 307.060547,695.468567
	C308.221741,701.818787 312.553284,705.373413 320.342957,706.042175
	C369.364105,710.250427 418.075226,708.534302 466.574951,699.596436
	C487.647827,695.712952 509.029633,693.479309 530.300293,690.721313
	C533.875671,690.257812 537.637695,690.665405 541.247192,691.157104
	C547.905640,692.064209 550.758362,696.513733 548.812256,702.984985
	C547.961426,705.813843 546.645447,708.598389 545.056885,711.095154
	C526.004028,741.040405 514.297791,774.051514 505.132904,808.010010
	C494.516968,847.344910 490.191162,887.443909 493.123596,928.158447
	C493.582977,934.536011 494.972382,941.070679 497.226807,947.043945
	C500.903076,956.784546 510.315125,961.548706 520.614624,960.043579
	C525.213440,959.371521 528.281250,956.525269 529.624573,952.354187
	C531.093140,947.794250 532.115295,943.036133 532.797729,938.287598
	C534.942200,923.366455 540.324036,909.685974 548.600281,897.211121
	C558.767883,881.885315 573.663086,875.491699 591.680176,875.584839
	C592.811890,875.590698 593.941772,875.963196 595.945190,876.320984
	C596.662720,897.556885 598.359985,918.852844 597.890808,940.100891
	C596.993225,980.751770 597.424988,1021.332336 600.175537,1061.892334
	C600.412109,1065.380859 600.815369,1068.857910 601.164185,1072.794922
z"/>
<path fill="#FFFFFF" opacity="1.000000" stroke="none"
	d="
M958.030640,498.925964
	C968.338318,530.534241 975.290466,562.502625 979.979919,594.986328
	C985.680298,634.471985 987.614319,674.193481 986.790344,714.035156
	C985.364197,782.988281 978.504700,851.223083 957.925049,917.455627
	C943.984863,962.319946 924.383972,1004.411072 893.972046,1040.646973
	C883.634277,1052.964478 871.514160,1063.787109 860.183594,1075.268311
	C859.410522,1076.051636 858.427307,1076.627563 856.605469,1078.010864
	C857.595337,1062.589600 848.108887,1053.052002 840.292297,1042.626343
	C820.711548,1016.510132 804.024658,988.902283 795.683167,956.886230
	C791.219116,939.752441 790.496155,922.426636 791.292542,904.871765
	C792.121643,886.595276 792.919189,868.300476 792.941406,850.012634
	C792.950134,842.795593 790.864990,835.569641 789.664490,828.359192
	C788.154968,819.292358 783.177612,812.604187 775.582703,807.583618
	C766.283997,801.436707 756.801392,795.500000 747.994446,788.700195
	C741.736084,783.868103 735.598511,778.401428 730.915894,772.097229
	C717.565125,754.123352 719.116516,734.314819 734.551331,718.149414
	C741.787598,710.570740 749.651123,703.594116 756.978149,696.098083
	C764.705444,688.192505 769.522034,678.535034 772.395447,667.942139
	C774.828857,658.971313 772.343750,652.244934 764.507751,647.265320
	C760.609985,644.788452 756.159241,643.196838 752.034058,641.059265
	C745.559448,637.704529 738.899963,634.613586 732.786316,630.683716
	C727.503723,627.287903 724.063354,622.075317 722.439392,615.837891
	C719.530396,604.665161 723.419617,594.665405 734.082092,591.491821
	C763.278870,582.801758 787.547424,564.948547 813.495972,550.235046
	C858.199341,524.886902 902.740601,499.252869 947.354126,473.746277
	C947.752319,473.518677 948.209229,473.393829 949.086487,473.040680
	C952.069092,481.611542 955.013611,490.072906 958.030640,498.925964
z"/>
<path fill="#FFFEFE" opacity="1.000000" stroke="none"
	d="
M682.534241,829.585510
	C703.139343,828.620850 717.774170,838.980042 730.304565,853.204041
	C744.224670,869.005554 751.783203,887.034546 751.378113,908.678467
	C750.976807,930.119385 750.792786,951.772705 753.250977,973.016113
	C758.594360,1019.191711 773.697998,1061.993774 802.826050,1099.034424
	C804.055847,1100.598267 805.458252,1102.043701 806.900452,1103.418335
	C808.328857,1104.779785 809.909607,1105.981445 811.774231,1107.547729
	C766.038635,1130.519043 717.751465,1139.395752 667.040649,1138.081177
	C668.401062,1130.806030 670.019653,1123.885742 670.946777,1116.874146
	C673.971375,1093.998047 673.501160,1071.024536 672.064453,1048.074585
	C669.652161,1009.540955 666.927673,971.026917 664.517822,932.493164
	C663.448059,915.386719 662.791077,898.253784 662.011963,881.129944
	C661.558899,871.172974 660.533569,861.176086 661.014832,851.257751
	C661.770386,835.689941 666.354797,831.508240 682.534241,829.585510
z"/>
<path fill="#FFFDFD" opacity="1.000000" stroke="none"
	d="
M754.873779,478.881531
	C759.117920,474.745087 762.932861,470.018188 767.677124,466.569733
	C794.860596,446.810699 822.342285,427.462280 849.564148,407.755402
	C865.057129,396.539520 880.247864,384.906311 896.424377,372.826538
	C904.831421,386.241547 913.158325,399.528656 921.839783,413.381500
	C918.534485,415.277618 915.995972,417.189240 913.145508,418.301544
	C860.852600,438.707245 808.522339,459.017273 755.691467,479.266754
	C755.182983,479.185944 754.873779,478.881531 754.873779,478.881531
z"/>
<path fill="#FFFDFD" opacity="1.000000" stroke="none"
	d="
M755.330078,479.345398
	C755.117554,479.586334 754.757874,479.667847 754.398193,479.749390
	C754.394348,479.519592 754.390503,479.289795 754.630249,478.970764
	C754.873779,478.881531 755.182983,479.185944 755.330078,479.345398
z"/>
<path fill="#FCFCFC" opacity="1.000000" stroke="none"
	d="
M736.534790,1395.694824
	C738.066284,1382.130249 741.448730,1369.683472 750.708862,1359.759399
	C767.094910,1342.198608 795.056702,1340.692749 815.671875,1356.059204
	C817.787720,1357.636230 819.728882,1359.447876 822.194336,1361.523804
	C816.953064,1365.518066 812.367798,1369.696777 807.112793,1372.705688
	C804.764160,1374.050415 800.910950,1373.698364 798.017273,1372.988281
	C788.716064,1370.706055 780.869568,1373.725952 775.009033,1380.301880
	C772.151550,1383.508179 771.108765,1388.983276 770.730164,1393.554565
	C770.387268,1397.694824 769.365723,1400.306274 765.640015,1402.183716
	C758.682068,1405.689697 751.847534,1409.445557 745.032410,1413.225098
	C743.871582,1413.868774 743.063293,1415.148193 742.092041,1416.133789
	C743.423340,1416.788818 744.779297,1418.051270 746.081787,1417.998291
	C753.537964,1417.694946 760.982727,1417.098389 768.428406,1416.559814
	C771.311157,1416.351318 774.186096,1416.034180 778.098755,1415.670532
	C776.885498,1418.169922 776.202148,1419.600586 775.499451,1421.021606
	C771.303040,1429.507446 769.078308,1438.461548 769.184265,1447.948853
	C769.200745,1449.428711 769.173645,1451.067993 769.784851,1452.335449
	C770.338745,1453.484131 771.736389,1454.226074 772.762085,1455.147339
	C773.604309,1454.142700 774.663025,1453.248047 775.241394,1452.109497
	C776.284180,1450.056885 776.636108,1447.528931 778.033752,1445.818115
	C779.307190,1444.259521 781.585144,1443.521606 784.173462,1441.970581
	C784.729980,1455.348267 785.235718,1467.505737 785.754395,1479.975342
	C773.431702,1478.025269 762.719238,1471.827759 754.152954,1462.109619
	C740.454712,1446.569580 735.877747,1427.810425 735.955811,1407.599854
	C735.970581,1403.781250 736.303528,1399.963867 736.534790,1395.694824
z"/>
<path fill="#FCFCFC" opacity="1.000000" stroke="none"
	d="
M821.990479,1391.978516
	C826.783447,1389.301514 831.240112,1386.771362 835.697937,1384.240601
	C845.347534,1401.891602 845.118469,1454.550049 823.633423,1471.275879
	C816.674927,1462.958496 811.574463,1454.077271 813.437378,1442.537109
	C814.288696,1437.263306 812.588379,1433.105713 807.480652,1430.088379
	C801.661255,1426.650635 801.680847,1422.878418 806.580139,1418.098389
	C807.292053,1417.403687 808.083130,1416.766113 808.680298,1415.982300
	C811.490906,1412.293213 810.861816,1410.313110 806.798889,1407.889893
	C805.261658,1406.973022 804.272278,1405.137695 803.033203,1403.721191
	C804.344177,1402.654175 805.548584,1401.408081 806.985413,1400.552734
	C811.830383,1397.668701 816.758118,1394.923706 821.990479,1391.978516
z"/>
<path fill="#FBFBFB" opacity="1.000000" stroke="none"
	d="
M794.164429,1438.693970
	C796.471924,1434.509521 799.380493,1435.916992 801.883545,1437.605713
	C806.122192,1440.465332 807.443848,1444.754150 807.199402,1449.774170
	C806.722656,1459.564331 809.160828,1468.540405 816.161560,1477.488403
	C808.920105,1479.032104 802.351746,1480.432373 796.252014,1481.732788
	C795.493530,1466.815308 794.789368,1452.966187 794.164429,1438.693970
z"/>
<path fill="#ECECEC" opacity="1.000000" stroke="none"
	d="
M818.573486,1376.596802
	C822.045654,1374.059814 825.233459,1371.745850 828.570251,1369.323608
	C829.775024,1371.244507 830.803467,1372.884399 832.191223,1375.097046
	C825.078186,1377.889526 818.274780,1380.560425 811.471375,1383.231323
	C811.261169,1382.920898 811.051025,1382.610352 810.840820,1382.299805
	C813.323608,1380.473145 815.806396,1378.646362 818.573486,1376.596802
z"/>
<path fill="#ECECEC" opacity="1.000000" stroke="none"
	d="
M809.653931,1383.495850
	C809.629700,1383.434326 809.678101,1383.557373 809.653931,1383.495850
z"/>
<path fill="#FEFEFE" opacity="1.000000" stroke="none"
	d="
M158.519608,1363.999512
	C158.628571,1357.012085 158.480347,1350.503174 159.017593,1344.051392
	C159.161743,1342.320312 161.204086,1339.540527 162.696640,1339.308228
	C188.342911,1335.316162 225.453262,1341.712280 241.446503,1372.781982
	C253.251877,1395.715942 253.061920,1419.818604 243.464630,1443.302124
	C236.581955,1460.143433 221.802765,1468.294556 204.443741,1470.682617
	C194.683014,1472.025513 184.505783,1471.812134 174.674103,1470.786499
	C163.006638,1469.569092 159.392654,1465.159180 159.215790,1453.439087
	C158.768478,1423.795898 158.724930,1394.146484 158.519608,1363.999512
z"/>
<path fill="#FEFEFE" opacity="1.000000" stroke="none"
	d="
M343.169769,1364.039795
	C365.262665,1351.435059 393.795013,1358.824951 406.917938,1381.052612
	C419.871094,1402.992798 420.433411,1426.480713 411.134033,1449.617676
	C402.409393,1471.324707 378.667694,1478.756104 355.740631,1468.467407
	C343.629333,1463.032471 335.226532,1453.899658 330.016815,1441.883911
	C322.105286,1423.636719 321.518402,1404.866089 327.047150,1385.892456
	C329.684906,1376.839966 334.842133,1369.440918 343.169769,1364.039795
z"/>
<path fill="#FFFFFF" opacity="1.000000" stroke="none"
	d="
M576.333252,1444.720825
	C576.375488,1444.920166 576.172485,1445.326416 575.799316,1445.554688
	C575.782104,1445.227051 575.935059,1445.077393 576.333252,1444.720825
z"/>
</svg>