<svg version="1.1" id="Layer_1" xmlns="http://www.w3.org/2000/svg" xmlns:xlink="http://www.w3.org/1999/xlink" x="0px" y="0px"
	 width="100%" viewBox="0 0 800 464" enable-background="new 0 0 800 464" xml:space="preserve">
<path fill="#000000" opacity="1.000000" stroke="none" 
	d="
M243.399994,465.000000 
	C241.900024,460.594360 238.459610,457.676880 235.904373,454.265411 
	C210.635635,420.529541 184.760178,387.237518 159.996185,353.137421 
	C139.445526,324.839111 120.159668,295.622406 100.306686,266.817230 
	C73.741791,228.273514 47.172535,189.732803 20.590147,151.201157 
	C19.854448,150.134750 19.295828,148.852615 17.629091,148.264206 
	C16.504944,149.965897 16.562275,151.904205 16.558130,153.837250 
	C16.479158,190.661774 16.380642,227.486267 16.317585,264.310822 
	C16.271645,291.138611 16.167175,317.967194 16.345066,344.793671 
	C16.377588,349.698181 15.113236,352.010803 9.911183,351.362244 
	C7.281186,351.034332 4.589409,351.201904 1.462782,351.072754 
	C1.000000,276.645782 1.000000,202.291550 1.000000,127.468658 
	C6.155533,126.891449 11.316010,126.885101 16.464750,126.636101 
	C19.566288,126.486107 20.808952,128.581100 22.209740,130.671188 
	C38.251110,154.606232 54.279072,178.550293 70.351761,202.464310 
	C124.606903,283.188690 178.876434,363.903442 233.148300,444.616577 
	C237.607101,451.247711 242.125076,457.839050 246.807770,464.724426 
	C245.933334,465.000000 244.866653,465.000000 243.399994,465.000000 
z"/>
<path fill="#000000" opacity="1.000000" stroke="none" 
	d="
M567.468628,67.417160 
	C529.781677,121.807205 492.374084,175.954300 454.734741,229.939789 
	C451.597412,234.439590 451.820923,237.317017 454.966827,241.606476 
	C480.489594,276.407104 505.765503,311.388824 531.106934,346.322357 
	C531.963989,347.503784 533.134155,348.551178 533.156250,350.172211 
	C524.877747,353.553650 516.949951,351.513977 512.036072,344.743286 
	C489.722290,313.998016 467.422699,283.242493 445.108215,252.497726 
	C443.955505,250.909546 442.712372,249.387024 441.073669,247.268021 
	C437.784210,251.689743 434.803711,255.625687 431.896698,259.615143 
	C410.996826,288.297211 390.019043,316.923462 369.322266,345.751434 
	C366.214630,350.079987 362.889099,352.012695 357.693787,351.379395 
	C354.961273,351.046295 352.154724,351.320557 349.733154,351.320557 
	C348.735565,349.008820 349.796875,348.033905 350.563293,346.985107 
	C376.710785,311.203949 402.813293,275.389648 429.100159,239.711136 
	C431.453186,236.517365 431.217407,234.543533 429.015900,231.510986 
	C405.328033,198.881073 381.781433,166.148590 358.211914,133.432861 
	C356.892670,131.601685 355.216949,129.933502 354.621124,127.083229 
	C359.729095,126.279633 364.503113,126.618889 369.247589,126.823975 
	C371.551483,126.923561 372.386322,129.125885 373.521210,130.697266 
	C394.691376,160.009415 415.828461,189.345474 436.977142,218.673172 
	C438.134033,220.277466 439.063385,222.085434 441.922943,223.849701 
	C494.436157,149.431473 551.140381,78.141899 607.751709,6.780339 
	C608.181030,7.086905 608.610291,7.393470 609.039612,7.700036 
	C595.255493,27.510683 581.471436,47.321331 567.468628,67.417160 
z"/>
<path fill="#000000" opacity="1.000000" stroke="none" 
	d="
M258.000122,338.566223 
	C284.820251,338.487152 311.140381,338.416656 337.460419,338.319244 
	C340.761902,338.307037 343.610504,338.638214 342.989685,343.119110 
	C342.491913,346.711884 344.469421,351.404114 337.628387,351.383148 
	C290.134613,351.237488 242.640045,351.255127 195.146179,351.386688 
	C190.544525,351.399445 189.586975,349.529205 189.605698,345.418274 
	C189.730194,318.088837 189.671204,290.758545 189.669617,263.428528 
	C189.667084,220.100449 189.660294,176.772354 189.661850,133.444275 
	C189.662079,126.670624 189.678040,126.651779 196.563324,126.651260 
	C242.391098,126.647827 288.218872,126.650986 334.046661,126.657898 
	C340.624969,126.658890 343.714569,131.597794 341.025299,137.652283 
	C340.431885,138.988266 339.426086,139.232407 338.235352,139.275345 
	C336.570648,139.335388 334.903259,139.334732 333.237000,139.334915 
	C292.408600,139.339386 251.579849,139.421661 210.752304,139.237381 
	C205.770676,139.214905 204.174088,140.478088 204.227112,145.641632 
	C204.487152,170.969223 204.494644,196.302567 204.222290,221.629898 
	C204.165527,226.909073 205.989014,227.973404 210.838593,227.951248 
	C248.833191,227.777466 286.828918,227.851852 324.824310,227.855331 
	C333.387970,227.856125 334.089264,228.816788 333.238342,237.440155 
	C332.875549,241.116486 330.566895,241.111877 327.973450,241.114090 
	C317.641388,241.122925 307.309326,241.129807 296.977264,241.130219 
	C268.314056,241.131409 239.650864,241.119278 210.987671,241.135269 
	C204.355042,241.138977 204.339432,241.180969 204.338791,247.740250 
	C204.336029,276.236786 204.419601,304.733734 204.260574,333.229370 
	C204.237869,337.298553 205.261398,338.721039 209.509537,338.661194 
	C225.503662,338.435852 241.502838,338.568176 258.000122,338.566223 
z"/>
<path fill="#000000" opacity="1.000000" stroke="none" 
	d="
M617.708923,338.982239 
	C617.704407,274.512115 617.700562,210.538223 617.694275,146.564331 
	C617.693604,139.366241 617.687378,139.352982 610.257812,139.349487 
	C588.599976,139.339294 566.942078,139.365540 545.284424,139.296814 
	C543.256165,139.290390 540.420715,140.307281 539.462769,137.782013 
	C538.279602,134.663223 538.585205,131.212997 539.490906,127.962875 
	C539.787842,126.897423 540.992920,126.761383 542.012878,126.719582 
	C543.177551,126.671844 544.344299,126.658852 545.510132,126.658813 
	C598.821716,126.657143 652.133301,126.645531 705.444824,126.711166 
	C707.408081,126.713577 710.462219,125.483604 711.093628,128.224823 
	C711.817932,131.369568 712.436462,134.891922 711.199707,138.060898 
	C710.376038,140.171524 707.970764,139.310898 706.251465,139.314713 
	C683.927368,139.364182 661.603088,139.342178 639.278870,139.345734 
	C632.412109,139.346817 632.386047,139.357254 632.384888,146.260223 
	C632.373535,212.399872 632.383362,278.539520 632.314209,344.679108 
	C632.311951,346.815918 633.555115,350.050934 630.646301,350.825470 
	C626.846863,351.837189 622.722595,351.936859 618.864380,350.596710 
	C617.706665,350.194580 617.767151,348.640320 617.749939,347.474182 
	C617.710510,344.809326 617.719543,342.143738 617.708923,338.982239 
z"/>
<path fill="#000000" opacity="1.000000" stroke="none" 
	d="
M783.695740,306.106720 
	C786.318787,306.863403 788.581665,307.423401 790.797424,308.131165 
	C796.347534,309.904022 799.984558,313.252747 800.352661,319.490204 
	C800.733459,325.940430 798.585449,331.107178 792.628296,333.898346 
	C784.962952,337.489807 777.156982,337.332184 769.556885,333.419586 
	C766.946960,332.075989 765.028259,329.944153 763.933777,327.267181 
	C763.181763,325.427734 761.291443,322.912415 764.083496,321.606323 
	C766.545044,320.454834 769.367737,320.102997 771.524475,323.259064 
	C775.238831,328.694580 782.376953,330.243439 787.813599,327.169769 
	C789.916443,325.980896 791.573792,324.432465 791.656433,321.748932 
	C791.743896,318.909882 789.902405,317.440033 787.670776,316.603088 
	C784.570068,315.440277 781.347473,314.578552 778.139282,313.730713 
	C766.782715,310.729553 761.936279,304.788788 764.031555,296.328735 
	C766.068665,288.103149 775.942505,282.958618 785.750061,285.012756 
	C794.391968,286.822784 799.175842,291.600311 799.219116,298.763489 
	C795.500183,299.662933 792.307251,300.482605 789.584961,295.989716 
	C786.866455,291.503021 778.862549,291.172150 774.753479,294.633179 
	C771.473267,297.396088 771.675781,300.908600 775.328064,303.265686 
	C777.747498,304.827087 780.520691,305.458832 783.695740,306.106720 
z"/>
<path fill="#000000" opacity="1.000000" stroke="none" 
	d="
M744.752441,321.392456 
	C744.804260,310.975433 744.864929,300.999878 744.824646,291.024689 
	C744.811584,287.808167 745.331848,285.566437 749.421875,285.671753 
	C753.457275,285.775635 753.363647,288.263916 753.355408,291.059692 
	C753.323975,301.700409 753.480347,312.343994 753.278687,322.981079 
	C753.144836,330.043396 748.453491,334.920349 741.271179,336.143433 
	C733.824585,337.411560 726.440063,334.090118 724.136658,328.066467 
	C723.428589,326.214874 721.232422,323.322754 724.478210,322.098053 
	C726.810059,321.218231 730.081360,320.438843 731.700195,324.144012 
	C733.102905,327.354370 735.873169,328.244324 739.137329,327.809082 
	C742.590027,327.348755 744.416199,325.279999 744.752441,321.392456 
z"/>
<path fill="#000000" opacity="1.000000" stroke="none" 
	d="
M715.152222,330.034668 
	C714.536865,334.561707 711.926270,336.130890 708.119812,335.221344 
	C704.993774,334.474396 704.349121,331.790466 704.817505,328.943665 
	C705.209717,326.559967 706.889709,325.125244 709.204041,324.911774 
	C712.533813,324.604553 714.333984,326.578766 715.152222,330.034668 
z"/>
</svg>