<?xml version="1.0" encoding="utf-8"?>
<!-- Generator: Adobe Illustrator 16.0.0, SVG Export Plug-In . SVG Version: 6.00 Build 0)  -->
<!DOCTYPE svg PUBLIC "-//W3C//DTD SVG 1.1//EN" "http://www.w3.org/Graphics/SVG/1.1/DTD/svg11.dtd" [
	<!ENTITY ns_flows "http://ns.adobe.com/Flows/1.0/">
	<!ENTITY ns_extend "http://ns.adobe.com/Extensibility/1.0/">
	<!ENTITY ns_ai "http://ns.adobe.com/AdobeIllustrator/10.0/">
	<!ENTITY ns_graphs "http://ns.adobe.com/Graphs/1.0/">
]>
<svg version="1.1" id="Layer_1" xmlns:x="&ns_extend;" xmlns:i="&ns_ai;" xmlns:graph="&ns_graphs;"
	 xmlns="http://www.w3.org/2000/svg" xmlns:xlink="http://www.w3.org/1999/xlink" xmlns:a="http://ns.adobe.com/AdobeSVGViewerExtensions/3.0/"
	 x="0px" y="0px" width="500.193px" height="509.095px" viewBox="0 0 500.193 509.095" enable-background="new 0 0 500.193 509.095"
	 xml:space="preserve">
<g>
	<path fill-rule="evenodd" clip-rule="evenodd" fill="#ED1C24" d="M1.099,284c0-20.667,0-41.333,0-62
		c1.802-9.431,1.435-19.11,3.813-28.516c9.452-37.392,26.247-70.988,50.807-100.765c22.802-27.644,50.401-49.198,82.388-65.094
		c18.381-9.134,37.625-16.07,57.832-20.106c7.65-1.527,15.514-1.014,23.161-2.52c20,0,40,0,60,0
		c9.291,1.657,18.82,1.199,28.066,3.467c37.972,9.316,72.051,26.257,102.247,51.165c27.522,22.703,49.045,50.137,64.883,81.958
		c12.773,25.665,21.239,52.757,24.015,81.419c4.458,46.026-0.54,90.596-20.12,133.063c-11.32,24.551-25.92,46.739-44.109,66.753
		c-21.568,23.731-46.863,42.37-75.563,56.333c-25.163,12.241-51.645,20.471-79.642,23.056
		c-37.994,3.508-75.403,1.249-111.729-11.657c-32.896-11.688-62.208-29.102-88.033-52.729
		c-23.291-21.309-41.647-46.156-55.633-74.255c-9.072-18.226-15.883-37.354-19.885-57.4C2.134,298.847,2.707,291.303,1.099,284z"/>
	<path fill-rule="evenodd" clip-rule="evenodd" fill="#FEFEFE" d="M1.099,284c2.466,3.579,1.971,7.873,2.676,11.832
		c19.07,107.146,103.677,188.731,211.622,203.93c134.164,18.89,259.908-75.327,279.893-209.718
		c20.276-136.35-73.186-262.85-209.243-283.321c-2.312-0.348-5.002,0.295-6.947-1.723c72.667,0,145.333,0.031,218-0.097
		c3.424-0.006,4.097,0.673,4.095,4.097c-0.108,164-0.108,328,0,492c0.002,3.423-0.671,4.097-4.095,4.095c-164-0.108-328-0.108-492,0
		c-3.423,0.002-4.103-0.67-4.097-4.095C1.129,428.667,1.099,356.333,1.099,284z"/>
	<path fill-rule="evenodd" clip-rule="evenodd" fill="#FEFEFE" d="M219.099,5c-4.361,2.149-9.209,2.051-13.838,2.847
		C101.337,25.711,18.169,111.085,2.892,215.599c-0.314,2.148,0.28,4.693-1.793,6.401C1.099,151.081,1.132,80.163,1,9.245
		C0.993,5.64,1.743,4.895,5.345,4.901C76.596,5.033,147.847,5,219.099,5z"/>
	<path fill-rule="evenodd" clip-rule="evenodd" fill="#FEFEFE" d="M369.026,194.984c22.153,0,44.308,0.094,66.46-0.092
		c3.741-0.031,4.696,0.93,4.674,4.677c-0.168,28.315-0.184,56.633,0.012,84.948c0.027,4.075-1.24,5.082-5.022,4.836
		c-4.645-0.302-9.339-0.306-13.981,0.004c-3.541,0.235-4.443-0.922-4.415-4.42c0.167-20.652-0.031-41.309,0.181-61.961
		c0.041-3.998-1.066-5.2-4.991-4.923c-4.806,0.34-9.68,0.388-14.478-0.009c-4.387-0.362-5.099,1.41-5.062,5.356
		c0.194,20.319-0.004,40.643,0.174,60.962c0.033,3.785-0.769,5.328-4.855,5.007c-4.801-0.378-9.667-0.306-14.479-0.016
		c-3.416,0.206-4.113-1.095-4.094-4.248c0.126-20.487-0.108-40.979,0.193-61.462c0.07-4.789-1.447-5.919-5.839-5.592
		c-4.804,0.359-9.667,0.289-14.481,0.012c-3.389-0.195-4.13,1.046-4.108,4.251c0.139,20.654-0.011,41.31,0.146,61.963
		c0.028,3.667-0.554,5.216-4.773,5.114c-12.818-0.307-25.649-0.201-38.474-0.045c-3.021,0.037-3.95-0.735-3.937-3.87
		c0.123-28.815,0.129-57.633-0.004-86.448c-0.015-3.333,0.99-4.132,4.195-4.113C324.386,195.046,346.706,194.984,369.026,194.984z"
		/>
	<path fill-rule="evenodd" clip-rule="evenodd" fill="#FEFEFE" d="M273.948,288.731c-1.734,0.859-3.598,0.533-5.41,0.537
		c-12.324,0.025-24.656,0.273-36.967-0.116c-4.829-0.153-5.902,1.492-5.583,5.859c0.352,4.805-0.091,9.662,0.143,14.48
		c0.143,2.949-0.963,3.604-3.708,3.578c-13.322-0.122-26.646-0.109-39.969-0.009c-2.506,0.02-3.471-0.563-3.465-3.299
		c0.084-37.139,0.08-74.276,0.007-111.415c-0.005-2.575,0.682-3.426,3.348-3.415c30.476,0.119,60.951,0.124,91.427,0.158
		c1.304,0.783,0.805,2.076,0.806,3.156c0.028,29.061,0.026,58.12,0.009,87.181C274.583,286.551,274.921,287.778,273.948,288.731z"/>
	<path fill-rule="evenodd" clip-rule="evenodd" fill="#FEFEFE" d="M131.054,219.002c-7.294-1.979-14.721-0.53-22.081-0.757
		c-2.935-0.09-1.76,2.744-1.766,4.287c-0.08,20.483-0.208,40.969,0.067,61.449c0.061,4.49-1.171,5.515-5.494,5.408
		c-12.482-0.306-24.979-0.198-37.467-0.045c-3.112,0.039-4.285-0.612-4.268-4.056c0.144-28.811,0.126-57.621,0.016-86.432
		c-0.012-3.021,0.717-3.959,3.857-3.944c30.308,0.149,60.617,0.132,90.926,0.162c1.145,0.872,0.734,2.131,0.734,3.237
		c0.022,29.11,0.021,58.22,0.004,87.33c0,1.127,0.322,2.354-0.628,3.316c-7.905,0.527-15.811,0.526-23.716,0.001
		c-0.835-0.796-0.633-1.839-0.633-2.812c-0.011-21.583-0.009-43.165-0.009-64.748C130.599,220.569,130.568,219.738,131.054,219.002z
		"/>
	<path fill-rule="evenodd" clip-rule="evenodd" fill="#ED171F" d="M131.054,219.002c0.113,13.556,0.275,27.112,0.322,40.669
		c0.034,9.763-0.084,19.525-0.135,29.289c-1.713-1.822-1.113-4.098-1.118-6.202c-0.041-18.662-0.02-37.325-0.026-55.988
		c-0.002-6.754-0.015-6.755-6.99-6.766c-2.666-0.004-5.362,0.252-7.992-0.055c-4.994-0.583-6.152,1.652-6.104,6.306
		c0.209,20.634,0.091,41.271-0.623,61.971c-0.091-1.141-0.26-2.28-0.261-3.421c-0.016-19.996,0.124-39.993-0.111-59.986
		c-0.055-4.716,1.542-6.125,6.046-5.874C119.709,219.259,125.389,219.009,131.054,219.002z"/>
	<path fill-rule="evenodd" clip-rule="evenodd" fill="#EC141C" d="M299.958,193.262c46.159,0,92.318,0,138.477,0
		c0,0.163,0,0.326,0,0.488c-46.188,0-92.374,0-138.562,0C299.901,193.588,299.93,193.425,299.958,193.262z"/>
	<path fill-rule="evenodd" clip-rule="evenodd" fill="#EC121B" d="M177.791,196.901c0,38.131,0,76.261,0,114.392
		c-0.161,0-0.322-0.001-0.483-0.001c0-38.186,0-76.37,0-114.556C177.469,196.791,177.63,196.846,177.791,196.901z"/>
	<path fill-rule="evenodd" clip-rule="evenodd" fill="#EC141C" d="M153.187,193.851c-30.391,0-60.783,0-91.174,0
		c-0.001-0.162-0.001-0.324-0.002-0.486c30.455,0,60.909,0,91.364,0C153.312,193.526,153.25,193.688,153.187,193.851z"/>
	<path fill-rule="evenodd" clip-rule="evenodd" fill="#EC141C" d="M272.402,193.703c-30.472,0-60.943,0-91.414,0
		c-0.001-0.116-0.002-0.233-0.003-0.35c30.471,0,60.942,0,91.414,0C272.4,193.47,272.401,193.587,272.402,193.703z"/>
	<path fill-rule="evenodd" clip-rule="evenodd" fill="#ED161E" d="M58.372,288.119c0-30.478,0-60.956,0-91.435
		c0.165,0.001,0.329,0.001,0.494,0.001c0,30.521,0,61.042,0,91.563C58.701,288.205,58.537,288.162,58.372,288.119z"/>
	<path fill-rule="evenodd" clip-rule="evenodd" fill="#EC131B" d="M273.948,288.731c-0.084-17.431-0.205-34.86-0.243-52.29
		c-0.03-13.783,0.04-27.566,0.065-41.351c1.545,1.213,1.32,2.947,1.32,4.593c0.009,28.628,0.02,57.255-0.04,85.883
		C275.049,286.624,275.983,288.276,273.948,288.731z"/>
	<path fill-rule="evenodd" clip-rule="evenodd" fill="#EC1018" d="M296.919,196.923c0,30.385,0,60.771,0,91.156
		c-0.156,0.001-0.313,0.001-0.47,0.002c0-30.452,0-60.903,0-91.355C296.606,196.791,296.763,196.856,296.919,196.923z"/>
	<path fill-rule="evenodd" clip-rule="evenodd" fill="#ED161E" d="M441.833,196.861c0,30.49,0,60.98,0,91.471
		c-0.165,0-0.329,0-0.494-0.001c0-30.521,0-61.041,0-91.562C441.504,196.8,441.668,196.831,441.833,196.861z"/>
	<path fill-rule="evenodd" clip-rule="evenodd" fill="#ED171F" d="M154.957,288.959c-0.037-31.295-0.074-62.589-0.11-93.884
		c1.748,1.574,1.232,3.681,1.234,5.613c0.027,27.532,0.026,55.064,0.001,82.597C156.08,285.227,156.559,287.313,154.957,288.959z"/>
	<path fill-rule="evenodd" clip-rule="evenodd" fill="#EC0F17" d="M105.22,290.819c-14.435,0-28.869,0-43.303,0
		c-0.001-0.152-0.001-0.305-0.002-0.456c14.467,0,28.934,0,43.401,0C105.284,290.515,105.252,290.667,105.22,290.819z"/>
	<path fill-rule="evenodd" clip-rule="evenodd" fill="#EC0F17" d="M343.394,290.74c-14.533,0-29.066,0-43.6,0
		c0-0.134,0.002-0.267,0.002-0.4c14.533,0,29.066,0,43.6,0C343.395,290.474,343.395,290.606,343.394,290.74z"/>
	<path fill-rule="evenodd" clip-rule="evenodd" fill="#EC141C" d="M224.275,314.774c-14.501,0-29.003,0-43.504,0
		c-0.001-0.162-0.002-0.325-0.002-0.488c14.482,0,28.963,0,43.445,0C224.234,314.449,224.254,314.612,224.275,314.774z"/>
	<path fill-rule="evenodd" clip-rule="evenodd" fill="#EC0F17" d="M227.149,290.967c0.933-0.285,1.864-0.815,2.798-0.819
		c13.754-0.053,27.509-0.036,41.271,0.867c-14.37,0-28.74,0-43.11,0C227.755,291.68,227.436,291.664,227.149,290.967z"/>
	<path fill-rule="evenodd" clip-rule="evenodd" fill="#EC0F17" d="M153.393,290.74c-6.867,0-13.733,0-20.599,0
		c0.001-0.134,0.003-0.268,0.004-0.401c6.867,0,13.733,0,20.599,0C153.395,290.473,153.394,290.606,153.393,290.74z"/>
	<path fill-rule="evenodd" clip-rule="evenodd" fill="#EC0F17" d="M391.268,290.833c-6.772,0-13.544,0-20.316,0
		c-0.004-0.146-0.007-0.291-0.011-0.437c6.767,0,13.533,0,20.3,0C391.249,290.542,391.259,290.688,391.268,290.833z"/>
	<path fill-rule="evenodd" clip-rule="evenodd" fill="#EC0F17" d="M417.749,290.317c6.903,0,13.806,0,20.709,0
		c0,0.148,0.001,0.298,0.001,0.446c-6.903,0-13.807,0-20.71,0C417.749,290.615,417.749,290.466,417.749,290.317z"/>
	<path fill-rule="evenodd" clip-rule="evenodd" fill="#EC1019" d="M366.44,219.743c-6.233,0-12.468,0-18.702,0
		c0-0.149-0.001-0.299-0.001-0.448c6.233,0,12.468,0,18.701,0C366.439,219.444,366.44,219.594,366.44,219.743z"/>
	<path fill-rule="evenodd" clip-rule="evenodd" fill="#ED161E" d="M227.149,290.967c0.319,0.021,0.639,0.037,0.959,0.048
		c0,6.731,0,13.464,0,20.195c-0.32,0.005-0.64,0.009-0.959,0.013C227.149,304.471,227.149,297.719,227.149,290.967z"/>
	<path fill-rule="evenodd" clip-rule="evenodd" fill="#ED1C24" d="M250.224,242.061c-0.001,6.98-0.082,13.962,0.045,20.939
		c0.043,2.369-0.7,3.179-3.103,3.121c-5.979-0.144-11.967-0.133-17.947-0.004c-2.327,0.051-3.176-0.617-3.16-3.064
		c0.09-13.96,0.082-27.92-0.033-41.879c-0.02-2.423,0.753-3.187,3.117-3.14c5.98,0.12,11.97,0.18,17.946-0.02
		c2.896-0.097,3.203,1.276,3.169,3.604C250.162,228.432,250.225,235.247,250.224,242.061z"/>
</g>
</svg>
