<?xml version="1.0" encoding="utf-8"?>
<!-- Generator: Adobe Illustrator 16.0.3, SVG Export Plug-In . SVG Version: 6.00 Build 0)  -->
<!DOCTYPE svg PUBLIC "-//W3C//DTD SVG 1.1//EN" "http://www.w3.org/Graphics/SVG/1.1/DTD/svg11.dtd" [
	<!ENTITY ns_flows "http://ns.adobe.com/Flows/1.0/">
	<!ENTITY ns_extend "http://ns.adobe.com/Extensibility/1.0/">
	<!ENTITY ns_ai "http://ns.adobe.com/AdobeIllustrator/10.0/">
	<!ENTITY ns_graphs "http://ns.adobe.com/Graphs/1.0/">
]>
<svg version="1.1" id="Layer_1" xmlns:x="&ns_extend;" xmlns:i="&ns_ai;" xmlns:graph="&ns_graphs;"
	 xmlns="http://www.w3.org/2000/svg" xmlns:xlink="http://www.w3.org/1999/xlink" xmlns:a="http://ns.adobe.com/AdobeSVGViewerExtensions/3.0/"
	 x="0px" y="0px" width="640px" height="624px" viewBox="0 0 640 624" style="enable-background:new 0 0 640 624;"
	 xml:space="preserve">
<g>
	<path style="fill-rule:evenodd;clip-rule:evenodd;fill:#001E36;" d="M641,102c0,141,0,282,0,423
		c-1.525,0.559-0.917,1.947-1.111,2.983c-9.039,48.307-36.932,79.653-84.216,93.438c-5.443,1.587-11.11,2.404-16.673,3.578
		c-146,0-292,0-438,0c-0.563-1.521-1.947-0.935-2.986-1.105c-48.093-7.915-83.815-41.394-94.571-88.557
		C2.656,531.889,3.015,528.157,1,525c0-141.333,0-282.667,0-424c1.505-0.575,0.907-1.953,1.102-2.996
		c8.958-48.123,36.78-79.295,83.723-93.392C90.829,3.109,96.204,3.288,101,1c146,0,292,0,438,0c0.229,0.77,0.833,0.85,1.521,0.925
		c47.9,5.245,87.083,40.341,97.666,87.285C639.146,93.468,639.027,97.97,641,102z M145,301.505c0,44.65-0.003,89.301,0.003,133.952
		c0.001,6.438,0.127,6.567,6.341,6.573c14.995,0.014,29.99,0.015,44.984-0.001c6.129-0.006,6.587-0.448,6.591-6.521
		c0.015-24.657,0.007-49.315,0.007-73.974c0-8.865,0-8.872,9.035-8.593c22.7,0.701,45.362,0.565,67.361-6.06
		c31.014-9.34,53.273-28.162,62.954-59.913c4.273-14.02,5.275-28.476,3.66-43.016c-2.58-23.223-11.723-43.251-29.855-58.551
		c-20.963-17.687-46.018-24.162-72.665-25.292c-30.479-1.292-60.957,0.652-91.438,1.058c-6.968,0.092-6.978,0.064-6.978,6.884
		C144.998,212.536,144.999,257.021,145,301.505z M375.073,407.408c0,6.832,0.244,13.676-0.084,20.493
		c-0.229,4.755,1.685,7.288,5.976,9.076c18.775,7.826,38.523,10.308,58.59,10.663c18.297,0.323,36.313-1.812,53.071-9.803
		c21.999-10.488,35.089-27.718,37.231-52.262c2.224-25.484-8.451-44.467-30.396-57.354c-11.519-6.765-23.614-12.208-36.089-16.967
		c-9.61-3.667-19.475-7.164-27.332-14.151c-8.296-7.378-5.843-17.951,4.714-21.403c4.798-1.568,9.759-2.103,14.777-2.074
		c19.356,0.107,38.107,3.096,55.756,11.548c5.63,2.696,7.77,1.311,7.781-4.69c0.024-12.831-0.196-25.668,0.108-38.492
		c0.12-5.096-1.922-7.479-6.568-8.997c-22.099-7.221-44.8-8.003-67.68-6.444c-12.574,0.856-24.504,4.337-35.691,10.342
		c-26.588,14.27-39.759,44.818-31.104,72.984c5.363,17.453,17.868,28.734,33.052,37.79c13.535,8.072,28.524,12.758,42.756,19.194
		c5.154,2.331,10.336,4.631,14.385,8.813c6.564,6.781,4.846,16.162-3.803,20.03c-5.248,2.348-10.875,3.101-16.558,3.253
		c-23.782,0.637-46.278-4.287-67.255-15.717c-4.524-2.465-5.564-1.881-5.618,3.17C375.019,393.409,375.074,400.409,375.073,407.408z
		"/>
	<path style="fill-rule:evenodd;clip-rule:evenodd;fill:#31A7FD;" d="M144.999,301.505c0-44.484-0.001-88.969,0.001-133.453
		c0-6.819,0.01-6.792,6.978-6.884c30.48-0.405,60.958-2.35,91.438-1.058c26.647,1.13,51.702,7.605,72.665,25.292
		c18.133,15.3,27.275,35.328,29.855,58.551c1.615,14.54,0.613,28.996-3.66,43.016c-9.681,31.751-31.94,50.573-62.954,59.913
		c-21.999,6.625-44.661,6.761-67.361,6.06c-9.035-0.279-9.035-0.272-9.035,8.593c0,24.658,0.008,49.316-0.007,73.974
		c-0.003,6.073-0.461,6.516-6.591,6.521c-14.995,0.016-29.99,0.015-44.984,0.001c-6.213-0.006-6.34-0.136-6.341-6.573
		C144.996,390.806,145,346.155,144.999,301.505z M203.073,256.993c0,13.658,0.068,27.317-0.054,40.975
		c-0.026,2.941,0.469,4.642,3.895,4.747c17.507,0.534,34.941,0.8,51.921-4.751c19.902-6.506,29.517-20.086,29.535-42.281
		c0.016-19.781-10.143-33.505-29.339-39.792c-17.396-5.698-35.281-3.39-53.029-3.386c-3.33,0.001-2.94,2.331-2.938,4.511
		C203.082,230.342,203.073,243.667,203.073,256.993z"/>
	<path style="fill-rule:evenodd;clip-rule:evenodd;fill:#31A7FD;" d="M375.074,407.408c0-6.999-0.056-13.999,0.019-20.997
		c0.054-5.051,1.094-5.635,5.618-3.17c20.977,11.43,43.473,16.354,67.255,15.717c5.683-0.152,11.31-0.905,16.558-3.253
		c8.648-3.868,10.367-13.249,3.803-20.03c-4.049-4.183-9.23-6.482-14.385-8.813c-14.231-6.437-29.221-11.122-42.756-19.194
		c-15.184-9.056-27.688-20.337-33.052-37.79c-8.654-28.166,4.517-58.715,31.104-72.984c11.188-6.005,23.117-9.485,35.691-10.342
		c22.88-1.559,45.581-0.776,67.68,6.444c4.646,1.519,6.688,3.901,6.568,8.997c-0.305,12.824-0.084,25.661-0.108,38.492
		c-0.012,6.001-2.151,7.387-7.781,4.69c-17.648-8.452-36.399-11.44-55.756-11.548c-5.019-0.028-9.979,0.506-14.777,2.074
		c-10.557,3.452-13.01,14.025-4.714,21.403c7.857,6.987,17.722,10.484,27.332,14.151c12.475,4.759,24.57,10.202,36.089,16.967
		c21.944,12.887,32.619,31.869,30.396,57.354c-2.143,24.544-15.232,41.773-37.231,52.262c-16.759,7.991-34.774,10.126-53.071,9.803
		c-20.066-0.355-39.814-2.837-58.59-10.663c-4.291-1.788-6.204-4.321-5.976-9.076C375.317,421.084,375.073,414.24,375.074,407.408z"
		/>
	<path style="fill-rule:evenodd;clip-rule:evenodd;fill:#001F37;" d="M203.073,256.993c0-13.326,0.009-26.651-0.009-39.978
		c-0.003-2.18-0.392-4.51,2.938-4.511c17.748-0.004,35.633-2.313,53.029,3.386c19.196,6.287,29.354,20.011,29.339,39.792
		c-0.018,22.195-9.633,35.775-29.535,42.281c-16.98,5.551-34.414,5.285-51.921,4.751c-3.426-0.105-3.921-1.806-3.895-4.747
		C203.141,284.311,203.073,270.651,203.073,256.993z"/>
</g>
</svg>
