<svg version="1.1" id="Layer_1" xmlns="http://www.w3.org/2000/svg" xmlns:xlink="http://www.w3.org/1999/xlink" x="0px" y="0px"
	 width="100%" viewBox="0 0 306 165" enable-background="new 0 0 306 165" xml:space="preserve">
<path fill="#FEFEFE" opacity="1.000000" stroke="none" 
	d="
M210.000000,166.000000 
	C140.000015,166.000000 70.500015,166.000000 1.000019,166.000000 
	C1.000012,111.000015 1.000012,56.000031 1.000006,1.000033 
	C102.999969,1.000022 204.999939,1.000022 306.999939,1.000011 
	C306.999939,55.999966 306.999939,110.999931 306.999969,165.999939 
	C274.833344,166.000000 242.666672,166.000000 210.000000,166.000000 
M230.449631,16.434586 
	C227.636597,15.656207 224.823547,14.877828 221.275940,13.844650 
	C217.523819,12.947711 213.771713,12.050773 209.242401,10.949978 
	C205.495529,10.329306 201.748657,9.708633 197.250778,8.864376 
	C195.171539,8.604297 193.092300,8.344217 190.216766,7.868043 
	C187.137054,7.547302 184.057358,7.226560 180.164444,6.734619 
	C175.774933,6.483954 171.385406,6.233288 166.274567,5.828147 
	C165.539062,5.843315 164.803574,5.858482 163.544632,5.817474 
	C163.369720,5.831558 163.194794,5.845642 162.383224,5.409744 
	C158.614487,5.396941 154.845764,5.384137 150.189880,5.178986 
	C142.103149,5.765565 134.014893,6.332028 125.929985,6.942752 
	C106.841492,8.384672 88.302658,12.477594 70.296959,18.890087 
	C56.176170,23.919020 42.651413,30.162067 30.407917,40.194992 
	C26.594324,43.790718 22.780731,47.386444 18.412083,51.295708 
	C17.235754,53.027287 16.059425,54.758865 14.311198,56.946991 
	C12.858955,59.593174 11.406713,62.239353 9.412659,65.363541 
	C8.240499,69.892380 7.068341,74.421227 5.525396,79.617943 
	C5.728681,83.417953 5.931966,87.217964 6.144637,91.779106 
	C9.964476,107.668236 19.691278,119.249184 33.223625,128.867538 
	C41.759769,133.596985 50.295918,138.326431 59.259975,143.573532 
	C60.504883,144.025650 61.749790,144.477783 63.324524,145.113525 
	C63.324524,145.113525 63.701603,145.096115 64.161392,145.607803 
	C65.438568,146.037323 66.715736,146.466858 68.418060,147.055588 
	C68.418060,147.055588 68.871834,147.041901 69.382240,147.575928 
	C79.590218,150.358398 89.798203,153.140884 100.755081,156.181000 
	C107.157082,157.147598 113.559082,158.114197 120.594963,159.445267 
	C122.059769,159.595169 123.524567,159.745071 125.776459,160.033936 
	C126.839485,160.049576 127.902504,160.065216 129.720184,160.403290 
	C136.124115,160.642487 142.528061,160.881699 149.685822,161.382416 
	C171.386551,161.722900 192.892731,159.905777 214.030640,154.896851 
	C238.323669,149.140305 261.355042,140.479156 280.859100,124.225311 
	C309.125122,100.669640 310.201843,70.058342 283.359283,44.944748 
	C269.541595,32.017071 252.891083,23.877031 234.356598,17.834717 
	C233.235886,17.530729 232.115158,17.226742 230.449631,16.434586 
z"/>
<path fill="#787BB3" opacity="1.000000" stroke="none" 
	d="
M191.013062,8.084137 
	C193.092300,8.344217 195.171539,8.604297 197.624405,9.385208 
	C197.719345,12.878310 198.410980,14.906044 201.980682,15.229674 
	C204.688446,15.475163 207.336395,16.380486 210.409607,17.000008 
	C214.878067,17.998442 218.947891,18.989061 223.357941,20.128731 
	C226.125641,20.866606 228.553070,21.455437 231.220062,22.301954 
	C232.613464,22.752522 233.767303,22.945402 235.154877,23.394943 
	C237.209686,24.461340 239.007050,25.330172 240.855515,26.071564 
	C257.206207,32.629532 272.377869,40.916992 284.621307,54.019615 
	C299.593781,70.042786 300.818542,91.720901 287.616821,108.982018 
	C277.271149,122.508873 263.337982,131.063065 248.170914,137.782166 
	C218.857605,150.768127 187.682571,154.738892 155.547852,156.009918 
	C148.394775,155.674606 141.707214,155.361649 134.579422,155.031647 
	C124.759560,154.009308 115.379936,153.004028 105.742096,151.713821 
	C99.656601,150.284531 93.829300,149.140167 87.759216,147.718475 
	C82.351768,145.804428 77.082184,144.436493 72.046021,142.470596 
	C63.619003,139.181091 55.340977,135.509933 46.846115,131.694763 
	C41.723232,127.891464 36.152641,124.993607 31.923183,120.756897 
	C25.148748,113.970848 19.263268,106.297356 13.256310,98.776161 
	C12.670762,94.699310 11.830952,90.845261 10.993526,86.545761 
	C11.657660,81.393112 12.319410,76.685913 12.987669,71.732712 
	C12.994176,71.486702 13.003691,70.994614 13.131328,70.703293 
	C13.512453,69.615494 13.765942,68.819000 14.291826,67.811913 
	C15.047290,66.085167 15.530356,64.569031 16.312178,62.894783 
	C18.077700,60.510326 19.544470,58.283970 21.307003,55.901901 
	C24.737064,52.526321 27.871361,49.306458 31.316841,45.941036 
	C44.000198,36.310749 57.642921,29.173805 72.332359,24.059870 
	C99.724869,14.523526 128.080658,11.067915 157.408142,10.956149 
	C161.584152,11.001101 165.293579,11.017313 169.299713,11.320120 
	C173.734589,11.742459 177.872772,11.878204 182.373138,12.171155 
	C185.675598,12.753099 188.615875,13.177837 192.147781,13.688040 
	C191.689941,11.426969 191.351517,9.755551 191.013062,8.084137 
M54.065845,99.534660 
	C52.488899,107.684708 50.912628,115.834885 49.334747,123.984749 
	C48.356361,129.038193 49.429913,130.519516 54.408295,130.636902 
	C58.571308,130.735092 62.741192,130.562042 66.903107,130.681122 
	C70.801666,130.792664 72.550346,129.024246 73.115692,125.175995 
	C73.874397,120.011612 75.153511,114.923683 76.056274,110.544731 
	C85.259758,109.744591 93.576813,109.396347 101.771744,108.206779 
	C110.483002,106.942268 116.848976,101.216507 122.969566,95.090233 
	C122.900543,98.541725 122.428764,101.627190 121.932274,104.708679 
	C121.380272,108.134682 122.954094,109.758720 126.293449,109.801529 
	C129.958389,109.848526 133.624298,109.822334 137.289795,109.820389 
	C144.373459,109.816628 144.721146,109.436020 146.021286,102.591064 
	C148.396301,90.087227 150.886688,77.605301 153.361618,64.947212 
	C156.982651,64.947212 160.133423,64.938271 163.284149,64.949013 
	C170.621735,64.974022 171.301361,65.773865 169.863693,73.154541 
	C167.958496,82.935471 165.898972,92.686676 164.040375,102.476212 
	C162.820190,108.903160 163.646500,109.802521 170.094650,109.820862 
	C175.022324,109.834877 179.950073,109.823647 185.387115,109.823647 
	C184.328156,115.339355 183.577377,120.083420 182.473938,124.743988 
	C181.521301,128.767670 183.264465,130.489075 186.968384,130.603912 
	C191.629013,130.748428 196.297699,130.671707 200.962418,130.631958 
	C204.044052,130.605713 205.722565,129.287750 206.222122,125.940536 
	C207.021683,120.583229 208.367325,115.307419 209.529053,109.773705 
	C214.540558,109.773705 219.198318,109.913605 223.845337,109.749596 
	C244.463104,109.021919 258.172302,98.226593 262.493225,79.432297 
	C266.764771,60.852859 257.448792,47.388046 238.619812,46.044556 
	C226.684555,45.192947 214.661667,45.588024 202.679077,45.369099 
	C199.217606,45.305851 197.509628,46.943699 197.011993,50.306915 
	C196.593414,53.135677 195.879486,55.920734 195.006378,60.119396 
	C191.432816,49.557835 184.078674,46.756218 175.484573,46.022205 
	C169.613953,45.520794 163.719025,45.303928 157.396591,44.934212 
	C158.353348,39.576355 159.107941,34.833687 160.069122,30.133263 
	C160.825623,26.433725 159.524399,24.779696 155.725769,24.875681 
	C151.729614,24.976658 147.686020,25.263334 143.740707,24.803461 
	C138.538300,24.197058 136.773071,26.593517 135.969971,31.293667 
	C134.137390,42.018620 131.907928,52.675762 129.666611,64.254692 
	C125.224869,51.586567 116.306862,46.295673 104.274673,45.899719 
	C92.630104,45.516518 80.972076,45.538841 69.319832,45.394363 
	C65.989662,45.353073 64.406158,46.798939 63.752041,50.316730 
	C60.747482,66.475105 57.421696,82.573738 54.065845,99.534660 
z"/>
<path fill="#4A4E8A" opacity="1.000000" stroke="none" 
	d="
M156.013367,156.032272 
	C187.682571,154.738892 218.857605,150.768127 248.170914,137.782166 
	C263.337982,131.063065 277.271149,122.508873 287.616821,108.982018 
	C300.818542,91.720901 299.593781,70.042786 284.621307,54.019615 
	C272.377869,40.916992 257.206207,32.629532 240.855515,26.071564 
	C239.007050,25.330172 237.209686,24.461340 235.182510,22.972647 
	C234.985840,20.902731 234.995300,19.511772 235.004761,18.120813 
	C252.891083,23.877031 269.541595,32.017071 283.359283,44.944748 
	C310.201843,70.058342 309.125122,100.669640 280.859100,124.225311 
	C261.355042,140.479156 238.323669,149.140305 214.030640,154.896851 
	C192.892731,159.905777 171.386551,161.722900 149.565872,160.943588 
	C151.638123,159.018417 156.831985,161.939728 156.013367,156.032272 
z"/>
<path fill="#AFB2D5" opacity="1.000000" stroke="none" 
	d="
M156.941574,10.927409 
	C128.080658,11.067915 99.724869,14.523526 72.332359,24.059870 
	C57.642921,29.173805 44.000198,36.310749 31.314682,45.498714 
	C31.011885,43.438919 31.022429,41.675888 31.032974,39.912857 
	C42.651413,30.162067 56.176170,23.919020 70.296959,18.890087 
	C88.302658,12.477594 106.841492,8.384672 125.929985,6.942752 
	C134.014893,6.332028 142.103149,5.765565 150.696594,5.577743 
	C153.116058,7.626802 155.028809,9.277106 156.941574,10.927409 
z"/>
<path fill="#7478A9" opacity="1.000000" stroke="none" 
	d="
M13.002048,98.998962 
	C19.263268,106.297356 25.148748,113.970848 31.923183,120.756897 
	C36.152641,124.993607 41.723232,127.891464 46.643784,131.943985 
	C44.441360,131.569199 42.348667,130.434311 40.116089,129.768356 
	C37.752625,129.063339 35.256096,128.804428 32.817684,128.350677 
	C19.691278,119.249184 9.964476,107.668236 6.474405,91.456314 
	C8.870131,93.755333 10.936090,96.377144 13.002048,98.998962 
z"/>
<path fill="#6F72A5" opacity="1.000000" stroke="none" 
	d="
M33.020653,128.609100 
	C35.256096,128.804428 37.752625,129.063339 40.116089,129.768356 
	C42.348667,130.434311 44.441360,131.569199 46.797913,132.248611 
	C55.340977,135.509933 63.619003,139.181091 72.046021,142.470596 
	C77.082184,144.436493 82.351768,145.804428 87.473801,148.011826 
	C85.630165,148.721390 83.798401,149.138916 82.034187,148.944275 
	C77.630386,148.458359 73.257271,147.694305 68.871834,147.041901 
	C68.871834,147.041901 68.418060,147.055588 68.125946,146.611176 
	C66.456421,145.809891 65.079010,145.453003 63.701603,145.096115 
	C63.701603,145.096115 63.324524,145.113525 63.086647,144.660507 
	C61.509865,143.823624 60.170967,143.439743 58.832069,143.055878 
	C50.295918,138.326431 41.759769,133.596985 33.020653,128.609100 
z"/>
<path fill="#62669C" opacity="1.000000" stroke="none" 
	d="
M106.000305,151.998749 
	C115.379936,153.004028 124.759560,154.009308 134.516800,155.369537 
	C132.918121,157.176605 130.941818,158.628723 128.965530,160.080872 
	C127.902504,160.065216 126.839485,160.049576 125.316650,159.613266 
	C123.224915,159.155319 121.593002,159.118042 119.961082,159.080780 
	C113.559082,158.114197 107.157082,157.147598 100.438141,155.710434 
	C102.080894,154.159500 104.040604,153.079132 106.000305,151.998749 
z"/>
<path fill="#6A6DA1" opacity="1.000000" stroke="none" 
	d="
M105.742104,151.713837 
	C104.040604,153.079132 102.080894,154.159500 100.063690,155.581604 
	C89.798203,153.140884 79.590218,150.358398 69.127037,147.308899 
	C73.257271,147.694305 77.630386,148.458359 82.034187,148.944275 
	C83.798401,149.138916 85.630165,148.721390 87.716599,148.289154 
	C93.829300,149.140167 99.656601,150.284531 105.742104,151.713837 
z"/>
<path fill="#575B93" opacity="1.000000" stroke="none" 
	d="
M129.342865,160.242065 
	C130.941818,158.628723 132.918121,157.176605 134.957031,155.386581 
	C141.707214,155.361649 148.394775,155.674606 155.547852,156.009918 
	C156.831985,161.939728 151.638123,159.018417 149.188965,160.812836 
	C142.528061,160.881699 136.124115,160.642487 129.342865,160.242065 
z"/>
<path fill="#8588B6" opacity="1.000000" stroke="none" 
	d="
M12.981161,71.978714 
	C12.319410,76.685913 11.657660,81.393112 10.720785,86.347626 
	C8.929170,84.046646 7.412677,81.498352 5.896183,78.950066 
	C7.068341,74.421227 8.240499,69.892380 9.821989,65.453949 
	C11.494021,66.370407 12.756724,67.196465 14.019428,68.022514 
	C13.765942,68.819000 13.512453,69.615494 12.964510,70.789772 
	C12.604110,71.272224 12.459100,71.436874 12.485399,71.471535 
	C12.627203,71.658394 12.811515,71.812988 12.981161,71.978714 
z"/>
<path fill="#A1A4CB" opacity="1.000000" stroke="none" 
	d="
M30.720446,40.053925 
	C31.022429,41.675888 31.011885,43.438919 31.003498,45.644272 
	C27.871361,49.306458 24.737064,52.526321 21.303848,55.523285 
	C20.325665,53.860977 19.646400,52.421570 18.967136,50.982166 
	C22.780731,47.386444 26.594324,43.790718 30.720446,40.053925 
z"/>
<path fill="#9396C1" opacity="1.000000" stroke="none" 
	d="
M182.010956,12.013949 
	C177.872772,11.878204 173.734589,11.742459 169.097626,11.025984 
	C168.064545,8.957711 167.530212,7.470167 166.995895,5.982623 
	C171.385406,6.233288 175.774933,6.483954 180.609802,7.195327 
	C181.373764,9.108673 181.692368,10.561312 182.010956,12.013949 
z"/>
<path fill="#8083B2" opacity="1.000000" stroke="none" 
	d="
M5.710791,79.284004 
	C7.412677,81.498352 8.929170,84.046646 10.718402,86.793076 
	C11.830952,90.845261 12.670762,94.699310 13.256310,98.776161 
	C10.936090,96.377144 8.870131,93.755333 6.469712,91.075745 
	C5.931966,87.217964 5.728681,83.417953 5.710791,79.284004 
z"/>
<path fill="#A1A5CB" opacity="1.000000" stroke="none" 
	d="
M166.635223,5.905385 
	C167.530212,7.470167 168.064545,8.957711 168.800934,10.739390 
	C165.293579,11.017313 161.584152,11.001101 157.408142,10.956149 
	C155.028809,9.277106 153.116058,7.626802 151.140167,5.673916 
	C154.845764,5.384137 158.614487,5.396941 162.781296,5.829029 
	C163.475601,6.123427 163.771835,5.998539 164.068069,5.873651 
	C164.803574,5.858482 165.539062,5.843315 166.635223,5.905385 
z"/>
<path fill="#64689E" opacity="1.000000" stroke="none" 
	d="
M223.017700,19.979683 
	C218.947891,18.989061 214.878067,17.998442 210.405212,16.582703 
	C210.007965,14.489668 210.013779,12.821750 210.019592,11.153833 
	C213.771713,12.050773 217.523819,12.947711 221.692108,14.301510 
	C222.411423,16.498806 222.714554,18.239244 223.017700,19.979683 
z"/>
<path fill="#7477A9" opacity="1.000000" stroke="none" 
	d="
M209.630997,11.051905 
	C210.013779,12.821750 210.007965,14.489668 210.006561,16.574890 
	C207.336395,16.380486 204.688446,15.475163 201.980682,15.229674 
	C198.410980,14.906044 197.719345,12.878310 197.999908,9.497001 
	C201.748657,9.708633 205.495529,10.329306 209.630997,11.051905 
z"/>
<path fill="#8589B8" opacity="1.000000" stroke="none" 
	d="
M182.373138,12.171155 
	C181.692368,10.561312 181.373764,9.108673 181.016418,7.280927 
	C184.057358,7.226560 187.137054,7.547302 190.614929,7.976089 
	C191.351517,9.755551 191.689941,11.426969 192.147781,13.688040 
	C188.615875,13.177837 185.675598,12.753099 182.373138,12.171155 
z"/>
<path fill="#979AC3" opacity="1.000000" stroke="none" 
	d="
M18.689610,51.138939 
	C19.646400,52.421570 20.325665,53.860977 21.008083,55.678997 
	C19.544470,58.283970 18.077700,60.510326 16.307018,62.479370 
	C15.629768,60.311520 15.256433,58.400982 14.883097,56.490448 
	C16.059425,54.758865 17.235754,53.027287 18.689610,51.138939 
z"/>
<path fill="#8F93BE" opacity="1.000000" stroke="none" 
	d="
M14.597148,56.718719 
	C15.256433,58.400982 15.629768,60.311520 16.008263,62.637470 
	C15.530356,64.569031 15.047290,66.085167 14.291824,67.811913 
	C12.756724,67.196465 11.494021,66.370407 10.092895,65.214951 
	C11.406713,62.239353 12.858955,59.593174 14.597148,56.718719 
z"/>
<path fill="#595D95" opacity="1.000000" stroke="none" 
	d="
M223.357941,20.128731 
	C222.714554,18.239244 222.411423,16.498806 222.059387,14.428908 
	C224.823547,14.877828 227.636597,15.656207 230.720947,17.104990 
	C230.988342,19.198351 230.984421,20.621309 230.980515,22.044266 
	C228.553070,21.455437 226.125641,20.866606 223.357941,20.128731 
z"/>
<path fill="#515590" opacity="1.000000" stroke="none" 
	d="
M231.220062,22.301954 
	C230.984421,20.621309 230.988342,19.198351 230.993347,17.349075 
	C232.115158,17.226742 233.235886,17.530729 234.680679,17.977764 
	C234.995300,19.511772 234.985840,20.902731 234.948761,22.715984 
	C233.767303,22.945402 232.613464,22.752522 231.220062,22.301954 
z"/>
<path fill="#575B93" opacity="1.000000" stroke="none" 
	d="
M120.278023,159.263031 
	C121.593002,159.118042 123.224915,159.155319 124.923103,159.543793 
	C123.524567,159.745071 122.059769,159.595169 120.278023,159.263031 
z"/>
<path fill="#6A6DA1" opacity="1.000000" stroke="none" 
	d="
M59.046021,143.314697 
	C60.170967,143.439743 61.509865,143.823624 62.921734,144.568695 
	C61.749790,144.477783 60.504883,144.025650 59.046021,143.314697 
z"/>
<path fill="#6A6DA1" opacity="1.000000" stroke="none" 
	d="
M63.931496,145.351959 
	C65.079010,145.453003 66.456421,145.809891 67.913361,146.531586 
	C66.715736,146.466858 65.438568,146.037323 63.931496,145.351959 
z"/>
<path fill="#9396C1" opacity="1.000000" stroke="none" 
	d="
M163.806351,5.845563 
	C163.771835,5.998539 163.475601,6.123427 163.099625,6.054020 
	C163.194794,5.845642 163.369720,5.831558 163.806351,5.845563 
z"/>
<path fill="#F3F3F4" opacity="1.000000" stroke="none" 
	d="
M54.138515,99.114235 
	C57.421696,82.573738 60.747482,66.475105 63.752041,50.316730 
	C64.406158,46.798939 65.989662,45.353073 69.319832,45.394363 
	C80.972076,45.538841 92.630104,45.516518 104.274673,45.899719 
	C116.306862,46.295673 125.224869,51.586567 129.666611,64.254692 
	C131.907928,52.675762 134.137390,42.018620 135.969971,31.293667 
	C136.773071,26.593517 138.538300,24.197058 143.740707,24.803461 
	C147.686020,25.263334 151.729614,24.976658 155.725769,24.875681 
	C159.524399,24.779696 160.825623,26.433725 160.069122,30.133263 
	C159.107941,34.833687 158.353348,39.576355 157.396591,44.934212 
	C163.719025,45.303928 169.613953,45.520794 175.484573,46.022205 
	C184.078674,46.756218 191.432816,49.557835 195.006378,60.119396 
	C195.879486,55.920734 196.593414,53.135677 197.011993,50.306915 
	C197.509628,46.943699 199.217606,45.305851 202.679077,45.369099 
	C214.661667,45.588024 226.684555,45.192947 238.619812,46.044556 
	C257.448792,47.388046 266.764771,60.852859 262.493225,79.432297 
	C258.172302,98.226593 244.463104,109.021919 223.845337,109.749596 
	C219.198318,109.913605 214.540558,109.773705 209.529053,109.773705 
	C208.367325,115.307419 207.021683,120.583229 206.222122,125.940536 
	C205.722565,129.287750 204.044052,130.605713 200.962418,130.631958 
	C196.297699,130.671707 191.629013,130.748428 186.968384,130.603912 
	C183.264465,130.489075 181.521301,128.767670 182.473938,124.743988 
	C183.577377,120.083420 184.328156,115.339355 185.387115,109.823647 
	C179.950073,109.823647 175.022324,109.834877 170.094650,109.820862 
	C163.646500,109.802521 162.820190,108.903160 164.040375,102.476212 
	C165.898972,92.686676 167.958496,82.935471 169.863693,73.154541 
	C171.301361,65.773865 170.621735,64.974022 163.284149,64.949013 
	C160.133423,64.938271 156.982651,64.947212 153.361618,64.947212 
	C150.886688,77.605301 148.396301,90.087227 146.021286,102.591064 
	C144.721146,109.436020 144.373459,109.816628 137.289795,109.820389 
	C133.624298,109.822334 129.958389,109.848526 126.293449,109.801529 
	C122.954094,109.758720 121.380272,108.134682 121.932274,104.708679 
	C122.428764,101.627190 122.900543,98.541725 122.969566,95.090233 
	C116.848976,101.216507 110.483002,106.942268 101.771744,108.206779 
	C93.576813,109.396347 85.259758,109.744591 76.056274,110.544731 
	C75.153511,114.923683 73.874397,120.011612 73.115692,125.175995 
	C72.550346,129.024246 70.801666,130.792664 66.903107,130.681122 
	C62.741192,130.562042 58.571308,130.735092 54.408295,130.636902 
	C49.429913,130.519516 48.356361,129.038193 49.334747,123.984749 
	C50.912628,115.834885 52.488899,107.684708 54.138515,99.114235 
M227.196777,105.989113 
	C246.505753,104.507607 260.053131,89.986000 259.981140,70.847145 
	C259.939056,59.657757 253.679016,51.060989 242.475037,50.175556 
	C228.776062,49.092945 214.926346,49.917755 200.674881,49.917755 
	C195.789917,75.042839 190.774689,100.837997 185.753708,126.662735 
	C191.768219,126.662735 197.191666,126.662735 202.541321,126.662735 
	C203.910065,119.695396 205.212479,113.065781 206.597916,106.013474 
	C213.318222,106.013474 219.787704,106.013474 227.196777,105.989113 
M80.622589,106.114075 
	C84.788399,106.081886 88.956833,106.133133 93.119560,106.002754 
	C109.258003,105.497276 121.407463,95.692024 125.466217,79.971169 
	C130.243668,61.466587 120.701180,49.093510 101.562988,49.024166 
	C91.397186,48.987331 81.231102,49.004093 71.065254,49.033157 
	C69.801826,49.036766 68.539032,49.265057 67.441994,49.372913 
	C62.386276,75.428650 57.414833,101.050056 52.425129,126.765587 
	C58.420033,126.765587 63.690502,126.765587 69.137680,126.765587 
	C70.554443,119.815079 71.932854,113.052704 73.347160,106.114288 
	C75.689056,106.114288 77.676735,106.114288 80.622589,106.114075 
M173.927368,66.107803 
	C173.760590,68.250008 173.788101,70.428627 173.394485,72.528313 
	C171.320938,83.589691 169.141113,94.631157 166.951981,105.917755 
	C172.662125,105.917755 178.104523,105.917755 183.855453,105.917755 
	C184.931351,100.366707 185.994781,94.868103 187.063278,89.370491 
	C188.170410,83.674065 189.186050,77.957787 190.410843,72.286713 
	C193.760727,56.775986 188.658020,49.935001 172.817017,49.070583 
	C168.666306,48.844090 164.493423,49.022476 160.330734,49.017536 
	C157.921936,49.014675 155.513123,49.017014 152.881271,49.017014 
	C154.299667,41.691738 155.589005,35.032993 156.915009,28.184845 
	C151.306763,28.184845 145.862885,28.184845 140.253876,28.184845 
	C135.204483,54.108196 130.174576,79.931549 125.109924,105.933334 
	C130.717758,105.933334 136.163193,105.933334 141.777420,105.933334 
	C144.688110,91.058083 147.571457,76.322647 150.471634,61.501171 
	C156.261169,61.501171 161.756012,61.135818 167.160767,61.674381 
	C169.439926,61.901493 171.529175,64.034576 173.927368,66.107803 
z"/>
<path fill="#8F93BE" opacity="1.000000" stroke="none" 
	d="
M12.987669,71.732712 
	C12.811515,71.812988 12.627203,71.658394 12.485399,71.471535 
	C12.459100,71.436874 12.604110,71.272224 12.836873,71.081085 
	C13.003691,70.994614 12.994176,71.486702 12.987669,71.732712 
z"/>
<path fill="#020202" opacity="1.000000" stroke="none" 
	d="
M226.726990,106.001297 
	C219.787704,106.013474 213.318222,106.013474 206.597916,106.013474 
	C205.212479,113.065781 203.910065,119.695396 202.541321,126.662735 
	C197.191666,126.662735 191.768219,126.662735 185.753708,126.662735 
	C190.774689,100.837997 195.789917,75.042839 200.674881,49.917755 
	C214.926346,49.917755 228.776062,49.092945 242.475037,50.175556 
	C253.679016,51.060989 259.939056,59.657757 259.981140,70.847145 
	C260.053131,89.986000 246.505753,104.507607 226.726990,106.001297 
M242.021332,69.075050 
	C241.518784,64.800537 238.713699,62.518288 234.838272,62.060490 
	C228.472473,61.308514 222.042023,61.103825 215.431213,60.654255 
	C213.191483,72.109383 211.086945,82.873024 208.975357,93.672638 
	C233.579285,95.972893 242.828384,89.260628 242.021332,69.075050 
z"/>
<path fill="#020202" opacity="1.000000" stroke="none" 
	d="
M80.143494,106.114182 
	C77.676735,106.114288 75.689056,106.114288 73.347160,106.114288 
	C71.932854,113.052704 70.554443,119.815079 69.137680,126.765587 
	C63.690502,126.765587 58.420033,126.765587 52.425129,126.765587 
	C57.414833,101.050056 62.386276,75.428650 67.441994,49.372913 
	C68.539032,49.265057 69.801826,49.036766 71.065254,49.033157 
	C81.231102,49.004093 91.397186,48.987331 101.562988,49.024166 
	C120.701180,49.093510 130.243668,61.466587 125.466217,79.971169 
	C121.407463,95.692024 109.258003,105.497276 93.119560,106.002754 
	C88.956833,106.133133 84.788399,106.081886 80.143494,106.114182 
M84.889961,61.041378 
	C83.824928,61.710762 81.996635,62.215488 81.811287,63.074654 
	C79.623215,73.216965 77.680885,83.412285 75.590363,94.017456 
	C79.771454,94.017456 83.412277,93.947998 87.049713,94.029617 
	C101.973602,94.364471 108.536575,86.249161 108.984421,71.235641 
	C109.132812,66.260925 106.622009,62.787159 101.670135,62.086330 
	C96.441116,61.346275 91.105759,61.357651 84.889961,61.041378 
z"/>
<path fill="#020202" opacity="1.000000" stroke="none" 
	d="
M173.816055,65.704544 
	C171.529175,64.034576 169.439926,61.901493 167.160767,61.674381 
	C161.756012,61.135818 156.261169,61.501171 150.471634,61.501171 
	C147.571457,76.322647 144.688110,91.058083 141.777420,105.933334 
	C136.163193,105.933334 130.717758,105.933334 125.109924,105.933334 
	C130.174576,79.931549 135.204483,54.108196 140.253876,28.184845 
	C145.862885,28.184845 151.306763,28.184845 156.915009,28.184845 
	C155.589005,35.032993 154.299667,41.691738 152.881271,49.017014 
	C155.513123,49.017014 157.921936,49.014675 160.330734,49.017536 
	C164.493423,49.022476 168.666306,48.844090 172.817017,49.070583 
	C188.658020,49.935001 193.760727,56.775986 190.410843,72.286713 
	C189.186050,77.957787 188.170410,83.674065 187.063278,89.370491 
	C185.994781,94.868103 184.931351,100.366707 183.855453,105.917755 
	C178.104523,105.917755 172.662125,105.917755 166.951981,105.917755 
	C169.141113,94.631157 171.320938,83.589691 173.394485,72.528313 
	C173.788101,70.428627 173.760590,68.250008 173.816055,65.704544 
z"/>
<path fill="#F3F3F4" opacity="1.000000" stroke="none" 
	d="
M242.054626,69.511017 
	C242.828384,89.260628 233.579285,95.972893 208.975357,93.672638 
	C211.086945,82.873024 213.191483,72.109383 215.431213,60.654255 
	C222.042023,61.103825 228.472473,61.308514 234.838272,62.060490 
	C238.713699,62.518288 241.518784,64.800537 242.054626,69.511017 
M214.200623,90.765930 
	C217.017578,90.670647 219.837921,90.633629 222.650894,90.469856 
	C234.090897,89.803841 237.075821,84.919403 238.892136,73.447716 
	C239.730286,68.154007 237.568253,65.406906 232.318527,65.046570 
	C227.724716,64.731247 223.092148,64.980774 217.967407,64.980774 
	C216.446869,73.547081 214.949326,81.983795 214.200623,90.765930 
z"/>
<path fill="#F3F3F4" opacity="1.000000" stroke="none" 
	d="
M85.353409,61.041073 
	C91.105759,61.357651 96.441116,61.346275 101.670135,62.086330 
	C106.622009,62.787159 109.132812,66.260925 108.984421,71.235641 
	C108.536575,86.249161 101.973602,94.364471 87.049713,94.029617 
	C83.412277,93.947998 79.771454,94.017456 75.590363,94.017456 
	C77.680885,83.412285 79.623215,73.216965 81.811287,63.074654 
	C81.996635,62.215488 83.824928,61.710762 85.353409,61.041073 
M103.781006,66.554405 
	C98.064384,65.961647 92.352722,65.304443 86.624359,64.864540 
	C85.970299,64.814308 84.744812,65.879623 84.591949,66.599243 
	C82.918739,74.476326 81.406212,82.387550 79.693298,91.085251 
	C84.162544,90.757538 87.806313,90.738548 91.366425,90.183266 
	C102.512764,88.444748 108.384727,77.896637 103.781006,66.554405 
z"/>
<path fill="#7A7DB4" opacity="1.000000" stroke="none" 
	d="
M213.826202,90.593216 
	C214.949326,81.983795 216.446869,73.547081 217.967407,64.980774 
	C223.092148,64.980774 227.724716,64.731247 232.318527,65.046570 
	C237.568253,65.406906 239.730286,68.154007 238.892136,73.447716 
	C237.075821,84.919403 234.090897,89.803841 222.650894,90.469856 
	C219.837921,90.633629 217.017578,90.670647 213.826202,90.593216 
z"/>
<path fill="#7A7EB5" opacity="1.000000" stroke="none" 
	d="
M104.073807,66.832291 
	C108.384727,77.896637 102.512764,88.444748 91.366425,90.183266 
	C87.806313,90.738548 84.162544,90.757538 79.693298,91.085251 
	C81.406212,82.387550 82.918739,74.476326 84.591949,66.599243 
	C84.744812,65.879623 85.970299,64.814308 86.624359,64.864540 
	C92.352722,65.304443 98.064384,65.961647 104.073807,66.832291 
z"/>
</svg>