<?xml version="1.0" encoding="utf-8"?>
<!-- Generator: Adobe Illustrator 16.0.3, SVG Export Plug-In . SVG Version: 6.00 Build 0)  -->
<!DOCTYPE svg PUBLIC "-//W3C//DTD SVG 1.1//EN" "http://www.w3.org/Graphics/SVG/1.1/DTD/svg11.dtd" [
	<!ENTITY ns_flows "http://ns.adobe.com/Flows/1.0/">
	<!ENTITY ns_extend "http://ns.adobe.com/Extensibility/1.0/">
	<!ENTITY ns_ai "http://ns.adobe.com/AdobeIllustrator/10.0/">
	<!ENTITY ns_graphs "http://ns.adobe.com/Graphs/1.0/">
]>
<svg version="1.1" id="Layer_1" xmlns:x="&ns_extend;" xmlns:i="&ns_ai;" xmlns:graph="&ns_graphs;"
	 xmlns="http://www.w3.org/2000/svg" xmlns:xlink="http://www.w3.org/1999/xlink" xmlns:a="http://ns.adobe.com/AdobeSVGViewerExtensions/3.0/"
	 x="0px" y="0px" width="2101px" height="2048px" viewBox="0 0 2101 2048" style="enable-background:new 0 0 2101 2048;"
	 xml:space="preserve">
<g>
	<path style="fill-rule:evenodd;clip-rule:evenodd;fill:#00005B;" d="M2104,366c0,440,0,880,0,1320
		c-2.7,4.544-2.082,9.461-1.613,14.361c-0.192,4.58-1.064,9.153-0.166,13.747c-0.384,14.376-3.091,28.416-6.002,42.44
		c-32.064,154.505-163.033,273.722-320.22,291.45c-9.452-0.997-18.663,1.371-27.999,2.001c-462.667,0-925.333,0-1388,0
		c-9.326-0.617-18.523-2.984-27.964-2.041c-11.552-1.466-23.028-3.326-34.44-5.709C146.625,2010.724,29.99,1886.381,7.536,1733.179
		C5.912,1722.098,6.154,1710.668,2,1700c0-448.667,0-897.333,0-1346c1.369-6.119,3.22-12.138,3.661-18.445
		c0.674-9.641,2.137-19.177,4.071-28.636C35.774,179.608,108.074,88.773,225.658,33.996C261.855,17.134,300.41,8.436,339.953,3.87
		c3.284-0.046,6.568-0.092,9.853-0.138C355.324,4.279,360.762,4.073,366,2c458.667,0,917.333,0,1376,0
		c5.236,2.085,10.677,2.274,16.194,1.732c3.284,0.047,6.568,0.093,9.852,0.14c10.87,1.577,21.843,2.647,32.595,4.811
		c108.283,21.786,192.055,79.382,250.156,173.322c29.491,47.683,46.932,99.761,51.406,155.902
		c-0.825,4.596-0.031,9.173,0.156,13.757C2101.891,356.559,2101.369,361.46,2104,366z M502.314,986.209
		c0,146.979-0.001,293.957,0.002,440.936c0,3.332-0.166,6.681,0.1,9.994c0.638,7.971,3.37,10.604,11.168,11.061
		c1.993,0.117,3.998,0.044,5.998,0.044c51.658,0.002,103.317,0.003,154.977-0.003c2.665,0,5.359,0.166,7.989-0.159
		c5.753-0.712,9.025-3.975,9.636-9.659c0.318-2.968,0.123-5.992,0.123-8.991c0.004-71.323,0.003-142.646,0.003-213.969
		c0-16.997-0.035-33.995,0.015-50.992c0.027-9.069,0.094-9.178,9.517-9.065c10.329,0.123,20.656,0.444,30.982,0.733
		c53.03,1.489,105.957,0.904,158.438-8.173c37.899-6.554,74.896-16.294,109.364-33.741
		c68.815-34.833,119.065-86.798,145.118-160.332c14.876-41.985,19.397-85.586,18.321-129.882
		c-0.94-38.69-8.551-76.132-23.178-111.898c-30.541-74.684-85.398-125.047-158.825-156.208
		c-55.081-23.376-113.112-32.542-172.498-33.8c-34.31-0.727-68.658-0.43-102.975,0.182c-61.977,1.105-123.941,2.863-185.914,4.19
		c-17.685,0.379-18.359,0.803-18.36,18.799C502.313,692.253,502.314,839.23,502.314,986.209z M1473.646,838.85
		c-0.523-7.116-0.941-14.705-1.668-22.266c-1.688-17.576-4.088-35.075-9.373-51.967c-3.884-12.411-9.895-16.458-22.919-16.476
		c-48.98-0.066-97.96-0.06-146.94-0.025c-8.993,0.007-11.277,2.302-10.85,11.313c0.395,8.313,1.521,16.59,1.903,24.902
		c2.254,48.929,3.724,97.9,3.836,146.866c0.382,165.932,0.174,331.865,0.195,497.798c0.001,3.331-0.19,6.687,0.132,9.989
		c0.625,6.404,4.471,10.239,10.875,10.954c2.635,0.294,5.325,0.121,7.99,0.121c52.979,0.004,105.957,0.006,158.936,0
		c18.763-0.002,19.954-1.162,19.955-19.607c0.006-117.952,0.003-235.904,0.004-353.856c0-25.656,0.211-51.315-0.152-76.967
		c-0.088-6.269,1.849-10.623,6.318-14.791c11.33-10.565,23.962-19.149,38.034-25.449c40.202-17.996,82.413-28.123,126.278-31.573
		c14.626-1.151,29.269-1.377,43.935-1.458c9.609-0.053,12.008-2.6,12.021-11.895c0.083-55.977,0.091-111.954-0.01-167.932
		c-0.018-9.877-3.401-12.903-13.448-13.008c-18.388-0.192-36.593,1.644-54.58,5.4c-58.47,12.211-107.571,41.6-150.555,82.219
		C1487.301,827.062,1480.687,832.609,1473.646,838.85z"/>
	<path style="fill-rule:evenodd;clip-rule:evenodd;fill:#FEFEFE;" d="M340,2c0.045,0.625,0.029,1.248-0.047,1.87
		c-39.543,4.565-78.098,13.264-114.295,30.126C108.074,88.773,35.774,179.608,9.732,306.919c-1.935,9.459-3.397,18.995-4.071,28.636
		C5.22,341.862,3.369,347.881,2,354C2,236.837,2,119.673,2,2"/>
	<path style="fill-rule:evenodd;clip-rule:evenodd;fill:#8282AF;" d="M332,2050c0.012-0.681,0.024-1.361,0.036-2.041
		c9.44-0.943,18.638,1.424,27.964,2.041C350.667,2050,341.333,2050,332,2050z"/>
	<path style="fill-rule:evenodd;clip-rule:evenodd;fill:#8282AF;" d="M1775.999,2047.999c0.001,0.667,0.001,1.334,0.001,2.001
		c-9.333,0-18.667,0-28,0C1757.336,2049.37,1766.547,2047.002,1775.999,2047.999z"/>
	<path style="fill-rule:evenodd;clip-rule:evenodd;fill:#63639B;" d="M366,2c-5.238,2.073-10.676,2.279-16.193,1.733
		C349.993,3.17,350.058,2.592,350,2C355.333,2,360.667,2,366,2z"/>
	<path style="fill-rule:evenodd;clip-rule:evenodd;fill:#63639B;" d="M1758.194,3.732C1752.677,4.274,1747.236,4.085,1742,2
		c5.333,0,10.667,0,16,0C1757.945,2.591,1758.01,3.169,1758.194,3.732z"/>
	<path style="fill-rule:evenodd;clip-rule:evenodd;fill:#AEAECB;" d="M2102.203,337.907c0.592,0.165,1.191,0.196,1.797,0.093
		c0,4.667,0,9.333,0,14c-0.496-0.36-1.043-0.473-1.641-0.336C2102.172,347.08,2101.378,342.503,2102.203,337.907z"/>
	<path style="fill-rule:evenodd;clip-rule:evenodd;fill:#4A4A8B;" d="M2102.359,351.664c0.598-0.137,1.145-0.024,1.641,0.336
		c0,4.667,0,9.333,0,14C2101.369,361.46,2101.891,356.559,2102.359,351.664z"/>
	<path style="fill-rule:evenodd;clip-rule:evenodd;fill:#434386;" d="M2102.387,1700.361c-0.469-4.9-1.087-9.817,1.613-14.361
		c0,4.667,0,9.333,0,14C2103.518,1700.365,2102.979,1700.486,2102.387,1700.361z"/>
	<path style="fill-rule:evenodd;clip-rule:evenodd;fill:#A6A6C6;" d="M2102.387,1700.361c0.593,0.125,1.131,0.004,1.613-0.361
		c0,4.667,0,9.333,0,14l-0.895-0.018l-0.885,0.126C2101.322,1709.515,2102.194,1704.941,2102.387,1700.361z"/>
	<path style="fill-rule:evenodd;clip-rule:evenodd;fill:#BFBFD5;" d="M350,2c0.058,0.592-0.007,1.17-0.193,1.733
		c-3.285,0.045-6.569,0.091-9.854,0.137C340.029,3.248,340.045,2.625,340,2C343.333,2,346.667,2,350,2z"/>
	<path style="fill-rule:evenodd;clip-rule:evenodd;fill:#BFBFD5;" d="M1758.194,3.732C1758.01,3.169,1757.945,2.591,1758,2
		c3.333,0,6.667,0,10,0c-0.046,0.625-0.03,1.249,0.046,1.872C1764.763,3.825,1761.479,3.779,1758.194,3.732z"/>
	<path style="fill-rule:evenodd;clip-rule:evenodd;fill:#9898FE;" d="M502.314,986.209c0-146.979-0.002-293.956,0.001-440.935
		c0.001-17.996,0.676-18.42,18.36-18.799c61.973-1.327,123.938-3.085,185.914-4.19c34.316-0.611,68.665-0.908,102.975-0.182
		c59.386,1.258,117.417,10.424,172.498,33.8c73.427,31.161,128.284,81.524,158.825,156.208
		c14.627,35.767,22.237,73.208,23.178,111.898c1.076,44.296-3.445,87.896-18.321,129.882
		c-26.053,73.534-76.303,125.499-145.118,160.332c-34.468,17.447-71.465,27.188-109.364,33.741
		c-52.481,9.077-105.408,9.662-158.438,8.173c-10.326-0.289-20.653-0.61-30.982-0.733c-9.423-0.112-9.489-0.004-9.517,9.065
		c-0.05,16.997-0.015,33.995-0.015,50.992c0,71.323,0.001,142.646-0.003,213.969c0,2.999,0.195,6.023-0.123,8.991
		c-0.61,5.685-3.883,8.947-9.636,9.659c-2.63,0.325-5.324,0.159-7.989,0.159c-51.659,0.006-103.318,0.005-154.977,0.003
		c-2,0-4.005,0.073-5.998-0.044c-7.798-0.456-10.53-3.09-11.168-11.061c-0.266-3.313-0.1-6.662-0.1-9.994
		C502.313,1280.166,502.314,1133.188,502.314,986.209z M693.519,844.002c0,44.659-0.002,89.317,0.001,133.977
		c0.001,12.895-0.001,13.03,12.809,13.656c23.313,1.14,46.649,0.468,69.976,0.585c24.44,0.122,48.558-2.807,72.286-8.43
		c24.365-5.774,48.24-12.892,69.069-27.745c24.061-17.158,42.537-38.36,49.957-67.639c6.37-25.141,8.431-50.74,3.911-76.321
		c-8.468-47.931-34.774-81.941-80.538-100.216c-29.493-11.777-60.237-16.959-91.777-17.157c-30.983-0.195-61.974,0.587-92.96,0.963
		c-2.664,0.032-5.325,0.284-7.989,0.346c-3.309,0.077-4.776,1.757-4.716,5.007c0.05,2.665-0.026,5.332-0.026,7.998
		C693.518,754.018,693.519,799.01,693.519,844.002z"/>
	<path style="fill-rule:evenodd;clip-rule:evenodd;fill:#9898FE;" d="M1473.646,838.85c7.04-6.24,13.654-11.788,19.918-17.707
		c42.983-40.619,92.085-70.008,150.555-82.219c17.987-3.757,36.192-5.593,54.58-5.4c10.047,0.104,13.431,3.131,13.448,13.008
		c0.101,55.978,0.093,111.955,0.01,167.932c-0.014,9.295-2.412,11.842-12.021,11.895c-14.666,0.081-29.309,0.307-43.935,1.458
		c-43.865,3.45-86.076,13.577-126.278,31.573c-14.072,6.3-26.704,14.884-38.034,25.449c-4.47,4.168-6.406,8.522-6.318,14.791
		c0.363,25.651,0.152,51.311,0.152,76.967c-0.001,117.952,0.002,235.904-0.004,353.856c-0.001,18.445-1.192,19.605-19.955,19.607
		c-52.979,0.006-105.957,0.004-158.936,0c-2.665,0-5.355,0.173-7.99-0.121c-6.404-0.715-10.25-4.55-10.875-10.954
		c-0.322-3.303-0.131-6.658-0.132-9.989c-0.021-165.933,0.187-331.866-0.195-497.798c-0.112-48.966-1.582-97.938-3.836-146.866
		c-0.383-8.313-1.509-16.59-1.903-24.902c-0.428-9.011,1.856-11.306,10.85-11.313c48.98-0.034,97.96-0.041,146.94,0.025
		c13.024,0.018,19.035,4.064,22.919,16.476c5.285,16.892,7.685,34.391,9.373,51.967
		C1472.705,824.145,1473.123,831.733,1473.646,838.85z"/>
	<path style="fill-rule:evenodd;clip-rule:evenodd;fill:#00005C;" d="M693.519,844.002c0-44.992-0.001-89.984,0.002-134.977
		c0-2.666,0.076-5.333,0.026-7.998c-0.061-3.25,1.407-4.93,4.716-5.007c2.664-0.062,5.325-0.313,7.989-0.346
		c30.986-0.376,61.977-1.158,92.96-0.963c31.54,0.198,62.284,5.38,91.777,17.157c45.764,18.274,72.07,52.285,80.538,100.216
		c4.52,25.581,2.459,51.181-3.911,76.321c-7.42,29.278-25.896,50.48-49.957,67.639c-20.829,14.854-44.704,21.971-69.069,27.745
		c-23.729,5.623-47.846,8.552-72.286,8.43c-23.326-0.117-46.662,0.555-69.976-0.585c-12.81-0.626-12.808-0.762-12.809-13.656
		C693.517,933.319,693.519,888.661,693.519,844.002z"/>
</g>
</svg>
