<svg version="1.1" id="Layer_1" xmlns="http://www.w3.org/2000/svg" xmlns:xlink="http://www.w3.org/1999/xlink" x="0px" y="0px"
	 width="100%" viewBox="0 0 476 132" enable-background="new 0 0 476 132" xml:space="preserve">
<path fill="#FEFEFE" opacity="1.000000" stroke="none" 
	d="
M1.000000,53.000000 
	C1.000000,35.672977 1.000000,18.345957 1.000000,1.014201 
	C159.602585,1.009467 318.205170,1.009467 476.903870,1.009467 
	C476.903870,44.919704 476.903870,88.839691 476.903870,132.879837 
	C318.333405,132.879837 159.666718,132.879837 1.000000,132.879837 
	C1.000000,111.254997 1.000000,89.596153 1.325741,67.609543 
	C2.134356,68.855240 2.617229,70.428726 3.057503,72.381104 
	C4.730585,76.150612 6.446268,79.541214 8.320740,83.242905 
	C13.762721,87.652519 19.735773,87.303925 25.575153,86.670914 
	C26.040672,80.485466 26.472815,74.743530 27.111740,68.727615 
	C29.892029,62.960876 34.595356,60.067173 40.481037,58.088387 
	C46.297791,58.060467 51.649376,57.992813 57.462280,58.008194 
	C62.077915,58.078568 66.237511,58.193916 70.385254,58.022484 
	C76.235085,57.780701 81.015961,54.096413 81.996941,48.338425 
	C82.795959,43.648460 82.587021,38.786774 82.896370,33.542683 
	C82.733978,28.384041 82.500259,23.683947 82.318863,18.591240 
	C81.663902,13.088707 78.757797,9.778865 73.752533,7.692992 
	C67.335663,6.658104 61.172081,5.910380 54.572884,5.091413 
	C50.341084,5.397776 46.482891,5.470352 42.763660,6.226472 
	C37.548084,7.286801 31.711708,8.409905 30.381557,14.611085 
	C29.424210,19.074265 29.954489,23.869558 30.003857,28.514769 
	C30.008602,28.961174 31.309942,29.393797 32.473160,29.898449 
	C39.626812,29.918587 46.316677,29.873091 53.444756,29.898304 
	C54.675896,30.533291 55.468826,31.097567 56.261753,31.661840 
	C55.441360,32.230042 54.671474,33.177696 53.791046,33.294891 
	C51.210915,33.638344 48.586788,33.651264 45.540382,33.637936 
	C39.092117,33.572685 33.083366,33.663170 26.641615,33.593735 
	C25.221087,33.394276 24.233744,33.326038 23.245996,33.319546 
	C10.551976,33.236080 5.802020,36.875957 2.542840,49.078632 
	C2.182727,50.426929 1.521549,51.694820 1.000000,53.000000 
M64.070702,90.723381 
	C61.443211,90.646164 58.815720,90.568947 56.094910,89.709038 
	C56.809475,88.796745 57.358307,87.395973 58.276680,87.084381 
	C59.725277,86.592911 61.422089,86.833023 63.929985,86.901611 
	C67.955849,86.863998 71.981705,86.826385 76.915024,86.923302 
	C80.277695,86.885529 83.640373,86.847763 87.914543,86.945450 
	C90.071419,86.963943 92.228424,87.007492 94.385132,86.995735 
	C98.909279,86.971077 103.567131,86.064835 105.444397,81.732529 
	C107.889458,76.089890 109.154625,69.935989 111.074013,63.111282 
	C110.979881,60.410065 110.885750,57.708847 110.908455,54.230350 
	C110.000748,50.800041 109.093040,47.369736 108.102684,43.212357 
	C106.789383,38.981228 104.497101,35.636578 99.102097,34.032379 
	C83.601547,33.583565 87.197853,31.979475 86.824463,45.503887 
	C86.819977,45.666519 86.856033,45.830269 86.531685,46.630051 
	C83.960617,56.719616 79.014702,61.101986 68.082024,62.030712 
	C63.724915,62.072567 59.367809,62.114426 54.083031,62.024837 
	C50.293121,62.022167 46.497879,61.889603 42.714455,62.044926 
	C35.688583,62.333374 30.261950,67.696854 29.987062,74.636505 
	C29.850412,78.086349 30.045137,81.549316 29.974594,85.925880 
	C30.012941,89.952103 30.051289,93.978317 29.965071,98.832718 
	C29.630877,104.399101 31.727757,108.529404 37.573196,111.219574 
	C39.311760,111.855141 41.050320,112.490715 43.356606,113.655624 
	C46.570427,114.114838 49.784248,114.574051 53.902596,115.270699 
	C56.887001,115.185440 59.885178,115.254326 62.853519,114.989212 
	C78.740112,113.570374 85.451401,105.182884 82.226463,90.276779 
	C80.205917,90.436096 78.111282,90.601265 75.166580,90.436104 
	C71.760010,90.572884 68.353447,90.709656 64.070702,90.723381 
M161.537796,87.164665 
	C172.285706,89.780869 181.087143,86.581856 185.839279,77.527924 
	C192.487442,64.861626 191.374710,52.199448 184.150116,40.106087 
	C181.266220,35.278675 176.508362,32.709797 170.913727,32.218624 
	C162.561554,31.485357 154.807648,33.364189 147.608826,37.826176 
	C144.534363,39.731792 143.486069,42.058945 143.510101,45.605347 
	C143.645493,65.567093 143.575897,85.530235 143.575699,105.492897 
	C143.575623,113.015541 143.928604,113.388885 152.297318,114.189102 
	C152.297318,104.138634 152.297318,94.131187 152.297318,83.704277 
	C155.517181,84.938454 158.125275,85.938126 161.537796,87.164665 
M245.108444,60.500008 
	C245.108444,51.549194 245.108444,42.598385 245.108444,33.437515 
	C242.163132,33.437515 239.765762,33.437515 236.891785,33.437515 
	C236.891785,35.341473 236.891785,36.967518 236.891754,38.593559 
	C236.891556,50.258598 236.938965,61.924072 236.832611,73.588142 
	C236.818848,75.096764 236.492340,77.290604 235.489960,77.988899 
	C229.608963,82.085869 223.059769,83.662460 216.129654,81.070862 
	C209.460846,78.576973 208.652603,72.857277 208.820236,66.685310 
	C208.951401,61.856228 208.845642,57.020710 208.845490,52.188053 
	C208.845306,45.645145 208.845444,39.102234 208.845444,32.166286 
	C205.541855,33.323902 202.909515,34.246307 200.154617,35.211658 
	C200.154617,46.789631 200.116837,58.114491 200.164886,69.438988 
	C200.216187,81.524170 207.702957,88.726341 219.872986,87.754753 
	C225.568558,87.300049 231.166153,85.618286 237.786819,84.297394 
	C236.927017,89.808914 237.057953,95.551750 235.046143,100.406647 
	C231.556244,108.828430 222.181335,107.808907 215.281845,110.231346 
	C215.189651,114.316147 217.033035,115.441238 220.318649,114.688362 
	C223.234238,114.020264 226.221268,113.553009 229.040451,112.595665 
	C237.741867,109.640816 243.898651,104.237213 244.330551,94.442154 
	C244.814285,83.471336 244.867783,72.481544 245.108444,60.500008 
M314.623810,38.811066 
	C321.752350,38.957672 325.275452,41.476780 326.076965,48.517193 
	C326.844910,55.262661 326.598145,62.129284 326.692413,68.944115 
	C326.774292,74.865204 326.709442,80.788330 326.709442,86.647369 
	C329.819427,86.647369 332.217346,86.647369 335.008911,86.647369 
	C335.008911,74.324593 335.090302,62.359646 334.986816,50.396305 
	C334.875641,37.543545 325.884979,30.569176 313.319305,33.761517 
	C308.907288,34.882412 304.717407,36.877659 300.067017,38.607204 
	C300.067017,26.462627 300.067017,14.378324 300.067017,2.260436 
	C291.892609,3.106029 291.708466,3.303142 291.708679,10.810143 
	C291.709351,34.296741 291.709595,57.783344 291.709961,81.269943 
	C291.709991,83.044182 291.709961,84.818420 291.709961,86.704910 
	C294.700958,86.704910 297.099518,86.704910 300.009766,86.704910 
	C300.009766,75.457275 300.009796,64.505951 300.009735,53.554626 
	C300.009674,44.180237 300.880798,42.942677 309.910614,39.772835 
	C311.152924,39.336735 312.478851,39.139008 314.623810,38.811066 
M390.939270,71.291985 
	C393.519928,63.655190 393.799835,56.033939 391.041046,48.347210 
	C387.482483,38.432076 379.206757,32.258923 368.875732,31.983007 
	C358.974915,31.718582 350.046692,37.509499 346.291046,47.042675 
	C342.346039,57.056458 343.135498,66.958946 348.243103,76.366142 
	C351.014801,81.471054 355.185608,85.187050 360.950562,86.906754 
	C373.733368,90.719872 384.376404,85.441017 390.939270,71.291985 
M410.021637,55.513870 
	C410.021332,52.181206 410.212616,48.834248 409.965332,45.520008 
	C409.731903,42.391727 410.953644,40.723938 413.768097,39.403351 
	C426.567505,33.397675 436.153778,39.265274 436.156799,53.269043 
	C436.159210,64.383133 436.157288,75.497223 436.157288,86.711914 
	C439.303772,86.711914 441.869598,86.711914 444.776642,86.711914 
	C444.776642,72.610092 445.046692,58.806461 444.652954,45.021786 
	C444.478577,38.916485 440.240326,35.030190 434.555511,33.310097 
	C423.893158,30.083906 414.262817,33.180958 405.041870,38.598366 
	C402.436737,40.128891 401.436920,41.931965 401.486115,45.000587 
	C401.670410,56.495476 401.559784,67.995094 401.559723,79.492943 
	C401.559723,81.914658 401.559723,84.336372 401.559723,86.700768 
	C404.702942,86.700768 407.126038,86.700768 410.021667,86.700768 
	C410.021667,76.428009 410.021667,66.468376 410.021637,55.513870 
M276.965088,38.420872 
	C281.538147,38.718735 280.592072,36.038315 279.854065,32.934647 
	C276.606415,32.934647 273.527130,32.934647 270.107178,32.934647 
	C270.107178,27.055031 270.107178,21.611238 270.107178,16.133591 
	C262.311432,16.982573 261.905426,17.407423 261.903107,24.381725 
	C261.902161,27.173422 261.902924,29.965117 261.902924,32.880222 
	C259.649902,33.069927 257.876434,33.219254 255.971191,33.379673 
	C255.971191,35.082165 255.971191,36.606163 255.971191,38.079037 
	C258.100739,38.392456 259.847595,38.649548 261.901642,38.951855 
	C261.901642,50.332047 261.884705,61.455162 261.906433,72.578201 
	C261.928040,83.648750 269.270477,89.508018 281.985229,86.798004 
	C279.687195,85.088020 278.502106,83.605957 277.033966,83.230431 
	C273.194305,82.248329 270.494751,80.144455 270.429779,76.190819 
	C270.225739,63.775780 270.354675,51.355259 270.354675,38.422020 
	C272.488861,38.422020 274.289673,38.422020 276.965088,38.420872 
z"/>
<path fill="#3777AC" opacity="1.000000" stroke="none" 
	d="
M27.074614,33.753654 
	C33.083366,33.663170 39.092117,33.572685 45.528149,33.943092 
	C33.350922,46.358364 20.786320,58.355579 8.076281,70.196678 
	C6.888118,71.303619 4.780706,71.423843 3.100103,72.002205 
	C2.617229,70.428726 2.134356,68.855240 1.325741,67.140884 
	C1.000000,63.638714 1.000000,60.277424 1.382177,56.454510 
	C3.243084,55.421680 5.038858,55.206268 6.146808,54.218979 
	C11.545732,49.408005 16.802622,44.434231 22.018192,39.422756 
	C23.838650,37.673534 25.396717,35.651241 27.074614,33.753654 
z"/>
<path fill="#4684B8" opacity="1.000000" stroke="none" 
	d="
M26.641615,33.593735 
	C25.396717,35.651241 23.838650,37.673534 22.018192,39.422756 
	C16.802622,44.434231 11.545732,49.408005 6.146808,54.218979 
	C5.038858,55.206268 3.243084,55.421680 1.382177,55.996441 
	C1.000000,55.250000 1.000000,54.500000 1.000000,53.375000 
	C1.521549,51.694820 2.182727,50.426929 2.542840,49.078632 
	C5.802020,36.875957 10.551976,33.236080 23.245996,33.319546 
	C24.233744,33.326038 25.221087,33.394276 26.641615,33.593735 
z"/>
<path fill="#686868" opacity="1.000000" stroke="none" 
	d="
M161.135574,87.051239 
	C158.125275,85.938126 155.517181,84.938454 152.297318,83.704277 
	C152.297318,94.131187 152.297318,104.138634 152.297318,114.189102 
	C143.928604,113.388885 143.575623,113.015541 143.575699,105.492897 
	C143.575897,85.530235 143.645493,65.567093 143.510101,45.605347 
	C143.486069,42.058945 144.534363,39.731792 147.608826,37.826176 
	C154.807648,33.364189 162.561554,31.485357 170.913727,32.218624 
	C176.508362,32.709797 181.266220,35.278675 184.150116,40.106087 
	C191.374710,52.199448 192.487442,64.861626 185.839279,77.527924 
	C181.087143,86.581856 172.285706,89.780869 161.135574,87.051239 
M171.385681,38.458969 
	C166.056107,38.964249 160.656509,39.128277 155.442749,40.198021 
	C154.014877,40.490990 152.230270,43.468704 152.170151,45.266594 
	C151.847229,54.921959 151.983093,64.594070 152.059601,74.259621 
	C152.069244,75.476227 152.262756,77.254036 153.050186,77.810074 
	C157.966049,81.281288 163.528549,83.195457 169.506302,81.729622 
	C175.076004,80.363838 178.202957,76.051422 178.913223,70.592949 
	C179.659103,64.860558 180.095688,58.977253 179.668121,53.234295 
	C179.249466,47.610828 177.687820,42.019024 171.385681,38.458969 
z"/>
<path fill="#6B6B6B" opacity="1.000000" stroke="none" 
	d="
M245.108459,61.000008 
	C244.867783,72.481544 244.814285,83.471336 244.330551,94.442154 
	C243.898651,104.237213 237.741867,109.640816 229.040451,112.595665 
	C226.221268,113.553009 223.234238,114.020264 220.318649,114.688362 
	C217.033035,115.441238 215.189651,114.316147 215.281845,110.231346 
	C222.181335,107.808907 231.556244,108.828430 235.046143,100.406647 
	C237.057953,95.551750 236.927017,89.808914 237.786819,84.297394 
	C231.166153,85.618286 225.568558,87.300049 219.872986,87.754753 
	C207.702957,88.726341 200.216187,81.524170 200.164886,69.438988 
	C200.116837,58.114491 200.154617,46.789631 200.154617,35.211658 
	C202.909515,34.246307 205.541855,33.323902 208.845444,32.166286 
	C208.845444,39.102234 208.845306,45.645145 208.845490,52.188053 
	C208.845642,57.020710 208.951401,61.856228 208.820236,66.685310 
	C208.652603,72.857277 209.460846,78.576973 216.129654,81.070862 
	C223.059769,83.662460 229.608963,82.085869 235.489960,77.988899 
	C236.492340,77.290604 236.818848,75.096764 236.832611,73.588142 
	C236.938965,61.924072 236.891556,50.258598 236.891754,38.593559 
	C236.891785,36.967518 236.891785,35.341473 236.891785,33.437515 
	C239.765762,33.437515 242.163132,33.437515 245.108444,33.437515 
	C245.108444,42.598385 245.108444,51.549194 245.108459,61.000008 
z"/>
<path fill="#666666" opacity="1.000000" stroke="none" 
	d="
M314.194946,38.820992 
	C312.478851,39.139008 311.152924,39.336735 309.910614,39.772835 
	C300.880798,42.942677 300.009674,44.180237 300.009735,53.554626 
	C300.009796,64.505951 300.009766,75.457275 300.009766,86.704910 
	C297.099518,86.704910 294.700958,86.704910 291.709961,86.704910 
	C291.709961,84.818420 291.709991,83.044182 291.709961,81.269943 
	C291.709595,57.783344 291.709351,34.296741 291.708679,10.810143 
	C291.708466,3.303142 291.892609,3.106029 300.067017,2.260436 
	C300.067017,14.378324 300.067017,26.462627 300.067017,38.607204 
	C304.717407,36.877659 308.907288,34.882412 313.319305,33.761517 
	C325.884979,30.569176 334.875641,37.543545 334.986816,50.396305 
	C335.090302,62.359646 335.008911,74.324593 335.008911,86.647369 
	C332.217346,86.647369 329.819427,86.647369 326.709442,86.647369 
	C326.709442,80.788330 326.774292,74.865204 326.692413,68.944115 
	C326.598145,62.129284 326.844910,55.262661 326.076965,48.517193 
	C325.275452,41.476780 321.752350,38.957672 314.194946,38.820992 
z"/>
<path fill="#3873A5" opacity="1.000000" stroke="none" 
	d="
M3.057503,72.381104 
	C4.780706,71.423843 6.888118,71.303619 8.076281,70.196678 
	C20.786320,58.355579 33.350922,46.358364 45.967663,34.098827 
	C48.586788,33.651264 51.210915,33.638344 53.791046,33.294891 
	C54.671474,33.177696 55.441360,32.230042 56.261753,31.661840 
	C55.468826,31.097567 54.675896,30.533291 53.444077,29.532362 
	C53.763287,27.782734 54.265656,26.199102 55.321617,25.201378 
	C61.477730,19.384819 67.763702,13.705699 74.005814,7.980156 
	C78.757797,9.778865 81.663902,13.088707 81.948715,18.620872 
	C78.896339,20.983215 76.084236,22.721336 73.669380,24.899813 
	C65.093155,32.636543 56.555786,40.422478 48.211224,48.406670 
	C45.179638,51.307335 42.730663,54.816906 40.015865,58.048656 
	C34.595356,60.067173 29.892029,62.960876 26.736231,68.727577 
	C24.453012,69.817368 22.503740,70.334610 21.097198,71.504410 
	C16.675755,75.181656 12.458353,79.104233 8.161949,82.931824 
	C6.446268,79.541214 4.730585,76.150612 3.057503,72.381104 
z"/>
<path fill="#6C6C6C" opacity="1.000000" stroke="none" 
	d="
M390.831787,71.669182 
	C384.376404,85.441017 373.733368,90.719872 360.950562,86.906754 
	C355.185608,85.187050 351.014801,81.471054 348.243103,76.366142 
	C343.135498,66.958946 342.346039,57.056458 346.291046,47.042675 
	C350.046692,37.509499 358.974915,31.718582 368.875732,31.983007 
	C379.206757,32.258923 387.482483,38.432076 391.041046,48.347210 
	C393.799835,56.033939 393.519928,63.655190 390.831787,71.669182 
M354.590179,70.558922 
	C357.563751,79.239395 361.568787,82.862686 368.227020,82.895920 
	C375.006317,82.929771 380.520691,79.681541 381.665833,72.608635 
	C382.912201,64.910385 383.154205,56.723030 381.950531,49.044155 
	C380.683655,40.961716 374.845398,37.488983 367.230316,37.820927 
	C360.430847,38.117317 354.941559,42.755421 354.081573,50.501392 
	C353.377563,56.842793 354.179077,63.351341 354.590179,70.558922 
z"/>
<path fill="#6A6A6A" opacity="1.000000" stroke="none" 
	d="
M410.021667,56.011307 
	C410.021667,66.468376 410.021667,76.428009 410.021667,86.700768 
	C407.126038,86.700768 404.702942,86.700768 401.559723,86.700768 
	C401.559723,84.336372 401.559723,81.914658 401.559723,79.492943 
	C401.559784,67.995094 401.670410,56.495476 401.486115,45.000587 
	C401.436920,41.931965 402.436737,40.128891 405.041870,38.598366 
	C414.262817,33.180958 423.893158,30.083906 434.555511,33.310097 
	C440.240326,35.030190 444.478577,38.916485 444.652954,45.021786 
	C445.046692,58.806461 444.776642,72.610092 444.776642,86.711914 
	C441.869598,86.711914 439.303772,86.711914 436.157288,86.711914 
	C436.157288,75.497223 436.159210,64.383133 436.156799,53.269043 
	C436.153778,39.265274 426.567505,33.397675 413.768097,39.403351 
	C410.953644,40.723938 409.731903,42.391727 409.965332,45.520008 
	C410.212616,48.834248 410.021332,52.181206 410.021667,56.011307 
z"/>
<path fill="#FFD94D" opacity="1.000000" stroke="none" 
	d="
M100.012047,34.277523 
	C104.497101,35.636578 106.789383,38.981228 107.784302,43.620209 
	C107.150810,44.125584 106.752075,44.132046 106.532539,44.333649 
	C92.573410,57.152504 78.605118,69.961739 64.734856,82.876251 
	C63.781357,83.764046 63.570213,85.449142 63.013832,86.763451 
	C61.422089,86.833023 59.725277,86.592911 58.276680,87.084381 
	C57.358307,87.395973 56.809475,88.796745 56.001621,90.455338 
	C50.987247,95.590118 45.940060,99.848518 41.210011,104.434044 
	C39.433754,106.156021 38.394001,108.637718 37.018467,110.773048 
	C31.727757,108.529404 29.630877,104.399101 30.386639,98.412308 
	C34.094223,95.605850 37.612598,93.479309 40.622169,90.784531 
	C49.244656,83.063980 57.715637,75.170654 66.102455,67.194130 
	C67.448227,65.914200 68.055534,63.857826 69.004227,62.160393 
	C79.014702,61.101986 83.960617,56.719616 87.080612,46.310555 
	C92.775398,43.163074 98.209259,40.639519 100.012047,34.277523 
z"/>
<path fill="#686868" opacity="1.000000" stroke="none" 
	d="
M276.527771,38.421448 
	C274.289673,38.422020 272.488861,38.422020 270.354675,38.422020 
	C270.354675,51.355259 270.225739,63.775780 270.429779,76.190819 
	C270.494751,80.144455 273.194305,82.248329 277.033966,83.230431 
	C278.502106,83.605957 279.687195,85.088020 281.985229,86.798004 
	C269.270477,89.508018 261.928040,83.648750 261.906433,72.578201 
	C261.884705,61.455162 261.901642,50.332047 261.901642,38.951855 
	C259.847595,38.649548 258.100739,38.392456 255.971191,38.079037 
	C255.971191,36.606163 255.971191,35.082165 255.971191,33.379673 
	C257.876434,33.219254 259.649902,33.069927 261.902924,32.880222 
	C261.902924,29.965117 261.902161,27.173422 261.903107,24.381725 
	C261.905426,17.407423 262.311432,16.982573 270.107178,16.133591 
	C270.107178,21.611238 270.107178,27.055031 270.107178,32.934647 
	C273.527130,32.934647 276.606415,32.934647 279.854065,32.934647 
	C280.592072,36.038315 281.538147,38.718735 276.527771,38.421448 
z"/>
<path fill="#376E9D" opacity="1.000000" stroke="none" 
	d="
M40.481037,58.088387 
	C42.730663,54.816906 45.179638,51.307335 48.211224,48.406670 
	C56.555786,40.422478 65.093155,32.636543 73.669380,24.899813 
	C76.084236,22.721336 78.896339,20.983215 81.896393,19.013489 
	C82.500259,23.683947 82.733978,28.384041 82.542511,33.547844 
	C81.789642,34.047264 81.351730,33.958366 81.150177,34.136662 
	C73.280853,41.097973 65.408005,48.056046 57.633247,55.121971 
	C57.052750,55.649544 57.194801,56.972145 57.000957,57.925159 
	C51.649376,57.992813 46.297791,58.060467 40.481037,58.088387 
z"/>
<path fill="#FFD242" opacity="1.000000" stroke="none" 
	d="
M63.471909,86.832535 
	C63.570213,85.449142 63.781357,83.764046 64.734856,82.876251 
	C78.605118,69.961739 92.573410,57.152504 106.532539,44.333649 
	C106.752075,44.132046 107.150810,44.125584 107.825623,43.983742 
	C109.093040,47.369736 110.000748,50.800041 110.497368,54.623619 
	C107.524200,56.711277 104.710503,58.124359 102.445152,60.150517 
	C94.218704,67.508339 86.132355,75.025482 78.116196,82.612518 
	C77.050453,83.621208 76.693024,85.378273 76.007568,86.788765 
	C71.981705,86.826385 67.955849,86.863998 63.471909,86.832535 
z"/>
<path fill="#FFE051" opacity="1.000000" stroke="none" 
	d="
M68.543121,62.095551 
	C68.055534,63.857826 67.448227,65.914200 66.102455,67.194130 
	C57.715637,75.170654 49.244656,83.063980 40.622169,90.784531 
	C37.612598,93.479309 34.094223,95.605850 30.448921,97.998215 
	C30.051289,93.978317 30.012941,89.952103 30.371725,85.424751 
	C38.422943,78.200249 46.095394,71.497475 53.699131,64.717628 
	C54.366783,64.122322 54.584175,63.022026 55.010700,62.156284 
	C59.367809,62.114426 63.724915,62.072567 68.543121,62.095551 
z"/>
<path fill="#3979AE" opacity="1.000000" stroke="none" 
	d="
M73.752533,7.692992 
	C67.763702,13.705699 61.477730,19.384819 55.321617,25.201378 
	C54.265656,26.199102 53.763287,27.782734 53.005863,29.461651 
	C46.316677,29.873091 39.626812,29.918587 32.475224,29.544882 
	C33.745731,27.051529 35.477966,24.977377 37.567184,22.892551 
	C44.732342,24.114523 46.631489,22.540003 46.631004,15.457500 
	C49.545502,11.787525 52.277000,8.475091 55.008499,5.162657 
	C61.172081,5.910380 67.335663,6.658104 73.752533,7.692992 
z"/>
<path fill="#386C97" opacity="1.000000" stroke="none" 
	d="
M57.462280,58.008194 
	C57.194801,56.972145 57.052750,55.649544 57.633247,55.121971 
	C65.408005,48.056046 73.280853,41.097973 81.150177,34.136662 
	C81.351730,33.958366 81.789642,34.047264 82.471176,34.006393 
	C82.587021,38.786774 82.795959,43.648460 81.996941,48.338425 
	C81.015961,54.096413 76.235085,57.780701 70.385254,58.022484 
	C66.237511,58.193916 62.077915,58.078568 57.462280,58.008194 
z"/>
<path fill="#FFC93B" opacity="1.000000" stroke="none" 
	d="
M76.016647,90.766426 
	C78.111282,90.601265 80.205917,90.436096 82.226463,90.276779 
	C85.451401,105.182884 78.740112,113.570374 62.853519,114.989212 
	C59.885178,115.254326 56.887001,115.185440 53.483246,114.804459 
	C57.327435,110.561531 61.590969,106.784836 66.004395,103.360138 
	C67.352608,104.845695 68.668488,107.015808 69.724663,106.896027 
	C71.891815,106.650253 74.704773,105.722733 75.837143,104.092918 
	C78.009674,100.966011 75.538757,98.618546 73.015984,96.405762 
	C74.017570,94.302628 75.017113,92.534523 76.016647,90.766426 
z"/>
<path fill="#FFCD3C" opacity="1.000000" stroke="none" 
	d="
M76.461296,86.856033 
	C76.693024,85.378273 77.050453,83.621208 78.116196,82.612518 
	C86.132355,75.025482 94.218704,67.508339 102.445152,60.150517 
	C104.710503,58.124359 107.524200,56.711277 110.438950,55.012257 
	C110.885750,57.708847 110.979881,60.410065 110.639244,63.560867 
	C109.712379,64.081207 109.052589,63.971153 108.752777,64.249229 
	C101.697952,70.792702 94.654694,77.349579 87.707909,84.006889 
	C87.118675,84.571571 87.221649,85.858566 87.003044,86.809998 
	C83.640373,86.847763 80.277695,86.885529 76.461296,86.856033 
z"/>
<path fill="#FFE75B" opacity="1.000000" stroke="none" 
	d="
M54.546867,62.090561 
	C54.584175,63.022026 54.366783,64.122322 53.699131,64.717628 
	C46.095394,71.497475 38.422943,78.200249 30.429405,84.964981 
	C30.045137,81.549316 29.850412,78.086349 29.987062,74.636505 
	C30.261950,67.696854 35.688583,62.333374 42.714455,62.044926 
	C46.497879,61.889603 50.293121,62.022167 54.546867,62.090561 
z"/>
<path fill="#FFC839" opacity="1.000000" stroke="none" 
	d="
M87.458794,86.877724 
	C87.221649,85.858566 87.118675,84.571571 87.707909,84.006889 
	C94.654694,77.349579 101.697952,70.792702 108.752777,64.249229 
	C109.052589,63.971153 109.712379,64.081207 110.566010,64.006271 
	C109.154625,69.935989 107.889458,76.089890 105.444397,81.732529 
	C103.567131,86.064835 98.909279,86.971077 94.385132,86.995735 
	C92.228424,87.007492 90.071419,86.963943 87.458794,86.877724 
z"/>
<path fill="#FFCF41" opacity="1.000000" stroke="none" 
	d="
M65.854507,103.008148 
	C61.590969,106.784836 57.327435,110.561531 53.030983,114.685745 
	C49.784248,114.574051 46.570427,114.114838 43.369968,113.200287 
	C47.231457,109.175331 51.208275,105.732658 54.890625,101.999519 
	C58.402374,98.439316 61.607151,94.576317 64.946877,90.846428 
	C68.353447,90.709656 71.760010,90.572884 75.591614,90.601265 
	C75.017113,92.534523 74.017570,94.302628 72.606873,96.436729 
	C67.652962,96.389038 66.009155,98.937721 65.854507,103.008148 
z"/>
<path fill="#3E80B8" opacity="1.000000" stroke="none" 
	d="
M37.210201,22.903225 
	C35.477966,24.977377 33.745731,27.051529 32.011436,29.479248 
	C31.309942,29.393797 30.008602,28.961174 30.003857,28.514769 
	C29.954489,23.869558 29.424210,19.074265 30.381557,14.611085 
	C31.711708,8.409905 37.548084,7.286801 42.763660,6.226472 
	C46.482891,5.470352 50.341084,5.397776 54.572884,5.091413 
	C52.277000,8.475091 49.545502,11.787525 46.381516,15.177798 
	C43.579704,14.622976 41.188938,13.491225 38.851093,13.591628 
	C37.849308,13.634652 36.416714,16.153210 36.164341,17.706892 
	C35.899181,19.339304 36.812096,21.163074 37.210201,22.903225 
z"/>
<path fill="#FFD242" opacity="1.000000" stroke="none" 
	d="
M64.508789,90.784904 
	C61.607151,94.576317 58.402374,98.439316 54.890625,101.999519 
	C51.208275,105.732658 47.231457,109.175331 43.086105,112.935616 
	C41.050320,112.490715 39.311760,111.855141 37.295830,110.996307 
	C38.394001,108.637718 39.433754,106.156021 41.210011,104.434044 
	C45.940060,99.848518 50.987247,95.590118 56.048279,90.846680 
	C58.815720,90.568947 61.443211,90.646164 64.508789,90.784904 
z"/>
<path fill="#38709F" opacity="1.000000" stroke="none" 
	d="
M8.320739,83.242905 
	C12.458353,79.104233 16.675755,75.181656 21.097198,71.504410 
	C22.503740,70.334610 24.453012,69.817368 26.529446,69.001556 
	C26.472815,74.743530 26.040672,80.485466 25.575153,86.670914 
	C19.735773,87.303925 13.762721,87.652519 8.320739,83.242905 
z"/>
<path fill="#FFDE51" opacity="1.000000" stroke="none" 
	d="
M99.557068,34.154953 
	C98.209259,40.639519 92.775398,43.163074 87.251350,45.992279 
	C86.856033,45.830269 86.819977,45.666519 86.824463,45.503887 
	C87.197853,31.979475 83.601547,33.583565 99.557068,34.154953 
z"/>
<path fill="#FDFDFD" opacity="1.000000" stroke="none" 
	d="
M171.746948,38.647839 
	C177.687820,42.019024 179.249466,47.610828 179.668121,53.234295 
	C180.095688,58.977253 179.659103,64.860558 178.913223,70.592949 
	C178.202957,76.051422 175.076004,80.363838 169.506302,81.729622 
	C163.528549,83.195457 157.966049,81.281288 153.050186,77.810074 
	C152.262756,77.254036 152.069244,75.476227 152.059601,74.259621 
	C151.983093,64.594070 151.847229,54.921959 152.170151,45.266594 
	C152.230270,43.468704 154.014877,40.490990 155.442749,40.198021 
	C160.656509,39.128277 166.056107,38.964249 171.746948,38.647839 
z"/>
<path fill="#FDFDFD" opacity="1.000000" stroke="none" 
	d="
M354.451660,70.172356 
	C354.179077,63.351341 353.377563,56.842793 354.081573,50.501392 
	C354.941559,42.755421 360.430847,38.117317 367.230316,37.820927 
	C374.845398,37.488983 380.683655,40.961716 381.950531,49.044155 
	C383.154205,56.723030 382.912201,64.910385 381.665833,72.608635 
	C380.520691,79.681541 375.006317,82.929771 368.227020,82.895920 
	C361.568787,82.862686 357.563751,79.239395 354.451660,70.172356 
z"/>
<path fill="#F5F8FB" opacity="1.000000" stroke="none" 
	d="
M37.567184,22.892551 
	C36.812096,21.163074 35.899181,19.339304 36.164341,17.706892 
	C36.416714,16.153210 37.849308,13.634652 38.851093,13.591628 
	C41.188938,13.491225 43.579704,14.622976 46.198521,15.535339 
	C46.631489,22.540003 44.732342,24.114523 37.567184,22.892551 
z"/>
<path fill="#FFFDF7" opacity="1.000000" stroke="none" 
	d="
M66.004395,103.360138 
	C66.009155,98.937721 67.652962,96.389038 72.604820,96.771767 
	C75.538757,98.618546 78.009674,100.966011 75.837143,104.092918 
	C74.704773,105.722733 71.891815,106.650253 69.724663,106.896027 
	C68.668488,107.015808 67.352608,104.845695 66.004395,103.360138 
z"/>
</svg>