<svg version="1.1" id="Layer_1" xmlns="http://www.w3.org/2000/svg" xmlns:xlink="http://www.w3.org/1999/xlink" x="0px" y="0px"
	 width="100%" viewBox="0 0 5000 1679" enable-background="new 0 0 5000 1679" xml:space="preserve">
<path fill="#FFFFFF" opacity="1.000000" stroke="none" 
	d="
M1352.000000,1.999989 
	C2568.559326,2.000000 3785.118896,2.000000 5001.838867,2.000000 
	C5001.838867,561.843201 5001.838867,1121.686523 5001.838867,1682.000000 
	C3786.596924,1682.000000 2571.193604,1682.000000 1354.277100,1681.586670 
	C1352.835083,1680.682617 1352.906372,1680.192017 1353.867676,1679.781250 
	C1393.547119,1675.540649 1427.175537,1660.409058 1454.474243,1632.119629 
	C1476.116333,1609.691772 1491.084106,1583.140137 1502.170288,1554.245605 
	C1521.146484,1504.787354 1528.127197,1453.098267 1529.558594,1400.582764 
	C1531.696045,1322.171631 1520.929199,1245.133179 1503.148071,1168.940918 
	C1502.275024,1165.199951 1501.578735,1161.417969 1500.751953,1157.421631 
	C1505.371460,1155.920776 1508.809326,1154.752319 1512.278198,1153.684814 
	C1554.330811,1140.744629 1595.585815,1125.649170 1635.721924,1107.598633 
	C1687.847656,1084.155762 1737.637939,1056.671997 1782.629150,1021.125854 
	C1816.879395,994.065796 1847.363525,963.490784 1868.848633,925.004089 
	C1900.348267,868.578430 1900.633667,812.102844 1868.384277,755.775879 
	C1856.042847,734.220398 1840.546753,715.144287 1823.040649,697.610107 
	C1783.531250,658.036987 1737.238403,628.044800 1688.016235,602.280029 
	C1631.766846,572.836853 1572.705444,550.358887 1511.977539,532.099915 
	C1506.985474,530.598999 1502.051514,528.904724 1497.060059,527.290405 
	C1497.514893,524.283386 1497.675781,522.287659 1498.128540,520.360474 
	C1511.324829,464.195007 1520.848145,407.473938 1524.583008,349.828735 
	C1527.998169,297.115082 1527.285278,244.586838 1517.731689,192.483246 
	C1510.781616,154.578949 1499.550659,118.083214 1479.328003,84.894524 
	C1453.004639,41.693493 1416.149902,13.400304 1365.384644,4.952319 
	C1360.883911,4.203352 1356.459717,2.994978 1352.000000,1.999989 
M2281.536133,1077.000000 
	C2281.536133,1023.766113 2281.536133,970.532166 2281.536133,916.156372 
	C2286.134766,916.156372 2289.701904,916.156372 2293.269043,916.156372 
	C2338.593750,916.156372 2383.920166,916.359314 2429.241455,915.965332 
	C2437.189209,915.896179 2441.733398,918.374207 2445.990967,925.080750 
	C2507.231689,1021.554993 2568.753418,1117.850952 2630.212402,1214.186646 
	C2633.604736,1219.504028 2637.038330,1224.795044 2640.209473,1229.720703 
	C2678.988770,1229.720703 2717.073975,1229.720703 2755.035889,1229.720703 
	C2755.202393,1228.716187 2755.329590,1228.388184 2755.287354,1228.083862 
	C2755.243408,1227.766968 2755.052246,1227.463623 2754.895264,1227.170654 
	C2754.580811,1226.583740 2754.281006,1225.984741 2753.914551,1225.430786 
	C2685.699707,1122.354858 2617.479004,1019.282532 2549.259766,916.209351 
	C2548.708252,915.375977 2548.168701,914.534485 2547.627441,913.694214 
	C2547.447266,913.414001 2547.268311,913.131897 2547.107666,912.840271 
	C2546.787354,912.259094 2546.466064,911.677734 2546.173340,911.082336 
	C2546.027344,910.785278 2545.878174,910.463257 2545.850342,910.142151 
	C2545.822510,909.820862 2545.908936,909.475403 2546.010254,909.161499 
	C2546.101074,908.880432 2546.280518,908.627991 2546.583496,908.055420 
	C2553.245117,906.907837 2560.143555,905.860779 2566.980713,904.502808 
	C2574.154785,903.077820 2581.394043,901.773438 2588.391846,899.698059 
	C2664.526123,877.118652 2716.498291,829.241394 2739.765625,752.583069 
	C2753.180176,708.386841 2754.001465,663.220886 2743.884521,618.220154 
	C2727.519775,545.429260 2685.157471,493.254700 2617.192627,462.257050 
	C2578.586182,444.649292 2537.581787,438.677704 2495.523926,438.651306 
	C2394.876465,438.588104 2294.229248,438.624481 2193.581787,438.648621 
	C2190.345703,438.649414 2187.109619,438.955231 2184.083496,439.108246 
	C2181.715576,450.385132 2182.176758,1222.848022 2184.391602,1229.770752 
	C2201.859619,1231.509155 2273.646729,1230.789673 2281.529053,1228.581665 
	C2281.529053,1178.872925 2281.529053,1128.936401 2281.536133,1077.000000 
M2840.407227,1016.519226 
	C2843.080078,1026.828003 2845.208008,1037.314941 2848.511230,1047.417725 
	C2878.272461,1138.446777 2937.574951,1200.664185 3029.256348,1230.270630 
	C3086.387939,1248.719849 3144.611816,1248.795776 3202.978027,1236.631958 
	C3257.354248,1225.299805 3305.087891,1200.688354 3346.055176,1163.104980 
	C3348.650879,1160.723633 3350.973145,1158.044556 3353.620605,1155.298584 
	C3339.252441,1135.766724 3325.503418,1117.076904 3311.589111,1098.161743 
	C3309.412842,1099.937012 3308.074219,1100.915527 3306.863770,1102.032959 
	C3246.731445,1157.546265 3175.923584,1179.293823 3095.149170,1167.929932 
	C3057.254883,1162.598633 3023.922119,1146.567505 2995.603760,1120.606079 
	C2958.435791,1086.531494 2938.385254,1043.536499 2930.330322,994.408936 
	C2929.231689,987.707764 2928.967773,980.869690 2928.231934,973.206116 
	C2948.882812,973.206116 2968.164062,973.206177 2987.445068,973.206177 
	C3006.441650,973.206177 3025.438477,973.206177 3044.435059,973.206177 
	C3063.765137,973.206177 3083.094971,973.206177 3102.425049,973.206177 
	C3121.755127,973.206177 3141.084961,973.206177 3160.415039,973.206177 
	C3179.745117,973.206177 3199.074951,973.206177 3218.405029,973.206177 
	C3237.401855,973.206177 3256.398438,973.206177 3275.395264,973.206177 
	C3294.725342,973.206177 3314.055664,973.283752 3333.385254,973.184143 
	C3352.551025,973.085388 3371.741699,973.631836 3391.952881,972.769653 
	C3391.361816,956.089844 3390.946777,940.804688 3390.254639,925.532166 
	C3388.381836,884.216064 3379.696045,844.351807 3363.585449,806.261902 
	C3343.694336,759.233459 3314.150146,719.613770 3272.056885,690.024841 
	C3236.731689,665.193604 3197.420166,650.811951 3154.601318,645.750122 
	C3115.831543,641.166931 3077.387939,642.461121 3039.774414,653.504395 
	C2948.504639,680.301025 2887.855957,740.288635 2853.957031,827.981689 
	C2830.500244,888.662354 2828.430664,951.348816 2840.407227,1016.519226 
M3892.955322,1210.859375 
	C3893.075439,1217.386963 3893.195801,1223.914551 3893.319336,1230.625488 
	C3923.398438,1230.625488 3952.248047,1230.625488 3982.080811,1230.625488 
	C3982.080811,1226.468872 3982.080811,1222.885254 3982.080811,1219.301514 
	C3982.080811,1127.663208 3982.093262,1036.024780 3982.074707,944.386475 
	C3982.066650,905.398804 3982.299805,866.407532 3981.846191,827.424622 
	C3981.529541,800.193665 3976.246094,773.793579 3964.889648,748.897766 
	C3944.288330,703.735168 3908.709229,675.481201 3862.610352,659.452209 
	C3812.739014,642.111389 3761.346191,640.238892 3709.648926,646.744202 
	C3646.267090,654.719910 3591.192139,681.260010 3544.632080,725.153992 
	C3540.076416,729.448792 3535.764648,734.002380 3531.089844,738.686035 
	C3545.051270,759.415710 3558.589600,779.517395 3573.286133,801.338684 
	C3576.563721,797.289490 3578.829346,793.974121 3581.597656,791.151978 
	C3607.403076,764.845032 3637.098633,744.532166 3672.187012,732.522339 
	C3697.055420,724.010498 3722.785156,720.639771 3748.863037,720.817627 
	C3776.024414,721.002930 3802.611816,725.105469 3827.381348,737.304077 
	C3867.910156,757.263855 3891.053223,789.179077 3892.438965,834.845764 
	C3893.459229,868.471313 3892.831299,902.147339 3892.864746,935.800903 
	C3892.866211,937.212097 3892.125488,938.624023 3891.452881,941.027344 
	C3889.135010,938.990051 3887.610596,937.835693 3886.302979,936.473145 
	C3866.191650,915.517822 3842.732666,899.432312 3816.044922,888.011169 
	C3786.949463,875.559814 3756.507812,869.558960 3724.986816,867.313110 
	C3688.486572,864.712585 3653.143555,868.942444 3619.114014,882.314453 
	C3573.056152,900.412964 3538.494385,931.030640 3518.725342,977.050293 
	C3504.985840,1009.033997 3501.624268,1042.655396 3504.818848,1076.941040 
	C3507.157227,1102.040894 3514.191406,1125.979736 3526.826172,1147.974609 
	C3551.577148,1191.062134 3588.877197,1218.488037 3635.411621,1234.149536 
	C3670.879395,1246.086548 3707.140869,1247.382690 3743.956055,1242.320190 
	C3798.836914,1234.773682 3846.660156,1212.957275 3885.865234,1173.284424 
	C3887.588379,1171.540771 3889.615967,1170.097900 3892.956543,1167.293457 
	C3892.956543,1182.407104 3892.956543,1195.654419 3892.955322,1210.859375 
M4211.090332,1161.901489 
	C4234.958008,1186.667603 4262.540527,1206.191040 4293.969727,1220.158081 
	C4346.523438,1243.512939 4401.438965,1249.302490 4458.149902,1242.235229 
	C4523.101074,1234.141113 4576.037598,1204.565186 4617.454102,1154.068359 
	C4619.720703,1151.304810 4621.879395,1148.452637 4624.380859,1145.269287 
	C4604.425293,1126.909912 4585.104980,1109.134888 4565.324707,1090.936768 
	C4562.922852,1093.697632 4560.946777,1095.851562 4559.100098,1098.110840 
	C4548.513672,1111.064209 4536.844727,1122.887817 4523.241211,1132.713623 
	C4478.137207,1165.292358 4427.823242,1172.009521 4374.770020,1160.724609 
	C4309.763672,1146.897217 4265.622070,1106.824951 4240.537109,1046.363159 
	C4215.357422,985.674133 4214.291504,923.185547 4233.234375,860.520508 
	C4245.937500,818.497131 4269.416992,783.474121 4305.326172,757.632141 
	C4343.452148,730.194824 4386.567383,720.874023 4432.940918,723.359680 
	C4485.018555,726.150940 4526.766602,748.378967 4559.228516,788.789978 
	C4561.040039,791.045166 4562.973145,793.202454 4565.391602,796.041870 
	C4585.371582,778.052612 4604.778320,760.579285 4624.063965,743.215332 
	C4594.328125,700.591431 4546.360840,667.242981 4497.240234,653.855103 
	C4457.461426,643.013428 4417.172852,641.282288 4376.398926,645.629700 
	C4342.225098,649.273499 4309.787109,658.889587 4279.464844,674.907532 
	C4211.450195,710.836487 4167.366699,766.873779 4144.043945,839.508728 
	C4125.959473,895.828735 4123.438477,953.337952 4134.699707,1011.279968 
	C4145.747070,1068.125977 4170.003906,1118.562500 4211.090332,1161.901489 
M4858.158203,907.000000 
	C4858.275391,850.685974 4858.392090,794.371887 4858.531738,738.057922 
	C4858.532227,737.789612 4858.853516,737.509705 4859.053223,737.257507 
	C4859.259277,736.996826 4859.500000,736.763550 4860.522949,735.650879 
	C4897.582031,735.650879 4935.445801,735.650879 4973.625488,735.650879 
	C4973.625488,709.350891 4973.625488,683.922791 4973.625488,657.738953 
	C4963.349121,657.738953 4953.739746,657.738953 4944.130859,657.738953 
	C4934.799316,657.738953 4925.467773,657.738953 4916.136230,657.738953 
	C4906.471191,657.738953 4896.806152,657.799622 4887.141602,657.721741 
	C4877.630859,657.645142 4868.082031,658.090210 4857.710938,657.331116 
	C4857.710938,604.587830 4857.710938,553.102966 4857.710938,501.763000 
	C4842.331055,499.748749 4775.344727,500.379822 4767.506836,502.771179 
	C4767.506836,553.951477 4767.506836,605.443359 4767.506836,657.616760 
	C4735.437988,657.977173 4704.324707,657.454407 4673.105957,657.919128 
	C4673.105957,684.521851 4673.105957,709.697510 4673.105957,736.040649 
	C4704.787109,736.040649 4735.908203,736.040649 4767.920898,736.040649 
	C4767.920898,741.126587 4767.920898,745.050903 4767.920898,748.975281 
	C4767.920898,867.287109 4767.951172,985.598938 4767.887207,1103.910767 
	C4767.878418,1120.271362 4768.541504,1136.540771 4771.959961,1152.593018 
	C4781.453125,1197.173096 4806.731934,1227.528320 4851.525879,1239.668213 
	C4875.965820,1246.291870 4900.972168,1246.530518 4925.915527,1243.191162 
	C4950.399902,1239.913330 4973.057129,1231.584717 4992.722656,1216.162964 
	C5001.666992,1209.148560 5001.992676,1208.208740 4998.000977,1197.753784 
	C4992.181641,1182.513306 4986.188965,1167.338745 4980.252930,1152.142822 
	C4978.948242,1148.802979 4977.571289,1145.491089 4975.960449,1141.505981 
	C4973.893066,1143.090332 4972.598633,1144.005249 4971.389160,1145.020874 
	C4958.002930,1156.261597 4942.624023,1162.587646 4925.256836,1164.765625 
	C4894.994141,1168.561035 4873.431152,1155.324463 4863.508789,1126.360718 
	C4859.352051,1114.226562 4858.157715,1101.691162 4858.159180,1088.967285 
	C4858.167969,1028.978149 4858.160156,968.989075 4858.158203,907.000000 
z"/>
<path fill="#02D8FF" opacity="1.000000" stroke="none" 
	d="
M1351.063232,1.999989 
	C1356.459717,2.994978 1360.883911,4.203352 1365.384644,4.952319 
	C1416.149902,13.400304 1453.004639,41.693493 1479.328003,84.894524 
	C1499.550659,118.083214 1510.781616,154.578949 1517.731689,192.483246 
	C1527.285278,244.586838 1527.998169,297.115082 1524.583008,349.828735 
	C1520.848145,407.473938 1511.324829,464.195007 1498.128540,520.360474 
	C1497.675781,522.287659 1497.514893,524.283386 1497.060059,527.290405 
	C1502.051514,528.904724 1506.985474,530.598999 1511.977539,532.099915 
	C1572.705444,550.358887 1631.766846,572.836853 1688.016235,602.280029 
	C1737.238403,628.044800 1783.531250,658.036987 1823.040649,697.610107 
	C1840.546753,715.144287 1856.042847,734.220398 1868.384277,755.775879 
	C1900.633667,812.102844 1900.348267,868.578430 1868.848633,925.004089 
	C1847.363525,963.490784 1816.879395,994.065796 1782.629150,1021.125854 
	C1737.637939,1056.671997 1687.847656,1084.155762 1635.721924,1107.598633 
	C1595.585815,1125.649170 1554.330811,1140.744629 1512.278198,1153.684814 
	C1508.809326,1154.752319 1505.371460,1155.920776 1500.751953,1157.421631 
	C1501.578735,1161.417969 1502.275024,1165.199951 1503.148071,1168.940918 
	C1520.929199,1245.133179 1531.696045,1322.171631 1529.558594,1400.582764 
	C1528.127197,1453.098267 1521.146484,1504.787354 1502.170288,1554.245605 
	C1491.084106,1583.140137 1476.116333,1609.691772 1454.474243,1632.119629 
	C1427.175537,1660.409058 1393.547119,1675.540649 1353.016724,1679.854980 
	C1337.794922,1679.812744 1324.313843,1679.776245 1309.933350,1679.839600 
	C1294.940796,1677.534912 1280.669800,1675.882202 1266.786377,1672.593018 
	C1213.021362,1659.856079 1164.185791,1635.670410 1117.504272,1606.792358 
	C1060.863037,1571.753174 1009.581604,1529.842651 961.239868,1484.201782 
	C958.437439,1481.555786 955.502258,1479.050659 952.414307,1476.287842 
	C949.256165,1479.200073 946.807617,1481.415649 944.404907,1483.679810 
	C897.715942,1527.673950 848.021362,1567.847900 793.434326,1601.713135 
	C729.430786,1641.420410 661.982849,1672.188477 585.075562,1680.278564 
	C571.428467,1680.220581 558.711426,1680.282471 545.192322,1680.113159 
	C541.435059,1679.385132 538.490784,1678.808105 535.523071,1678.403809 
	C487.133606,1671.811523 449.641876,1647.710938 422.154419,1607.675903 
	C398.310760,1572.947998 385.715393,1533.815430 378.210297,1492.868530 
	C366.936371,1431.359131 368.183655,1369.508057 374.749634,1307.672729 
	C379.640808,1261.609741 388.239349,1216.151245 399.314209,1171.166626 
	C400.009003,1168.344604 400.173431,1165.391846 400.527893,1162.898682 
	C399.524811,1161.968384 399.118591,1161.318237 398.551086,1161.112305 
	C396.053680,1160.205444 393.529999,1159.357544 390.979645,1158.612305 
	C335.555695,1142.416382 281.851501,1121.773438 230.284714,1095.770020 
	C177.695526,1069.250854 128.266144,1038.001343 85.540077,996.988403 
	C59.866337,972.343994 37.675083,945.050171 22.462519,912.616577 
	C-0.140139,864.427002 -0.471320,816.180542 22.730381,768.045654 
	C39.812332,732.606873 65.081093,703.630615 94.351425,677.880798 
	C136.474518,640.823975 184.220383,612.518799 234.573990,588.357605 
	C286.343750,563.516968 340.312683,544.515686 395.309998,528.285095 
	C397.466400,527.648682 399.556885,526.789124 402.140472,525.868896 
	C401.762085,523.541565 401.580139,521.601990 401.122955,519.729492 
	C385.372986,455.220459 374.719452,389.996033 371.430206,323.546051 
	C369.079315,276.052521 371.343384,228.969620 380.379120,182.328369 
	C387.002838,148.137436 397.937103,115.347778 416.192932,85.387367 
	C440.368011,45.712666 474.187653,18.889904 520.060364,8.670571 
	C554.881653,0.913213 589.568481,3.515056 624.060059,11.208627 
	C675.301636,22.638409 722.406311,44.179184 767.525574,70.406609 
	C831.815369,107.777611 889.542480,153.809235 943.663757,204.556427 
	C945.754089,206.516525 948.000061,208.310638 949.923889,209.967178 
	C967.920288,193.757935 984.957581,177.826141 1002.617737,162.617783 
	C1052.756836,119.439873 1106.145752,80.874397 1165.068115,50.403324 
	C1203.086060,30.742826 1242.569824,15.005486 1284.845825,7.051481 
	C1293.893677,5.349174 1302.948486,3.682892 1312.000000,2.000003 
	C1324.708862,2.000000 1337.417603,2.000000 1351.063232,1.999989 
M670.202332,966.804138 
	C701.498291,1022.621826 735.299805,1076.883911 770.777954,1130.137329 
	C775.966248,1137.924927 781.686401,1141.454224 790.855103,1141.728516 
	C825.484558,1142.764526 860.088867,1144.831055 894.722168,1145.507324 
	C967.700195,1146.932617 1040.633667,1145.594116 1113.481689,1140.469971 
	C1119.952637,1140.014893 1123.561768,1137.703857 1127.005005,1132.449463 
	C1186.587646,1041.525024 1240.978027,947.635986 1289.203735,850.184448 
	C1292.286621,843.954712 1292.592285,838.926514 1289.369751,832.553589 
	C1246.497559,747.768921 1199.835327,665.158936 1148.299927,585.326233 
	C1139.457275,571.628113 1130.362793,558.092529 1121.672607,544.918335 
	C1119.904297,544.583862 1118.931519,544.275330 1117.946899,544.231323 
	C1072.358398,542.194519 1026.786743,539.438904 981.175293,538.341187 
	C915.523499,536.761292 849.934509,539.397705 784.409546,543.755493 
	C778.575073,544.143494 775.387817,546.553650 772.525635,551.022339 
	C754.559387,579.072754 736.074219,606.799194 718.520325,635.103882 
	C678.641724,699.405884 642.606018,765.845337 609.439209,833.847168 
	C607.069336,838.706116 605.201477,842.935852 608.281799,848.724548 
	C628.929443,887.526855 649.170471,926.545471 670.202332,966.804138 
M104.949493,786.081421 
	C100.525589,794.638306 95.522293,802.951294 91.797249,811.802307 
	C83.806038,830.790283 84.335854,850.010132 91.635239,869.224060 
	C97.983635,885.934814 107.513504,900.695312 118.746933,914.418274 
	C139.597183,939.889465 164.554047,960.842407 191.496460,979.485962 
	C243.878799,1015.733398 301.076050,1042.444092 360.818817,1063.915405 
	C381.112213,1071.208618 401.758270,1077.520508 422.657349,1084.417603 
	C424.043884,1080.586304 425.148865,1077.848755 426.033630,1075.041870 
	C449.875519,999.407288 478.420654,925.575623 511.534088,853.533936 
	C515.197205,845.564575 515.163086,839.122070 511.539398,831.236450 
	C478.850067,760.100891 450.460907,687.283081 427.093140,612.535950 
	C426.237396,609.798706 425.018219,607.174988 423.477875,603.247620 
	C392.861450,613.657349 362.741730,623.147095 333.171356,634.117676 
	C280.884857,653.515869 230.869080,677.655090 184.878922,709.509155 
	C154.596985,730.483215 126.671234,754.023254 104.949493,786.081421 
M450.606232,1410.251343 
	C452.086792,1440.223267 454.577911,1470.069580 462.086243,1499.258789 
	C468.011475,1522.293579 476.059479,1544.432495 490.008636,1564.013550 
	C503.844391,1583.435181 522.205017,1595.162598 546.129028,1598.571899 
	C567.631042,1601.636108 588.673340,1599.453125 609.595520,1594.940063 
	C646.350220,1587.012207 680.640015,1572.495605 713.619080,1554.779785 
	C778.671448,1519.834839 836.360901,1474.910522 889.713867,1424.169556 
	C891.579102,1422.395630 893.178894,1420.342407 895.365479,1417.902710 
	C891.995483,1414.110229 888.872742,1410.715942 885.880615,1407.210327 
	C857.979248,1374.520874 829.461792,1342.329712 802.414124,1308.947876 
	C780.194763,1281.525024 759.635254,1252.750977 738.585144,1224.393921 
	C735.318726,1219.993774 731.926636,1218.018799 726.357361,1217.532471 
	C702.479736,1215.447510 678.563782,1213.408081 654.833374,1210.115479 
	C611.655579,1204.124390 568.573425,1197.422485 525.507385,1190.660034 
	C510.470612,1188.298950 495.599213,1184.884399 480.225403,1181.867065 
	C479.340759,1184.635742 478.495636,1186.744995 477.995514,1188.933228 
	C474.881531,1202.558350 471.655029,1216.161865 468.815399,1229.845093 
	C456.597290,1288.719360 449.664764,1348.146484 450.606232,1410.251343 
M1447.695801,1335.519043 
	C1443.557251,1282.420044 1435.468872,1229.991699 1422.285767,1178.771118 
	C1420.415039,1178.539429 1419.743286,1178.292358 1419.138550,1178.404785 
	C1375.304810,1186.555664 1331.623657,1195.666382 1287.602173,1202.624878 
	C1250.804443,1208.441528 1213.629883,1211.931641 1176.570679,1215.980225 
	C1170.050659,1216.692505 1165.678955,1218.603882 1161.848267,1224.147583 
	C1116.716919,1289.460938 1068.152588,1352.096436 1015.001892,1411.122070 
	C1013.060181,1413.278442 1011.399780,1415.688232 1009.436157,1418.199951 
	C1011.434204,1420.297119 1012.946838,1422.028320 1014.606201,1423.605347 
	C1049.921997,1457.165649 1086.976562,1488.630615 1126.997314,1516.492676 
	C1166.499756,1543.994019 1207.824463,1568.158203 1253.297729,1584.571411 
	C1281.693237,1594.820312 1310.704590,1601.816528 1341.226929,1600.052124 
	C1366.109985,1598.613892 1387.376953,1589.455078 1402.391724,1569.065674 
	C1409.844360,1558.945557 1416.656372,1548.059204 1421.907959,1536.666748 
	C1439.173340,1499.211914 1445.849487,1459.114990 1447.741089,1418.337646 
	C1448.989502,1391.423340 1447.843872,1364.398071 1447.695801,1335.519043 
M761.066345,428.050934 
	C802.120850,372.661346 845.959900,319.555725 892.424194,269.214783 
	C891.851685,267.712799 891.768005,266.969238 891.360596,266.517578 
	C889.801819,264.789276 888.206543,263.082397 886.505005,261.496094 
	C844.504700,222.340607 800.172302,186.122284 751.693848,155.200867 
	C712.530945,130.221191 671.698364,108.600136 626.937317,95.279274 
	C600.927246,87.538704 574.538391,82.583565 547.181091,85.856285 
	C527.969604,88.154533 511.335815,95.485886 498.102600,109.969376 
	C487.617676,121.444855 480.065857,134.698868 474.161011,148.932663 
	C459.412872,184.483475 453.801910,221.946899 452.069763,260.034851 
	C448.794556,332.052917 457.523804,402.955750 473.148651,473.137482 
	C475.581177,484.063507 478.236603,494.939880 480.909576,506.354279 
	C488.447235,504.727814 494.908508,503.309753 501.380157,501.940735 
	C575.709473,486.217255 650.725830,475.022156 726.367432,468.031921 
	C730.813416,467.621033 733.657227,465.925415 736.160583,462.372101 
	C744.026123,451.207306 752.154114,440.227478 761.066345,428.050934 
M1343.243286,491.867340 
	C1367.956055,496.770355 1392.668945,501.673340 1418.270630,506.752716 
	C1419.958984,499.632812 1421.546509,493.256622 1422.979614,486.845856 
	C1438.140625,419.017151 1447.310181,350.495361 1445.704224,280.847595 
	C1444.911865,246.486862 1441.295898,212.393768 1431.997681,179.144638 
	C1424.949585,153.941345 1415.467163,129.873474 1397.964233,109.782219 
	C1387.125732,97.341118 1373.824463,89.019012 1357.525879,85.687180 
	C1336.915771,81.474007 1316.416748,82.904877 1296.031738,87.054871 
	C1263.467896,93.684189 1232.996094,106.117844 1203.612793,121.316505 
	C1131.634521,158.547760 1069.046997,208.500870 1010.752014,264.217041 
	C1009.428162,265.482361 1008.592773,267.258789 1007.461975,268.894470 
	C1008.944214,270.545074 1010.040222,271.783722 1011.155518,273.004761 
	C1046.230713,311.406281 1079.694580,351.169159 1111.166870,392.570068 
	C1128.503174,415.375488 1145.230347,438.644989 1162.133545,461.777283 
	C1164.558716,465.096252 1166.750488,467.616425 1171.470459,468.121002 
	C1200.264771,471.199158 1229.081177,474.217590 1257.759399,478.197510 
	C1285.769531,482.084778 1313.623291,487.097687 1343.243286,491.867340 
M1745.900024,946.941833 
	C1753.594238,939.562683 1761.529907,932.416748 1768.930054,924.753601 
	C1782.420410,910.784302 1793.890137,895.344543 1802.523193,877.808411 
	C1815.427246,851.596680 1814.743164,825.872314 1800.887695,800.281128 
	C1793.381836,786.417786 1784.091919,773.876831 1773.414673,762.332642 
	C1745.518555,732.171143 1712.352173,708.819031 1677.063110,688.318848 
	C1620.325195,655.358582 1559.773438,631.294617 1497.232422,611.962463 
	C1490.010498,609.730103 1482.739258,607.657715 1475.082520,605.390198 
	C1473.967651,608.466858 1473.108398,610.592590 1472.420044,612.772339 
	C1448.726318,687.815430 1419.790649,760.818420 1386.650879,832.158691 
	C1383.654541,838.609070 1384.062012,843.692627 1387.016602,849.916260 
	C1415.882446,910.721741 1441.736816,972.786011 1463.920410,1036.353271 
	C1468.841431,1050.453979 1473.542114,1064.631592 1478.497437,1079.225098 
	C1481.840576,1078.329834 1484.723145,1077.765137 1487.461304,1076.793091 
	C1518.194336,1065.881958 1549.322876,1055.941895 1579.533447,1043.732178 
	C1639.097046,1019.659363 1695.370361,989.542175 1745.900024,946.941833 
M1324.389282,1115.492798 
	C1349.404785,1110.512695 1374.420410,1105.532471 1400.271240,1100.385986 
	C1382.112671,1043.496704 1361.188599,989.354492 1336.935547,934.493530 
	C1330.111450,947.260193 1324.376709,958.105347 1318.531982,968.890869 
	C1312.667480,979.712891 1306.748413,990.506287 1300.751465,1001.255432 
	C1294.754028,1012.005310 1288.686646,1022.717163 1282.547485,1033.386719 
	C1276.242188,1044.344849 1269.873535,1055.267578 1263.420166,1066.139160 
	C1257.136230,1076.725098 1250.585693,1087.154175 1244.381226,1097.785645 
	C1238.336182,1108.144043 1231.183228,1117.903076 1224.732178,1130.673340 
	C1259.003296,1125.458130 1290.846191,1120.612549 1324.389282,1115.492798 
M901.000061,1226.117676 
	C891.004211,1225.979980 881.008789,1225.788330 871.012451,1225.719971 
	C860.937622,1225.651001 850.861938,1225.704712 839.666504,1225.704712 
	C875.273682,1272.575684 912.202515,1317.337769 952.242065,1360.222534 
	C991.670654,1316.712891 1027.731201,1272.096313 1061.901367,1225.313477 
	C1008.060608,1225.594727 955.530273,1225.869019 901.000061,1226.117676 
M657.283691,1129.641235 
	C662.662964,1130.081299 668.042297,1130.521362 674.634949,1131.060791 
	C660.890991,1108.755127 647.770447,1087.952393 635.154785,1066.848022 
	C622.678467,1045.976685 610.487915,1024.926514 598.584778,1003.723145 
	C586.536560,982.261169 574.994019,960.515320 562.566467,937.674255 
	C539.448181,992.528137 519.035583,1047.114014 501.558319,1103.993164 
	C523.534546,1108.179321 544.017090,1112.555420 564.666443,1115.902222 
	C594.893311,1120.801392 625.239807,1124.962891 657.283691,1129.641235 
M1046.422241,440.572479 
	C1016.007019,401.161957 984.393372,362.775085 950.393921,326.369141 
	C927.345947,347.597778 846.924683,444.703033 840.153687,459.633087 
	C913.363708,456.891846 986.175415,456.753479 1060.913574,459.901520 
	C1055.545044,452.726776 1051.422241,447.216736 1046.422241,440.572479 
M1382.563477,627.524963 
	C1387.162231,613.726624 1391.760986,599.928284 1396.338379,586.194092 
	C1373.634155,577.308411 1239.717773,554.532043 1226.753174,557.189270 
	C1245.351807,588.298035 1264.279053,619.174011 1282.413818,650.508667 
	C1300.612549,681.953735 1318.021118,713.856018 1336.455688,746.771423 
	C1353.535278,707.020264 1368.565063,668.321899 1382.563477,627.524963 
M539.460754,689.612549 
	C546.876709,708.338196 554.292664,727.063782 562.488953,747.759827 
	C596.792847,681.042114 633.165588,618.355286 672.253357,556.756104 
	C655.344788,554.700317 519.650269,577.944519 503.288483,585.597290 
	C513.706604,620.224121 525.870850,654.347900 539.460754,689.612549 
z"/>
<path fill="#FFFFFF" opacity="1.000000" stroke="none" 
	d="
M1311.062744,2.000003 
	C1302.948486,3.682892 1293.893677,5.349174 1284.845825,7.051481 
	C1242.569824,15.005486 1203.086060,30.742826 1165.068115,50.403324 
	C1106.145752,80.874397 1052.756836,119.439873 1002.617737,162.617783 
	C984.957581,177.826141 967.920288,193.757935 949.923889,209.967178 
	C948.000061,208.310638 945.754089,206.516525 943.663757,204.556427 
	C889.542480,153.809235 831.815369,107.777611 767.525574,70.406609 
	C722.406311,44.179184 675.301636,22.638409 624.060059,11.208627 
	C589.568481,3.515056 554.881653,0.913213 520.060364,8.670571 
	C474.187653,18.889904 440.368011,45.712666 416.192932,85.387367 
	C397.937103,115.347778 387.002838,148.137436 380.379120,182.328369 
	C371.343384,228.969620 369.079315,276.052521 371.430206,323.546051 
	C374.719452,389.996033 385.372986,455.220459 401.122955,519.729492 
	C401.580139,521.601990 401.762085,523.541565 402.140472,525.868896 
	C399.556885,526.789124 397.466400,527.648682 395.309998,528.285095 
	C340.312683,544.515686 286.343750,563.516968 234.573990,588.357605 
	C184.220383,612.518799 136.474518,640.823975 94.351425,677.880798 
	C65.081093,703.630615 39.812332,732.606873 22.730381,768.045654 
	C-0.471320,816.180542 -0.140139,864.427002 22.462519,912.616577 
	C37.675083,945.050171 59.866337,972.343994 85.540077,996.988403 
	C128.266144,1038.001343 177.695526,1069.250854 230.284714,1095.770020 
	C281.851501,1121.773438 335.555695,1142.416382 390.979645,1158.612305 
	C393.529999,1159.357544 396.053680,1160.205444 398.551086,1161.112305 
	C399.118591,1161.318237 399.524811,1161.968384 400.527893,1162.898682 
	C400.173431,1165.391846 400.009003,1168.344604 399.314209,1171.166626 
	C388.239349,1216.151245 379.640808,1261.609741 374.749634,1307.672729 
	C368.183655,1369.508057 366.936371,1431.359131 378.210297,1492.868530 
	C385.715393,1533.815430 398.310760,1572.947998 422.154419,1607.675903 
	C449.641876,1647.710938 487.133606,1671.811523 535.523071,1678.403809 
	C538.490784,1678.808105 541.435059,1679.385132 545.192627,1680.526978 
	C545.994995,1681.172119 546.000000,1682.000000 546.000000,1682.000000 
	C364.711548,1682.000000 183.423111,1682.000000 2.067330,1682.000000 
	C2.067330,1122.183472 2.067330,562.367004 2.067330,2.000000 
	C438.041626,2.000000 874.083496,2.000000 1311.062744,2.000003 
z"/>
<path fill="#FEFFFF" opacity="1.000000" stroke="none" 
	d="
M586.005737,1680.398560 
	C661.982849,1672.188477 729.430786,1641.420410 793.434326,1601.713135 
	C848.021362,1567.847900 897.715942,1527.673950 944.404907,1483.679810 
	C946.807617,1481.415649 949.256165,1479.200073 952.414307,1476.287842 
	C955.502258,1479.050659 958.437439,1481.555786 961.239868,1484.201782 
	C1009.581604,1529.842651 1060.863037,1571.753174 1117.504272,1606.792358 
	C1164.185791,1635.670410 1213.021362,1659.856079 1266.786377,1672.593018 
	C1280.669800,1675.882202 1294.940796,1677.534912 1310.075928,1680.534058 
	C1310.745239,1681.419312 1310.372681,1681.709717 1310.000000,1682.000000 
	C1069.291504,1682.000000 828.583069,1682.000000 586.939636,1681.599609 
	C586.004639,1681.199219 586.005737,1680.398560 586.005737,1680.398560 
z"/>
<path fill="#0BD9FF" opacity="1.000000" stroke="none" 
	d="
M1310.937134,1682.000000 
	C1310.372681,1681.709717 1310.745239,1681.419312 1310.975342,1680.434326 
	C1324.313843,1679.776245 1337.794922,1679.812744 1352.126953,1679.775391 
	C1352.906372,1680.192017 1352.835083,1680.682617 1353.381836,1681.586670 
	C1339.958130,1682.000000 1325.916138,1682.000000 1310.937134,1682.000000 
z"/>
<path fill="#FCFEFF" opacity="1.000000" stroke="none" 
	d="
M585.075562,1680.278564 
	C586.005737,1680.398560 586.004639,1681.199219 586.002319,1681.599609 
	C573.291199,1682.000000 560.582397,1682.000000 546.936768,1682.000000 
	C546.000000,1682.000000 545.994995,1681.172119 545.994751,1680.758301 
	C558.711426,1680.282471 571.428467,1680.220581 585.075562,1680.278564 
z"/>
<path fill="#0BD9FF" opacity="1.000000" stroke="none" 
	d="
M2281.532715,1078.000000 
	C2281.529053,1128.936401 2281.529053,1178.872925 2281.529053,1228.581665 
	C2273.646729,1230.789673 2201.859619,1231.509155 2184.391602,1229.770752 
	C2182.176758,1222.848022 2181.715576,450.385132 2184.083496,439.108246 
	C2187.109619,438.955231 2190.345703,438.649414 2193.581787,438.648621 
	C2294.229248,438.624481 2394.876465,438.588104 2495.523926,438.651306 
	C2537.581787,438.677704 2578.586182,444.649292 2617.192627,462.257050 
	C2685.157471,493.254700 2727.519775,545.429260 2743.884521,618.220154 
	C2754.001465,663.220886 2753.180176,708.386841 2739.765625,752.583069 
	C2716.498291,829.241394 2664.526123,877.118652 2588.391846,899.698059 
	C2581.394043,901.773438 2574.154785,903.077820 2566.980713,904.502808 
	C2560.143555,905.860779 2553.245117,906.907837 2546.583496,908.055420 
	C2546.280518,908.627991 2546.101074,908.880432 2546.010254,909.161499 
	C2545.908936,909.475403 2545.822510,909.820862 2545.850342,910.142151 
	C2545.878174,910.463257 2546.027344,910.785278 2546.173340,911.082336 
	C2546.466064,911.677734 2546.787354,912.259094 2547.107666,912.840271 
	C2547.268311,913.131897 2547.447266,913.414001 2547.627441,913.694214 
	C2548.168701,914.534485 2548.708252,915.375977 2549.259766,916.209351 
	C2617.479004,1019.282532 2685.699707,1122.354858 2753.914551,1225.430786 
	C2754.281006,1225.984741 2754.580811,1226.583740 2754.895264,1227.170654 
	C2755.052246,1227.463623 2755.243408,1227.766968 2755.287354,1228.083862 
	C2755.329590,1228.388184 2755.202393,1228.716187 2755.035889,1229.720703 
	C2717.073975,1229.720703 2678.988770,1229.720703 2640.209473,1229.720703 
	C2637.038330,1224.795044 2633.604736,1219.504028 2630.212402,1214.186646 
	C2568.753418,1117.850952 2507.231689,1021.554993 2445.990967,925.080750 
	C2441.733398,918.374207 2437.189209,915.896179 2429.241455,915.965332 
	C2383.920166,916.359314 2338.593750,916.156372 2293.269043,916.156372 
	C2289.701904,916.156372 2286.134766,916.156372 2281.536133,916.156372 
	C2281.536133,970.532166 2281.536133,1023.766113 2281.532715,1078.000000 
M2311.011475,526.648499 
	C2301.443604,526.648499 2291.875977,526.648499 2282.532471,526.648499 
	C2280.336426,542.925171 2281.130615,822.220337 2283.410645,829.733032 
	C2285.493896,829.733032 2287.780762,829.733032 2290.067383,829.732971 
	C2356.028076,829.731812 2421.992432,830.097778 2487.947266,829.463074 
	C2503.792236,829.310608 2519.964355,827.320862 2535.362793,823.597778 
	C2574.169678,814.214783 2605.299561,793.050781 2626.085938,758.347107 
	C2645.106445,726.591431 2650.773926,692.134705 2646.242432,655.532227 
	C2638.554443,593.434509 2596.568359,546.797424 2533.457275,532.052917 
	C2511.868896,527.009216 2489.898926,526.696777 2467.916016,526.669128 
	C2416.280029,526.604126 2364.644287,526.648865 2311.011475,526.648499 
z"/>
<path fill="#0BD9FF" opacity="1.000000" stroke="none" 
	d="
M2840.270508,1015.682373 
	C2828.430664,951.348816 2830.500244,888.662354 2853.957031,827.981689 
	C2887.855957,740.288635 2948.504639,680.301025 3039.774414,653.504395 
	C3077.387939,642.461121 3115.831543,641.166931 3154.601318,645.750122 
	C3197.420166,650.811951 3236.731689,665.193604 3272.056885,690.024841 
	C3314.150146,719.613770 3343.694336,759.233459 3363.585449,806.261902 
	C3379.696045,844.351807 3388.381836,884.216064 3390.254639,925.532166 
	C3390.946777,940.804688 3391.361816,956.089844 3391.952881,972.769653 
	C3371.741699,973.631836 3352.551025,973.085388 3333.385254,973.184143 
	C3314.055664,973.283752 3294.725342,973.206177 3275.395264,973.206177 
	C3256.398438,973.206177 3237.401855,973.206177 3218.405029,973.206177 
	C3199.074951,973.206177 3179.745117,973.206177 3160.415039,973.206177 
	C3141.084961,973.206177 3121.755127,973.206177 3102.425049,973.206177 
	C3083.094971,973.206177 3063.765137,973.206177 3044.435059,973.206177 
	C3025.438477,973.206177 3006.441650,973.206177 2987.445068,973.206177 
	C2968.164062,973.206177 2948.882812,973.206116 2928.231934,973.206116 
	C2928.967773,980.869690 2929.231689,987.707764 2930.330322,994.408936 
	C2938.385254,1043.536499 2958.435791,1086.531494 2995.603760,1120.606079 
	C3023.922119,1146.567505 3057.254883,1162.598633 3095.149170,1167.929932 
	C3175.923584,1179.293823 3246.731445,1157.546265 3306.863770,1102.032959 
	C3308.074219,1100.915527 3309.412842,1099.937012 3311.589111,1098.161743 
	C3325.503418,1117.076904 3339.252441,1135.766724 3353.620605,1155.298584 
	C3350.973145,1158.044556 3348.650879,1160.723633 3346.055176,1163.104980 
	C3305.087891,1200.688354 3257.354248,1225.299805 3202.978027,1236.631958 
	C3144.611816,1248.795776 3086.387939,1248.719849 3029.256348,1230.270630 
	C2937.574951,1200.664185 2878.272461,1138.446777 2848.511230,1047.417725 
	C2845.208008,1037.314941 2843.080078,1026.828003 2840.270508,1015.682373 
M2975.553711,780.597717 
	C2946.296387,816.952881 2930.451416,858.402283 2927.391357,904.862854 
	C2938.036133,907.057312 3295.057617,906.736755 3303.732178,904.313293 
	C3301.815430,891.062927 3300.733643,877.424744 3297.762939,864.211182 
	C3289.009033,825.271240 3271.358887,790.818787 3241.584473,763.784119 
	C3193.113770,719.773438 3135.481934,709.542419 3072.945312,721.320251 
	C3033.831299,728.686829 3002.204346,749.494141 2975.553711,780.597717 
z"/>
<path fill="#0BD9FF" opacity="1.000000" stroke="none" 
	d="
M3892.956055,1209.880615 
	C3892.956543,1195.654419 3892.956543,1182.407104 3892.956543,1167.293457 
	C3889.615967,1170.097900 3887.588379,1171.540771 3885.865234,1173.284424 
	C3846.660156,1212.957275 3798.836914,1234.773682 3743.956055,1242.320190 
	C3707.140869,1247.382690 3670.879395,1246.086548 3635.411621,1234.149536 
	C3588.877197,1218.488037 3551.577148,1191.062134 3526.826172,1147.974609 
	C3514.191406,1125.979736 3507.157227,1102.040894 3504.818848,1076.941040 
	C3501.624268,1042.655396 3504.985840,1009.033997 3518.725342,977.050293 
	C3538.494385,931.030640 3573.056152,900.412964 3619.114014,882.314453 
	C3653.143555,868.942444 3688.486572,864.712585 3724.986816,867.313110 
	C3756.507812,869.558960 3786.949463,875.559814 3816.044922,888.011169 
	C3842.732666,899.432312 3866.191650,915.517822 3886.302979,936.473145 
	C3887.610596,937.835693 3889.135010,938.990051 3891.452881,941.027344 
	C3892.125488,938.624023 3892.866211,937.212097 3892.864746,935.800903 
	C3892.831299,902.147339 3893.459229,868.471313 3892.438965,834.845764 
	C3891.053223,789.179077 3867.910156,757.263855 3827.381348,737.304077 
	C3802.611816,725.105469 3776.024414,721.002930 3748.863037,720.817627 
	C3722.785156,720.639771 3697.055420,724.010498 3672.187012,732.522339 
	C3637.098633,744.532166 3607.403076,764.845032 3581.597656,791.151978 
	C3578.829346,793.974121 3576.563721,797.289490 3573.286133,801.338684 
	C3558.589600,779.517395 3545.051270,759.415710 3531.089844,738.686035 
	C3535.764648,734.002380 3540.076416,729.448792 3544.632080,725.153992 
	C3591.192139,681.260010 3646.267090,654.719910 3709.648926,646.744202 
	C3761.346191,640.238892 3812.739014,642.111389 3862.610352,659.452209 
	C3908.709229,675.481201 3944.288330,703.735168 3964.889648,748.897766 
	C3976.246094,773.793579 3981.529541,800.193665 3981.846191,827.424622 
	C3982.299805,866.407532 3982.066650,905.398804 3982.074707,944.386475 
	C3982.093262,1036.024780 3982.080811,1127.663208 3982.080811,1219.301514 
	C3982.080811,1222.885254 3982.080811,1226.468872 3982.080811,1230.625488 
	C3952.248047,1230.625488 3923.398438,1230.625488 3893.319336,1230.625488 
	C3893.195801,1223.914551 3893.075439,1217.386963 3892.956055,1209.880615 
M3651.872803,1159.208374 
	C3664.778809,1167.074219 3678.608398,1172.762573 3693.317139,1176.126953 
	C3735.523193,1185.781372 3776.727295,1181.498657 3816.947998,1166.365723 
	C3844.252197,1156.092773 3867.744873,1140.136353 3886.837158,1117.873901 
	C3891.361816,1112.598022 3893.644531,1107.122437 3893.518311,1099.854614 
	C3893.072266,1074.196289 3893.344727,1048.525391 3893.344971,1022.859192 
	C3893.344971,997.436218 3893.348633,997.432190 3874.477783,979.921143 
	C3872.769775,978.336121 3871.037842,976.762329 3869.200195,975.332886 
	C3815.684082,933.703308 3755.372070,922.097290 3690.062988,936.813965 
	C3658.928467,943.829773 3633.057129,960.717102 3614.625732,987.519653 
	C3579.095215,1039.186401 3588.792480,1120.485107 3651.872803,1159.208374 
z"/>
<path fill="#0BD9FF" opacity="1.000000" stroke="none" 
	d="
M4210.597656,1161.394531 
	C4170.003906,1118.562500 4145.747070,1068.125977 4134.699707,1011.279968 
	C4123.438477,953.337952 4125.959473,895.828735 4144.043945,839.508728 
	C4167.366699,766.873779 4211.450195,710.836487 4279.464844,674.907532 
	C4309.787109,658.889587 4342.225098,649.273499 4376.398926,645.629700 
	C4417.172852,641.282288 4457.461426,643.013428 4497.240234,653.855103 
	C4546.360840,667.242981 4594.328125,700.591431 4624.063965,743.215332 
	C4604.778320,760.579285 4585.371582,778.052612 4565.391602,796.041870 
	C4562.973145,793.202454 4561.040039,791.045166 4559.228516,788.789978 
	C4526.766602,748.378967 4485.018555,726.150940 4432.940918,723.359680 
	C4386.567383,720.874023 4343.452148,730.194824 4305.326172,757.632141 
	C4269.416992,783.474121 4245.937500,818.497131 4233.234375,860.520508 
	C4214.291504,923.185547 4215.357422,985.674133 4240.537109,1046.363159 
	C4265.622070,1106.824951 4309.763672,1146.897217 4374.770020,1160.724609 
	C4427.823242,1172.009521 4478.137207,1165.292358 4523.241211,1132.713623 
	C4536.844727,1122.887817 4548.513672,1111.064209 4559.100098,1098.110840 
	C4560.946777,1095.851562 4562.922852,1093.697632 4565.324707,1090.936768 
	C4585.104980,1109.134888 4604.425293,1126.909912 4624.380859,1145.269287 
	C4621.879395,1148.452637 4619.720703,1151.304810 4617.454102,1154.068359 
	C4576.037598,1204.565186 4523.101074,1234.141113 4458.149902,1242.235229 
	C4401.438965,1249.302490 4346.523438,1243.512939 4293.969727,1220.158081 
	C4262.540527,1206.191040 4234.958008,1186.667603 4210.597656,1161.394531 
z"/>
<path fill="#0AD9FF" opacity="1.000000" stroke="none" 
	d="
M4858.158203,908.000000 
	C4858.160156,968.989075 4858.167969,1028.978149 4858.159180,1088.967285 
	C4858.157715,1101.691162 4859.352051,1114.226562 4863.508789,1126.360718 
	C4873.431152,1155.324463 4894.994141,1168.561035 4925.256836,1164.765625 
	C4942.624023,1162.587646 4958.002930,1156.261597 4971.389160,1145.020874 
	C4972.598633,1144.005249 4973.893066,1143.090332 4975.960449,1141.505981 
	C4977.571289,1145.491089 4978.948242,1148.802979 4980.252930,1152.142822 
	C4986.188965,1167.338745 4992.181641,1182.513306 4998.000977,1197.753784 
	C5001.992676,1208.208740 5001.666992,1209.148560 4992.722656,1216.162964 
	C4973.057129,1231.584717 4950.399902,1239.913330 4925.915527,1243.191162 
	C4900.972168,1246.530518 4875.965820,1246.291870 4851.525879,1239.668213 
	C4806.731934,1227.528320 4781.453125,1197.173096 4771.959961,1152.593018 
	C4768.541504,1136.540771 4767.878418,1120.271362 4767.887207,1103.910767 
	C4767.951172,985.598938 4767.920898,867.287109 4767.920898,748.975281 
	C4767.920898,745.050903 4767.920898,741.126587 4767.920898,736.040649 
	C4735.908203,736.040649 4704.787109,736.040649 4673.105957,736.040649 
	C4673.105957,709.697510 4673.105957,684.521851 4673.105957,657.919128 
	C4704.324707,657.454407 4735.437988,657.977173 4767.506836,657.616760 
	C4767.506836,605.443359 4767.506836,553.951477 4767.506836,502.771179 
	C4775.344727,500.379822 4842.331055,499.748749 4857.710938,501.763000 
	C4857.710938,553.102966 4857.710938,604.587830 4857.710938,657.331116 
	C4868.082031,658.090210 4877.630859,657.645142 4887.141602,657.721741 
	C4896.806152,657.799622 4906.471191,657.738953 4916.136230,657.738953 
	C4925.467773,657.738953 4934.799316,657.738953 4944.130859,657.738953 
	C4953.739746,657.738953 4963.349121,657.738953 4973.625488,657.738953 
	C4973.625488,683.922791 4973.625488,709.350891 4973.625488,735.650879 
	C4935.445801,735.650879 4897.582031,735.650879 4860.522949,735.650879 
	C4859.500000,736.763550 4859.259277,736.996826 4859.053223,737.257507 
	C4858.853516,737.509705 4858.532227,737.789612 4858.531738,738.057922 
	C4858.392090,794.371887 4858.275391,850.685974 4858.158203,908.000000 
z"/>
<path fill="#FEFFFF" opacity="1.000000" stroke="none" 
	d="
M669.872803,966.149048 
	C649.170471,926.545471 628.929443,887.526855 608.281799,848.724548 
	C605.201477,842.935852 607.069336,838.706116 609.439209,833.847168 
	C642.606018,765.845337 678.641724,699.405884 718.520325,635.103882 
	C736.074219,606.799194 754.559387,579.072754 772.525635,551.022339 
	C775.387817,546.553650 778.575073,544.143494 784.409546,543.755493 
	C849.934509,539.397705 915.523499,536.761292 981.175293,538.341187 
	C1026.786743,539.438904 1072.358398,542.194519 1117.946899,544.231323 
	C1118.931519,544.275330 1119.904297,544.583862 1121.672607,544.918335 
	C1130.362793,558.092529 1139.457275,571.628113 1148.299927,585.326233 
	C1199.835327,665.158936 1246.497559,747.768921 1289.369751,832.553589 
	C1292.592285,838.926514 1292.286621,843.954712 1289.203735,850.184448 
	C1240.978027,947.635986 1186.587646,1041.525024 1127.005005,1132.449463 
	C1123.561768,1137.703857 1119.952637,1140.014893 1113.481689,1140.469971 
	C1040.633667,1145.594116 967.700195,1146.932617 894.722168,1145.507324 
	C860.088867,1144.831055 825.484558,1142.764526 790.855103,1141.728516 
	C781.686401,1141.454224 775.966248,1137.924927 770.777954,1130.137329 
	C735.299805,1076.883911 701.498291,1022.621826 669.872803,966.149048 
M935.352112,1008.201660 
	C981.045532,1011.617920 1021.887634,998.986572 1056.975342,969.667725 
	C1123.021240,914.480347 1136.788818,821.134949 1090.217896,748.411499 
	C1034.844971,661.942810 912.559265,645.946228 836.424194,714.840515 
	C780.830261,765.147339 763.774475,846.982117 797.654480,913.902710 
	C825.827271,969.550171 871.469910,1000.806519 935.352112,1008.201660 
z"/>
<path fill="#FEFFFF" opacity="1.000000" stroke="none" 
	d="
M105.371651,785.494263 
	C126.671234,754.023254 154.596985,730.483215 184.878922,709.509155 
	C230.869080,677.655090 280.884857,653.515869 333.171356,634.117676 
	C362.741730,623.147095 392.861450,613.657349 423.477875,603.247620 
	C425.018219,607.174988 426.237396,609.798706 427.093140,612.535950 
	C450.460907,687.283081 478.850067,760.100891 511.539398,831.236450 
	C515.163086,839.122070 515.197205,845.564575 511.534088,853.533936 
	C478.420654,925.575623 449.875519,999.407288 426.033630,1075.041870 
	C425.148865,1077.848755 424.043884,1080.586304 422.657349,1084.417603 
	C401.758270,1077.520508 381.112213,1071.208618 360.818817,1063.915405 
	C301.076050,1042.444092 243.878799,1015.733398 191.496460,979.485962 
	C164.554047,960.842407 139.597183,939.889465 118.746933,914.418274 
	C107.513504,900.695312 97.983635,885.934814 91.635239,869.224060 
	C84.335854,850.010132 83.806038,830.790283 91.797249,811.802307 
	C95.522293,802.951294 100.525589,794.638306 105.371651,785.494263 
z"/>
<path fill="#FEFFFF" opacity="1.000000" stroke="none" 
	d="
M450.574219,1409.309082 
	C449.664764,1348.146484 456.597290,1288.719360 468.815399,1229.845093 
	C471.655029,1216.161865 474.881531,1202.558350 477.995514,1188.933228 
	C478.495636,1186.744995 479.340759,1184.635742 480.225403,1181.867065 
	C495.599213,1184.884399 510.470612,1188.298950 525.507385,1190.660034 
	C568.573425,1197.422485 611.655579,1204.124390 654.833374,1210.115479 
	C678.563782,1213.408081 702.479736,1215.447510 726.357361,1217.532471 
	C731.926636,1218.018799 735.318726,1219.993774 738.585144,1224.393921 
	C759.635254,1252.750977 780.194763,1281.525024 802.414124,1308.947876 
	C829.461792,1342.329712 857.979248,1374.520874 885.880615,1407.210327 
	C888.872742,1410.715942 891.995483,1414.110229 895.365479,1417.902710 
	C893.178894,1420.342407 891.579102,1422.395630 889.713867,1424.169556 
	C836.360901,1474.910522 778.671448,1519.834839 713.619080,1554.779785 
	C680.640015,1572.495605 646.350220,1587.012207 609.595520,1594.940063 
	C588.673340,1599.453125 567.631042,1601.636108 546.129028,1598.571899 
	C522.205017,1595.162598 503.844391,1583.435181 490.008636,1564.013550 
	C476.059479,1544.432495 468.011475,1522.293579 462.086243,1499.258789 
	C454.577911,1470.069580 452.086792,1440.223267 450.574219,1409.309082 
z"/>
<path fill="#FEFFFF" opacity="1.000000" stroke="none" 
	d="
M1447.732910,1336.470703 
	C1447.843872,1364.398071 1448.989502,1391.423340 1447.741089,1418.337646 
	C1445.849487,1459.114990 1439.173340,1499.211914 1421.907959,1536.666748 
	C1416.656372,1548.059204 1409.844360,1558.945557 1402.391724,1569.065674 
	C1387.376953,1589.455078 1366.109985,1598.613892 1341.226929,1600.052124 
	C1310.704590,1601.816528 1281.693237,1594.820312 1253.297729,1584.571411 
	C1207.824463,1568.158203 1166.499756,1543.994019 1126.997314,1516.492676 
	C1086.976562,1488.630615 1049.921997,1457.165649 1014.606201,1423.605347 
	C1012.946838,1422.028320 1011.434204,1420.297119 1009.436157,1418.199951 
	C1011.399780,1415.688232 1013.060181,1413.278442 1015.001892,1411.122070 
	C1068.152588,1352.096436 1116.716919,1289.460938 1161.848267,1224.147583 
	C1165.678955,1218.603882 1170.050659,1216.692505 1176.570679,1215.980225 
	C1213.629883,1211.931641 1250.804443,1208.441528 1287.602173,1202.624878 
	C1331.623657,1195.666382 1375.304810,1186.555664 1419.138550,1178.404785 
	C1419.743286,1178.292358 1420.415039,1178.539429 1422.285767,1178.771118 
	C1435.468872,1229.991699 1443.557251,1282.420044 1447.732910,1336.470703 
z"/>
<path fill="#FEFFFF" opacity="1.000000" stroke="none" 
	d="
M760.623413,428.613464 
	C752.154114,440.227478 744.026123,451.207306 736.160583,462.372101 
	C733.657227,465.925415 730.813416,467.621033 726.367432,468.031921 
	C650.725830,475.022156 575.709473,486.217255 501.380157,501.940735 
	C494.908508,503.309753 488.447235,504.727814 480.909576,506.354279 
	C478.236603,494.939880 475.581177,484.063507 473.148651,473.137482 
	C457.523804,402.955750 448.794556,332.052917 452.069763,260.034851 
	C453.801910,221.946899 459.412872,184.483475 474.161011,148.932663 
	C480.065857,134.698868 487.617676,121.444855 498.102600,109.969376 
	C511.335815,95.485886 527.969604,88.154533 547.181091,85.856285 
	C574.538391,82.583565 600.927246,87.538704 626.937317,95.279274 
	C671.698364,108.600136 712.530945,130.221191 751.693848,155.200867 
	C800.172302,186.122284 844.504700,222.340607 886.505005,261.496094 
	C888.206543,263.082397 889.801819,264.789276 891.360596,266.517578 
	C891.768005,266.969238 891.851685,267.712799 892.424194,269.214783 
	C845.959900,319.555725 802.120850,372.661346 760.623413,428.613464 
z"/>
<path fill="#FEFFFF" opacity="1.000000" stroke="none" 
	d="
M1342.394531,491.741882 
	C1313.623291,487.097687 1285.769531,482.084778 1257.759399,478.197510 
	C1229.081177,474.217590 1200.264771,471.199158 1171.470459,468.121002 
	C1166.750488,467.616425 1164.558716,465.096252 1162.133545,461.777283 
	C1145.230347,438.644989 1128.503174,415.375488 1111.166870,392.570068 
	C1079.694580,351.169159 1046.230713,311.406281 1011.155518,273.004761 
	C1010.040222,271.783722 1008.944214,270.545074 1007.461975,268.894470 
	C1008.592773,267.258789 1009.428162,265.482361 1010.752014,264.217041 
	C1069.046997,208.500870 1131.634521,158.547760 1203.612793,121.316505 
	C1232.996094,106.117844 1263.467896,93.684189 1296.031738,87.054871 
	C1316.416748,82.904877 1336.915771,81.474007 1357.525879,85.687180 
	C1373.824463,89.019012 1387.125732,97.341118 1397.964233,109.782219 
	C1415.467163,129.873474 1424.949585,153.941345 1431.997681,179.144638 
	C1441.295898,212.393768 1444.911865,246.486862 1445.704224,280.847595 
	C1447.310181,350.495361 1438.140625,419.017151 1422.979614,486.845856 
	C1421.546509,493.256622 1419.958984,499.632812 1418.270630,506.752716 
	C1392.668945,501.673340 1367.956055,496.770355 1342.394531,491.741882 
z"/>
<path fill="#FEFFFF" opacity="1.000000" stroke="none" 
	d="
M1745.365967,947.406860 
	C1695.370361,989.542175 1639.097046,1019.659363 1579.533447,1043.732178 
	C1549.322876,1055.941895 1518.194336,1065.881958 1487.461304,1076.793091 
	C1484.723145,1077.765137 1481.840576,1078.329834 1478.497437,1079.225098 
	C1473.542114,1064.631592 1468.841431,1050.453979 1463.920410,1036.353271 
	C1441.736816,972.786011 1415.882446,910.721741 1387.016602,849.916260 
	C1384.062012,843.692627 1383.654541,838.609070 1386.650879,832.158691 
	C1419.790649,760.818420 1448.726318,687.815430 1472.420044,612.772339 
	C1473.108398,610.592590 1473.967651,608.466858 1475.082520,605.390198 
	C1482.739258,607.657715 1490.010498,609.730103 1497.232422,611.962463 
	C1559.773438,631.294617 1620.325195,655.358582 1677.063110,688.318848 
	C1712.352173,708.819031 1745.518555,732.171143 1773.414673,762.332642 
	C1784.091919,773.876831 1793.381836,786.417786 1800.887695,800.281128 
	C1814.743164,825.872314 1815.427246,851.596680 1802.523193,877.808411 
	C1793.890137,895.344543 1782.420410,910.784302 1768.930054,924.753601 
	C1761.529907,932.416748 1753.594238,939.562683 1745.365967,947.406860 
z"/>
<path fill="#FCFEFF" opacity="1.000000" stroke="none" 
	d="
M1323.539062,1115.629883 
	C1290.846191,1120.612549 1259.003296,1125.458130 1224.732178,1130.673340 
	C1231.183228,1117.903076 1238.336182,1108.144043 1244.381226,1097.785645 
	C1250.585693,1087.154175 1257.136230,1076.725098 1263.420166,1066.139160 
	C1269.873535,1055.267578 1276.242188,1044.344849 1282.547485,1033.386719 
	C1288.686646,1022.717163 1294.754028,1012.005310 1300.751465,1001.255432 
	C1306.748413,990.506287 1312.667480,979.712891 1318.531982,968.890869 
	C1324.376709,958.105347 1330.111450,947.260193 1336.935547,934.493530 
	C1361.188599,989.354492 1382.112671,1043.496704 1400.271240,1100.385986 
	C1374.420410,1105.532471 1349.404785,1110.512695 1323.539062,1115.629883 
z"/>
<path fill="#FCFEFF" opacity="1.000000" stroke="none" 
	d="
M902.000000,1226.130615 
	C955.530273,1225.869019 1008.060608,1225.594727 1061.901367,1225.313477 
	C1027.731201,1272.096313 991.670654,1316.712891 952.242065,1360.222534 
	C912.202515,1317.337769 875.273682,1272.575684 839.666504,1225.704712 
	C850.861938,1225.704712 860.937622,1225.651001 871.012451,1225.719971 
	C881.008789,1225.788330 891.004211,1225.979980 902.000000,1226.130615 
z"/>
<path fill="#FCFEFF" opacity="1.000000" stroke="none" 
	d="
M656.409485,1129.540039 
	C625.239807,1124.962891 594.893311,1120.801392 564.666443,1115.902222 
	C544.017090,1112.555420 523.534546,1108.179321 501.558319,1103.993164 
	C519.035583,1047.114014 539.448181,992.528137 562.566467,937.674255 
	C574.994019,960.515320 586.536560,982.261169 598.584778,1003.723145 
	C610.487915,1024.926514 622.678467,1045.976685 635.154785,1066.848022 
	C647.770447,1087.952393 660.890991,1108.755127 674.634949,1131.060791 
	C668.042297,1130.521362 662.662964,1130.081299 656.409485,1129.540039 
z"/>
<path fill="#FCFEFF" opacity="1.000000" stroke="none" 
	d="
M1046.860840,441.139587 
	C1051.422241,447.216736 1055.545044,452.726776 1060.913574,459.901520 
	C986.175415,456.753479 913.363708,456.891846 840.153687,459.633087 
	C846.924683,444.703033 927.345947,347.597778 950.393921,326.369141 
	C984.393372,362.775085 1016.007019,401.161957 1046.860840,441.139587 
z"/>
<path fill="#FCFEFF" opacity="1.000000" stroke="none" 
	d="
M1382.325317,628.279297 
	C1368.565063,668.321899 1353.535278,707.020264 1336.455688,746.771423 
	C1318.021118,713.856018 1300.612549,681.953735 1282.413818,650.508667 
	C1264.279053,619.174011 1245.351807,588.298035 1226.753174,557.189270 
	C1239.717773,554.532043 1373.634155,577.308411 1396.338379,586.194092 
	C1391.760986,599.928284 1387.162231,613.726624 1382.325317,628.279297 
z"/>
<path fill="#FCFEFF" opacity="1.000000" stroke="none" 
	d="
M539.137451,688.910278 
	C525.870850,654.347900 513.706604,620.224121 503.288483,585.597290 
	C519.650269,577.944519 655.344788,554.700317 672.253357,556.756104 
	C633.165588,618.355286 596.792847,681.042114 562.488953,747.759827 
	C554.292664,727.063782 546.876709,708.338196 539.137451,688.910278 
z"/>
<path fill="#FEFFFF" opacity="1.000000" stroke="none" 
	d="
M2312.009766,526.648804 
	C2364.644287,526.648865 2416.280029,526.604126 2467.916016,526.669128 
	C2489.898926,526.696777 2511.868896,527.009216 2533.457275,532.052917 
	C2596.568359,546.797424 2638.554443,593.434509 2646.242432,655.532227 
	C2650.773926,692.134705 2645.106445,726.591431 2626.085938,758.347107 
	C2605.299561,793.050781 2574.169678,814.214783 2535.362793,823.597778 
	C2519.964355,827.320862 2503.792236,829.310608 2487.947266,829.463074 
	C2421.992432,830.097778 2356.028076,829.731812 2290.067383,829.732971 
	C2287.780762,829.733032 2285.493896,829.733032 2283.410645,829.733032 
	C2281.130615,822.220337 2280.336426,542.925171 2282.532471,526.648499 
	C2291.875977,526.648499 2301.443604,526.648499 2312.009766,526.648804 
z"/>
<path fill="#FEFFFF" opacity="1.000000" stroke="none" 
	d="
M2975.966553,780.021667 
	C3002.204346,749.494141 3033.831299,728.686829 3072.945312,721.320251 
	C3135.481934,709.542419 3193.113770,719.773438 3241.584473,763.784119 
	C3271.358887,790.818787 3289.009033,825.271240 3297.762939,864.211182 
	C3300.733643,877.424744 3301.815430,891.062927 3303.732178,904.313293 
	C3295.057617,906.736755 2938.036133,907.057312 2927.391357,904.862854 
	C2930.451416,858.402283 2946.296387,816.952881 2975.966553,780.021667 
z"/>
<path fill="#FEFFFF" opacity="1.000000" stroke="none" 
	d="
M3651.270996,1158.796631 
	C3588.792480,1120.485107 3579.095215,1039.186401 3614.625732,987.519653 
	C3633.057129,960.717102 3658.928467,943.829773 3690.062988,936.813965 
	C3755.372070,922.097290 3815.684082,933.703308 3869.200195,975.332886 
	C3871.037842,976.762329 3872.769775,978.336121 3874.477783,979.921143 
	C3893.348633,997.432190 3893.344971,997.436218 3893.344971,1022.859192 
	C3893.344727,1048.525391 3893.072266,1074.196289 3893.518311,1099.854614 
	C3893.644531,1107.122437 3891.361816,1112.598022 3886.837158,1117.873901 
	C3867.744873,1140.136353 3844.252197,1156.092773 3816.947998,1166.365723 
	C3776.727295,1181.498657 3735.523193,1185.781372 3693.317139,1176.126953 
	C3678.608398,1172.762573 3664.778809,1167.074219 3651.270996,1158.796631 
z"/>
<path fill="#01D8FF" opacity="1.000000" stroke="none" 
	d="
M934.403687,1008.155579 
	C871.469910,1000.806519 825.827271,969.550171 797.654480,913.902710 
	C763.774475,846.982117 780.830261,765.147339 836.424194,714.840515 
	C912.559265,645.946228 1034.844971,661.942810 1090.217896,748.411499 
	C1136.788818,821.134949 1123.021240,914.480347 1056.975342,969.667725 
	C1021.887634,998.986572 981.045532,1011.617920 934.403687,1008.155579 
z"/>
</svg>