<?xml version="1.0" encoding="utf-8"?>
<!-- Generator: Adobe Illustrator 16.0.0, SVG Export Plug-In . SVG Version: 6.00 Build 0)  -->
<!DOCTYPE svg PUBLIC "-//W3C//DTD SVG 1.1//EN" "http://www.w3.org/Graphics/SVG/1.1/DTD/svg11.dtd" [
	<!ENTITY ns_flows "http://ns.adobe.com/Flows/1.0/">
	<!ENTITY ns_extend "http://ns.adobe.com/Extensibility/1.0/">
	<!ENTITY ns_ai "http://ns.adobe.com/AdobeIllustrator/10.0/">
	<!ENTITY ns_graphs "http://ns.adobe.com/Graphs/1.0/">
]>
<svg version="1.1" id="Layer_1" xmlns:x="&ns_extend;" xmlns:i="&ns_ai;" xmlns:graph="&ns_graphs;"
	 xmlns="http://www.w3.org/2000/svg" xmlns:xlink="http://www.w3.org/1999/xlink" xmlns:a="http://ns.adobe.com/AdobeSVGViewerExtensions/3.0/"
	 x="0px" y="0px" width="1280px" height="960px" viewBox="0 0 1280 960" enable-background="new 0 0 1280 960" xml:space="preserve"
	>
<g>
	<path fill-rule="evenodd" clip-rule="evenodd" fill="#CC6798" d="M1280.154,685.976c-0.398-6.486-1.214-12.918-2.711-19.245
		c-8.646-36.536-30.415-63.702-61.419-83.543c-46.396-29.692-97.696-34.622-150.925-27.654
		c-26.246,3.436-51.304,11.193-75.221,22.551c-2.156,1.024-3.541,1.229-4.751-1.273c-10.316-21.343-23.296-41.532-25.878-66.034
		c-1.575-14.951-3.078-29.737-0.439-44.717c2.843-16.141,8.241-31.518,13.471-46.942c1.812-5.345,0.263-9.071-3.855-12.21
		c-2.542-1.938-5.409-3.337-8.551-3.946c-19.902-3.859-39.39-1.872-58.514,4.444c-3.995,1.32-6.746,3.972-7.892,8.295
		c-1.361,5.138-3.153,10.161-4.679,15.258c-4.046,13.515-6.339,27.498-12.321,40.5c-13.379,29.079-28.671,57.133-44.485,84.917
		c-8.469,14.88-17.278,29.566-26.254,44.885c-9.449-17.549-17.691-34.603-19.655-54.12c-1.437-14.28-2.76-28.438-0.263-42.75
		c2.789-15.98,8.229-31.16,13.19-46.502c2.384-7.369,0.618-11.485-6.365-14.924c-2.514-1.238-5.242-2.35-7.986-2.757
		c-18.224-2.707-36.173-1.093-53.816,4.05c-6.064,1.767-9.543,5.604-11.074,12.104c-3.199,13.58-6.367,27.224-11.986,40.104
		c-33.008,75.663-65.548,151.539-101.688,225.787c-4.214,8.656-8.273,17.478-14.119,25.247c-0.734,0.977-1.467,2.563-3.066,2.023
		c-1.335-0.45-0.917-1.996-1.105-3.076c-1.769-10.143-0.963-20.273,0.672-30.309c3.425-21.028,8.76-41.646,14.026-62.266
		c5.843-22.876,12.024-45.666,17.856-68.545c2.183-8.562-0.356-14.899-7.843-19.182c-10.848-6.206-21.865-8.712-33.495,1.898
		c-1.246,0.583-1.544,0.139-1.147-1.059c2.204-11.516,2.745-23.146,2.105-34.819c-0.506-9.227-2.553-18.106-6.981-26.323
		c-5.322-9.873-13.553-15.756-24.516-17.926c-14.717-2.913-28.469,0.55-41.683,6.654c-32.343,14.941-58.088,37.903-79.464,66.068
		c-1.324,1.744-2.628,3.346-4.617,4.431c-40.488,22.092-80.968,44.2-121.393,66.408c-2.66,1.462-4.221,1.297-6.326-0.956
		c-7.054-7.547-14.432-14.78-22.156-21.657c-27.154-24.174-56.765-45.269-85.072-67.996c-23.948-19.228-47.207-39.178-65.422-64.218
		c-14.683-20.186-24.474-42.271-25.465-67.661c-1.334-34.21,9.18-64.901,27.584-93.255c22.729-35.015,52.648-63.144,85.81-87.854
		c67.453-50.263,140.7-90.032,219.864-118.607c38.289-13.82,77.716-23.375,118.196-28.054c29.032-3.355,58.168-3.872,87.208-0.028
		c22.733,3.009,44.764,8.654,64.928,20.09c17.343,9.836,30.247,23.332,35.163,43.29c3.402,13.811,3.384,27.71,0.839,41.62
		c-5.025,27.469-17.599,51.557-34.021,73.714c-30.979,41.794-71.066,72.674-117.065,96.226
		c-35.649,18.253-73.333,30.597-112.713,37.723c-29.442,5.328-59.034,8.285-88.823,3.062c-24.273-4.256-47.032-12.233-65.847-28.961
		c-3.35-2.978-6.202-6.509-9.447-9.615c-2.541-2.433-5.281-4.956-9.236-2.851c-3.797,2.021-3.872,5.643-3.325,9.179
		c1.269,8.209,4.573,15.664,9.52,22.277c19.412,25.954,45.836,41.26,76.755,48.953c30.689,7.635,61.982,7.505,93.313,5.255
		c36.191-2.599,71.351-10.288,105.935-21.076c82.944-25.876,147.956-74.945,192.525-149.824
		c23.39-39.295,36.37-81.651,32.012-128.11c-2.006-21.387-7.918-41.487-19.967-59.469c-19.5-29.101-47.467-47.091-79.315-59.818
		C673.809,9.683,639.297,3.956,604.063,1.82c-2.048-0.617-4.147-0.167-6.219-0.305c-2.41-0.002-4.821,0-7.231,0
		c-6.419-0.002-12.838,0-19.259,0c-2.063-0.002-4.124,0-6.188,0c-2.501-0.002-5,0-7.503,0c-13.813,0.199-27.537,1.151-41.257,3.001
		c-36.619,4.938-72.29,13.688-107.071,26.012C378.873,41.321,349,53.596,319.618,67.087c-25.134,11.542-49.75,24.071-73.832,37.653
		c-31.515,17.774-61.946,37.252-90.728,59.191c-29.842,22.747-57.729,47.646-82.446,76.009
		c-19.453,22.323-36.675,46.187-50.165,72.543C11.728,333.427,3.306,355.268,1,379c0,0.333,0,0.667,0,1c0.817,2,0.817,4,0,6
		c0,6.667,0,13.333,0,20c1.083,3.656,0.999,7.506,1.962,11.201c4.363,16.732,11.192,32.386,20.097,47.188
		c18.792,31.234,44.012,56.732,71.567,80.107c29.519,25.04,61.356,46.967,93.171,68.92c18.645,12.866,37.428,25.553,55.103,39.761
		c7.624,6.129,8.895,5.312-1.1,10.395c-20.503,10.427-40.714,21.344-60.329,33.361c-34.316,21.023-67.293,43.788-95.524,72.813
		c-28.921,29.734-45.195,64.59-44.265,106.751c0.483,21.896,6.944,41.618,20.188,58.985c8.303,10.889,18.812,18.518,32.605,21.599
		c9.45,2.111,19.02,2.625,28.526,3.92c1,0,2,0,3,0c6-0.832,12-0.832,18,0c1,0,2,0,3,0c5.54-1.077,11.207-0.598,16.771-1.386
		c27.167-3.85,52.108-13.741,75.248-28.215c33.503-20.956,59.924-48.698,77.703-84.092c18.587-37.002,25.72-76.35,22.787-117.689
		c-1.405-19.813-5.265-38.938-13.057-57.176c-1.791-4.191-0.971-6.257,2.775-8.399c13.448-7.691,26.689-15.738,40.202-23.321
		c7.073-3.97,14.157-7.914,21.401-11.662c0.75,1.623-0.011,2.666-0.354,3.726c-9.144,28.271-13.197,57.452-14.274,86.972
		c-0.521,14.251,1.262,28.567,4.557,42.599c5.332,22.713,12.981,44.346,26.588,63.664c15.299,21.722,40.021,22.563,56.429,15.593
		c11.146-4.734,19.005-13.549,25.014-23.692c16.763-28.297,30.165-58.225,42.006-88.877c0.175-0.67,0.294-1.355,0.457-2.026
		c-0.284,1.238-0.379,2.54-1.025,3.652c-1.892,15.025-3.272,30.006-1.796,45.248c1.154,11.915,3.098,23.389,8.622,34.121
		c8.999,17.482,28.461,22.65,44.946,11.878c14.446-9.441,25.078-22.505,33.564-37.134c17.642-30.405,34.045-61.513,49.866-92.9
		c19.278-38.247,36.646-77.384,52.887-117.02c2.989-7.297,5.79-14.689,9.144-22.127c0.788,1.129,0.816,1.981,0.974,2.79
		c3.528,18.177,7.884,36.146,14.367,53.515c5.603,15.006,12.881,29.273,20.148,43.514c2.221,4.352,1.67,7.396-1.098,11.296
		c-19.515,27.499-42.174,52.436-63.521,78.437c-7.827,9.534-16.076,18.789-22.286,29.475c-8.878,15.274-5.475,32.09,14.682,36.524
		c8.743,1.924,17.672,1.61,26.379,0.708c28.865-2.991,55.427-12.815,79.42-29.153c34.362-23.4,47.536-56.119,41.784-96.886
		c-1.781-12.627-5.85-24.645-10.608-36.39c-1.848-4.559-1.383-7.955,1.373-11.983c25.722-37.597,48.687-76.824,68.932-117.64
		c0.491-0.99,0.646-2.279,2.153-2.898c0.572,2.839,1.059,5.616,1.669,8.366c4.115,18.551,8.25,37.106,15.646,54.708
		c4.26,10.139,8.962,20.086,14.072,29.825c1.709,3.259,1.622,5.699-1.364,8.318c-7.874,6.907-15.613,13.936-22.698,21.726
		c-11.024,12.123-21.386,24.704-29.593,38.903c-10.804,18.688-18.67,38.301-18.227,60.451c0.41,20.559,17.2,34.652,37.528,31.525
		c9.508-1.462,18.256-5.151,27.137-8.465c29.087-10.854,53.724-27.955,72.382-52.969c11.003-14.751,16.567-31.55,15.463-50.067
		c-0.788-13.195-4.023-25.98-8.322-38.483c-1.862-5.416-1.66-5.827,3.444-7.72c23.826-8.83,48.598-12.856,73.857-13.758
		c18.335-0.655,36.61,1.008,54.708,3.964c25.739,4.204,50.241,11.953,72.022,26.829c18.079,12.348,31.847,28.264,39.529,48.986
		c6.945,18.735,7.012,37.075-3.415,54.83c-6.309,10.744-14.996,19.033-25.227,25.894c-2.905,1.948-5.965,3.692-8.616,5.985
		c-2.263,1.955-3.749,4.374-2.577,7.5c1.216,3.242,3.932,4.322,7.151,4.452c1.002,0.041,1.987-0.191,2.977-0.334
		c10.071-1.456,18.462-6.681,26.42-12.444c22.722-16.457,36.691-37.835,36.359-66.896
		C1280.302,692.111,1280.874,689.02,1280.154,685.976z M250.017,835.598c-17.806,21.197-39.214,37.432-65.267,47.066
		c-12.861,4.756-26.094,8.054-40.044,5.498c-13.423-2.46-20.683-10.1-22.736-23.565c-2.423-15.892,1.458-30.748,7.365-45.209
		c10.141-24.829,27.292-44.257,47.52-61.373c31.766-26.877,66.402-49.533,102.234-70.496c2.915-1.706,3.822-1.271,4.551,1.843
		c3.309,14.137,5.552,28.394,5.436,42.977C288.865,771.598,275.113,805.722,250.017,835.598z M546.496,548.972
		c-2.698,21.931-9.535,42.802-16.602,63.554c-14.743,43.297-30.84,86.089-50.05,127.64c-3.423,7.403-7.538,14.47-12.809,20.771
		c-6.456,7.72-12.424,7.183-16.813-1.873c-5.017-10.354-6.29-21.648-7.13-32.948c-0.333-4.471-0.055-8.986-0.055-13.481
		c-0.107-56.204,20.381-105.126,53.64-149.304c7.24-9.617,16.691-17.157,27.651-22.55c3.158-1.554,6.429-2.794,9.854-3.473
		C542.938,535.572,547.583,540.135,546.496,548.972z M771.98,732.489c-9.945,13.707-23.018,23.896-37.154,32.853
		c-1.939,1.229-4.217,1.943-6.374,2.806c-2.005,0.801-4.639,1.958-5.987,0.074c-1.45-2.024,1.276-3.411,2.532-4.776
		c20.609-22.407,41.068-44.94,59.425-69.479C785.262,708.494,780.285,721.044,771.98,732.489z M923.543,718.152
		c-4.794,2.688-9.729,5.056-14.817,7.159c-3.255,1.345-4.373-0.094-4.658-2.873c-0.185-1.801-0.24-3.732,0.203-5.463
		c8.157-31.847,24.428-58.727,49.561-80.669C963.713,662.127,955.86,700.021,923.543,718.152z"/>
</g>
</svg>
