<?xml version="1.0" encoding="utf-8"?>
<!-- Generator: Adobe Illustrator 16.0.3, SVG Export Plug-In . SVG Version: 6.00 Build 0)  -->
<!DOCTYPE svg PUBLIC "-//W3C//DTD SVG 1.1//EN" "http://www.w3.org/Graphics/SVG/1.1/DTD/svg11.dtd" [
	<!ENTITY ns_flows "http://ns.adobe.com/Flows/1.0/">
	<!ENTITY ns_extend "http://ns.adobe.com/Extensibility/1.0/">
	<!ENTITY ns_ai "http://ns.adobe.com/AdobeIllustrator/10.0/">
	<!ENTITY ns_graphs "http://ns.adobe.com/Graphs/1.0/">
]>
<svg version="1.1" id="Layer_1" xmlns:x="&ns_extend;" xmlns:i="&ns_ai;" xmlns:graph="&ns_graphs;"
	 xmlns="http://www.w3.org/2000/svg" xmlns:xlink="http://www.w3.org/1999/xlink" xmlns:a="http://ns.adobe.com/AdobeSVGViewerExtensions/3.0/"
	 x="0px" y="0px" width="1280px" height="270px" viewBox="0 0 1280 270" style="enable-background:new 0 0 1280 270;"
	 xml:space="preserve">
<g>
	<path style="fill-rule:evenodd;clip-rule:evenodd;fill:#2A3957;" d="M1189.787,74.423c40.705,0.022,69.995,19.146,82.787,53.402
		c6.088,16.305,7.977,33.264,6.978,50.567c-0.852,14.736-3.722,29.016-10.228,42.393c-13.93,28.642-37.402,43.281-68.585,46.119
		c-14.887,1.355-29.627,0.027-43.76-5.302c-21.341-8.046-36.929-22.593-45.692-43.496c-13.144-31.351-13.529-63.358-0.173-94.651
		c12.891-30.202,37.294-45.285,69.495-48.483C1184.086,74.626,1187.59,74.55,1189.787,74.423z M1228.576,170.45
		c-0.215-9.611-1.215-19.497-5.495-28.778c-6.125-13.278-16.609-20.08-31.088-20.356c-14.554-0.277-26.257,5.548-32.475,18.985
		c-9.375,20.26-9.284,41.068,0.23,61.264c6.313,13.402,17.913,19.045,32.587,18.696c14.456-0.344,24.555-7.224,30.629-20.198
		C1227.293,190.816,1228.334,180.917,1228.576,170.45z"/>
	<path style="fill-rule:evenodd;clip-rule:evenodd;fill:#2A3957;" d="M842.011,212.186c0,13.675-0.087,27.325,0.073,40.972
		c0.032,2.785-1.614,3.214-3.506,3.878c-21.631,7.605-43.899,10.64-66.781,9.455c-14.037-0.727-27.828-2.766-40.985-7.891
		c-24.307-9.469-40.264-26.756-46.803-52.031c-7.024-27.147-6.493-54.107,4.834-80.185c16.005-36.846,50.866-53.926,88.265-51.799
		c22.727,1.293,42.406,9.607,57.33,27.342c11.575,13.758,15.95,29.832,13.333,47.536c-2.342,15.839-11.754,26.424-26.282,32.63
		c-15.331,6.549-31.568,7.768-47.953,7.771c-12.832,0.002-25.651-0.773-38.396-2.188c-4.687-0.521-4.389,1.014-3.426,4.461
		c4.806,17.213,17.267,27.346,36.521,29.93c23.213,3.116,45.333-1.886,67.289-8.481
		C837.546,212.976,839.464,211.803,842.011,212.186z M751.632,161.772c11.604-0.028,22.432-0.1,32.633-4.494
		c6.781-2.921,11.723-7.477,12.932-15.204c1.819-11.629-4.982-22.537-16.954-25.886c-13.438-3.758-25.383-0.112-35.464,9.245
		c-9.11,8.457-12.544,19.704-14.489,31.563c-0.387,2.355,0.756,2.826,2.727,2.996C739.479,160.55,745.931,161.22,751.632,161.772z"
		/>
	<path style="fill-rule:evenodd;clip-rule:evenodd;fill:#293856;" d="M475.298,169.309c0,29.497-0.074,58.994,0.089,88.49
		c0.021,3.925-0.588,5.414-5.016,5.325c-15.658-0.313-31.33-0.272-46.991-0.016c-3.901,0.064-4.556-1.145-4.549-4.733
		c0.113-59.16,0.011-118.322,0.208-177.482c0.016-4.946-1.32-5.994-6.044-5.902c-16.158,0.313-32.328,0.021-48.491,0.199
		c-3.463,0.039-4.506-0.856-4.451-4.399c0.209-13.663,0.201-27.331,0.003-40.994c-0.05-3.419,1.104-4.105,4.268-4.101
		c55.161,0.087,110.322,0.084,165.483,0.005c3.041-0.004,4.34,0.466,4.284,3.983c-0.222,13.829-0.22,27.665-0.001,41.493
		c0.055,3.483-1.185,4.021-4.255,3.997c-16.498-0.134-32.999,0.088-49.493-0.167c-4.263-0.065-5.16,1.271-5.137,5.311
		C475.376,109.98,475.298,139.645,475.298,169.309z"/>
	<path style="fill-rule:evenodd;clip-rule:evenodd;fill:#293856;" d="M999.563,114.454c0-34.141,0.08-68.281-0.104-102.42
		c-0.022-4.171,1.011-5.258,5.183-5.177c14.317,0.28,28.646,0.265,42.963,0.004c3.861-0.07,4.58,1.088,4.573,4.712
		c-0.115,62.284-0.085,124.569-0.082,186.854c0.001,14.175,4.669,19.004,18.941,18.509c4.768-0.166,5.741,1.232,5.631,5.669
		c-0.296,11.983-0.097,23.979-0.105,35.97c-0.001,1.794,0.419,3.858-2.23,4.255c-18.228,2.725-36.276,3.199-52.876-6.492
		c-14.777-8.627-20.707-22.809-21.343-38.979c-0.818-20.787-0.453-41.621-0.54-62.436
		C999.517,141.434,999.563,127.943,999.563,114.454z"/>
	<path style="fill-rule:evenodd;clip-rule:evenodd;fill:#293856;" d="M889.86,113.124c0-33.653,0.112-67.308-0.13-100.959
		c-0.034-4.632,1.367-5.376,5.539-5.299c13.989,0.261,27.99,0.27,41.979-0.006c4.133-0.082,5.21,0.943,5.199,5.148
		c-0.149,61.642-0.103,123.284-0.101,184.927c0,1.832-0.065,3.67,0.049,5.496c0.591,9.416,5.485,14.188,14.906,14.601
		c9.397,0.412,9.398,0.412,9.397,9.701c0,10.662-0.03,21.325,0.025,31.987c0.011,2.187-0.136,3.827-2.898,4.251
		c-15.688,2.403-31.3,2.685-46.189-3.56c-19.718-8.269-27.148-24.934-27.489-44.832c-0.578-33.81-0.159-67.637-0.159-101.456
		C889.946,113.124,889.903,113.124,889.86,113.124z"/>
	<path style="fill-rule:evenodd;clip-rule:evenodd;fill:#293856;" d="M605.981,111.268c3.537-5.416,6.215-11.047,9.94-16.093
		c10.092-13.669,23.695-19.854,40.53-19.542c2.743,0.051,3.654,0.833,3.63,3.688c-0.136,15.83-0.137,31.663-0.001,47.493
		c0.025,2.956-0.899,3.556-3.703,3.405c-6.981-0.374-13.96-0.439-20.944,0.571c-19.596,2.837-29.224,13.345-29.361,33.23
		c-0.214,30.995-0.223,61.993,0.053,92.987c0.046,5.153-1.333,6.243-6.244,6.118c-13.989-0.358-27.994-0.22-41.991-0.055
		c-3.188,0.037-4.186-0.735-4.18-4.082c0.105-58.825,0.091-117.651,0.033-176.478c-0.003-2.919,0.268-4.482,3.946-4.426
		c14.828,0.228,29.662,0.188,44.492,0.019c3.156-0.036,3.922,0.939,3.867,3.955C605.87,91.793,605.981,101.531,605.981,111.268z"/>
	<path style="fill-rule:evenodd;clip-rule:evenodd;fill:#217CF6;" d="M3.618,56.99c-0.462-8.676-0.933-17.353,0.606-25.982
		c82.284-0.002,164.568-0.004,246.852-0.016c2.497,0,4.993-0.114,7.489-0.175c1.537,12.705,0.727,25.444,0.552,38.175
		c-15.618,0.006-31.236,0.013-46.854,0.019c-0.857-12.997-2.944-14.936-16.075-14.936c-11.61,0-23.221,0.041-34.831-0.02
		c-4.261-0.022-8.122,0.827-11.184,4.021c-1.788-1.071-3.755-1.184-5.761-1.076c-10.87,0.576-21.819-1.243-32.631,1.078
		c-3.368-2.954-7.215-4.143-11.758-4.069c-12.088,0.193-24.183,0.157-36.273,0.018c-4.44-0.052-8.425,0.657-11.585,4.026
		c-1.955-1.167-4.114-1.063-6.275-1.062C31.8,57.005,17.708,56.994,3.618,56.99z"/>
	<path style="fill-rule:evenodd;clip-rule:evenodd;fill:#065AD3;" d="M259.119,216.998c0.204,7.693,1.218,15.425-1.084,23
		c-75.152,0-150.304-0.004-225.457,0.007c-9.33,0.001-18.661,0.081-27.991,0.125c-0.818-2.124-1.317-4.28-0.68-6.555
		c0.085-5.521,0.171-11.04,0.257-16.56C89.149,217.01,174.134,217.004,259.119,216.998z"/>
	<path style="fill-rule:evenodd;clip-rule:evenodd;fill:#2582FC;" d="M258.565,30.817c-2.496,0.061-4.992,0.175-7.489,0.175
		c-82.284,0.012-164.568,0.014-246.852,0.016C7.5,16.588,19.149,7.012,33.873,7C98.83,6.946,163.787,6.95,228.743,6.994
		C243.617,7.005,255.207,16.381,258.565,30.817z"/>
	<path style="fill-rule:evenodd;clip-rule:evenodd;fill:#0254CE;" d="M4.587,240.13c9.33-0.044,18.661-0.124,27.991-0.125
		c75.152-0.011,150.305-0.007,225.457-0.007c-3.261,12.88-16.002,22.977-28.368,22.984c-64.994,0.046-129.987,0.041-194.98,0.007
		C19.697,262.981,7.947,253.966,4.587,240.13z"/>
	<path style="fill-rule:evenodd;clip-rule:evenodd;fill:#0B60D9;" d="M259.113,169.996c0.425,10.334,0.473,20.667,0.007,31.001
		c-47.392,0.001-94.784,0.002-142.176,0.004c-2.485,0-5.009,0.259-7.269-1.153c3.311-3.172,4.395-7.063,4.275-11.595
		c-0.162-6.078,0.075-12.166,0.14-18.25C162.431,170.001,210.772,169.999,259.113,169.996z"/>
	<path style="fill-rule:evenodd;clip-rule:evenodd;fill:#085CD5;" d="M109.675,199.848c2.26,1.412,4.784,1.153,7.269,1.153
		c47.392-0.002,94.784-0.003,142.176-0.004c0.427,5.333,0.463,10.667-0.001,16.001c-84.985,0.006-169.969,0.012-254.956,0.018
		c-0.05-3.64,0.15-7.304-0.212-10.912c-0.432-4.3,1.38-5.222,5.368-5.189c15.719,0.127,31.44-0.079,47.161-0.162
		c1.793,0.281,3.586,0.799,5.381,0.808c13.556,0.069,27.111,0.031,40.667,0.046C105.064,201.607,107.371,200.751,109.675,199.848z"
		/>
	<path style="fill-rule:evenodd;clip-rule:evenodd;fill:#136AE4;" d="M259.119,113.993c0.392,12.001,0.468,24.002-0.001,36.003
		c-48.348,0.002-96.696,0.004-145.044,0.006c-0.006-11.999-0.013-23.999-0.019-35.999c11.625,0,23.25,0,34.874,0.001
		c0.073,6.137,0.024,12.278,0.252,18.409c0.244,6.58,4.206,10.604,10.659,10.658c13.943,0.116,27.888,0.12,41.83-0.01
		c6.67-0.062,10.324-3.899,10.489-10.644c0.15-6.134,0.148-12.272,0.213-18.409C227.955,114.004,243.537,113.998,259.119,113.993z"
		/>
	<path style="fill-rule:evenodd;clip-rule:evenodd;fill:#0F65DF;" d="M114.074,150.002c48.348-0.002,96.696-0.004,145.044-0.006
		c0.409,6.667,0.465,13.334-0.005,20c-48.341,0.003-96.682,0.005-145.023,0.007C114.084,163.336,114.079,156.669,114.074,150.002z"
		/>
	<path style="fill-rule:evenodd;clip-rule:evenodd;fill:#136AE4;" d="M3.623,162.007c-0.6-19.985-0.514-39.97-0.002-59.954
		c15.683-0.013,31.366-0.024,47.049-0.036c0,19.999-0.001,39.997-0.001,59.996C34.986,162.011,19.305,162.009,3.623,162.007z"/>
	<path style="fill-rule:evenodd;clip-rule:evenodd;fill:#1E78F1;" d="M50.669,102.017c-15.683,0.012-31.366,0.023-47.049,0.036
		C3,87.032,3.079,72.012,3.617,56.99c14.091,0.004,28.183,0.015,42.274,0.002c2.161-0.002,4.32-0.105,6.275,1.062
		c-1.162,3.661-1.329,7.414-1.318,11.234C50.876,80.197,50.741,91.107,50.669,102.017z"/>
	<path style="fill-rule:evenodd;clip-rule:evenodd;fill:#1973ED;" d="M259.119,113.993c-15.583,0.005-31.165,0.011-46.747,0.016
		c-0.036-14.999-0.072-29.999-0.108-44.998c15.618-0.006,31.235-0.013,46.854-0.019C259.501,83.992,259.577,98.992,259.119,113.993z
		"/>
	<path style="fill-rule:evenodd;clip-rule:evenodd;fill:#0B60D9;" d="M3.623,162.007c15.682,0.002,31.364,0.004,47.045,0.006
		c0.07,8.954,0.342,17.913,0.131,26.86c-0.121,5.111,1.43,9.044,5.681,11.879c-15.721,0.083-31.442,0.289-47.161,0.162
		c-3.988-0.032-5.8,0.89-5.368,5.189c0.363,3.608,0.162,7.272,0.212,10.912c-0.084,5.52-0.17,11.039-0.256,16.56
		c-0.846-0.99-0.629-2.196-0.629-3.335c0.002-21.927,0.017-43.853,0.047-65.778C3.327,163.644,3.519,162.825,3.623,162.007z"/>
	<path style="fill-rule:evenodd;clip-rule:evenodd;fill:#1E78F1;" d="M150.175,58.077c-1.842,7.901-0.558,15.965-1.244,23.926
		c-11.632-0.001-23.265-0.001-34.897-0.002c-0.076-4.3-0.28-8.604-0.188-12.9c0.082-3.85-0.199-7.566-2.063-11.021
		c10.812-2.321,21.761-0.502,32.631-1.078C146.42,56.894,148.387,57.006,150.175,58.077z"/>
	<path style="fill-rule:evenodd;clip-rule:evenodd;fill:#1973ED;" d="M114.034,82.001c11.632,0.001,23.265,0.001,34.897,0.002
		c0,10.667-0.001,21.334-0.001,32.001c-11.625-0.001-23.25-0.001-34.874-0.001C114.048,103.336,114.041,92.669,114.034,82.001z"/>
</g>
</svg>
