<?xml version="1.0" encoding="utf-8"?>
<!-- Generator: Adobe Illustrator 16.0.0, SVG Export Plug-In . SVG Version: 6.00 Build 0)  -->
<!DOCTYPE svg PUBLIC "-//W3C//DTD SVG 1.1//EN" "http://www.w3.org/Graphics/SVG/1.1/DTD/svg11.dtd" [
	<!ENTITY ns_flows "http://ns.adobe.com/Flows/1.0/">
	<!ENTITY ns_extend "http://ns.adobe.com/Extensibility/1.0/">
	<!ENTITY ns_ai "http://ns.adobe.com/AdobeIllustrator/10.0/">
	<!ENTITY ns_graphs "http://ns.adobe.com/Graphs/1.0/">
]>
<svg version="1.1" id="Layer_1" xmlns:x="&ns_extend;" xmlns:i="&ns_ai;" xmlns:graph="&ns_graphs;"
	 xmlns="http://www.w3.org/2000/svg" xmlns:xlink="http://www.w3.org/1999/xlink" xmlns:a="http://ns.adobe.com/AdobeSVGViewerExtensions/3.0/"
	 x="0px" y="0px" width="1239.845px" height="698.908px" viewBox="0 0 1239.845 698.908"
	 enable-background="new 0 0 1239.845 698.908" xml:space="preserve">
<g>
	<path fill-rule="evenodd" clip-rule="evenodd" fill="#3177C4" d="M1241.845,5.499c0-1.333-0.032-2.667,0.011-3.999
		c0.032-1.006-0.703-0.282-1.011-0.5C829.063,1,417.281,1,5.5,1C4.166,1,2.832,1.032,1.5,0.989C0.494,0.957,1.218,1.692,1,2
		c0,0.333,0,0.667,0,1c0,231.304,0,462.609,0,693.914c0,0.333,0,0.667,0,0.999c0,0.333,0,0.667,0,1
		c1.108,2.092,3.035,0.938,4.498,0.938c410.509,0.063,821.019,0.055,1231.528,0.162c3.907,0.001,4.94-0.577,4.938-4.778
		C1241.829,465.321,1241.845,235.41,1241.845,5.499z M1092.634,344.621c-0.005-1.553,0.758-3.331-0.758-4.674
		c0,0,0.001,0,0.002-0.001c-0.001,0-0.003,0-0.004,0c-0.001-0.001-0.001-0.002-0.002-0.002l0.006,0.003
		c-0.282-0.328-0.473-0.368-0.594-0.19c-0.063-0.02-0.124-0.04-0.187-0.06c-0.366-0.024-0.732-0.047-1.098-0.071
		c-3.295-0.465-6.59-0.415-9.886-0.076c-0.902,0.078-1.804,0.181-2.705,0.333c-0.021,0.003-0.04,0.005-0.061,0.008
		c0.001,0,0.002,0,0.003,0c-0.002,0-0.004,0-0.006,0.001c-3.205-5.591-2.101-7.96,3.723-7.986
		c11.604-0.053,11.604-0.053,11.604-11.549c0-1.488,0.161-2.998-0.028-4.462c-0.684-5.279,0.048-9.681,6.233-11.048
		c2.536,0.013,2.202,1.834,2.2,3.467c-0.008,6.273,0.255,12.562-0.098,18.816c-0.23,4.098,1.281,4.958,5.076,4.903
		c6.572-0.095,13.182-0.671,19.741,0.384c-0.387-0.495-0.82-0.819-1.282-1.041c0.524,0.043,0.995,0.276,1.282,1.041
		c-0.568,2.471,0.854,5.337-1.474,7.461c-2.101-0.278-4.205-0.398-6.31-0.449c-3.946-0.193-7.89-0.188-11.832,0.108
		c-0.834,0.006-1.666,0.005-2.499-0.007c-0.352-0.005-0.636,0.121-0.854,0.334c-0.1,0.012-0.2,0.021-0.3,0.034
		c-0.104-0.339-0.315-0.328-0.644,0.073c-1.296,1.439-0.624,3.182-0.633,4.769c-0.064,10.97-0.141,21.941-0.003,32.91
		c0.128,10.121-0.612,20.258,0.473,30.364c0.609,5.03,1.744,9.695,7.664,11.041c0.002,0,0.004,0.001,0.006,0.001
		c-0.001,0-0.003,0-0.004,0c3.231,1.224,6.457,1.321,9.678-0.036c1.045-0.101,2.157-0.018,2.872-1.035
		c0.655-0.316,1.31-0.633,1.965-0.948c0.628-0.023,1.255-0.045,1.882-0.066c0.014,2.303,0.029,4.604,0.043,6.907
		c-5.301,3.393-11.148,4.161-17.2,3.19c-7.977-1.28-12.992-6.391-14.869-14.752c-0.878-3.908-1.107-7.877-1.101-11.879
		C1092.688,381.831,1092.693,363.226,1092.634,344.621z M1102.593,340.19c-0.001-0.003-0.002-0.005-0.003-0.008
		c0.003,0,0.006,0,0.009,0C1102.597,340.185,1102.595,340.188,1102.593,340.19z M1069.89,397.956
		c-1.452,1.412-2.016,3.302-2.825,5.08c-5.478,12.042-14.416,20.183-27.197,23.941c-6.009,0.439-12.017,0.684-18.017-0.116
		c-2.235-0.111-4.345-0.636-6.227-1.901c-4.571-2.968-8.989-6.123-12.576-10.294c-0.736-1.231-1.472-2.463-2.208-3.694
		c-3.118-2.005-1.896,0.911-1.899,1.835c-0.052,16.24-0.021,32.48-0.013,48.721c0.004,6.868-0.002,6.87-7.099,6.621
		c-0.328-0.012-0.655-0.096-0.982-0.146c-0.016-44.655-0.034-89.311-0.038-133.966c0-0.993,0.161-1.986,0.247-2.98
		c2.54,0.002,5.079,0.004,7.62,0.006c0.858,5.387,0.245,10.803,0.333,16.206c0.022,1.398,0.127,3.212,1.753,0.661
		c3.419-6.706,8.691-11.498,15.347-14.862c1.383-0.545,2.755-1.125,4.153-1.632c20.588-7.469,40.418,0.725,48.229,20.086
		c1.479,3.664,2.256,7.613,3.356,11.43c-0.041,1.864,0.104,3.699,0.875,5.431c0.001,0.001,0.001,0.002,0.001,0.003
		c-0.015,4.742-0.03,9.483-0.045,14.226C1071.576,387.694,1070.154,392.721,1069.89,397.956z M973.006,296.856
		c1.839,3.133,1.229,6.113-1.108,8.687c-2.254,2.481-5.069,3.124-8.119,1.538c-3.389-1.762-4.519-4.696-3.89-8.365
		c0.404-2.359,2.383-3.481,3.979-4.895c2.324-0.369,4.619-0.282,6.876,0.421C971.508,295.107,972.433,295.879,973.006,296.856z
		 M961.965,331.244c2.869,0.01,5.738,0.019,8.606,0.029c0.063,1.773,0.169,3.545,0.172,5.318c0.035,29.413,0.056,58.825,0.08,88.239
		c-8.876,0.854-8.877,0.854-8.875-7.953C961.953,388.333,961.959,359.789,961.965,331.244z M946.883,338.952
		c-12.668-6.907-30.282,4.488-30.91,19.996c-0.07,0.854-0.139,1.707-0.209,2.561c-2.504,1.041-1.448,3.435-1.984,5.225
		c-1.325,4.179-1.089,8.516-1.125,12.792c-0.104,12.607-0.037,25.216-0.037,37.823c0,8.173,0,8.173-8.411,7.539
		c-0.505-0.305-0.734-0.686-0.831-1.1c0.195,0.388,0.46,0.758,0.831,1.1c-0.055-30.906-0.109-61.812-0.164-92.717
		c2.294-2.499,5.204-1.021,7.855-1.22c0.022,5.895,0.017,11.791,0.103,17.686c0.011,0.737-0.696,2.227,1.079,1.95
		c0.35-0.055,0.552-1.049,0.822-1.609c0.32-1.007,0.642-2.016,0.962-3.024c2.3-4.535,5.442-8.438,9.01-12.021
		c7.849-4.884,16.014-7.101,24.934-2.956c-0.016,2.592-0.029,5.184-0.045,7.774c-0.014,0.008-0.025,0.019-0.04,0.027
		C948.108,338.835,947.495,338.893,946.883,338.952z M891.906,342.887c-4.861-4.333-10.829-5.446-17.036-5.864
		c-2.321-0.48-4.648-0.416-6.976-0.058c-7.196,0.028-13.515,2.461-19.076,6.965c-10.63,8.438-14.844,19.792-15.001,32.992
		c-0.434,1.688-0.436,3.373,0.021,5.058c-0.254,7.669,1.535,14.894,5.493,21.402c5.101,8.385,11.865,14.694,22.275,15.666
		c6.325,1.667,12.524,0.931,18.662-0.971c0.001,0,0.001,0,0.002,0c0.887-0.334,1.774-0.668,2.661-1.002
		c3.53-0.267,6.118-2.988,9.46-3.936c1.077,8.133,0.923,8.363-6.19,11.121c-9.194,3.563-18.699,3.586-28.305,2.565
		c-6.814-0.49-12.239-3.851-17.227-8.212c-8.753-7.652-13.279-17.571-15.607-28.701c-0.635-8.351-0.299-16.668,0.846-24.958
		c0.04-0.658-0.094-1.388,0.144-1.965c5.072-12.327,11.789-23.352,24.014-29.95c14.239-4.885,28.482-6.015,42.733-0.049
		C892.772,336.314,894.2,339.769,891.906,342.887z M783.852,426.875c0.004-0.001,0.008-0.002,0.012-0.003
		c-0.015,0.008-0.03,0.012-0.045,0.02C783.83,426.885,783.841,426.881,783.852,426.875z M807.521,304.692
		c-4.25-2.396-8.925-3.715-13.663-4.308c-10.773-1.349-21.616-2.127-30.957,5.154c-4.488,3.499-8.42,7.484-8.074,13.873
		c-1.376,3.037-1.215,6.072,0.007,9.105c0-0.001,0-0.002,0-0.003c0,0.001,0.001,0.003,0.001,0.005
		c0.117,7.266,3.8,12.25,9.996,15.625c5.891,5.147,12.83,8.686,19.482,12.661c12.082,7.221,24.083,14.513,28.622,29.14
		c1.763,8.835-0.389,17.039-4.026,25.005c-4.419,6.358-10.096,11.143-17.409,13.867c-0.739,0.674-1.532,1.229-2.603,1.172
		c-1.479-0.18-2.89,0.026-4.243,0.557c-0.271,0.066-0.538,0.158-0.792,0.325c-6.655,0.63-13.313,0.737-19.971,0.031
		c-0.148-0.229-0.327-0.254-0.534-0.076c-0.568-0.327-1.192-0.38-1.828-0.367c-1.19-0.238-2.38-0.477-3.57-0.716
		c0.112,0.111,0.231,0.192,0.348,0.284c-0.118-0.082-0.235-0.174-0.348-0.284c-4.633-1.609-9.266-3.221-13.897-4.832
		c-0.051-2.654-0.082-5.31-0.16-7.964c-0.042-1.412,0.395-2.247,1.99-1.928c3.896,2.969,8.321,4.77,13.043,5.919
		c0.225,0.2,0.467,0.324,0.719,0.407c1.322,0.632,2.78,0.672,4.237,0.712c-0.011-0.012-0.023-0.021-0.036-0.03
		c6.44,1.652,12.885,1.458,19.33,0.016c3.749-0.231,7.123-1.39,9.909-4.001c5.36-2.403,8.004-6.979,9.801-12.236
		c1.875-4.845,1.713-9.687-0.014-14.528c-0.685-4.68-3.409-8.086-6.844-11.078c-5.764-5.021-12.255-8.884-19.134-12.142
		c-5.358-3.429-10.752-6.804-16.069-10.297c-16.14-10.604-18.843-26.74-14.563-39.236c4.437-12.951,14.766-19.482,27.626-22.513
		c1.069-0.186,2.137-0.371,3.205-0.556c0.753,0.024,1.498,0.001,2.181-0.378c8.645-0.301,17.062,1.376,25.491,2.94
		C810.663,296.295,807.269,300.963,807.521,304.692z M763.837,418.015c-0.103-0.094-0.209-0.17-0.314-0.248
		c0.108,0.07,0.215,0.149,0.317,0.248C763.839,418.015,763.838,418.015,763.837,418.015z M709.851,425.918
		c-1.65,0.3-3.452,0.011-4.854,1.262c-4.517-0.12-9.037,0.151-13.555,0.192c-0.499-0.001-0.997-0.003-1.495,0.003
		c-2.678-0.011-5.355-0.122-8.029-0.481c-1.896-0.538-3.814-1.008-5.684-1.625c-13.188-4.354-21.913-13.189-26.335-26.321
		c-0.619-3.032-1.237-6.063-1.857-9.095c0.013,0.011,0.026,0.021,0.039,0.031c-0.875-9.024-0.484-18.007,0.926-26.953
		c-0.201,0.572-0.402,1.144-0.604,1.716c0.045-0.616,0.187-1.205,0.604-1.716c0.304-2.234,1.057-4.206,2.147-6.272
		c1.987-3.761,4.824-7.105,5.938-11.322c2.736-2.374,5.467-4.754,8.213-7.118c17.255-14.86,56.91-15.131,65.496,20.314
		c2.027,8.369,1.778,16.777,2.019,25.214c-1.647,0.095-3.295,0.271-4.94,0.273c-18.232,0.019-36.465,0.048-54.695-0.024
		c-3.237-0.013-5.531,0.28-3.439,4.309c0.087,0.872,0.174,1.744,0.26,2.616c0.106-0.535,0.243-1.016,0.406-1.45
		c-0.029,0.491-0.138,0.977-0.406,1.45c1.244,7.014,4.474,12.656,11.04,15.997c2.577,2.052,5.439,3.329,8.806,3.232
		c12.507,2.846,23.726-0.247,34.067-7.386c2.625,5.612,1.266,11.391,0.723,17.135C719.878,422.318,715.168,424.865,709.851,425.918z
		 M565.841,463.359c0.03,3.827-0.871,5.513-4.929,5.057c-5.224-0.587-12.037,2.246-15.316-1.167
		c-3.011-3.133-0.845-9.827-0.853-14.946c-0.059-38.436-0.037-76.872-0.017-115.309c0.002-1.984,0.231-3.967,0.355-5.952
		c6.92,0.092,13.84,0.184,20.76,0.275c0.044,4.211,0.087,8.422,0.131,12.633c0.036,0.79-0.236,1.968,0.171,2.292
		c0.914,0.728,1.333-0.438,1.708-1.032c5.856-9.292,14.529-14.218,25.072-16.277c4.004,0.031,8.009,0.062,12.013,0.092
		c3.271,1.003,6.541,2.007,9.811,3.011c1.352,0.728,2.704,1.455,4.055,2.182c10.003,7.438,14.715,17.905,17.026,29.746
		c0.076,1.156,0.154,2.313,0.229,3.469c1.484,22.896-2.628,43.4-24.13,56.477c-1.565,0.514-3.13,1.026-4.695,1.54
		c-0.446,0.08-0.892,0.226-1.337,0.435c-0.939,0.187-1.877,0.372-2.815,0.558c-0.771-0.041-1.534-0.042-2.205,0.424
		c-4.321,0.006-8.642,0.011-12.962,0.017c-4.225-0.018-7.833-1.819-11.345-3.908c-3.777-2.248-6.281-5.673-8.65-9.24
		c-0.396-0.596-0.846-1.678-1.766-1.07c-0.743,0.49-0.38,1.498-0.163,2.294C565.911,431.093,565.714,447.228,565.841,463.359z
		 M500.925,410.945c-0.597,0.507-1.505,0.896-1.745,1.536c-3.528,9.439-6.967,18.913-10.427,28.377
		c-5.966,11.254-12.898,21.604-25.222,26.895c-5.608,1.716-11.387,1.933-17.188,1.978c-5.146-0.285-7.177-2.816-6.288-8.022
		c0.439-2.577,0.195-5.298,0.035-7.938c-0.133-2.205,0.619-3.092,2.814-2.6c7.4,1.861,14.351,2.003,19.406-5.086
		c7.401-5.189,7.205-14.189,10.548-21.404c0.355-0.767-1.278-2.456-1.99-3.719c-0.014-0.343-0.027-0.686-0.042-1.028
		c-1.078-2.013-0.081-4.959-2.803-6.232c-0.218-4.524-2.766-8.202-4.472-12.176c-4.179-9.731-6.656-20.12-11.458-29.609
		c-0.299-1.864-0.883-3.614-2.077-5.116c-0.37-0.944-0.739-1.89-1.109-2.834c-3.52-9.943-7.284-19.789-11.782-29.341
		c-0.372-0.889-0.744-1.777-1.116-2.666c0.215-0.187,0.23-0.389,0.048-0.607c7.876-0.082,15.753-0.164,23.629-0.247
		c1.377,4.093,2.756,8.186,4.129,12.28c6.027,17.981,11.036,36.302,18,53.97c0,0.001,0,0.001,0,0.002
		c0.898,2.634,0.541,5.715,2.393,7.86c8.185-23.816,16.368-47.492,24.399-71.22c0.817-2.413,2.056-2.942,4.33-2.904
		c5.983,0.101,11.97-0.003,17.956-0.025c-3.379,8.966-6.737,17.939-10.143,26.895c-3.625,9.535-7.296,19.055-10.948,28.579
		c0,0.001,0,0.003,0,0.004c-1.035,2.57-2.164,5.106-3.08,7.717c-1.598,4.552-4.638,8.609-4.712,13.684
		C502.04,409.086,500.435,409.637,500.925,410.945z M416.147,418.868c0.046,5.442-1.628,6.872-6.62,6.312
		c-3.29-0.369-6.687-0.365-9.977,0.004c-4.193,0.471-6.254-0.813-5.713-5.233c-0.001-35.332-0.001-70.664-0.002-105.997
		c-0.011-0.322-0.022-0.644-0.033-0.966c-1.141-1.907-2.979-0.888-4.45-0.907c-11.024-0.14-22.049-0.138-33.074-0.18
		c-0.052-5.961-0.103-11.922-0.153-17.883c0.318-0.097,0.636-0.277,0.955-0.277c31.271-0.079,62.542-0.127,93.813-0.24
		c2.595-0.01,2.943,1.309,2.905,3.44c-0.09,4.989-0.022,9.981-0.019,14.973c-11.156,0.038-22.315,0.229-33.466,0.027
		c-3.6-0.065-4.4,1.084-4.387,4.508C416.048,350.588,415.86,384.73,416.147,418.868z M311.628,469.753
		c-2.876,4.164-7.026,4.964-11.789,4.959c-61.394-0.07-122.788-0.071-184.182,0.006c-4.377,0.006-8.224-0.802-11.407-3.917
		c-0.606-2.397-1.449-4.686-1.446-7.271c0.075-64.52,0.076-129.04,0.09-193.56c0.065-1.496,0.96-2.483,2.052-3.349
		c2.878-2.229,6.101-3.004,9.764-3c61.943,0.065,123.886,0.043,185.829,0.051c9.064,0.001,12.278,3.231,12.28,12.417
		c0.014,61.942-0.001,123.886,0.035,185.83C312.856,464.623,312.487,467.211,311.628,469.753z"/>
	<path fill-rule="evenodd" clip-rule="evenodd" fill="#3177C4" d="M270.374,395.116c-5.396-2.58-11.11-4.565-16-8.104
		c-3.643-2.635-6.665-5.871-5.465-10.866c1.111-4.628,4.866-6.511,9.094-7.517c10.041-2.388,19.506-0.318,28.521,4.154
		c2.619,1.3,3.806,1.723,3.655-1.939c-0.198-4.82-0.075-9.655-0.038-14.484c0.013-1.744-0.004-3.31-2.167-3.88
		c-17.226-4.541-34.307-5.395-50.485,3.439c-7.464,4.076-12.202,10.608-12.614,19.576c-0.875,2.659-0.907,5.318,0.019,7.972
		c0-0.001,0-0.001,0-0.002c0,0.002,0,0.003,0.001,0.005c0.014,0.496,0.028,0.993,0.042,1.489c0.327,7.401,4.44,12.734,9.729,17.286
		c5.771,4.969,12.893,7.531,19.745,10.55c4.726,2.082,9.485,4.133,13.049,8.09c4.547,5.049,3.549,11.458-2.457,14.611
		c-2.178,1.144-4.681,1.672-7.035,2.48c-3.669-0.023-7.339-0.047-11.008-0.071c-7.935-1.432-15.106-4.695-22.286-9.994
		c0,6.996,0.131,13.096-0.059,19.187c-0.087,2.795,0.869,4.1,3.541,5.03c14.934,5.2,30.161,5.783,45.206,1.584
		c19.39-5.413,27.6-26.937,17.144-43.578C285.778,402.605,278.071,398.799,270.374,395.116z"/>
	<path fill-rule="evenodd" clip-rule="evenodd" fill="#3177C4" d="M212.473,350.944c-25.612,0.074-51.225,0.081-76.838-0.009
		c-2.705-0.01-3.437,0.938-3.334,3.478c0.167,4.151,0.017,8.313,0.054,12.472c0.011,1.219-0.529,2.853,1.634,2.905
		c7.495,0.057,15.002,0.401,22.479,0.063c4.561-0.206,5.829,1.097,5.783,5.739c-0.246,24.825-0.015,49.654-0.217,74.48
		c-0.033,4.088,1.195,5.226,5.084,4.952c4.477-0.314,9.025-0.408,13.483,0.02c4.564,0.438,5.485-1.234,5.455-5.563
		c-0.184-26.49-0.052-52.984-0.025-79.476c-0.046-0.003-0.092-0.005-0.138-0.008c0.014-0.02,0.021-0.041,0.035-0.061v-0.001
		c0,0,0,0.001,0,0.001l0.103,0.068c9.308-0.075,18.615-0.15,27.923-0.226c2.146,0.294,1.928-1.209,1.928-2.539
		c-0.001-4.325-0.161-8.656,0.048-12.97C216.062,351.538,215,350.937,212.473,350.944z M161.872,368.93c0-0.01,0-0.02,0-0.029
		c0.023,0.011,0.045,0.019,0.068,0.029l0,0h0C161.917,368.93,161.895,368.93,161.872,368.93z"/>
	<path fill-rule="evenodd" clip-rule="evenodd" fill="#3177C4" d="M613.918,372.955c0.147-15.212-9.075-26.038-22.427-26.327
		c-14.258-0.308-25.018,10.35-25.566,25.323c-0.495,5.338-0.419,10.677-0.031,16.015c0.028,9.677,6.574,19.075,15.157,21.765
		c10.396,3.259,20.658,0.084,26.537-8.25c4.761-6.751,6.474-14.38,6.376-22.515C614.332,376.96,614.381,374.956,613.918,372.955z"/>
	<path fill-rule="evenodd" clip-rule="evenodd" fill="#3177C4" d="M674.484,368.839c11.139,0.092,22.279,0.054,33.418,0.048
		c5.652-0.003,5.652-0.011,4.175-5.981c-0.173-0.144-0.301-0.3-0.402-0.461c0.117,0.157,0.246,0.313,0.402,0.461
		c-0.051-1.658,0.222-3.398-1.18-4.72c-2.605-7.667-6.924-13.295-15.908-13.375c-1.714-0.676-3.416-0.58-5.11,0.068
		c-10.454,1.339-17.166,8.828-19.802,22.094c-0.031,0.324-0.062,0.648-0.093,0.973C671.161,369.804,672.994,368.827,674.484,368.839
		z"/>
	<path fill-rule="evenodd" clip-rule="evenodd" fill="#3177C4" d="M1064.724,372.959c0.122-2.078,0.386-4.172-0.728-6.097
		c0.007-0.001,0.013-0.001,0.02-0.002c-0.11-1.771,0.285-3.647-0.824-5.208c-0.044-0.182-0.158-0.337-0.361-0.461
		c-0.25-0.42-0.697-0.827-0.722-1.259c-0.689-11.961-14.048-23.495-25.255-22.92c-1.661-0.019-3.322-0.036-4.982-0.054
		c-7.683-0.023-14.469,2.323-20.137,7.621c-7.676,7.115-11.669,15.889-11.879,26.366c-0.435,5.67-0.454,11.339,0.015,17.007
		c-0.549,2.529,0.213,4.977,0.921,7.274c3.345,10.853,9.437,19.315,20.883,22.81c6.494,2.384,13.001,2.715,19.525,0.118
		c1.745-0.246,3.278-0.925,4.516-2.208c5.308-2.429,8.741-6.721,12.011-11.391c3.15-4.499,3.271-9.861,5.139-14.694
		c1.608-1.711,1.015-3.854,1.149-5.854C1065.278,380.392,1064.921,376.671,1064.724,372.959z"/>
</g>
</svg>
