<?xml version="1.0" encoding="utf-8"?>
<!-- Generator: Adobe Illustrator 16.0.3, SVG Export Plug-In . SVG Version: 6.00 Build 0)  -->
<!DOCTYPE svg PUBLIC "-//W3C//DTD SVG 1.1//EN" "http://www.w3.org/Graphics/SVG/1.1/DTD/svg11.dtd" [
	<!ENTITY ns_flows "http://ns.adobe.com/Flows/1.0/">
	<!ENTITY ns_extend "http://ns.adobe.com/Extensibility/1.0/">
	<!ENTITY ns_ai "http://ns.adobe.com/AdobeIllustrator/10.0/">
	<!ENTITY ns_graphs "http://ns.adobe.com/Graphs/1.0/">
]>
<svg version="1.1" id="Layer_1" xmlns:x="&ns_extend;" xmlns:i="&ns_ai;" xmlns:graph="&ns_graphs;"
	 xmlns="http://www.w3.org/2000/svg" xmlns:xlink="http://www.w3.org/1999/xlink" xmlns:a="http://ns.adobe.com/AdobeSVGViewerExtensions/3.0/"
	 x="0px" y="0px" width="595.28px" height="119.985px" viewBox="0 0 595.28 119.985"
	 style="enable-background:new 0 0 595.28 119.985;" xml:space="preserve">
<g>
	<path style="fill-rule:evenodd;clip-rule:evenodd;fill:#057CCC;" d="M90.988,1c8.038,4.381,16.719,7.295,25.106,10.87
		c2.688,1.146,3.774,2.431,3.762,5.456c-0.117,29.147-0.104,58.296-0.015,87.444c0.008,2.721-0.615,4.519-3.415,5.13
		c-0.161,0.035-0.314,0.109-0.468,0.173c-8.62,3.547-17.142,9.601-25.885,9.939c-8.727,0.336-17.695-4.99-26.522-7.938
		c-15.318-5.118-30.616-10.293-45.897-15.519c-1.479-0.506-3.29-0.503-4.601-2.357c8.771-1.397,16.941,1.036,25.169,2.15
		c15.672,2.122,31.332,4.393,46.917,7.068c4.565,0.784,4.826-0.831,4.813-4.485c-0.104-30.48-0.061-60.961-0.055-91.441
		c0-2.164,0.06-4.327,0.091-6.489C90.322,1,90.655,1,90.988,1z"/>
	<path style="fill-rule:evenodd;clip-rule:evenodd;fill:#077DCD;" d="M7.732,36.331c4.438-3.26,7.484-2.877,11.017,0.004
		c3.933,3.206,7.94,8.89,12.429,8.208c4.029-0.611,7.327-6.237,10.883-9.716c4.638-4.538,9.313-9.046,13.77-13.757
		c1.922-2.032,3.542-2.194,6.089-1.147c12.972,5.334,13.004,5.257,13.004,19.251c0,11.98-0.107,23.961,0.075,35.937
		c0.046,3.001-1.014,4.362-3.686,5.518c-12.671,5.48-12.638,5.561-22.335-4.062c-5.079-5.038-10.252-9.987-15.179-15.171
		c-2.002-2.107-3.427-2.462-5.759-0.468c-3.534,3.022-7.368,5.695-11.097,8.486c-1.042,0.779-2.051,1.913-3.539,1.4
		c-1.537-0.529-3.7-0.414-4.389-1.961c-0.72-1.619,1.305-2.421,2.272-3.412c3.482-3.574,6.979-7.144,10.642-10.53
		c2.064-1.907,2.115-3.284-0.001-5.198C17.154,45.396,12.549,40.895,7.732,36.331z M58.287,38.078
		c-6.078,4.599-11.352,8.617-16.66,12.588c-1.354,1.014-1.743,1.894-0.179,3.063c5.412,4.044,10.796,8.126,16.839,12.681
		C58.287,56.755,58.287,48.054,58.287,38.078z"/>
	<path style="fill-rule:evenodd;clip-rule:evenodd;fill:#077DCD;" d="M231.307,85.18c8.667,3.938,16.862,6.998,25.877,6.821
		c3.2-0.063,6.296-0.547,9.28-1.641c5.771-2.114,8.681-6.142,8.772-11.978c0.097-6.167-2.363-9.962-8.102-12.42
		c-4.936-2.114-10.316-2.487-15.43-3.904c-2.556-0.709-5.159-1.329-7.617-2.3c-8.226-3.25-12.87-9.197-13.022-18.22
		c-0.159-9.35,3.662-16.544,12.319-20.454c12.168-5.497,24.414-2.991,36.578,0.35c1.53,0.421,1.986,1.48,1.924,3.01
		c-0.094,2.316-0.025,4.638-0.025,7.266c-5.582-1.564-10.675-3.588-16.115-4.303c-5.524-0.727-10.965-0.689-16.199,1.445
		c-5.446,2.221-7.75,5.893-7.651,11.576c0.096,5.555,3.278,8.54,8.241,9.845c5.454,1.435,11.003,2.505,16.48,3.859
		c15.101,3.733,21.725,13.389,19.403,28.136c-1.55,9.845-8.021,14.994-17.047,17.31c-12.024,3.083-23.759,1.058-35.308-2.742
		c-1.6-0.526-2.475-1.423-2.388-3.265C231.398,90.975,231.307,88.37,231.307,85.18z"/>
	<path style="fill-rule:evenodd;clip-rule:evenodd;fill:#077DCC;" d="M516.943,47.133c0-9.194,0.285-17.535-0.118-25.843
		c-0.207-4.265,1.7-4.466,4.953-4.373c3.026,0.086,5.172-0.18,5.128,4.252c-0.242,24.317-0.163,48.638-0.059,72.957
		c0.015,3.283-0.147,5.353-4.39,4.984c-3.279-0.285-6.518,0.305-5.536-4.683c0.114-0.583-0.051-1.222-0.146-2.856
		c-4.203,5.735-9.222,8.604-15.413,9.298c-10.937,1.227-19.995-4.227-24.439-14.964c-3.829-9.252-4.024-18.838-1.539-28.412
		C481.096,35.481,504.519,32.149,516.943,47.133z M516.943,69.713c-0.009-7.133-1.295-12.581-3.962-16.718
		c-6.146-9.531-19.655-9.613-25.129,0.33c-5.822,10.577-5.829,21.845,0.031,32.401c5.507,9.923,19.051,9.786,25.124,0.203
		C516.139,80.988,516.949,75.438,516.943,69.713z"/>
	<path style="fill-rule:evenodd;clip-rule:evenodd;fill:#067DCC;" d="M151.14,20.397c0.384-0.146,0.531-0.243,0.683-0.254
		c9.913-0.712,9.891-0.703,13.316,8.421c7.058,18.801,14.143,37.593,21.237,56.445c2.101-0.681,2.009-2.628,2.549-4.05
		c6.6-17.381,13.122-34.793,19.67-52.194c3.502-9.306,3.508-9.303,14.228-8.485c-3.966,10.461-7.878,20.787-11.795,31.11
		c-5.536,14.59-11.134,29.156-16.56,43.787c-0.981,2.645-2.027,3.984-5.223,3.921c-8.31-0.163-8.303,0.033-11.356-7.995
		c-8.439-22.188-16.892-44.369-25.329-66.558C152.04,23.176,151.609,21.772,151.14,20.397z"/>
	<path style="fill-rule:evenodd;clip-rule:evenodd;fill:#077DCD;" d="M396.143,82.647c1.227,10.516,0.855,11.183-7.814,14.965
		c-26.858,11.722-53.304-4.272-55.199-33.528c-0.781-12.054,0.968-23.586,8.857-33.41c13.184-16.417,38.878-15.119,52.533-6.736
		c4.283,2.629,1.407,7.127,2.098,11.724c-6.267-4.156-12.049-7.098-18.687-8.232c-18.076-3.091-31.079,6.66-33.19,24.878
		c-0.679,5.864-0.61,11.666,0.428,17.395c3.222,17.751,18.95,26.389,37.175,20.725C387.352,88.871,391.549,85.97,396.143,82.647z"/>
	<path style="fill-rule:evenodd;clip-rule:evenodd;fill:#067CCC;" d="M557.311,70.894c-4.188-0.103-4.484,1.146-3.72,4.769
		c2.441,11.575,9.105,17.382,20.815,17.264c3.466-0.035,6.985-0.447,10.374-1.18c3.365-0.728,6.599-2.076,10.289-3.282
		c0.759,8.775,0.739,8.698-7.082,10.688c-8.193,2.084-16.43,2.785-24.647,0.549c-15.501-4.219-23.396-19.908-19.562-38.489
		c3.634-17.614,19.147-27.032,36.423-22.113c11.581,3.297,20.613,18.956,17.544,30.212c-0.699,2.565-2.583,1.635-4.004,1.644
		 M570.76,63.015c0-0.01,0-0.019,0-0.028c4.642,0,9.287-0.119,13.923,0.047c2.573,0.093,3.525-0.535,3.071-3.319
		c-1.336-8.198-7.4-13.604-15.718-13.713c-9.47-0.126-16.729,5.436-18.175,13.673c-0.478,2.719,0.291,3.497,2.978,3.391
		C561.474,62.883,566.119,63.015,570.76,63.015z"/>
	<path style="fill-rule:evenodd;clip-rule:evenodd;fill:#067DCC;" d="M462.078,69.755c-0.132,2.326-0.063,4.684-0.428,6.973
		c-2.542,15.954-12.515,24.612-27.795,24.249c-14.332-0.34-24.141-10.161-25.709-26.014c-0.457-4.624-0.468-9.289,0.465-13.928
		c3.154-15.68,12.921-23.675,28.268-23.008c13.783,0.6,23.571,10.656,24.957,25.732c0.183,1.98,0.025,3.992,0.025,5.99
		C461.934,69.752,462.006,69.753,462.078,69.755z M451.951,69.438c-0.247-5.376-0.881-10.625-3.606-15.371
		c-2.952-5.141-7.297-8.067-13.351-8.056c-6.025,0.013-10.731,2.694-13.328,8.026c-5.011,10.29-5.287,20.952,0.124,31.081
		c5.749,10.765,20.167,10.604,26.406,0.079C451.083,80.329,451.711,74.912,451.951,69.438z"/>
</g>
</svg>
