<?xml version="1.0" encoding="utf-8"?>
<!-- Generator: Adobe Illustrator 16.0.0, SVG Export Plug-In . SVG Version: 6.00 Build 0)  -->
<!DOCTYPE svg PUBLIC "-//W3C//DTD SVG 1.1//EN" "http://www.w3.org/Graphics/SVG/1.1/DTD/svg11.dtd">
<svg version="1.1"
	 id="svg8" xmlns:inkscape="http://www.inkscape.org/namespaces/inkscape" xmlns:dc="http://purl.org/dc/elements/1.1/" xmlns:rdf="http://www.w3.org/1999/02/22-rdf-syntax-ns#" xmlns:sodipodi="http://sodipodi.sourceforge.net/DTD/sodipodi-0.dtd" xmlns:cc="http://creativecommons.org/ns#" xmlns:svg="http://www.w3.org/2000/svg" inkscape:version="1.0.1 (3bc2e813f5, 2020-09-07)" sodipodi:docname="regla lapiz.svg"
	 xmlns="http://www.w3.org/2000/svg" xmlns:xlink="http://www.w3.org/1999/xlink" x="0px" y="0px" width="3518.65px"
	 height="797.84px" viewBox="-1358.65 1532.939 3518.65 797.84" enable-background="new -1358.65 1532.939 3518.65 797.84"
	 xml:space="preserve">
<g id="layer2" inkscape:label="Capa 2" inkscape:groupmode="layer">
	<g id="g2648" transform="rotate(-90,508.00006,508.00005)">
		<path id="rect2369" fill="#2DED1C" d="M-759.251,2021.549h-329.69c-66.879,0-121.096-54.217-121.096-121.098l-0.001-3063.203
			c0-66.88,54.217-121.097,121.097-121.097h329.69c66.88,0,121.097,54.217,121.097,121.097v3063.203
			C-638.155,1967.332-692.371,2021.549-759.251,2021.549z"/>
		<g id="g2581">
			<path id="rect2537" fill="#1A1A1A" d="M-645.36,1910.549h-140.069c-5.892,0-10.667-4.775-10.667-10.666v-26.391
				c0-5.893,4.775-10.668,10.667-10.668h140.069c5.892,0,10.667,4.775,10.667,10.668v26.391
				C-634.693,1905.773-639.468,1910.549-645.36,1910.549z"/>
			<path id="rect2539" fill="#1A1A1A" d="M-645.36,313.883h-140.069c-5.892,0-10.667-4.776-10.667-10.667v-26.391
				c0-5.892,4.775-10.667,10.667-10.667h140.069c5.892,0,10.667,4.775,10.667,10.667v26.391
				C-634.693,309.107-639.468,313.883-645.36,313.883z"/>
			<path id="rect2541" fill="#1A1A1A" d="M-645.36,1765.398h-140.069c-5.892,0-10.667-4.777-10.667-10.668v-26.391
				c0-5.891,4.775-10.666,10.667-10.666h140.069c5.892,0,10.667,4.775,10.667,10.666v26.391
				C-634.693,1760.621-639.468,1765.398-645.36,1765.398z"/>
			<path id="rect2543" fill="#1A1A1A" d="M-645.36,168.731h-140.069c-5.892,0-10.667-4.775-10.667-10.666v-26.391
				c0-5.892,4.775-10.667,10.667-10.667h140.069c5.892,0,10.667,4.775,10.667,10.667v26.391
				C-634.693,163.956-639.468,168.731-645.36,168.731z"/>
			<path id="rect2545" fill="#1A1A1A" d="M-645.36,1620.246h-140.069c-5.892,0-10.667-4.775-10.667-10.666v-26.391
				c0-5.893,4.775-10.668,10.667-10.668h140.069c5.892,0,10.667,4.775,10.667,10.668v26.391
				C-634.693,1615.471-639.468,1620.246-645.36,1620.246z"/>
			<path id="rect2547" fill="#1A1A1A" d="M-645.36,23.58h-140.069c-5.892,0-10.667-4.775-10.667-10.666v-26.392
				c0-5.891,4.775-10.666,10.667-10.666h140.069c5.892,0,10.667,4.775,10.667,10.666v26.392
				C-634.693,18.804-639.468,23.58-645.36,23.58z"/>
			<path id="rect2549" fill="#1A1A1A" d="M-645.36,1475.094h-140.069c-5.892,0-10.667-4.775-10.667-10.666v-26.391
				c0-5.891,4.775-10.666,10.667-10.666h140.069c5.892,0,10.667,4.775,10.667,10.666v26.391
				C-634.693,1470.318-639.468,1475.094-645.36,1475.094z"/>
			<path id="rect2551" fill="#1A1A1A" d="M-645.36-121.572h-140.069c-5.892,0-10.667-4.775-10.667-10.666v-26.392
				c0-5.891,4.775-10.666,10.667-10.666h140.069c5.892,0,10.667,4.775,10.667,10.666v26.392
				C-634.693-126.347-639.468-121.572-645.36-121.572z"/>
			<path id="rect2553" fill="#1A1A1A" d="M-645.36,1329.943h-270.397c-5.891,0-10.667-4.775-10.667-10.666v-26.393
				c0-5.891,4.776-10.666,10.667-10.666h270.397c5.892,0,10.667,4.775,10.667,10.666v26.393
				C-634.693,1325.168-639.468,1329.943-645.36,1329.943z"/>
			<path id="rect2555" fill="#1A1A1A" d="M-645.36-266.723h-270.398c-5.891,0-10.666-4.775-10.666-10.667v-26.391
				c0-5.891,4.775-10.666,10.666-10.666h270.398c5.892,0,10.667,4.775,10.667,10.666v26.391
				C-634.693-271.499-639.468-266.723-645.36-266.723z"/>
			<path id="rect2557" fill="#1A1A1A" d="M-645.36,1184.791h-140.069c-5.892,0-10.667-4.775-10.667-10.666v-26.391
				c0-5.891,4.775-10.666,10.667-10.666h140.069c5.892,0,10.667,4.775,10.667,10.666v26.391
				C-634.693,1180.016-639.468,1184.791-645.36,1184.791z"/>
			<path id="rect2559" fill="#1A1A1A" d="M-645.36-411.875h-140.069c-5.892,0-10.667-4.775-10.667-10.666v-26.392
				c0-5.891,4.775-10.666,10.667-10.666h140.069c5.892,0,10.667,4.775,10.667,10.666v26.392
				C-634.693-416.65-639.468-411.875-645.36-411.875z"/>
			<path id="rect2561" fill="#1A1A1A" d="M-645.36,1039.64h-140.069c-5.892,0-10.667-4.775-10.667-10.667v-26.391
				c0-5.891,4.775-10.666,10.667-10.666h140.069c5.892,0,10.667,4.775,10.667,10.666v26.391
				C-634.693,1034.865-639.468,1039.64-645.36,1039.64z"/>
			<path id="rect2563" fill="#1A1A1A" d="M-645.36-557.026h-140.069c-5.892,0-10.667-4.775-10.667-10.667v-26.391
				c0-5.891,4.775-10.666,10.667-10.666h140.069c5.892,0,10.667,4.775,10.667,10.666v26.391
				C-634.693-561.801-639.468-557.026-645.36-557.026z"/>
			<path id="rect2565" fill="#1A1A1A" d="M-645.36,894.489h-140.069c-5.892,0-10.667-4.775-10.667-10.666v-26.392
				c0-5.891,4.775-10.667,10.667-10.667h140.069c5.892,0,10.667,4.776,10.667,10.667v26.392
				C-634.693,889.713-639.468,894.489-645.36,894.489z"/>
			<path id="rect2567" fill="#1A1A1A" d="M-645.36-702.177h-140.069c-5.892,0-10.667-4.775-10.667-10.666v-26.392
				c0-5.891,4.775-10.666,10.667-10.666h140.069c5.892,0,10.667,4.775,10.667,10.666v26.392
				C-634.693-706.953-639.468-702.177-645.36-702.177z"/>
			<path id="rect2569" fill="#1A1A1A" d="M-645.36,749.337h-140.069c-5.892,0-10.667-4.775-10.667-10.667V712.28
				c0-5.891,4.775-10.667,10.667-10.667h140.069c5.892,0,10.667,4.776,10.667,10.667v26.391
				C-634.693,744.562-639.468,749.337-645.36,749.337z"/>
			<path id="rect2571" fill="#1A1A1A" d="M-645.36-847.329h-140.069c-5.892,0-10.667-4.775-10.667-10.667v-26.391
				c0-5.891,4.775-10.666,10.667-10.666h140.069c5.892,0,10.667,4.775,10.667,10.666v26.391
				C-634.693-852.104-639.468-847.329-645.36-847.329z"/>
			<path id="rect2573" fill="#1A1A1A" d="M-645.36,604.186h-263.781c-5.891,0-10.666-4.775-10.666-10.667v-26.391
				c0-5.892,4.775-10.667,10.666-10.667h263.781c5.892,0,10.667,4.775,10.667,10.667v26.391
				C-634.693,599.411-639.468,604.186-645.36,604.186z"/>
			<path id="rect2575" fill="#1A1A1A" d="M-645.36-992.48h-263.781c-5.891,0-10.667-4.775-10.667-10.666v-26.392
				c0-5.891,4.776-10.666,10.667-10.666h263.781c5.892,0,10.667,4.775,10.667,10.666v26.392
				C-634.693-997.255-639.468-992.48-645.36-992.48z"/>
			<path id="rect2577" fill="#1A1A1A" d="M-645.36,459.035h-140.069c-5.892,0-10.667-4.776-10.667-10.667v-26.391
				c0-5.892,4.775-10.667,10.667-10.667h140.069c5.892,0,10.667,4.775,10.667,10.667v26.391
				C-634.693,454.258-639.468,459.035-645.36,459.035z"/>
			<path id="rect2579" fill="#1A1A1A" d="M-645.36-1137.631h-140.069c-5.892,0-10.667-4.775-10.667-10.667v-26.391
				c0-5.891,4.775-10.666,10.667-10.666h140.069c5.892,0,10.667,4.775,10.667,10.666v26.391
				C-634.693-1142.407-639.468-1137.631-645.36-1137.631z"/>
		</g>
	</g>
</g>
</svg>
