<?xml version="1.0" encoding="utf-8"?>
<!-- Generator: Adobe Illustrator 16.0.0, SVG Export Plug-In . SVG Version: 6.00 Build 0)  -->
<!DOCTYPE svg PUBLIC "-//W3C//DTD SVG 1.1//EN" "http://www.w3.org/Graphics/SVG/1.1/DTD/svg11.dtd">
<svg version="1.1" id="Layer_1" xmlns="http://www.w3.org/2000/svg" xmlns:xlink="http://www.w3.org/1999/xlink" x="0px" y="0px"
	 width="100px" height="100px" viewBox="0 0 100 100" enable-background="new 0 0 100 100" xml:space="preserve">




<path fill="#FFFFFF" stroke="#006838" stroke-width="9" stroke-linecap="round" stroke-miterlimit="1" d="M24.666,23.977
	C31.208,17.605,40.146,13.681,50,13.681c9.344,0,17.863,3.528,24.299,9.325"/>
<path fill="#FFFFFF" stroke="#D7DF23" stroke-width="9" stroke-linecap="round" stroke-miterlimit="1" d="M26.237,77.467
	C18.546,70.807,13.681,60.972,13.681,50c0-10.205,4.209-19.426,10.985-26.023"/>
<path fill="#FFFFFF" stroke="#27AAE1" stroke-width="9" stroke-linecap="round" stroke-miterlimit="1" d="M78.732,72.22
	c-6.644,8.578-17.043,14.1-28.732,14.1c-9.086,0-17.394-3.337-23.763-8.853"/>
<path fill="#FFFFFF" stroke="#ED1C24" stroke-width="9" stroke-linecap="round" stroke-miterlimit="1" d="M74.299,23.006
	C81.679,29.654,86.319,39.285,86.319,50c0,8.369-2.831,16.078-7.587,22.22"/>



	
</svg>
