<?xml version="1.0" encoding="utf-8"?>
<!-- Generator: Adobe Illustrator 16.0.0, SVG Export Plug-In . SVG Version: 6.00 Build 0)  -->
<!DOCTYPE svg PUBLIC "-//W3C//DTD SVG 1.1//EN" "http://www.w3.org/Graphics/SVG/1.1/DTD/svg11.dtd">
<svg version="1.1" xmlns="http://www.w3.org/2000/svg" xmlns:xlink="http://www.w3.org/1999/xlink" x="0px" y="0px" width="100px"
	 height="100px" viewBox="0 0 100 100" enable-background="new 0 0 100 100" xml:space="preserve">
<g id="red">
	<path display="none" fill="none" stroke="#ED1C24" stroke-width="5" stroke-miterlimit="10" d="M77.929,78.499
		C70.731,85.553,60.874,89.902,50,89.902c-22.038,0-39.902-17.865-39.902-39.902c0-22.038,17.865-39.902,39.902-39.902
		c10.874,0,20.731,4.349,27.929,11.403"/>
	<path fill="none" stroke="#ED1C24" stroke-width="5" stroke-linecap="round" stroke-miterlimit="10" d="M77.929,21.5
		c7.39,7.242,11.974,17.335,11.974,28.5s-4.584,21.258-11.974,28.499"/>
</g>
<g id="white_1_">
	<path fill="none" stroke="#F1F2F2" stroke-width="5" stroke-miterlimit="10" d="M73.694,82.109
		C67.068,87.007,58.872,89.902,50,89.902c-22.038,0-39.902-17.865-39.902-39.902c0-22.038,17.865-39.902,39.902-39.902
		c8.872,0,17.067,2.896,23.693,7.793"/>
</g>
</svg>
